<svg xmlns="http://www.w3.org/2000/svg" xmlns:xlink="http://www.w3.org/1999/xlink" viewBox="0 0 4680 3120"><defs><style>.cls-1,.cls-79{fill:none;}.cls-2{isolation:isolate;}.cls-11,.cls-12,.cls-3{fill:#fff;}.cls-4{fill:#b4cdd6;opacity:0.33;}.cls-5{fill:#ebf6f8;}.cls-6{opacity:0.55;}.cls-7{fill:#b0daf4;}.cls-8{fill:#659ec1;}.cls-9{fill:#82b4d7;}.cls-10{fill:#f3f9ff;}.cls-11,.cls-69{opacity:0.3;}.cls-12{opacity:0.84;}.cls-13{opacity:0.57;}.cls-14{fill:#81b7dd;}.cls-15{fill:#4e8fb7;}.cls-16{fill:#e0d6ca;}.cls-17{fill:#c9bcad;}.cls-18{fill:#f7ece2;}.cls-19{fill:#f4e9dc;}.cls-20{fill:#bfb6ac;}.cls-21{fill:#f4e8d9;}.cls-22{fill:#66615b;}.cls-23{fill:#4f4a44;}.cls-24{fill:#7a756f;}.cls-25{fill:#dbcfc3;}.cls-26{fill:#efe5da;}.cls-27{fill:#4c4843;}.cls-28{fill:#878077;}.cls-29{fill:#d5e2e1;}.cls-30{fill:#c6f7f4;}.cls-31{fill:#243b7f;}.cls-32{fill:#e9fffd;}.cls-33{fill:#c8e8e4;}.cls-34{fill:#acd8e2;}.cls-35{fill:#d0e0ad;}.cls-36{fill:#93b2b1;}.cls-37{opacity:0.56;}.cls-38{fill:#2b041a;}.cls-39{fill:#440a29;}.cls-40{fill:#181f4c;}.cls-41{fill:#243875;}.cls-42{fill:#f1b5ab;}.cls-43{fill:#ff9087;}.cls-44{fill:#e8aba3;}.cls-45{fill:#ed847e;}.cls-46{fill:#18203d;}.cls-47{fill:#222254;}.cls-48{opacity:0.47;}.cls-49{fill:#f89739;}.cls-50{fill:#e67225;}.cls-51{fill:#36313f;}.cls-52{fill:#6b507f;}.cls-53{fill:#cdb9ba;}.cls-54{fill:#877575;}.cls-55{fill:#cbbadd;}.cls-56{fill:#463654;}.cls-56,.cls-60{opacity:0.5;}.cls-56,.cls-66,.cls-70{mix-blend-mode:multiply;}.cls-57{fill:#6c5e7a;}.cls-58{fill:#726387;}.cls-59{fill:#af99c9;}.cls-60{fill:#f0e6ff;mix-blend-mode:overlay;}.cls-61{fill:#151219;}.cls-62{fill:#d1d1d1;}.cls-63{fill:#bba9a9;}.cls-64,.cls-70{opacity:0.4;}.cls-65{clip-path:url(#clip-path);}.cls-67,.cls-68,.cls-69{fill:#c1bcb0;}.cls-67,.cls-71{opacity:0.6;}.cls-70{fill:#ada8a3;}.cls-72{clip-path:url(#clip-path-2);}.cls-73{fill:#e5e5e5;}.cls-74{fill:#5b1436;}.cls-75{fill:#99d3dd;}.cls-76,.cls-78,.cls-81{fill:#5dc9d3;}.cls-77{fill:#a4deea;}.cls-78{opacity:0.53;}.cls-79{stroke:#231f20;stroke-miterlimit:10;}.cls-80{fill:#3eb1b7;}.cls-81{opacity:0.41;}.cls-82{fill:#92d4dd;}.cls-83{fill:#cff9ff;}.cls-84{fill:#6d1d47;}.cls-85{fill:#33624b;}.cls-86{fill:#224031;}.cls-87{fill:#219c7f;}.cls-88{opacity:0.8;}.cls-89{fill:#fec513;}.cls-90{fill:#f89921;}.cls-91{fill:#bfdbf5;}.cls-92{fill:#a6cce8;}</style><clipPath id="clip-path"><polygon class="cls-1" points="1441.96 1883.73 1766.62 1882.12 1929.81 2572.77 1605.12 2574.37 1441.96 1883.73"/></clipPath><clipPath id="clip-path-2"><polygon class="cls-1" points="3119.52 1878.63 2794.82 1876.99 2645.3 2583 2970.01 2584.64 3119.52 1878.63"/></clipPath></defs><title>04</title><g class="cls-2"><g id="Layer_2" data-name="Layer 2"><g id="Layer_1-2" data-name="Layer 1"><g id="_04" data-name="04"><rect class="cls-3" width="4680" height="3120"/><ellipse class="cls-4" cx="2414.84" cy="2593.33" rx="961.84" ry="131.73"/><rect class="cls-5" width="4680" height="2400"/><g class="cls-6"><rect class="cls-7" x="1157.27" y="2012.26" width="28.37" height="291.45" transform="translate(2342.9 4315.97) rotate(180)"/><rect class="cls-8" x="1185.64" y="2033.45" width="27.3" height="270.26" transform="translate(2398.57 4337.16) rotate(180)"/><rect class="cls-7" x="1262.84" y="2033.45" width="27.3" height="270.26" transform="translate(2552.97 4337.16) rotate(180)"/><rect class="cls-9" x="1212.93" y="2060.26" width="49.9" height="243.45" transform="translate(2475.77 4363.97) rotate(180)"/><rect class="cls-3" x="1220.92" y="2067.96" width="33.93" height="56.17"/><rect class="cls-8" x="1417.75" y="2033.45" width="27.3" height="270.26" transform="translate(2862.8 4337.16) rotate(180)"/><rect class="cls-7" x="1390.45" y="2018.84" width="27.3" height="284.87" transform="translate(2808.21 4322.55) rotate(180)"/><rect class="cls-9" x="1350.46" y="2077.66" width="40" height="226.05" transform="translate(2740.91 4381.37) rotate(180)"/><rect class="cls-9" x="1510.44" y="2037.94" width="27.3" height="270.26" transform="translate(2742.85 4530.97) rotate(-172.29)"/><rect class="cls-3" x="1445.05" y="2060.26" width="49.9" height="243.45" transform="translate(2940.01 4363.97) rotate(180)"/><rect class="cls-3" x="1290.14" y="2051.28" width="33.25" height="252.43" transform="translate(2613.53 4354.99) rotate(180)"/><rect class="cls-8" x="1323.13" y="2064.7" width="27.32" height="239.01" transform="translate(2673.59 4368.41) rotate(180)"/><rect class="cls-7" x="1124.3" y="1089.59" width="32.97" height="1309.6"/><rect class="cls-7" x="1551.76" y="1089.59" width="32.97" height="1309.6"/><rect class="cls-9" x="1157.27" y="1220.8" width="394.49" height="36.36"/><rect class="cls-9" x="1157.27" y="1478.31" width="394.49" height="36.36"/><rect class="cls-9" x="1157.27" y="1701.65" width="394.49" height="36.36"/><rect class="cls-9" x="1157.27" y="1944.25" width="394.49" height="36.36"/><rect class="cls-9" x="1157.27" y="2303.71" width="394.49" height="36.36"/><rect class="cls-8" x="1515.57" y="876.84" width="36.18" height="343.96"/><rect class="cls-7" x="1525.59" y="892.35" width="16.16" height="314.05"/><rect class="cls-9" x="1462.82" y="901.84" width="52.76" height="318.95"/><rect class="cls-8" x="1293.94" y="935.22" width="47.58" height="287.63" transform="matrix(0.91, 0.42, -0.42, 0.91, 567.92, -450.18)"/><rect class="cls-7" x="1399.16" y="933.49" width="63.66" height="287.31"/><rect class="cls-10" x="1409.15" y="982.76" width="43.33" height="186.19"/><rect class="cls-8" x="1340.46" y="1511.58" width="36.18" height="343.96" transform="translate(3042.11 325.01) rotate(90)"/><rect class="cls-9" x="1319.67" y="1479.61" width="52.76" height="318.95" transform="translate(2985.14 293.04) rotate(90)"/><rect class="cls-11" x="1198.23" y="1624.81" width="125.78" height="30.5"/><rect class="cls-7" x="1326.72" y="1437.23" width="63.66" height="287.31" transform="translate(2939.43 222.34) rotate(90)"/><rect class="cls-10" x="1362.99" y="1560.93" width="125.78" height="39.91"/></g><polygon class="cls-12" points="3527.39 1040.96 3058.57 2414.86 4091.32 2408.83 3776.2 988.91 3527.39 1040.96"/><g class="cls-13"><rect class="cls-14" x="3656.58" y="1038.03" width="12.23" height="1230.54"/><path class="cls-14" d="M3720.88,2296.93H3604.51c0-25.34,26-45.87,58.18-45.87S3720.88,2271.59,3720.88,2296.93Z"/><rect class="cls-14" x="3573.61" y="2296.93" width="184.48" height="33.13" rx="2.29"/><path class="cls-14" d="M3874.33,1017.17s-28.92,26.06-210.94,26.06-210.95-26.06-210.95-26.06l111.33-250.45H3763Z"/><path class="cls-15" d="M3763,766.72h-2.46c-10.4,167.61-143.67,259.64-286,200.65l-22.14,49.8s28.93,26.06,210.95,26.06,210.94-26.06,210.94-26.06Z"/></g><path class="cls-16" d="M2745.49,1863.32H2680.7C2706.34,1832.69,2736.12,1821.64,2745.49,1863.32Z"/><path class="cls-17" d="M2733.81,1848.48c-8,4-14.13,9.6-16.95,14.84H2680.7c21.19-25.32,45.2-37.22,58.19-17.07A50.68,50.68,0,0,0,2733.81,1848.48Z"/><path class="cls-18" d="M2734.22,1840.73c-4.38,8.11-16.3,16.5-32.3,22.59H2680.7C2699.56,1840.79,2720.65,1828.88,2734.22,1840.73Z"/><path class="cls-16" d="M2691.3,1863.46c3.46-3,13.76-10.59,11.17-11.24s-13.19,11.24-13.19,11.24Z"/><polygon class="cls-16" points="2338.24 1846.35 2486.33 1846.35 2485.87 1862.8 2281.32 1862.8 2283.17 1853.9 2338.24 1846.35"/><polygon class="cls-19" points="2334.51 1846.86 2338.24 1846.35 2419.32 1846.35 2428.16 1862.8 2343.08 1862.8 2334.51 1846.86"/><polygon class="cls-20" points="2486.33 1846.35 2486.1 1862.8 2384.58 1862.8 2385.5 1853.9 2486.33 1846.35"/><path class="cls-16" d="M2220.06,1860.35h-87.41S2205.3,1681,2220.06,1860.35Z"/><path class="cls-21" d="M2190.28,1826.49a264.77,264.77,0,0,0,2.12,33.86h-59.75s35.18-86.84,61.56-79.21A250.53,250.53,0,0,0,2190.28,1826.49Z"/><path class="cls-22" d="M2162.4,1817.12c6.09-13.42,17.27-21.45,25-17.95s9,17.2,2.93,30.61-17.27,21.47-25,18S2156.31,1830.53,2162.4,1817.12Z"/><path class="cls-23" d="M2163.57,1817.66c5.58-12.28,15.82-19.63,22.87-16.43,3.12,1.41,5.09,4.66,5.83,8.89-4.53,2.86-8.95,8.07-12,14.75-3.12,6.85-4.11,13.79-3.17,19.14-3.79,2.39-7.66,3.15-10.88,1.69C2159.19,1842.5,2158,1829.94,2163.57,1817.66Z"/><path class="cls-24" d="M2173.72,1824.17c1.36-4.21,3.88-7.16,5.64-6.59s2.1,4.44.75,8.64-3.88,7.16-5.64,6.59S2172.37,1828.37,2173.72,1824.17Z"/><path class="cls-22" d="M2151.42,1843.48c.49-1.56,1.6-2.6,2.47-2.31s1.22,1.79.74,3.35-1.59,2.6-2.48,2.31S2150.94,1845.05,2151.42,1843.48Z"/><path class="cls-22" d="M2170.25,1798.12c.48-1.56,1.59-2.6,2.47-2.31s1.21,1.79.73,3.35-1.59,2.6-2.47,2.31S2169.77,1799.69,2170.25,1798.12Z"/><path class="cls-22" d="M2194.23,1797.86c.48-1.56,1.59-2.6,2.47-2.31s1.21,1.79.73,3.35-1.58,2.6-2.47,2.32S2193.75,1799.43,2194.23,1797.86Z"/><path class="cls-22" d="M2184.07,1847.38c.48-1.57,1.59-2.6,2.47-2.32s1.21,1.79.73,3.35-1.59,2.6-2.47,2.32S2183.59,1848.94,2184.07,1847.38Z"/><path class="cls-16" d="M2107.05,1860.35h-87.41S2092.3,1681,2107.05,1860.35Z"/><path class="cls-21" d="M2077.28,1826.49a264.77,264.77,0,0,0,2.12,33.86h-59.76s35.19-86.84,61.56-79.21A251.48,251.48,0,0,0,2077.28,1826.49Z"/><path class="cls-22" d="M2049.4,1817.12c6.09-13.42,17.26-21.45,25-17.95s9,17.2,2.93,30.61-17.27,21.47-25,18S2043.3,1830.53,2049.4,1817.12Z"/><path class="cls-23" d="M2050.57,1817.66c5.57-12.28,15.81-19.63,22.87-16.43,3.11,1.41,5.08,4.66,5.84,8.89-4.54,2.86-9,8.07-12,14.75-3.11,6.85-4.11,13.79-3.16,19.14-3.79,2.39-7.66,3.15-10.88,1.69C2046.19,1842.5,2045,1829.94,2050.57,1817.66Z"/><path class="cls-24" d="M2060.72,1824.17c1.35-4.21,3.88-7.16,5.64-6.59s2.1,4.44.74,8.64-3.87,7.16-5.63,6.59S2059.37,1828.37,2060.72,1824.17Z"/><path class="cls-22" d="M2038.42,1843.48c.48-1.56,1.59-2.6,2.48-2.31s1.2,1.79.72,3.35-1.59,2.6-2.47,2.31S2037.94,1845.05,2038.42,1843.48Z"/><path class="cls-22" d="M2057.24,1798.12c.48-1.56,1.59-2.6,2.48-2.31s1.21,1.79.73,3.35-1.59,2.6-2.48,2.31S2056.76,1799.69,2057.24,1798.12Z"/><path class="cls-22" d="M2081.23,1797.86c.48-1.56,1.59-2.6,2.47-2.31s1.21,1.79.73,3.35-1.59,2.6-2.47,2.32S2080.75,1799.43,2081.23,1797.86Z"/><path class="cls-22" d="M2071.07,1847.38c.48-1.57,1.59-2.6,2.47-2.32s1.21,1.79.73,3.35-1.59,2.6-2.47,2.32S2070.59,1848.94,2071.07,1847.38Z"/><polygon class="cls-20" points="2641.23 1862.24 2608.68 1739.64 2554.95 1746.45 2559.5 1840.3 2508.03 1857.7 2508.78 1862.24 2641.23 1862.24"/><polygon class="cls-16" points="2636.61 1862.24 2604.07 1739.64 2550.34 1746.45 2554.88 1840.3 2503.41 1857.7 2504.17 1862.24 2636.61 1862.24"/><polygon class="cls-20" points="2553.36 1805.45 2551.05 1746.45 2607.54 1739.64 2630.76 1825.05 2553.36 1805.45"/><path class="cls-20" d="M2783.64,1743.18a35.9,35.9,0,0,1-8.35,23.61,27.07,27.07,0,0,1-20.46,9.8H2399.47c-15.91,0-28.8-14.83-28.8-33.12V1508.21c0-18.29,12.89-33.12,28.8-33.12h353.59c15.81,0,28.67,14.65,28.81,32.83Z"/><path class="cls-25" d="M2550.62,1524.67c-64.88,0-126.07,7.77-179.95,21.52v-38c0-18.29,12.89-33.12,28.8-33.12h353.59c15.81,0,28.67,14.65,28.81,32.83l.41,54.08C2717.41,1538.54,2637.31,1524.67,2550.62,1524.67Z"/><path class="cls-16" d="M2766.86,1743.18a36.83,36.83,0,0,1-8,23.61c-5.19,6.28-12.26,9.8-19.63,9.8H2398.3c-15.26,0-27.63-14.82-27.63-33.12V1508.21c0-18.29,12.37-33.12,27.63-33.12h339.22c15.18,0,27.51,14.65,27.64,32.84Z"/><path class="cls-26" d="M2370.67,1508.21c0-18.29,12.37-33.12,27.63-33.12h60.85l249.07,301.5H2509.74l-139.07-245Z"/><path class="cls-27" d="M2370.67,1719.61v-211.4c0-18.29,12.37-33.12,27.63-33.12h339.22c15.18,0,27.51,14.65,27.64,32.84l1.53,211.68Z"/><path class="cls-28" d="M2734.48,1719.61,2370.67,1557v-48.81c0-18.29,12.37-33.12,27.63-33.12h4.19l363.91,204,.29,40.55Z"/><path class="cls-29" d="M2379.39,1506.6c0-9.7,6.77-20.48,15.13-20.48h344.85c9.11,0,16.5,11.5,16.5,22.08v209.61H2379.39Z"/><rect class="cls-22" x="2532.46" y="1738.28" width="55.78" height="8.21"/><rect class="cls-30" x="2402.45" y="1519.77" width="90.08" height="98.88"/><rect class="cls-30" x="2528.73" y="1541.87" width="187.07" height="127.8"/><rect class="cls-30" x="2487.2" y="1701.09" width="148.6" height="13.26"/><path class="cls-31" d="M2493.54,1699.94c0-4.62,4.06-8.36,9.08-8.36s9.08,3.74,9.08,8.36-4.06,8.36-9.08,8.36S2493.54,1704.56,2493.54,1699.94Z"/><polygon class="cls-31" points="2525.82 1691.01 2532.17 1691.01 2534.76 1706.86 2523.23 1706.86 2525.82 1691.01"/><polygon class="cls-31" points="2551.05 1693.88 2560.57 1693.88 2560.14 1706.86 2548.03 1706.86 2551.05 1693.88"/><rect class="cls-31" x="2572.67" y="1694.32" width="13.84" height="11.82"/><rect class="cls-31" x="2600.78" y="1694.32" width="13.84" height="11.82"/><rect class="cls-32" x="2531.02" y="1544.85" width="182.76" height="19.6"/><rect class="cls-32" x="2531.02" y="1572.53" width="182.76" height="91.09"/><rect class="cls-32" x="2405.9" y="1522.94" width="83.6" height="91.09"/><rect class="cls-33" x="2663.05" y="1577.42" width="47.13" height="50.59"/><rect class="cls-34" x="2559.35" y="1579.77" width="34.07" height="36.58"/><rect class="cls-35" x="2536.78" y="1579.77" width="17.73" height="36.58"/><rect class="cls-33" x="2604.24" y="1577.42" width="52.32" height="3.89"/><rect class="cls-33" x="2604.24" y="1586.51" width="52.32" height="3.89"/><rect class="cls-33" x="2604.24" y="1596.88" width="52.32" height="3.89"/><rect class="cls-33" x="2604.24" y="1605.96" width="52.32" height="3.89"/><rect class="cls-33" x="2604.24" y="1618.07" width="52.32" height="3.89"/><rect class="cls-33" x="2604.24" y="1627.15" width="52.32" height="3.89"/><rect class="cls-33" x="2604.24" y="1647.91" width="52.32" height="3.89"/><rect class="cls-33" x="2604.24" y="1656.99" width="52.32" height="3.89"/><rect class="cls-33" x="2534.62" y="1647.91" width="60.1" height="3.89"/><rect class="cls-33" x="2534.62" y="1656.99" width="60.1" height="3.89"/><rect class="cls-33" x="2534.62" y="1628.88" width="60.1" height="3.89"/><rect class="cls-33" x="2534.62" y="1637.96" width="60.1" height="3.89"/><rect class="cls-36" x="2407.64" y="1526.26" width="80.43" height="52.75"/><rect class="cls-33" x="2408.07" y="1597.17" width="76.97" height="12.97"/><g class="cls-37"><polygon class="cls-3" points="2540.74 1486.13 2755.87 1680.21 2755.87 1717.81 2665.21 1717.81 2465.17 1486.13 2540.74 1486.13"/><path class="cls-3" d="M2379.39,1506.6a22.53,22.53,0,0,1,.18-2.7l146,213.91H2421.34l-42-69.28Z"/></g><path class="cls-38" d="M3186.49,1419.32s-37.33,46.74-37.36,50.9,9.81,66.3,9.81,66.3,30-1.4,47.9-15.41,51.07-57,51.07-57Z"/><path class="cls-39" d="M3215.91,1437.53c2.34,1.4,17.28,33.62-3.74,61.64s-53.23,37.35-53.23,37.35l40.63,9.34s46.69-.46,57-31.75S3215.91,1437.53,3215.91,1437.53Z"/><path class="cls-38" d="M3043,1445.47s39.76,34.55,30.45,62.57-20,57-20,57l68.17-3.28,6.07-102.72Z"/><path class="cls-39" d="M3034.26,1432.39s36.42,38.76,22.88,77S3046,1572,3046,1572h18.12S3122.05,1469.75,3034.26,1432.39Z"/><polygon points="3090.69 2094.5 3162.76 2094.5 3154.37 2296.73 3099.08 2296.73 3090.69 2094.5"/><polygon points="3146.14 2261.07 3141.11 2478.95 3112.34 2478.95 3107.3 2261.07 3146.14 2261.07"/><path class="cls-40" d="M3196.83,2126.44c16.54-3.79,33.83-6.26,50.56-8.65,19.81-2.82,40.3-5.75,60.55-10.92,74-18.91,129.86-79.08,149.35-160.94,10.23-42.92,9.6-91.07-1.76-135.6-8.11-31.81-22-54.89-35.48-77.2-5.21-8.65-10.59-17.58-15.51-26.85-12.57-23.71-31.86-69-19.86-105.9l-33.88-17.73c-17.59,54.11,3,111.21,23.33,149.58,5.53,10.44,11.26,19.94,16.81,29.14,12.63,21,23.54,39.05,29.72,63.27,9.08,35.6,9.63,73.9,1.55,107.84-15.53,65.19-60.95,113.34-121.5,128.81-18.7,4.78-37.51,7.46-57.42,10.3-17.32,2.47-35.23,5-53,9.09Z"/><ellipse class="cls-40" cx="3131.27" cy="2107.31" rx="150.6" ry="74.13"/><path class="cls-41" d="M2933.31,2055.05c0,31.34,88.63,56.74,198,56.74s198-25.4,198-56.74-88.63-21.86-198-21.86S2933.31,2023.72,2933.31,2055.05Z"/><ellipse class="cls-41" cx="3358.43" cy="1613" rx="120.67" ry="162.32" transform="translate(1700.33 4949.39) rotate(-89.23)"/><rect class="cls-41" x="3039.21" y="2461.6" width="175.03" height="21.29"/><path d="M3072.78,2510.26c0,16.8-10.74,30.41-24,30.41s-24-13.61-24-30.41,10.74-30.41,24-30.41S3072.78,2493.46,3072.78,2510.26Z"/><path d="M3150.7,2510.26c0,16.8-10.74,30.41-24,30.41s-24-13.61-24-30.41,10.73-30.41,24-30.41S3150.7,2493.46,3150.7,2510.26Z"/><path d="M3228.62,2510.26c0,16.8-10.73,30.41-24,30.41s-24-13.61-24-30.41,10.73-30.41,24-30.41S3228.62,2493.46,3228.62,2510.26Z"/><path class="cls-42" d="M3049.75,2119.92c.2,35.35,4.42,89.13-6.72,155.23-.19,1.1-.38,2.22-.56,3.33-17.17,105.22-18.62,265.11-50.87,285,0,0,29,8.31,34.61-.57s50.25-82.69,50.25-82.69-16.92-19.83-9.26-44.11c4.5-14.3,20.07-40.56,37.18-83.5h0a712.54,712.54,0,0,0,34.84-115.92c12.31-57.72,16.14-95,16.88-118,.74-23.36-1.72-31.86-1.72-31.86l-16.09-8.47L3109.08,2063s-.07,0-.08,0a0,0,0,0,0,0,0s-33.27-3.24-51.33,14.95C3051,2084.61,3049.65,2099.06,3049.75,2119.92Z"/><path class="cls-43" d="M3109.08,2063c2.19,1.53,37.4,26.76,31.36,66.1-6.23,40.6-16.91,165.1-36.09,223.55l0,0h0a712.54,712.54,0,0,0,34.84-115.92c12.31-57.72,16.14-95,16.88-118-6.66-18.17-12.59-31.15-17.81-40.33Z"/><path class="cls-44" d="M3103.37,1474s9.64,66.46,5,67.87-25.46,4-25.46,4,26.72,42,66.25,27.4,59.29-25.22,59.29-25.22l-41.64-9.71c-3.77-8.88-2.39-79.94-2.39-79.94Z"/><path class="cls-45" d="M3177.54,1540.84s-26.33,41.15-52.21,24.17-26.77-21.35-26.77-21.35l-15.68,2.2s21,61,64.18,38.46,43.26-40.7,43.26-40.7Z"/><path class="cls-45" d="M3164.18,1475.65s-36.17,45.55-56.2,35.24l-2.15-18.58,58.45-27.08Z"/><path class="cls-46" d="M3064.34,2456.3a108.27,108.27,0,0,1-3.17,14c-4.18,12.8-11.29,24.59-17.38,36.33-6.6,12.71-12.59,25.81-19.31,38.43-3.42,6.43-7.42,11.55-14.42,13a29.87,29.87,0,0,1-9.8.41c-2-.25-4.12-1.55-6.06-1.6-1.67,0-3.22,1.19-4.55,2.09-5.12,3.49-9.76,7.77-14.85,11.32-4.45,3.1-9.32,5.14-13.92,7.9-1.44.87-3.48,2-3.87,3.9-.59,2.85,2.28,5.59,4.35,6.66,6.25,3.23,15.22,1.16,21.79.84,13.94-.69,28.52-.28,42.29-3,4.51-.9,9.11-2.3,11.9-6.52,5.19-7.86,6.4-19.24,9.09-28.21,2.27-7.58,5-15.45,9.94-21.5a37.44,37.44,0,0,1,13.08-10.07c1.74-.82,2.53-1.44,3.49.5,1.58,3.19.74,8.78,1,12.31.54,7.12,3,42.93,3.12,45.49.07,1-.23,3.69.3,4.57.69,1.14-.17.48,1.64.73.88.12,5.23.26,6-.38,1.1-.95.05-8.16,0-10.18q-.33-10.67-.17-21.33c.18-13.64,0-27.74,2.47-41.16,2-11,4.49-20.41,3.27-31.87-.64-6.06-1.93-12.42-5-17.64-4.41-7.52-12.55-12.91-18.9-18.26Z"/><path class="cls-42" d="M3056.36,1262.57s-24.9,28.64-22.41,54.79,1.25,56.66-3.74,69.74-15.56,36.11,0,56,49.19,49.81,69.74,50.43,99.62-43,106.47-69.73-71.05-173.09-92.19-171.84S3056.36,1262.57,3056.36,1262.57Z"/><path class="cls-45" d="M3073.45,1266.91s24.08-1,20.25,45,47.41,106.72,65.24,116.3,21,26,21,26,25.37-13.75,23.55-34.9S3153.77,1246.38,3125,1252A306.66,306.66,0,0,0,3073.45,1266.91Z"/><path class="cls-38" d="M3046.3,1276.64s39.64-19.67,54.58-7.53c0,0-9-34.24-33.93-28.95S3046.3,1276.64,3046.3,1276.64Z"/><path class="cls-47" d="M3185.74,1542.75s-34.79,34-58.09,29.26-34.27-27.58-34.27-27.58-52.58,3.92-75.31,9.22-34.55,25.21-34.55,25.21-13.7,21.64-23.51,88.41-19.14,149-19.14,149l56.5-8.41s73.31,49.34,107.56,39.38,117.05-18,117.05-18l43-137.6,61.64-38s-8.72-61.64-47.94-81.57S3185.74,1542.75,3185.74,1542.75Z"/><path class="cls-48" d="M2985.22,1576.35s20.09,41.89,16.35,61.51-47.16,125.34-36,154.19,20.08,68.86,20.08,68.86l268.91-201.82s11.71-56.43,48.69-65.06c0,0-6.86-10.86-15.76-16.44,0,0-39.1,21.82-45.32,62,0,0,0,4.67-9.65,1.55s-112.64,22.11-132,40.79c0,0-2.21,4-6.57-6.54s-22.1-31.13-70.66-43.58c0,0-2.18-2.64-2.49-12.84s-17.88-59.08-17.88-59.08A35.67,35.67,0,0,0,2985.22,1576.35Z"/><path class="cls-49" d="M3295.46,1964.89l-1.12.16L3168.4,1982.2l-160.86,21.91L2982.43,1912s-2.81-153.16,4.67-182.57,19.61-80.32,19.61-80.32c5.13-31.3-15.17-80.09-15.17-80.09-.86-2.12,4.31-4,4.31-4,21.67,39.08,21.28,73.61,21.28,73.61,64.13,3.75,74.72,53.87,74.72,53.87s9-2.18,44.21-21.16,111.44-24.91,111.44-24.91c9.35,10.9,17.43,45.13,17.43,45.13s-2.32,70.18-6.09,118.93v0c-.3,4-.61,7.78-.93,11.41-4.2,46.71,26.43,118.48,35.23,137.95C3294.6,1963.1,3295.46,1964.89,3295.46,1964.89Z"/><path class="cls-50" d="M3303.3,2004.11s-65.29-10-134.9-21.91c-90.54-15.52-188.39-34.28-159.35-38.49,51.36-7.47,124.2-77.51,85.92-81.3s-25.68-51.93-25.68-51.93,43.38-39.7,56.19-37.19c130.44,25.55,139.46-81.73,139.46-81.73l-6.1,118.94c-.3,4-.61,7.78-.93,11.41-4.2,46.71,26.43,118.48,35.23,137.95l1.2,5.19Z"/><path class="cls-47" d="M3264.57,1690.19s18.68,90.28,18.68,94.63c0,0-19-5-56.66,0a175.31,175.31,0,0,1-69.42-5.29s-14.94,34.87-1.56,51.37c0,0,186.79,38.6,198.62,5,0,0,7.47-10.27,2.49-50.12s-30.51-133.55-30.51-133.55h-38.6Z"/><path class="cls-48" d="M3283.62,1786.19s34.24,5.61,43,24.29c0,0,10.59-17.52-47.32-48.3Z"/><rect class="cls-47" x="3093.33" y="1715.5" width="15.64" height="132.85" transform="translate(432.4 -599.28) rotate(11.86)"/><path class="cls-42" d="M3169.22,1822.07s-73.56,5.6-75.66,6.31-20.3-6.53-22.42-11.91-1.85-15.88-1.85-15.88c.08-.9.14-1.78.22-2.65,2.45-26.86,7.9-38.88,13.32-39.92a.07.07,0,0,0,.06,0c5.56-1.08,8.49.21,9.74,5a2.12,2.12,0,0,0,.36.78,6.55,6.55,0,0,0,2.3,1.81c5.63,2.93,17.88,4.11,17.88,4.11l1.1-14a5.62,5.62,0,0,1,2.77.88c6.74,3.56,19.41,17.23,20,23.09.37,4.13,7.86,6.46,13.77,7.64,3.15.63,5.86,1,6.76,1l.33,0Z"/><path class="cls-45" d="M3169.22,1822.07s-73.56,5.6-75.66,6.31-20.3-6.53-22.42-11.91-1.85-15.88-1.85-15.88c.08-.9.14-1.78.22-2.65,2.53-26.7,9.21-36.25,13.32-39.92,0,0,0,0,.06,0,2.75-2.32,13.87-3.85,15.11.92.06.24-2.22,5.52-2.71,6.68l-.1.22c-.22,1.43-.49,2.93-.79,4.48-3.24,16.6-10.63,39.29-10.63,44.56,0,7.7,41.79,5.6,53.92,2.79s12.73-30.4,12.73-30.4l.35.06,6.76,1,.33,0Z"/><path class="cls-45" d="M3115.35,1773.28c-2.83.08-12.81-.09-20.95-3-6.15-2.2-11.24-5.92-11.51-12.28v0c2.75-2.32,13.87-3.85,15.11.92.06.24-2.22,5.52-2.71,6.68,5.63,2.93,17.88,4.11,17.88,4.11l1.1-14a5.62,5.62,0,0,1,2.77.88S3120.81,1773.11,3115.35,1773.28Z"/><path class="cls-49" d="M3295.45,1584.61s-24.39-8.14-50.33,62l3.94,7h3s11.26-43.39,27.25-53.9,20.44-10.28,20.44-10.28Z"/><path class="cls-49" d="M3293.47,2038.16c-.94,1-1.94,1.92-3,2.84-29.87,25.38-97,28.57-97,28.57s6.06,79.6,2.34,159.93c0,0-26.15,0-76.59,11.2S2925,2220.93,2925,2220.93s33.09-229.28,54.85-256,125.72-91.83,315.62,0C3295.46,1964.88,3318.59,2012,3293.47,2038.16Z"/><path class="cls-51" d="M2991.55,1732.36h15.08q-.59-7.09-1-14.19c-1.41-22.69-.29-27.56-4.63-37-5.29-11.56-17.42-20.34-28.54-25.15a68.35,68.35,0,0,0-54.56,0c-11.12,4.81-23.25,13.59-28.54,25.15-4.33,9.48-3.22,14.35-4.63,37q-.42,7.1-1,14.19h15.08c-.4-4.73-.73-9.46-1-14.19-1.33-21.45-2-26.19.61-33.22,3.6-9.54,13.66-17.14,22.86-21.51a56.48,56.48,0,0,1,47.86,0c9.2,4.37,19.26,12,22.86,21.51,2.63,7,1.94,11.77.61,33.22C2992.28,1722.9,2992,1727.63,2991.55,1732.36Z"/><path class="cls-52" d="M3064,1800.89c0,36.18-8.45,65.51-18.87,65.51H2842.51c-5.72,0-10.85-8.83-14.31-22.78-2.84-11.47-4.56-26.41-4.56-42.73,0-36.19,8.45-65.52,18.87-65.52h202.66c7.13,0,13.34,13.73,16.54,34A204.6,204.6,0,0,1,3064,1800.89Z"/><path class="cls-53" d="M3064,1800.89c0,36.18-8.45,65.51-18.87,65.51H2842.51c-5.72,0-10.85-8.83-14.31-22.78-2.84-11.47-4.56-26.41-4.56-42.73,0-36.19,8.45-65.52,18.87-65.52h202.66c7.13,0,13.34,13.73,16.54,34A204.6,204.6,0,0,1,3064,1800.89Z"/><path class="cls-54" d="M3061.85,1770.24c-3.46-14.17-8.63-23.17-14.4-23.17H2844.79c-10.42,0-18.87,29.34-18.87,65.52a206.15,206.15,0,0,0,2.18,30.62c-2.78-11.41-4.46-26.19-4.46-42.32,0-32.58,6.85-59.6,15.81-64.67a6.18,6.18,0,0,1,3.06-.85h202.66a6.14,6.14,0,0,1,3,.85c5.83,3.28,10.75,15.83,13.49,33.13C3061.76,1769.64,3061.8,1769.94,3061.85,1770.24Z"/><path class="cls-55" d="M3048.22,1736.22H2839.45a6.18,6.18,0,0,1,3.06-.85h202.66A6.14,6.14,0,0,1,3048.22,1736.22Z"/><path class="cls-56" d="M3064,1800.89c0,36.18-8.45,65.51-18.87,65.51H2842.51c-5.72,0-10.85-8.83-14.31-22.78,65.87-6.86,181.22-25.51,233.51-74.27A204.6,204.6,0,0,1,3064,1800.89Z"/><rect class="cls-51" x="2935" y="1736.22" width="17.71" height="129.43"/><rect class="cls-51" x="2882.29" y="1727.94" width="17.26" height="8.28"/><rect class="cls-56" x="2882.29" y="1727.94" width="17.26" height="8.28"/><path class="cls-51" d="M2906.51,1738.65a22.43,22.43,0,0,1-1.33,7.7c-2.4,6.66-7.81,11.3-14.1,11.3s-11.71-4.64-14.11-11.3a22.67,22.67,0,0,1-1.32-7.7,23.64,23.64,0,0,1,.28-3.6h30.3A23.64,23.64,0,0,1,2906.51,1738.65Z"/><path class="cls-56" d="M2905.18,1746.35c-2.4,6.66-7.81,11.3-14.1,11.3s-11.71-4.64-14.11-11.3Z"/><rect class="cls-51" x="2990.65" y="1727.94" width="17.26" height="8.28"/><rect class="cls-56" x="2990.65" y="1727.94" width="17.26" height="8.28"/><path class="cls-51" d="M3014.87,1738.65a22.67,22.67,0,0,1-1.32,7.7c-2.4,6.66-7.82,11.3-14.11,11.3s-11.71-4.64-14.11-11.3a22.67,22.67,0,0,1-1.32-7.7,23.64,23.64,0,0,1,.28-3.6h30.3A23.64,23.64,0,0,1,3014.87,1738.65Z"/><path class="cls-56" d="M3013.55,1746.35c-2.4,6.66-7.82,11.3-14.11,11.3s-11.71-4.64-14.11-11.3Z"/><rect class="cls-57" x="2942.74" y="1736.22" width="2.51" height="130.18"/><path class="cls-58" d="M2960.34,1735.36h0a.54.54,0,0,1-.54-.53v-1.59a.54.54,0,0,1,.54-.54h0a.54.54,0,0,1,.53.54v1.59A.53.53,0,0,1,2960.34,1735.36Z"/><path class="cls-59" d="M2963.71,1735.35a1,1,0,0,0-.92-1H2958a1,1,0,0,0-.92,1h6.66Z"/><path class="cls-56" d="M2962.94,1734.39H2960a.94.94,0,0,1,.91,1h2.93A.94.94,0,0,0,2962.94,1734.39Z"/><path class="cls-59" d="M2961,1733.08l-.27-.22-.33.29,5.63,11h3.77l1.15-3.24Zm7.55,9.51c-.88.61-1.86.72-2.2.24s.11-1.37,1-2,1.86-.72,2.2-.23S2969.41,1742,2968.53,1742.59Z"/><path class="cls-60" d="M2968.52,1742.6c-.87.6-1.85.71-2.19.23s.08-1.29.88-1.89l-6.23-7.86-.27-.22-.33.29,5.63,11h3.77Z"/><path class="cls-61" d="M2963.51,1735.07l-1.42,1.42,3.92,7.7h3.77l1.15-3.24Zm5,7.52c-.88.61-1.86.72-2.2.24s.11-1.37,1-2,1.86-.72,2.2-.23S2969.41,1742,2968.53,1742.59Z"/><path class="cls-58" d="M2960.34,1735.36h0a.54.54,0,0,1-.54-.53v-1.59a.54.54,0,0,1,.54-.54h0a.54.54,0,0,1,.53.54v1.59A.53.53,0,0,1,2960.34,1735.36Z"/><path class="cls-59" d="M2963.71,1735.35a1,1,0,0,0-.92-1H2958a1,1,0,0,0-.92,1h6.66Z"/><path class="cls-56" d="M2962.94,1734.39H2960a.94.94,0,0,1,.91,1h2.93A.94.94,0,0,0,2962.94,1734.39Z"/><path class="cls-59" d="M2961,1733.08l-.27-.22-.33.29,5.63,11h3.77l1.15-3.24Zm7.55,9.51c-.88.61-1.86.72-2.2.24s.11-1.37,1-2,1.86-.72,2.2-.23S2969.41,1742,2968.53,1742.59Z"/><path class="cls-60" d="M2968.52,1742.6c-.87.6-1.85.71-2.19.23s.08-1.29.88-1.89l-6.23-7.86-.27-.22-.33.29,5.63,11h3.77Z"/><path class="cls-61" d="M2963.51,1735.07l-1.42,1.42,3.92,7.7h3.77l1.15-3.24Zm5,7.52c-.88.61-1.86.72-2.2.24s.11-1.37,1-2,1.86-.72,2.2-.23S2969.41,1742,2968.53,1742.59Z"/><path class="cls-58" d="M2926.64,1735.36h0a.53.53,0,0,0,.53-.53v-1.59a.54.54,0,0,0-.53-.54h0a.54.54,0,0,0-.54.54v1.59A.54.54,0,0,0,2926.64,1735.36Z"/><path class="cls-59" d="M2923.26,1735.35a1,1,0,0,1,.92-1H2929a1,1,0,0,1,.92,1h-6.66Z"/><path class="cls-56" d="M2924,1734.39H2927a1,1,0,0,0-.92,1h-2.92A.94.94,0,0,1,2924,1734.39Z"/><path class="cls-59" d="M2916,1741l1.16,3.24H2921l5.63-11-.33-.29-.28.22Zm1.42-.33c.34-.49,1.32-.38,2.2.23s1.32,1.49,1,2-1.31.37-2.19-.24S2917.12,1741.1,2917.45,1740.62Z"/><path class="cls-60" d="M2918.45,1742.6c.87.6,1.85.71,2.18.23s-.07-1.29-.87-1.89l6.22-7.86.28-.22.33.29-5.63,11h-3.77Z"/><path class="cls-61" d="M2916,1741l1.15,3.24H2921l3.92-7.7-1.42-1.42Zm1.41-.33c.34-.49,1.32-.38,2.2.23s1.32,1.49,1,2-1.31.37-2.19-.24S2917.12,1741.1,2917.45,1740.62Z"/><polygon class="cls-62" points="2758.64 1864.73 3105.39 1864.73 2968.36 2591.54 2621.61 2591.54 2758.64 1864.73"/><polygon class="cls-62" points="1424.28 1864.73 1771.03 1864.73 1941.74 2591.54 1595 2591.54 1424.28 1864.73"/><polygon class="cls-63" points="1441.96 1883.73 1770.76 1882.12 1936.09 2581.34 1607.24 2582.94 1441.96 1883.73"/><g class="cls-64"><g class="cls-65"><g class="cls-66"><polygon class="cls-67" points="1548.46 2160.24 1554.65 2155.53 1549.78 2150.55 1543.59 2155.25 1548.46 2160.24"/><polygon class="cls-68" points="1768.81 2176.42 1775.02 2171.71 1770.16 2166.74 1763.97 2171.45 1768.81 2176.42"/><polygon class="cls-68" points="1662.34 2251.73 1665.52 2245.06 1658.77 2242.42 1655.53 2249.1 1662.34 2251.73"/><polygon class="cls-67" points="1735.75 2296.32 1738.95 2289.65 1732.12 2287.01 1728.91 2293.7 1735.75 2296.32"/><polygon class="cls-69" points="1815.49 2358.7 1809.76 2353.33 1804.43 2357.74 1810.11 2363.12 1815.49 2358.7"/><polygon class="cls-67" points="1710.95 2360.75 1705.27 2355.39 1699.89 2359.8 1705.59 2365.17 1710.95 2360.75"/><polygon class="cls-67" points="1598.08 2289.51 1592.39 2284.15 1587.01 2288.56 1592.7 2293.94 1598.08 2289.51"/><polygon class="cls-68" points="1766.61 2370.22 1760.93 2364.84 1755.57 2369.25 1761.26 2374.62 1766.61 2370.22"/><polygon class="cls-68" points="1751.91 2018.99 1759.64 2016.51 1757 2010.36 1749.3 2012.86 1751.91 2018.99"/><polygon class="cls-68" points="1437.17 2084.55 1445.16 2086.45 1446.98 2080.16 1438.98 2078.25 1437.17 2084.55"/><polygon class="cls-68" points="1763.26 1966.45 1770.94 1963.98 1768.32 1957.84 1760.58 1960.32 1763.26 1966.45"/><polygon class="cls-67" points="1479.68 2162.01 1487.73 2163.92 1489.5 2157.63 1481.49 2155.72 1479.68 2162.01"/><polygon class="cls-68" points="1583.55 2004.82 1587.67 1998.56 1581.26 1995.21 1577.14 2001.47 1583.55 2004.82"/><polygon class="cls-68" points="1714.29 1868.2 1718.42 1861.93 1712.02 1858.58 1707.91 1864.84 1714.29 1868.2"/><polygon class="cls-67" points="1531.25 1979.67 1539.27 1978.04 1537.45 1971.68 1529.44 1973.31 1531.25 1979.67"/><polygon class="cls-69" points="1573.41 2051.03 1577.52 2044.78 1571.13 2041.42 1567.01 2047.68 1573.41 2051.03"/><polygon class="cls-68" points="1629.13 2048.47 1633.24 2042.21 1626.86 2038.86 1622.73 2045.13 1629.13 2048.47"/><polygon class="cls-69" points="1589.47 1911.95 1597.5 1910.32 1595.72 1903.96 1587.67 1905.59 1589.47 1911.95"/><polygon class="cls-68" points="1633.53 1959.92 1641.53 1958.28 1639.74 1951.92 1631.74 1953.56 1633.53 1959.92"/><polygon class="cls-68" points="1666.21 1906.71 1674.45 1907.65 1675.25 1901.19 1667.01 1900.25 1666.21 1906.71"/><polygon class="cls-68" points="1718.02 2384 1715.73 2376.97 1708.64 2378.69 1710.94 2385.71 1718.02 2384"/><polygon class="cls-68" points="1667.47 2306.9 1665.17 2299.85 1658.08 2301.57 1660.41 2308.61 1667.47 2306.9"/><polygon class="cls-68" points="1771.11 1917.14 1779.33 1918.08 1780.15 1911.62 1771.94 1910.67 1771.11 1917.14"/><polygon class="cls-68" points="1754.76 1988.14 1763 1989.08 1763.81 1982.61 1755.6 1981.68 1754.76 1988.14"/><polygon class="cls-67" points="1721.75 1941.66 1729.96 1942.61 1730.81 1936.13 1722.58 1935.2 1721.75 1941.66"/><polygon class="cls-68" points="1665.38 2018.77 1671.6 2014.06 1666.74 2009.1 1660.52 2013.81 1665.38 2018.77"/><polygon class="cls-68" points="1713.66 2152.72 1719.85 2148 1714.98 2143.03 1708.78 2147.74 1713.66 2152.72"/><polygon class="cls-68" points="1707.92 2212.2 1711.09 2205.53 1704.3 2202.89 1701.1 2209.58 1707.92 2212.2"/><polygon class="cls-67" points="1862.89 2522.58 1871.11 2522.06 1870.47 2515.56 1862.24 2516.08 1862.89 2522.58"/><polygon class="cls-68" points="1935.81 2532.5 1944.03 2531.98 1943.36 2525.47 1935.15 2526.01 1935.81 2532.5"/><polygon class="cls-68" points="1594.64 2098.76 1600.72 2103.8 1605.73 2099.09 1599.64 2094.07 1594.64 2098.76"/><polygon class="cls-68" points="1577.14 2137.14 1583.19 2142.18 1588.22 2137.47 1582.14 2132.42 1577.14 2137.14"/><polygon class="cls-67" points="1840.31 2257.01 1848.09 2259.63 1850.62 2253.52 1842.84 2250.92 1840.31 2257.01"/><polygon class="cls-69" points="1555.72 2383.55 1563.75 2381.92 1561.97 2375.55 1553.92 2377.2 1555.72 2383.55"/><polygon class="cls-68" points="1519.75 2421.45 1527.81 2419.82 1525.98 2413.46 1517.97 2415.09 1519.75 2421.45"/><polygon class="cls-68" points="1606.39 2436.1 1614.39 2434.46 1612.64 2428.11 1604.58 2429.75 1606.39 2436.1"/><polygon class="cls-68" points="1519.51 2311.28 1527.53 2309.66 1525.73 2303.28 1517.7 2304.93 1519.51 2311.28"/><polygon class="cls-67" points="1489.74 2346.64 1497.77 2345.01 1495.98 2338.64 1487.97 2340.29 1489.74 2346.64"/><polygon class="cls-67" points="1598.01 2362.56 1606.04 2360.92 1604.27 2354.57 1596.25 2356.2 1598.01 2362.56"/><polygon class="cls-68" points="1870.34 2391.72 1876.98 2387.47 1872.55 2382.18 1865.93 2386.42 1870.34 2391.72"/><polygon class="cls-68" points="1749.72 2432.3 1755.46 2427.16 1750.16 2422.54 1744.41 2427.67 1749.72 2432.3"/><polygon class="cls-68" points="1840.17 2430.25 1846.81 2426 1842.38 2420.69 1835.76 2424.95 1840.17 2430.25"/><polygon class="cls-68" points="1690.27 2481 1696.03 2475.84 1690.71 2471.24 1685.01 2476.37 1690.27 2481"/><polygon class="cls-69" points="1818.97 2288.8 1827.09 2287.59 1825.74 2281.15 1817.62 2282.35 1818.97 2288.8"/><polygon class="cls-68" points="1853.38 2223.58 1861.36 2225.64 1863.32 2219.38 1855.38 2217.31 1853.38 2223.58"/><polygon class="cls-68" points="1707.47 2243.33 1713.83 2238.74 1709.07 2233.67 1702.74 2238.26 1707.47 2243.33"/><polygon class="cls-68" points="1754.63 2110.94 1757.83 2104.28 1751.05 2101.64 1747.82 2108.31 1754.63 2110.94"/><polygon class="cls-68" points="1800.19 2071.42 1803.37 2064.74 1796.59 2062.11 1793.38 2068.79 1800.19 2071.42"/><polygon class="cls-68" points="1799.77 2102.55 1806.13 2097.97 1801.37 2092.89 1795.04 2097.47 1799.77 2102.55"/><polygon class="cls-69" points="1759.05 2286.09 1765.4 2281.51 1760.65 2276.43 1754.31 2281.02 1759.05 2286.09"/><polygon class="cls-68" points="1443.8 2183.1 1449.98 2178.38 1445.12 2173.41 1438.9 2178.13 1443.8 2183.1"/><polygon class="cls-68" points="1475.67 2227.82 1481.86 2223.13 1476.99 2218.14 1470.77 2222.84 1475.67 2227.82"/><polygon class="cls-67" points="1773.77 2232.56 1780.11 2227.98 1775.38 2222.89 1769.03 2227.46 1773.77 2232.56"/><polygon class="cls-67" points="1586.86 1880.04 1583.42 1871.83 1576.64 1874.63 1580.09 1882.79 1586.86 1880.04"/><polygon class="cls-69" points="1627.92 1871.96 1621.16 1866.5 1616.88 1872.59 1623.67 1878.07 1627.92 1871.96"/><polygon class="cls-68" points="1550.33 1895.89 1546.3 1887.99 1539.8 1891.36 1543.82 1899.24 1550.33 1895.89"/><polygon class="cls-67" points="1614.55 1951.7 1606.28 1950.27 1605.5 1957.99 1613.76 1959.41 1614.55 1951.7"/><polygon class="cls-68" points="1654.12 2135.66 1660.19 2140.72 1665.18 2136.02 1659.12 2130.96 1654.12 2135.66"/><polygon class="cls-68" points="1906.39 2484.92 1914.63 2484.39 1913.99 2477.88 1905.73 2478.42 1906.39 2484.92"/><polygon class="cls-67" points="1621.93 2150.72 1628.04 2155.76 1633.04 2151.06 1626.96 2146 1621.93 2150.72"/><polygon class="cls-68" points="1823.65 2482.27 1815.42 2482.81 1816.09 2489.31 1824.32 2488.77 1823.65 2482.27"/><polygon class="cls-68" points="1776.56 2530.49 1768.35 2531.03 1769.02 2537.53 1777.25 2537 1776.56 2530.49"/><polygon class="cls-68" points="1788.06 2577.13 1780.06 2578.77 1781.8 2585.12 1789.84 2583.49 1788.06 2577.13"/><polygon class="cls-67" points="1674.2 2425.59 1669.85 2431.72 1676.11 2435.27 1680.52 2429.16 1674.2 2425.59"/><polygon class="cls-68" points="1725.72 2416.99 1721.36 2423.12 1727.6 2426.66 1731.98 2420.55 1725.72 2416.99"/><polygon class="cls-68" points="1624.2 2512.07 1619.87 2518.2 1626.1 2521.76 1630.48 2515.62 1624.2 2512.07"/><polygon class="cls-69" points="1702.94 2481.03 1698.57 2487.17 1704.85 2490.72 1709.23 2484.58 1702.94 2481.03"/></g></g></g><polygon class="cls-70" points="1429.11 1889.26 1768.19 1882.12 1845.08 2199.53 1429.11 1889.26"/><polygon class="cls-62" points="1425.91 1864.23 2937.27 1864.23 2937.62 1901.07 1436.82 1901.07 1425.91 1864.23"/><polygon class="cls-62" points="1605.42 2577.4 2937.32 2577.4 2937.62 2591.54 1619.99 2591.54 1605.42 2577.4"/><polygon class="cls-63" points="2775.86 1864.73 3119.09 1864.73 2983.44 2591.54 2640.22 2591.54 2775.86 1864.73"/><g class="cls-71"><g class="cls-72"><g class="cls-66"><polygon class="cls-67" points="3018.49 2161.29 3012.2 2156.48 3016.97 2151.39 3023.26 2156.19 3018.49 2161.29"/><polygon class="cls-68" points="2798.45 2177.83 2792.15 2173.02 2796.91 2167.93 2803.21 2172.75 2798.45 2177.83"/><polygon class="cls-68" points="2906.43 2254.82 2903.12 2248 2909.8 2245.31 2913.17 2252.14 2906.43 2254.82"/><polygon class="cls-67" points="2833.89 2300.4 2830.56 2293.59 2837.34 2290.89 2840.68 2297.73 2833.89 2300.4"/><polygon class="cls-69" points="2755.39 2364.17 2761 2358.68 2766.44 2363.2 2760.85 2368.68 2755.39 2364.17"/><polygon class="cls-67" points="2859.96 2366.27 2865.54 2360.78 2871.01 2365.3 2865.42 2370.79 2859.96 2366.27"/><polygon class="cls-67" points="2971.42 2293.44 2977.01 2287.96 2982.47 2292.46 2976.89 2297.97 2971.42 2293.44"/><polygon class="cls-68" points="2804.5 2375.94 2810.06 2370.45 2815.51 2374.95 2809.94 2380.45 2804.5 2375.94"/><polygon class="cls-68" points="2812.24 2016.89 2804.46 2014.36 2806.99 2008.08 2814.74 2010.63 2812.24 2016.89"/><polygon class="cls-68" points="3128.29 2083.92 3120.32 2085.86 3118.37 2079.43 3126.34 2077.47 3128.29 2083.92"/><polygon class="cls-68" points="2799.86 1963.19 2792.13 1960.66 2794.63 1954.38 2802.4 1956.93 2799.86 1963.19"/><polygon class="cls-67" points="3087.3 2163.11 3079.3 2165.06 3077.4 2158.62 3085.35 2156.67 3087.3 2163.11"/><polygon class="cls-68" points="2980.32 2002.41 2976.08 1996.02 2982.42 1992.6 2986.66 1998.99 2980.32 2002.41"/><polygon class="cls-68" points="2846.87 1862.75 2842.62 1856.34 2848.96 1852.93 2853.21 1859.31 2846.87 1862.75"/><polygon class="cls-67" points="3032.13 1976.71 3024.09 1975.04 3025.75 1968.54 3033.81 1970.21 3032.13 1976.71"/><polygon class="cls-69" points="2991.38 2049.66 2987.14 2043.27 2993.47 2039.83 2997.71 2046.23 2991.38 2049.66"/><polygon class="cls-68" points="2935.6 2047.03 2931.36 2040.64 2937.7 2037.21 2941.94 2043.62 2935.6 2047.03"/><polygon class="cls-69" points="2972.57 1907.48 2964.5 1905.81 2966.17 1899.31 2974.24 1900.98 2972.57 1907.48"/><polygon class="cls-68" points="2929.47 1956.51 2921.42 1954.84 2923.08 1948.33 2931.12 1950.02 2929.47 1956.51"/><polygon class="cls-68" points="2895.72 1902.12 2887.5 1903.09 2886.58 1896.47 2894.79 1895.52 2895.72 1902.12"/><polygon class="cls-68" points="2853.36 2390.03 2855.51 2382.85 2862.63 2384.61 2860.47 2391.79 2853.36 2390.03"/><polygon class="cls-68" points="2902.38 2311.22 2904.55 2304.02 2911.66 2305.77 2909.48 2312.96 2902.38 2311.22"/><polygon class="cls-68" points="2791.03 1912.79 2782.83 1913.74 2781.88 1907.14 2790.08 1906.17 2791.03 1912.79"/><polygon class="cls-68" points="2808.77 1985.37 2800.57 1986.32 2799.62 1979.71 2807.82 1978.76 2808.77 1985.37"/><polygon class="cls-67" points="2840.88 1937.85 2832.68 1938.82 2831.71 1932.19 2839.91 1931.24 2840.88 1937.85"/><polygon class="cls-68" points="2898.76 2016.68 2892.46 2011.86 2897.22 2006.79 2903.52 2011.61 2898.76 2016.68"/><polygon class="cls-68" points="2853.14 2153.61 2846.85 2148.78 2851.62 2143.7 2857.92 2148.52 2853.14 2153.61"/><polygon class="cls-68" points="2860.06 2214.41 2856.76 2207.59 2863.5 2204.89 2866.84 2211.73 2860.06 2214.41"/><polygon class="cls-67" points="2711.23 2531.7 2702.99 2531.17 2703.52 2524.52 2711.75 2525.06 2711.23 2531.7"/><polygon class="cls-68" points="2638.5 2541.84 2630.26 2541.31 2630.82 2534.65 2639.05 2535.2 2638.5 2541.84"/><polygon class="cls-68" points="2971.09 2098.45 2965.11 2103.6 2960.01 2098.79 2966 2093.65 2971.09 2098.45"/><polygon class="cls-68" points="2989.34 2137.68 2983.41 2142.83 2978.27 2138.01 2984.25 2132.85 2989.34 2137.68"/><polygon class="cls-67" points="2728.55 2260.22 2720.83 2262.89 2718.18 2256.65 2725.9 2253.99 2728.55 2260.22"/><polygon class="cls-69" points="3015.64 2389.57 3007.58 2387.91 3009.24 2381.4 3017.31 2383.08 3015.64 2389.57"/><polygon class="cls-68" points="3052.37 2428.32 3044.28 2426.65 3045.97 2420.15 3054.02 2421.82 3052.37 2428.32"/><polygon class="cls-68" points="2966.02 2443.29 2957.98 2441.62 2959.61 2435.12 2967.7 2436.8 2966.02 2443.29"/><polygon class="cls-68" points="3050.43 2315.7 3042.38 2314.03 3044.06 2307.53 3052.1 2309.2 3050.43 2315.7"/><polygon class="cls-67" points="3080.9 2351.84 3072.84 2350.18 3074.49 2343.67 3082.54 2345.35 3080.9 2351.84"/><polygon class="cls-67" points="2972.93 2368.12 2964.88 2366.43 2966.53 2359.95 2974.56 2361.62 2972.93 2368.12"/><polygon class="cls-68" points="2701.17 2397.93 2694.45 2393.59 2698.79 2388.17 2705.48 2392.51 2701.17 2397.93"/><polygon class="cls-68" points="2822.61 2439.41 2816.76 2434.15 2821.97 2429.43 2827.82 2434.68 2822.61 2439.41"/><polygon class="cls-68" points="2732.12 2437.32 2725.41 2432.97 2729.73 2427.54 2736.43 2431.9 2732.12 2437.32"/><polygon class="cls-68" points="2883.03 2489.2 2877.16 2483.92 2882.39 2479.21 2888.2 2484.47 2883.03 2489.2"/><polygon class="cls-69" points="2750.51 2292.71 2742.39 2291.48 2743.59 2284.9 2751.74 2286.12 2750.51 2292.71"/><polygon class="cls-68" points="2714.81 2226.05 2706.88 2228.14 2704.8 2221.75 2712.72 2219.63 2714.81 2226.05"/><polygon class="cls-68" points="2861.13 2246.23 2854.67 2241.55 2859.32 2236.36 2865.74 2241.05 2861.13 2246.23"/><polygon class="cls-68" points="2811.36 2110.89 2808.01 2104.08 2814.74 2101.39 2818.09 2108.21 2811.36 2110.89"/><polygon class="cls-68" points="2765 2070.5 2761.67 2063.67 2768.41 2060.97 2771.76 2067.8 2765 2070.5"/><polygon class="cls-68" points="2766.05 2102.32 2759.59 2097.64 2764.24 2092.44 2770.68 2097.13 2766.05 2102.32"/><polygon class="cls-69" points="2810.39 2289.95 2803.96 2285.26 2808.6 2280.07 2815.03 2284.76 2810.39 2289.95"/><polygon class="cls-68" points="3123.6 2184.66 3117.33 2179.83 3122.09 2174.76 3128.39 2179.58 3123.6 2184.66"/><polygon class="cls-68" points="3092.61 2230.38 3086.34 2225.58 3091.1 2220.49 3097.42 2225.29 3092.61 2230.38"/><polygon class="cls-67" points="2794.62 2235.22 2788.19 2230.54 2792.81 2225.34 2799.24 2230.01 2794.62 2235.22"/><polygon class="cls-67" points="2974.56 1874.86 2977.83 1866.47 2984.66 1869.34 2981.37 1877.67 2974.56 1874.86"/><polygon class="cls-69" points="2933.32 1866.6 2939.97 1861.02 2944.38 1867.25 2937.7 1872.85 2933.32 1866.6"/><polygon class="cls-68" points="3011.39 1891.06 3015.26 1882.98 3021.83 1886.42 3017.97 1894.49 3011.39 1891.06"/><polygon class="cls-67" points="2948.28 1948.11 2956.51 1946.66 2957.43 1954.54 2949.22 1955.99 2948.28 1948.11"/><polygon class="cls-68" points="2912.34 2136.17 2906.37 2141.34 2901.29 2136.53 2907.26 2131.37 2912.34 2136.17"/><polygon class="cls-68" points="2666.97 2493.2 2658.73 2492.66 2659.25 2486 2667.49 2486.55 2666.97 2493.2"/><polygon class="cls-67" points="2944.83 2151.56 2938.82 2156.72 2933.72 2151.91 2939.72 2146.74 2944.83 2151.56"/><polygon class="cls-68" points="2749.67 2490.49 2757.91 2491.04 2757.36 2497.68 2749.13 2497.13 2749.67 2490.49"/><polygon class="cls-68" points="2797.71 2539.79 2805.94 2540.33 2805.39 2546.97 2797.16 2546.44 2797.71 2539.79"/><polygon class="cls-68" points="2787.15 2587.46 2795.17 2589.14 2793.55 2595.63 2785.48 2593.96 2787.15 2587.46"/><polygon class="cls-67" points="2898 2432.55 2902.47 2438.82 2896.29 2442.44 2891.76 2436.19 2898 2432.55"/><polygon class="cls-68" points="2846.31 2423.76 2850.79 2430.03 2844.6 2433.64 2840.11 2427.39 2846.31 2423.76"/><polygon class="cls-68" points="2949.71 2520.96 2954.17 2527.22 2947.99 2530.85 2943.49 2524.59 2949.71 2520.96"/><polygon class="cls-69" points="2870.36 2489.23 2874.84 2495.5 2868.64 2499.12 2864.14 2492.85 2870.36 2489.23"/></g></g></g><polygon class="cls-73" points="1425.91 1864.23 3118.24 1864.23 3116.96 1877.28 1438.15 1877.28 1425.91 1864.23"/><path class="cls-74" d="M2039.18,1376.66s2.66,149.48-38.24,179.11c0,0,44.73,13,67.74-26.6S2039.18,1376.66,2039.18,1376.66Z"/><path class="cls-42" d="M2696.27,1746.45a.06.06,0,0,0,0,0c.07.46.55,4.18-4.55,5.4,0,0-57.82,16.38-75,22.78-1.4.5-2.53,1-3.32,1.34a62.56,62.56,0,0,1-10.53,3.34c-1.61.4-5.33.82-10.48,1.4l-4,.46c-.19,0-.4,0-.61.08-.41,0-.89.11-1.37.15-1.24.17-2.66.33-4.23.5-.79.11-1.59.21-2.38.29h-.06c-16.68,2.14-38.75,5.56-54.85,11.81-22.32,8.68-49.5,21.22-58.48,25.4-2,.92-3.05,1.44-3.05,1.44l-15.81-41.53s59.76-21.74,72.22-39.94,11.5-31,19.17-36.75,21.73-33.55,22-39.61,17.24.31,12.46,17.25-9.08,36.3-3.83,41.55c13.82,13.82,79.47-26.44,95.77-24.54s17.33,4.72,10.62,8.55-55.26,20.78-60.38,29.72a39.16,39.16,0,0,0,11.83,1c5.41-.65,64.21-15.67,75.08,2.87C2702.61,1739.41,2709.42,1743.88,2696.27,1746.45Z"/><path class="cls-43" d="M2691.74,1751.89s-57.82,16.38-75,22.78c-4-7.44,0-17.68,0-17.68a170,170,0,0,0,41-8.16c21.32-7.19,38.48-2.38,38.48-2.38a.06.06,0,0,0,0,0C2696.36,1747,2696.84,1750.67,2691.74,1751.89Z"/><path class="cls-43" d="M2509.93,1791c13.78-2,50.38-6.46,69.88-8.78-16.68,2.14-38.75,5.56-54.85,11.81-22.32,8.68-49.5,21.22-58.48,25.4-6.19-18.21-3.05-36.26-3.05-36.26S2490.77,1793.9,2509.93,1791Z"/><path class="cls-75" d="M2708.36,2067s-31.25-45.13-67.22-18.5c-35.08,25.93-41.52,86.78-98.3,99.51-1.1.21-2.22.43-3.36.68-.37.08-.74.14-1.1.2l-1.13.25c-63.11,12.53-149.6,24.89-183.63,7.32l-.1-.06h0a31.72,31.72,0,0,1-8.26-6c-40.44-41.48-87-153.18-87-153.18s315-59.76,328.32-49.68c4,3,20.72,11.15,42.59,24.42,24.37,14.78,55.16,36,81.85,63.57C2711,2057.72,2708.36,2067,2708.36,2067Z"/><path class="cls-42" d="M2695.55,2430.59s9.46,80.23-3.44,100.64,62.58,137.1,62.58,137.1l38.91-13.1s-46-130.84-45.17-170,.2-74.23.2-74.23Z"/><path class="cls-45" d="M2748.75,2466.59s-16.17,23.28-49.92,12.86l-1-22.61s27.38-9.73,51-13Z"/><path class="cls-76" d="M2708.36,2067s-23.38-60-59.35-33.34c-35.07,25.94-49.39,101.62-106.17,114.35-1.1.21-2.22.43-3.36.68-.37.08-.74.14-1.1.2l-1.13.25c-13.34,3-143.1,31.37-183.63,7.32l-.1-.06h0c-30.86-18.56,163.08-143.67,275.6-184.39,42.36-15.33,73.19-18.68,76.12.11,4.31,27.72,5.67,48.53,5.73,63.46C2711,2057.72,2708.36,2067,2708.36,2067Z"/><path class="cls-77" d="M2778.32,2446.09c-45.13,6.22-106,23.12-106,23.12s-63.36-303.86-62.38-336.56c0,0-28.54,7.54-67.08,15.38,56.78-12.73,63.22-73.58,98.3-99.51,36-26.63,67.22,18.5,67.22,18.5s2.68-9.3,2.59-31.42c29.1,30,53.36,67.76,59.23,113.18,16.11,124.5,16.26,147.67,16.26,147.67l37.32,132.83S2823.48,2439.85,2778.32,2446.09Z"/><path class="cls-42" d="M2166.29,1315.57s48.59,8.13,62.55,43.85c14.13,36.19,15.57,58.56,26.44,65.59s22.36,14.69,13.42,19.17-21.09,12.14-22.37,22.36,3.83,42.82-8.95,49.85-72.21,17.25-72.21,17.25Z"/><path class="cls-42" d="M2851.09,2222.09s73.22,192.57,112.73,207.43-57.31,11.06-78.58-17.95c-64-87.33-55.71-118-55.71-118a232,232,0,0,0-31-65.92C2776,2194.9,2851.09,2222.09,2851.09,2222.09Z"/><path class="cls-38" d="M2194.89,1324s15.55,9.24,21.83,16.85-27.59,46.31-33,77.41S2176,1327.87,2194.89,1324Z"/><path d="M2836.81,2308.94c2.08,5.57,4.05,11.17,7,16.42,8.19,14.8,20.34,27.87,31,41,11.59,14.27,22.4,29.12,34.15,43.26,6,7.2,12.55,12.71,22.74,13.3a49.79,49.79,0,0,0,14-1.25c2.81-.65,5.57-2.61,8.32-3,2.35-.34,4.76.86,6.81,1.73,7.88,3.33,15.21,7.7,23.06,11.11,6.85,3,14.12,4.59,21.14,7.13,2.18.79,5.27,1.77,6.17,4.05,1.33,3.35-2.26,7.19-5,8.86-8.3,5-21.38,4.12-30.75,4.89-19.9,1.64-40.5,4.73-60.52,3.84-6.55-.29-13.33-1.17-18-5.81-8.73-8.62-12.45-22.23-17.85-32.66-4.55-8.8-9.85-17.87-17.88-24.35a55.1,55.1,0,0,0-20.33-9.92c-2.6-.67-3.84-1.29-4.86,1.24-1.68,4.15.5,10.8.74,15.13.48,8.74,3.36,52.69,3.57,55.82.09,1.26,1,4.45.39,5.6-.78,1.52.32.56-2.2,1.18-1.24.31-7.38,1.25-8.54.61-1.73-1-1.51-9.91-1.78-12.37q-1.41-13-3.5-25.95c-2.66-16.54-5-33.7-10.76-49.57-4.77-13.06-10-24-10.24-38.14-.15-7.47.56-15.43,4-22.32,4.94-9.92,15.53-17.92,23.6-25.53Z"/><path class="cls-45" d="M2863.54,2253.37s.56,18.94-38.05,27.5l-12.92-29.7s27.31,0,46.37-9.13Z"/><path class="cls-77" d="M2928.4,2222.58l-40.32,14.51c-4.49,1.62-9.23,3.6-14.11,5.87,0,0,0,0-.06,0-39.07,18.1-87.47,53.48-87.47,53.48s-28.45-61.28-42.72-136.33-67.6-146-77.51-152.07-303.07,211.15-403.45,216.62S2079,2145,2079,2145l227.33-123.84s292.07-108.94,335.72-126.94,90.36,60,108.14,89.1S2928.4,2222.58,2928.4,2222.58Z"/><path class="cls-42" d="M2196.48,1513.83s-3.09,74.45.1,87.23-71-1.6-71-1.6S2137.69,1490.19,2196.48,1513.83Z"/><path class="cls-76" d="M2299.18,2064.35s-111,100.31-93.19,120.76,105.66,27.27,105.66,27.27-99.63,46.78-221.19-56.92Z"/><path class="cls-78" d="M2873.91,2243c-39.07,18.1-87.47,53.48-87.47,53.48s-28.45-61.28-42.72-136.33-67.6-146-77.51-152.07c0,0,26.14-21.49,34.89-9.38S2804.58,2258.53,2873.91,2243Z"/><path class="cls-79" d="M2037.71,1874.25s-70,12.14-101.31-4.48a13.85,13.85,0,0,1-5.22-4.6v0s83.65,13.09,84.13-12.31,6.71-105.91,6.71-105.91S2023.71,1829,2037.71,1874.25Z"/><path class="cls-77" d="M2422.06,1848.06s-81.79,30.66-99,29.38-63.25-67.09-63.25-67.09-3.85,26.21-1.28,83.08S2313.43,2050,2313.43,2050s-24.12,27.51-79,67.18c-16.57,12-36,25.1-58.38,38.9-96.5,59.42-154.65,28.11-154.65,28.11-1.92-35.14,17.89-192.34,24.91-226.22,6.78-32.57-7.42-79.93-8.52-83.51l-.07-.2s-70,12.14-101.31-4.48a13.85,13.85,0,0,1-5.22-4.6c-15.72-23.62,49.22-97.29,80.62-158.35,33.88-65.82,81.64-100.45,81.64-100.45s56.39-6.9,91.95-3.7,49.66,22.24,61,28.28,104.15,166.63,105.43,169.8,40.9-12.77,40.9-12.77C2406.09,1790.53,2422.06,1848.06,2422.06,1848.06Z"/><path class="cls-80" d="M2208.24,1616.86s-112.45-9-124.89-2.24l13.92-12.8Z"/><path class="cls-81" d="M2313.43,2050s-24.12,27.51-79,67.18c0,0,27.93-44.82,29.5-90.19s-21.66-134.19-67.23-287.57l63.07,70.94s-3.85,26.21-1.28,83.08S2313.43,2050,2313.43,2050Z"/><path class="cls-31" d="M2425.26,1778.08l21.41-7.83s30,16.13,35.15,46.49L2451.46,1833Z"/><polygon points="2268.68 2252.5 2196.61 2252.5 2205 2454.73 2260.29 2454.73 2268.68 2252.5"/><polygon points="2213.22 2419.07 2218.26 2636.95 2247.03 2636.95 2252.07 2419.07 2213.22 2419.07"/><path class="cls-40" d="M2162.53,2284.43c-16.53-3.78-33.83-6.25-50.55-8.64-19.81-2.83-40.3-5.75-60.56-10.93-74-18.91-129.85-79.07-149.35-160.94-10.22-42.91-9.59-91.07,1.77-135.6,8.11-31.81,22-54.88,35.47-77.2,5.21-8.64,10.6-17.58,15.52-26.85,12.57-23.7,31.86-69,19.85-105.89l33.89-17.73c17.59,54.1-3,111.2-23.33,149.57-5.54,10.45-11.27,20-16.81,29.14-12.63,21-23.54,39.05-29.72,63.28-9.08,35.6-9.63,73.9-1.55,107.83,15.53,65.19,60.95,113.35,121.5,128.82,18.7,4.77,37.5,7.46,57.42,10.3,17.32,2.47,35.23,5,53,9.09Z"/><ellipse class="cls-40" cx="2228.1" cy="2265.31" rx="150.6" ry="74.13"/><path class="cls-41" d="M2426.05,2213.05c0,31.33-88.63,56.73-198,56.73s-198-25.4-198-56.73,88.63-21.87,198-21.87S2426.05,2181.71,2426.05,2213.05Z"/><ellipse class="cls-41" cx="2000.94" cy="1770.99" rx="162.32" ry="120.67" transform="translate(-23.68 27.12) rotate(-0.77)"/><rect class="cls-41" x="2145.13" y="2619.59" width="175.03" height="21.29" transform="translate(4465.29 5260.48) rotate(180)"/><path d="M2286.59,2668.25c0,16.8,10.74,30.42,24,30.42s24-13.62,24-30.42-10.73-30.41-24-30.41S2286.59,2651.46,2286.59,2668.25Z"/><path d="M2208.67,2668.25c0,16.8,10.73,30.42,24,30.42s24-13.62,24-30.42-10.73-30.41-24-30.41S2208.67,2651.46,2208.67,2668.25Z"/><path d="M2130.74,2668.25c0,16.8,10.74,30.42,24,30.42s24-13.62,24-30.42-10.74-30.41-24-30.41S2130.74,2651.46,2130.74,2668.25Z"/><path class="cls-82" d="M2644.7,2036.07l-176.44,124.57s89.31-7.18,141.66-28C2609.92,2132.65,2598.56,2090,2644.7,2036.07Z"/><path class="cls-83" d="M2376.46,1794.21s-8.39-3.19,0-8,39.53-19.17,48.16-15.33,45.05,57.51,37.87,67.58-44.62,23.49-51.55,13.66,2.66-10.31-9.32-34.27S2376.46,1794.21,2376.46,1794.21Z"/><path class="cls-83" d="M2093,1568.15l-12.9,37.86s129.36-1,166.27,24.93C2246.33,1630.94,2200.32,1584.93,2093,1568.15Z"/><path class="cls-39" d="M2196.58,1324s-15.87,59.47,0,94.62,30.58,138,10.13,149.53-48.57,11.5-48.57,11.5-14.7-265.2,11.5-265.2S2196.58,1324,2196.58,1324Z"/><path class="cls-74" d="M2185.38,1314.45s-26.6,34.51-13.82,95.86,23,170-13.42,175.1-108.64-245.4-63.9-265.85,54.32-21.72,54.32-21.72S2176.82,1292.92,2185.38,1314.45Z"/><path class="cls-39" d="M2112.13,1394.33c-.64,2.56,67.95,141,57.62,184.54,0,0-7.77,15.48-44.2.78s-56.87-17.25-56.87-17.25Z"/><path class="cls-84" d="M2154,1297.35s-59.51,29.26-28.48,139.16-17.48,142.51-45.49,152.73-59.31,5.11-59.31,5.11,60.71-50.48,29.39-125.25-7.67-151.45,57.52-166.15C2107.66,1303,2139.33,1295.39,2154,1297.35Z"/><path class="cls-80" d="M2135.09,2186.21s102.66-60.51,137-98.05c0,0-86.54,70.7-147.21,93Z"/><path class="cls-80" d="M2424.31,2164.73l245.2-153.89s-.35-7.57-10.33-1.22-254.83,158.13-254.83,158.13Z"/><polygon class="cls-80" points="2196.7 1739.41 2258.73 1820.88 2259.76 1810.35 2196.7 1739.41"/><path d="M2702.8,2522.81c.83,5.88,1.55,11.77,3.25,17.52,4.81,16.22,13.86,31.6,21.48,46.78,8.25,16.43,15.6,33.26,24,49.6,4.29,8.32,9.52,15.12,19.35,17.88a49.52,49.52,0,0,0,13.91,1.8c2.89,0,6-1.36,8.78-1.16,2.37.18,4.46,1.87,6.28,3.16,7,5,13.19,10.8,20.12,15.82,6.05,4.38,12.8,7.52,19.1,11.52,2,1.24,4.77,2.86,5.16,5.28.58,3.56-3.75,6.53-6.79,7.57-9.19,3.13-21.76-.58-31.09-1.84-19.77-2.69-40.56-4.11-59.91-9.29-6.35-1.7-12.77-4-16.36-9.55-6.67-10.3-7.38-24.4-10.4-35.74-2.55-9.58-5.77-19.58-12.21-27.63a55,55,0,0,0-17.73-14.07c-2.39-1.22-3.46-2.08-5,.16-2.54,3.69-1.84,10.65-2.54,14.94-1.41,8.64-8.07,52.17-8.53,55.28-.19,1.25,0,4.55-.84,5.55-1.08,1.31.2.62-2.4.68-1.27,0-7.47-.37-8.46-1.25-1.48-1.31.65-10,.92-12.46,1-8.67,1.66-17.38,2.17-26.1,1-16.72,2.42-34,.17-50.71-1.84-13.79-4.55-25.59-1.78-39.46,1.46-7.33,3.86-14.94,8.69-20.93,7-8.63,19-14.16,28.54-19.86Z"/><path class="cls-84" d="M3046.3,1276.64s16.18-44,43.88-21.62,4.48,59.54,21.29,92.54,31.83,56.58,101.17,106.31-4.36,92.62-13.07,92c0,0,55.41,25.53,82.18,11.83s49.81-56,5-112.69-34.24-78.45-34.86-108.34-62.27-130.75-160-111.44C3091.85,1225.22,3028,1228.76,3046.3,1276.64Z"/><path class="cls-50" d="M3293.47,2038.16c-.94,1-1.94,1.92-3,2.84-29.87,25.38-97,28.57-97,28.57l-3.18-37.72C3210.22,2044.37,3293.47,2038.16,3293.47,2038.16Z"/><path class="cls-85" d="M1600.24,1742.5c-.36-.84-.9-67.47-17.83-99.07,0,0-3.16-7.44,0-5.86s15.55,16.36,19.16,30.8,8.15,16.59,14,26.29,6.77,70.86,6.54,71.76-9,1.13-9.48,0S1600.24,1742.5,1600.24,1742.5Z"/><path class="cls-86" d="M1622.1,1766.42c-.06.23-.69.42-1.61.56l-17.15-68.48c-2.32-18.23-6.29-38.41-13.18-52.64,4.42,6,9.33,14.28,11.38,22.51,3.61,14.44,8.15,16.59,14,26.29S1622.33,1765.52,1622.1,1766.42Z"/><path class="cls-85" d="M1625.85,1672.14s-4.62-35.25-4.62-45.86-1.36-33,0-34.07,2-1.13,2,3.83S1638.38,1671,1642,1678s-1.81,14.22,3.38,33.85,22.91,43.56,10.1,41.3-35.15-11.51-31.53-31.14S1625.85,1672.14,1625.85,1672.14Z"/><path class="cls-86" d="M1644.06,1742.5c.41-1.8-5.46-44.23-2.52-57.54s7-19,5.41-37.92,1.58-39.26,3.39-39.71,3.38,16.92,3.38,26.4,2.94,43.55,3.84,49S1644.06,1742.5,1644.06,1742.5Z"/><path class="cls-85" d="M1644.06,1742.5s.86-40.39,10.34-61.61,13.09-50.55,13.09-61.6,5.19-47.08,5.19-49.5,1.13-2.41,2.71,1.65,0,57.32,0,74.7-2.48,35.42-3.72,46.49-20.65,76.22-26.07,74.56-12.41-10.47-10.38-12.73S1644.06,1742.5,1644.06,1742.5Z"/><path class="cls-85" d="M1750.31,1570.09s-1.58-1.13-3.27,1-48.41,71.52-57,92.46l1.36,23.64,16.69-33.4Z"/><path class="cls-87" d="M1622.13,1775.9c-.8-.13-1.65-.3-2.52-.5-1.15-.25-2.33-.55-3.52-.88-5.5-1.54-8.32,2.67-9.95.88-2.25-2.48-15.15-28.83-19.89-35.38s-6.77-16.93-8.12-21.21-8.8-23.93-8.13-27.76c.57-3.19-.3-7-.68-10.13-.55-4.56-1.25-9.1-1.91-13.64-.16-1.13-.71-2.84-.39-3.47.16-.31.54-.36,1.3.09,2.12,1.23,3.65,6,4.61,8.2s2.94,8.34,5.2,11.05a30.36,30.36,0,0,1,5.18,9.48,78.29,78.29,0,0,0,6.1,14c2.48,4.07,12,20.54,14.89,26,1.83,3.37,8.28,19.31,12.9,30.88.17.41.32.82.48,1.22C1620.24,1771.1,1622.13,1775.9,1622.13,1775.9Z"/><path class="cls-87" d="M1645.29,1761.43l-15,14.47-3.3-.23-3.54-.25L1618,1775s-1.61-52.62-5.84-71.75-14.56-69.9-22.51-84.29-20.14-37.57-25.39-43.15c0,0-7.61-6.94-2.88-7.45s19,17.6,22.85,21,19.81,33,23.7,40.62,10.83,18.78,12.35,22.85,8.13,28.94,9.14,32.83,1.36,8.8,3.73,11.68,1.52,5.41,1,8.29,2.88,7.11,3.56,8.46,0,3.22,0,7.28,4.91,7.11,4.06,10.67.17,5.75,1.69,8.29-.67,4.57,0,8.46c.25,1.45.56,3.56.86,5.63.1.76.21,1.52.3,2.24C1645,1759.3,1645.29,1761.43,1645.29,1761.43Z"/><path class="cls-87" d="M1691.77,1681.8s3.25-4.74,3.7-8.13,1.13-2.7,4.06-6.32,2.94-5.64,2.94-7.22.22-1.8,2-3.83,2.48-5.19,2.71-6.77,0,1.58,2-2.26,2-8.58,4.06-9.7,3.84-2.49,4.06-4.07-1.58-3.61,0-5,2.94-.9,3.61-2.48a34,34,0,0,0,1.58-6.1,12.28,12.28,0,0,1,2.94-4.74c.67-.45,1.35-2.7,1.58-4.06s3.75-.67,3.79-2.93-.72-3.84,0-5,2.07-1.12,2.75-2.7-.9-2.94,0-4.52,2.71-1.58,3.16-3.16a12.84,12.84,0,0,1,2-5c1.36-1.81-.45,2.26,2.71-2.94s6.09-13.76,8.8-14.89a5.17,5.17,0,0,1-1.13,3.39c-1.35,2-5.47,10.83-7.84,19.12s-29.17,54.67-36.16,75.21-17.38,44.68-19.19,46.71Z"/><path class="cls-85" d="M1730.86,1641.91s-5.75-.56-12.7,12.81-22.56,46.88-27.28,54.83-10.3,48.24-17.75,54-.34,6.6,5.76,1.52,18.31-37.41,21.51-47.22c2.09-6.43,10.12-34.15,18.26-54.42C1722.94,1652.77,1726.66,1643.68,1730.86,1641.91Z"/><path class="cls-87" d="M1726.84,1648c-7.9,7.9-19,59.57-26.63,89.59s-27.11,35.68-27.76,35.88c-1.36.42-12.64,2.48-12.64,2.48h-.12l1.4-.55.07,0c19.29-8.95,33.86-47.72,35.44-50.88s0-2.93,0-4.71,2.26-1.38,3.39-3.64.9-5.41.68-8.43,1.12-2.4,2.25-4,2-7.9,1.81-10.38.44-3.39,2.71-4.74,2.25-4.74,2.25-8.35,1.13-4.06,3.39-6.09,9.7-24.38,12.86-28.89S1734.74,1640.05,1726.84,1648Z"/><path class="cls-87" d="M1690.28,1715.87c-1.33,6.44-2.66,47.37-29.12,59.46l-.07,0c-.42.19-.84.38-1.28.55h-29.49c.27-.33,4.61-5.77,9.51-12.44,1.59-2.16,3.24-4.47,4.84-6.76a105.84,105.84,0,0,0,8.14-13.28c5-10.61,3.85-12.41,4.3-14.68s1.8-.9,3.38-3.83,1.13-7.67,1.13-9.71,3.39-5.18,4.29-6.77,1.58-10.37,4.51-14.21c.46-.61.88-1.13,1.25-1.59h0c2-2.46,2.84-3.23,4.17-6.08,1.58-3.39,11.73-23,10.83-36.34s1.13-27.76,2.93-27.08,1.81,18.73,2.26,26.4S1691.63,1709.33,1690.28,1715.87Z"/><g class="cls-88"><path class="cls-85" d="M1644.67,1756.69s-7.79,11.85-17.66,19l-3.54-.25c7.21-5.09,17-13.07,20.9-21C1644.47,1755.21,1644.58,1756,1644.67,1756.69Z"/></g><g class="cls-88"><path class="cls-85" d="M1619.61,1775.4c-1.15-.25-2.33-.55-3.52-.88a87.75,87.75,0,0,1,1.11-11.07c.17.41.32.82.48,1.22C1617.93,1766,1619,1772,1619.61,1775.4Z"/></g><path class="cls-85" d="M1681.49,1753.26a93.72,93.72,0,0,1-8.32,10.58c-5.41,5.85-12,11.33-13.36,12.06,0,0,16.28-9.6,25.42-27.66Z"/><g class="cls-71"><path class="cls-86" d="M1730.55,1604.6c0,1,.33,2.14.31,3.63,0,2.26-3.57,1.58-3.8,2.93s-.9,3.61-1.58,4.07a12,12,0,0,0-2.93,4.74,36.1,36.1,0,0,1-1.58,6.09c-.68,1.58-2,1.12-3.61,2.48s.22,3.38,0,5-2,2.93-4.06,4.06-2,5.86-4.07,9.7-1.8.68-2,2.25-.9,4.74-2.7,6.77-2,2.27-2,3.84,0,3.61-2.93,7.23-3.61,2.93-4.06,6.31-3.7,8.13-3.7,8.13l-1,5.44c0-4.1,1.11-14.76,1.19-15.1S1713.66,1634.12,1730.55,1604.6Z"/></g><path class="cls-89" d="M1699.78,1779.32v13.91a1.72,1.72,0,0,1-1.73,1.72h-.13a1.73,1.73,0,0,0-1.7,1.44l-6.2,36.95a36.85,36.85,0,0,1-34.49,30.72c-.62,0-1.25.06-1.88.06h-18.59a36.89,36.89,0,0,1-36.45-31.25l-5.62-36.45a1.73,1.73,0,0,0-.59-1.05,1.68,1.68,0,0,0-1.11-.42,1.72,1.72,0,0,1-1.73-1.72v-13.91a6.3,6.3,0,0,1,6.3-6.29h97.62A6.3,6.3,0,0,1,1699.78,1779.32Z"/><path class="cls-90" d="M1697.92,1795a1.73,1.73,0,0,0-1.7,1.44l-6.2,36.95a36.85,36.85,0,0,1-34.49,30.72c20.2-18.07,19.18-45.51,16.08-56.56s-26.32-12.55-26.32-12.55Z"/><path d="M3109.61,1535s39.35,8.74,55.92-3.3l1.25,6.62s-22.22,10-57.73,2.51Z"/><circle class="cls-49" cx="3132.79" cy="1540.94" r="5.13"/><path class="cls-91" d="M2164.54,1088H1755.36V817.62h409.18Zm-395.78-13.41h382.37V831H1768.76Z"/><path class="cls-92" d="M2510.08,1208.45H2217.61V994.65h292.47ZM2231,1195h265.67v-187H2231Z"/><polygon class="cls-3" points="1925.57 831.03 1768.77 928.82 1768.77 952.8 1953.43 831.03 1925.57 831.03"/><polygon class="cls-3" points="2060.8 831.03 1768.77 1017.34 1768.77 1074.56 2151.13 831.03 2060.8 831.03"/><polygon class="cls-3" points="2151.13 880.47 1861.1 1074.56 1891.97 1074.56 2151.13 899.32 2151.13 880.47"/><polygon class="cls-3" points="2331.26 1008.06 2231.01 1092.94 2231.01 1158.1 2411.79 1008.06 2331.26 1008.06"/><polygon class="cls-3" points="2462.81 1008.06 2239.68 1195.04 2273.48 1195.04 2496.68 1008.06 2462.81 1008.06"/><polygon class="cls-3" points="2496.68 1060.98 2344.17 1195.04 2411.79 1195.04 2496.68 1124.91 2496.68 1060.98"/><path class="cls-77" d="M2905.39,1257a118.45,118.45,0,1,1,16.41-17.43h0s21.92,21.94,37.83,25.79C2959.68,1265.3,2927.59,1263.73,2905.39,1257Z"/><path class="cls-3" d="M2864.79,1193.59c.24.73-.11,1.26-1.06,1.58-.54.18-1.38.41-2.54.7s-2,.52-2.58.71-1.5.56-2.68,1.07-2.08.86-2.68,1.07a1,1,0,0,1-1.46-.73q-1.45-4.26-4.08-12.89t-4.08-12.9c-.41-1.24-1-1.83-1.81-1.77q-1.55.1-16.54,5.18t-16.29,5.93c-.63.43-.74,1.26-.32,2.49q1.41,4.18,4.49,12.5t4.49,12.49c.36,1,.14,1.7-.65,2-.6.2-1.52.46-2.76.77s-2.15.57-2.75.77-1.4.53-2.49,1-1.92.81-2.49,1c-.79.27-1.31,0-1.55-.68q-1.77-5.22-4.81-15.85t-4.81-15.85q-1.86-5.51-6.1-16.37t-6.09-16.37c-.24-.69,0-1.17.83-1.44.57-.19,1.45-.44,2.66-.74s2.1-.56,2.7-.76,1.44-.54,2.61-1,2-.85,2.61-1q1.09-.37,1.38.48,1.38,4.08,3.8,12.39t3.79,12.38c.3.89.82,1.31,1.54,1.28q1.33,0,16.85-5.23,15.18-5.13,16.46-6c.66-.43.8-1.24.4-2.41q-1.35-4-4.32-11.91t-4.33-11.92c-.21-.63,0-1.07.77-1.32s1.5-.45,2.69-.74,2.08-.55,2.68-.75,1.4-.53,2.51-1,1.94-.82,2.51-1c.83-.28,1.36-.07,1.59.62q1.86,5.5,5.12,16.7t5.13,16.69q1.76,5.22,5.83,15.51T2864.79,1193.59Z"/><path class="cls-3" d="M2867.91,1130.5q2,5.84-4.52,8t-8.57-3.6a5.68,5.68,0,0,1,.58-5,7.59,7.59,0,0,1,9.15-3A5.68,5.68,0,0,1,2867.91,1130.5Zm4,13q1.25,3.66,3.29,11.19t3.3,11.23q1.17,3.46,3.65,10.32t3.63,10.27c.23.66.06,1.09-.51,1.28l-9.25,3.14c-.67.22-1.22-.32-1.66-1.61-.74-2.18-1.79-5.49-3.17-9.9s-2.43-7.74-3.18-10q-1.25-3.7-4.3-10.92t-4.31-10.92c-.18-.54.06-.92.73-1.14a25.06,25.06,0,0,1,2.71-.66,21.49,21.49,0,0,0,2.76-.67,22.37,22.37,0,0,0,2.6-1.14,23.15,23.15,0,0,1,2.6-1.14C2871.36,1142.66,2871.73,1142.87,2871.93,1143.47Z"/></g></g></g></g></svg>