<svg xmlns="http://www.w3.org/2000/svg" viewBox="0 0 4680 3120"><defs><style>.cls-1{fill:#fff;}.cls-2{fill:#b4cdd6;opacity:0.33;}.cls-3{fill:#ebf6f8;}.cls-4{fill:#8ab8da;}.cls-5{fill:#342b1e;}.cls-12,.cls-5{fill-rule:evenodd;}.cls-6{fill:#2d2e75;}.cls-7{fill:#ffaa96;}.cls-8{fill:#ff7861;}.cls-9{fill:#ffdbb1;}.cls-10{fill:#fbbd98;}.cls-11{fill:#ff9c85;}.cls-12,.cls-13,.cls-14{fill:#85b7da;}.cls-12{opacity:0.19;}.cls-13{opacity:0.07;}.cls-14{opacity:0.09;}.cls-15{fill:#262863;}.cls-16{fill:#f1b5ab;}.cls-17{fill:#282e5b;}.cls-18{fill:#243b7f;}.cls-19{fill:#471512;}.cls-20{fill:#330b0a;}.cls-21{fill:#5a211a;}.cls-22{fill:#f5978f;}.cls-23{fill:#f89739;}.cls-24{fill:#e67225;}.cls-25{fill:#eeb5aa;}.cls-26{fill:#f7827c;}.cls-27{fill:none;}.cls-28{fill:#020228;}.cls-29{fill:#f5f6f5;}.cls-30{fill:#252122;}.cls-31{fill:#67bc4e;}.cls-32{fill:#d3998c;}.cls-33{fill:#f2c5bb;}.cls-34{fill:#42acb2;}.cls-35{fill:#282c69;}.cls-36{fill:#23131a;opacity:0.55;}.cls-37{fill:#20265b;}.cls-38{fill:#1f1f51;}.cls-39{fill:#fa938e;}.cls-40{fill:#d89888;}.cls-41{fill:#090e3d;}.cls-42{fill:#a5ddea;}.cls-43,.cls-44{fill:#5bc7d1;}.cls-43{opacity:0.37;}.cls-45{fill:#b1e7ef;}.cls-46{opacity:0.58;}.cls-47{fill:#574048;}.cls-48{fill:#4ebfc4;}.cls-49{fill:#bbf2ff;}.cls-50{fill:#f3f9ff;}.cls-51{fill:#6198ba;}.cls-52{opacity:0.34;}.cls-53{fill:#4bb2b7;}</style></defs><title>05</title><g id="Layer_2" data-name="Layer 2"><g id="Layer_1-2" data-name="Layer 1"><g id="_05" data-name="05"><rect class="cls-1" width="4680" height="3120"/><ellipse class="cls-2" cx="1647.55" cy="2609.25" rx="339.97" ry="67.21"/><ellipse class="cls-2" cx="3193.94" cy="2609.25" rx="339.97" ry="67.21"/><rect class="cls-3" width="4680" height="2400"/><rect class="cls-1" x="1675.81" y="740.92" width="1245.46" height="920.74"/><path class="cls-4" d="M2298.83,753.05h651.25V1685H2298.83v-35.09H2893V788.15H2298.83Zm-622.74,0h622.74v35.1H1704.64v861.71h594.19V1685H1647.55V753.05Z"/><path class="cls-5" d="M1634.15,1673h1335c15.85,0,28.81,8.19,28.81,18.19h0c0,10-13,18.19-28.81,18.19h-1335c-15.86,0-28.81-8.18-28.81-18.19h0C1605.34,1681.23,1618.29,1673,1634.15,1673Z"/><path class="cls-5" d="M1634.15,716.67h1335c15.85,0,28.81,8.19,28.81,18.19h0c0,10-13,18.18-28.81,18.18h-1335c-15.86,0-28.81-8.18-28.81-18.18h0C1605.34,724.87,1618.29,716.67,1634.15,716.67Z"/><polygon class="cls-6" points="2789.91 1092.65 2813.74 1111.7 2820.57 1078.73 2789.91 1092.65"/><polygon class="cls-6" points="2551.23 1177.8 2435.14 1090.78 2385.37 1117.78 2383.33 1114.01 2435.51 1085.7 2550.55 1171.92 2611.49 1098.92 2729.3 1172.13 2809.06 1090.59 2812.13 1093.59 2729.96 1177.59 2612.39 1104.54 2551.23 1177.8"/><circle class="cls-7" cx="2434.98" cy="1089.8" r="10.42"/><circle class="cls-7" cx="2611.6" cy="1103.29" r="10.42"/><circle class="cls-7" cx="2728.73" cy="1174.86" r="10.42"/><rect class="cls-7" x="2054.42" y="1297.03" width="23.5" height="207.71"/><rect class="cls-8" x="2129.38" y="1382.07" width="23.5" height="122.67"/><rect class="cls-9" x="2200.48" y="1297.03" width="23.5" height="207.71"/><rect class="cls-10" x="2275.44" y="1382.07" width="23.5" height="122.67"/><polygon class="cls-6" points="2377.89 1529.59 1986.86 1529.59 1986.86 1271.47 1991.78 1271.47 1991.78 1524.66 2377.89 1524.66 2377.89 1529.59"/><polygon class="cls-6" points="1989.73 1249.38 1998.21 1264.06 2006.69 1278.75 1989.73 1278.75 1972.77 1278.75 1981.25 1264.06 1989.73 1249.38"/><polygon class="cls-6" points="2404.05 1524 2389.36 1532.48 2374.67 1540.96 2374.67 1524 2374.67 1507.04 2389.36 1515.52 2404.05 1524"/><rect class="cls-11" x="2383.33" y="1220.86" width="292.64" height="11.14" rx="2.72"/><rect class="cls-9" x="2383.33" y="1300.14" width="133.12" height="11.14" rx="2.72"/><rect class="cls-9" x="2383.33" y="1323.14" width="133.12" height="11.14" rx="2.72"/><rect class="cls-9" x="1972.77" y="1135.77" width="309.1" height="11.14" rx="2.72"/><rect class="cls-9" x="1972.77" y="1158.78" width="309.1" height="11.14" rx="2.72"/><rect class="cls-9" x="2383.33" y="1346.15" width="133.12" height="11.14" rx="2.72"/><rect class="cls-9" x="2383.33" y="1369.15" width="133.12" height="11.14" rx="2.72"/><polygon class="cls-12" points="1704.64 1305.71 2371.83 788.15 2249.65 788.15 1704.64 1185.28 1704.64 1305.71"/><polygon class="cls-13" points="2892.98 1135.77 2371.83 1573.61 2460.08 1573.61 2898.24 1204.15 2892.98 1135.77"/><polygon class="cls-14" points="1704.64 1563.45 2699.93 788.15 2892.98 788.15 2892.98 940.68 1963.41 1649.86 1704.64 1649.86 1704.64 1563.45"/><path class="cls-15" d="M1892.14,1853.46s-42.24-6.36-75.42-5.3,38.24-257,38.24-257S1903.31,1785.33,1892.14,1853.46Z"/><path class="cls-16" d="M1549.17,2427s-2.18,26.52-9.28,43.2,1.09,100.88,6.37,107.74,19.07,27.14,53.49,39.28v-8s-22.3-40.07-21.54-75.49c.93-43,26.47-106.49,26.47-106.49Z"/><path class="cls-17" d="M1539.48,2481.25a93.5,93.5,0,0,0,.23,15c1.8,14.18,7.5,28.44,12,42.27,4.83,15,8.8,30.12,13.81,45.05,2.55,7.6,6.16,14.13,14.46,18.18a49.07,49.07,0,0,0,12.09,4c2.56.49,5.53,0,8,.65,2.08.57,3.68,2.34,5.1,3.72,5.44,5.33,10.07,11.26,15.46,16.64,4.71,4.69,10.22,8.49,15.22,12.92,1.55,1.38,3.79,3.21,3.77,5.27,0,3-4.32,4.68-7.18,5-8.63.9-19.23-4.43-27.32-7.16-17.15-5.8-35.39-10.75-51.79-18.51-5.37-2.55-10.73-5.62-13.07-10.81-4.36-9.66-2.85-21.35-3.81-31.2-.81-8.32-2.15-17.11-6.65-24.88a50.52,50.52,0,0,0-13.6-14.76c-1.94-1.44-2.76-2.35-4.47-.78-2.81,2.56-3.25,8.4-4.52,11.79-2.56,6.83-15.09,41.31-16,43.78-.35,1-.69,3.73-1.58,4.4-1.16.88.08.54-2.23.12-1.14-.21-6.59-1.66-7.33-2.56-1.12-1.35,2.1-8.09,2.71-10.05q3.26-10.41,5.89-21c3.39-13.54,7.3-27.42,7.85-41.56.46-11.65-.16-21.82,4.4-32.69,2.41-5.74,5.71-11.55,10.91-15.58,7.48-5.81,19-8.15,28.35-11.1Z"/><path class="cls-16" d="M1678.08,2454s5.89,25.95,4.13,44,31.34,95.89,38.43,100.86,26.35,20.16,62.82,21.4l-2.4-7.62s-33.31-31.53-43.22-65.54c-12-41.29-6.73-109.53-6.73-109.53Z"/><path class="cls-17" d="M1685.13,2508.63a94.3,94.3,0,0,0,4.72,14.21c6,13,15.7,24.87,24.11,36.72,9.1,12.83,17.44,26.08,26.69,38.82,4.72,6.49,10.12,11.63,19.26,13a48.88,48.88,0,0,0,12.73.19c2.6-.3,5.28-1.68,7.79-1.77,2.16-.08,4.22,1.13,6,2,6.79,3.45,13,7.72,19.74,11.22,5.9,3.06,12.3,5,18.39,7.76,1.9.85,4.59,1.92,5.19,3.89.88,2.9-2.72,5.76-5.36,6.9-8,3.45-19.67,1.55-28.2,1.37-18.11-.37-37,.38-55-2.1-5.89-.81-11.92-2.13-15.72-6.38-7.06-7.91-9.13-19.51-13-28.62-3.27-7.69-7.19-15.67-13.82-21.73a50.61,50.61,0,0,0-17.4-10c-2.28-.78-3.34-1.4-4.5.6-1.91,3.29-.58,9-.78,12.61-.39,7.28-2,43.94-2.07,46.55,0,1.06.46,3.77-.19,4.68-.85,1.18.24.49-2.1.78-1.14.15-6.77.39-7.75-.24-1.47-1-.43-8.34-.44-10.4q0-10.9-.69-21.81c-.83-13.94-1.27-28.35-5-42-3.07-11.24-6.71-20.76-5.62-32.5.57-6.2,2-12.73,5.72-18.14,5.39-7.79,15.71-13.49,23.71-19.1Z"/><path class="cls-18" d="M1796.25,2108s-53,281.06-50.84,352c0,0-46.59,9.57-78.36,0,0,0-18.36-136.65-14.12-169.13S1796.25,2108,1796.25,2108Z"/><path class="cls-15" d="M1768.15,2269s-99.27,104.06-104.07,167.81c0,0-11.22-111.15-11.48-119.72S1796.25,2108,1796.25,2108Z"/><path class="cls-19" d="M1707.67,915.52s6.06,240.4,35.29,253,101.13,17.13,109.48,0c0,0-32.47-3.21-20.41-42.18s36.19-64,7.42-96-67.26-126.76-81.64-130.41S1717.78,892.68,1707.67,915.52Z"/><path class="cls-20" d="M1780.34,1049.76s42.88,18.55,29.89,61.23.46,68.69.46,68.69-115.51,17.13-127.57-37.14S1780.34,1049.76,1780.34,1049.76Z"/><path class="cls-21" d="M1713.3,923.57s19.92-39.43,42.65-15.77-5.77,103.45,24.39,111.34,75.81,5.56,67,68.19c0,0,22.73-45.93-13-83s-66.8-163.6-131.29-89.45Z"/><path class="cls-19" d="M1596.62,1166.74s-69.38,14.46-74.33-40c-4.77-52.48,42.66-51.27,36.48-96.18a161.73,161.73,0,0,1-1.66-18.77c-.38-19.86,1.82-56.53,21.16-75.71,44.54-44.16,114.69-46.69,134-14.53,0,0-46.33,39.35-80.43,38S1596.62,1166.74,1596.62,1166.74Z"/><path class="cls-18" d="M1758.73,1227.36s38,1.93,42.68,82.65,9.28,82.57,9.28,82.57S1736.47,1264.4,1758.73,1227.36Z"/><path class="cls-16" d="M1679.85,925.41a65.76,65.76,0,0,1,76.64,31.24c9.1,16.37,18.17,37.18,18.17,55.06,0,35.88,22.89,32.79,16.08,45.16s-27.19,1.85-25.65,29.69-3.42,35.26-35.58,41.44-29.07,15.46-24.74,66.8-47,26.6-47,26.6l-12.38-7.42v-60.62l-53.81-100.2s25.36-90.31,44.54-104.54C1646,941.31,1661.39,931.05,1679.85,925.41Z"/><path class="cls-22" d="M1645,1203.3h0s3.67-110-29.35-161.66c-15.25-23.84,43.74-127.22,85.31-112.67,0,0-32.19,31.63-29.41,60.67s-2.78,70.32-2.78,70.32-27.84-32.39-34.8-21.53,14.38,31.74,17.17,43.8-1.21,111.54,14.22,119.84c31.69,17,39.44-7.27,39.44-7.27s15.24,20,8.55,32.56-68.67,7.65-68.67,7.65l.73-21S1645.2,1210,1645,1203.3Z"/><path class="cls-20" d="M1713.3,923.57l-12.37,5.4a57.18,57.18,0,0,0-22.92,17.8c-6.25,8.31-10.15,18.35-13.45,42.68a189.43,189.43,0,0,0,3.09,66.8s-19.17-32.16-39-28.45-8.66,34.31,11.14,46.53,1.24,82.74,14.84,104.39c0,0-104.53-12-103.29-62.72s34.47-42,26-117.27C1571.57,947.6,1641,894.66,1713.3,923.57Z"/><path class="cls-23" d="M1556,1255.27s17.82,56.58,35.38,117.08c14.65,50.51,29.09,103.76,32.78,129.09,1,6.64-1.61,75.11-2.3,77.38-6.49,21.34,220.28,0,220.28,0s-31.91-140.78-24-164.43-2.33-47.32-24.12-74.7c-18.43-23.12-28.57-89.28-31.28-109.27a10.27,10.27,0,0,0-6.73-8.33l-.19-.06c-6.49-2.33-34.43-15.62-42.48-22s-8.32,2.19-8.32,2.19-8.82,28-60.35,3.84c0,0-1.9-5.11-11.17-.24S1556,1255.27,1556,1255.27Z"/><path class="cls-24" d="M1724.81,1206.19S1778.14,1308.06,1785,1357s46.35,194,4.93,190.67-91.78-15-88-88.24-26.17-230.92-77.57-248.11l65.9,347.28s113.33,8.32,151.93-5.8L1763.5,1236Z"/><path class="cls-18" d="M1800.48,1478s87.43,215.51,91.66,375.43c0,0,34-194.16-71.38-395.73Z"/><path class="cls-22" d="M1870.54,1482.43s21-29.08,40.82-39c0,0,10.82-.31-13.61,29.38S1870.54,1482.43,1870.54,1482.43Z"/><path class="cls-18" d="M1820.76,1457.73l-18.67,17-.22-17.44a312.85,312.85,0,0,0-4.74-65.63h0c-16.9-97.95-71.32-183.82-72.32-185.41l20.6,9.73,20.13,9.53a126.84,126.84,0,0,1,14.8,47,123.08,123.08,0,0,0,3.66,18.76c1,3.65,2.06,7.25,3.22,10.73a274,274,0,0,0,12.56,31.33c.68,1.13,1.36,2.25,2,3.37,1.26,2.18,2.43,4.33,3.55,6.49,1.22,2.32,2.36,4.65,3.42,7C1835,1406.62,1820.76,1457.73,1820.76,1457.73Z"/><path class="cls-25" d="M1505.6,1555.42c7.42.83,20,.14,35.65-1.56,30.28-3.31,71.92-10.5,109.13-18.12l.12,0,.08,0h0c29.78-6.11,56.71-12.49,72.73-17.4,46.39-14.23,109.47,0,131.12-7.43s10.52-14.22,53.82-30.91,30.3-19.81,30.3-19.81c-20.41-3.7-68,22.28-68,22.28s-51.35,9.28-58.29,1.86,31.68-27.21,35.4-38.36-8.05-11.76-14.22-4.33-40.22,16.08-58.77,30.93-16.69,14.85-82.87,7.43c-8.5-1-17-1.5-25.37-1.7h0c-56.59-1.42-106.38,12.2-106.38,12.2l.61-1.78a0,0,0,0,1,0,0l6.09-17.71,28.87-83.88s6.47-.52,18.23-4.85,14.22-77.33-10.52-109.47-47.32-17.48-47.32-17.48c-10.73,16.08-30.13,93.47-44.9,157.28a.85.85,0,0,0,0,.22c-11.19,48.35-19.68,88.84-19.68,88.84a86.11,86.11,0,0,0-2.67,8.67.1.1,0,0,1,0,0C1484.9,1524.85,1481,1552.69,1505.6,1555.42Z"/><path class="cls-26" d="M1754.57,1484.13s7.55,23.09,25.44,27.53c0,0-33.89.91-38.83,2.32s2.12-29,2.82-29.18S1754.57,1484.13,1754.57,1484.13Z"/><path class="cls-21" d="M1712.28,921.57S1664,923.26,1655.35,969s-39.69,79.18-32.88,102.06,16.73,41.45,5,64.33,1.5,38.12,4.66,39.55-59.09-.58-70.23-48.82,35.26-55.67,24.74-100.21S1622.68,891.42,1712.28,921.57Z"/><path class="cls-20" d="M1620.2,910.6a97.77,97.77,0,0,0-38,20.34l-4.08,3.62-3.76,4a43.86,43.86,0,0,0-3.57,4.13c-1.12,1.43-2.32,2.81-3.38,4.29l-3,4.54c-.49.76-1,1.5-1.49,2.28l-1.31,2.4L1559,961c-.79,1.64-1.45,3.34-2.18,5s-1.47,3.34-2,5.07l-1.71,5.17-.85,2.58-.69,2.63-1.4,5.27a112.12,112.12,0,0,0-2.82,21.58c-.1,3.63,0,7.26.16,10.86s.39,7.2.31,10.77a26,26,0,0,1-2,10.4c-1.31,3.35-3.74,6.09-6.12,8.78,2.54-2.53,5.13-5.18,6.61-8.56a26.81,26.81,0,0,0,2.53-10.57c.19-3.64,0-7.26,0-10.86s-.08-7.18.12-10.76a124.6,124.6,0,0,1,3.05-21.22l1.42-5.18.71-2.59.87-2.54,1.72-5.09c.56-1.71,1.36-3.3,2-5s1.32-3.32,2.09-4.92l2.52-4.73,1.25-2.36c.45-.77,1-1.5,1.45-2.25l2.94-4.48a102.32,102.32,0,0,1,14.32-15.89,106.23,106.23,0,0,1,17.36-12.63A98.51,98.51,0,0,1,1620.2,910.6Z"/><path class="cls-18" d="M1694.45,1484c-1.23,17.49-2.94,41.6-4.24,59.87,38.69-7.43,67.2-14.07,67.2-14.07s-14.59-26.36-8.94-57.42c0,0-22.6-.2-53.1.81.26-3.58.49-7.57.68-11.93,0-.14,0-.21,0-.21,2.3-53.92-3.14-163-71.75-249.67,0,0-68.16,35.54-73,43.06s-100.22,272.34-65.46,301.38c12.18,10.18,49.16,10,92.06,5.54,5.75-21,14-51.48,22-80.78-14.87,2.13-28.48,4.79-39.37,8.15l35-101.61s5.68,49.91,7,83.9c.12,3.22.21,6.28.26,9.16,29.86-4.08,64.4-6.05,92.32-7-.21,3.11-.46,6.72-.74,10.66A.66.66,0,0,0,1694.45,1484Z"/><path class="cls-15" d="M1608.45,1219.76l27.76,88.3,27.88,4.23-4.1,36,35.29,60.32s-46.24-50.08-46.59-59.26,15.52-28.24,3.17-30.36-22.59.71-25.76-22.24-24.64-73.23-24.64-73.23Z"/><path class="cls-15" d="M1780.34,1272.41a123.08,123.08,0,0,0,3.66,18.76l-38.59-75.25,20.13,9.53A126.84,126.84,0,0,1,1780.34,1272.41Z"/><path class="cls-15" d="M1801.77,1336.6,1785,1315.47l2.26-13.57a274,274,0,0,0,12.56,31.33C1800.46,1334.36,1801.14,1335.48,1801.77,1336.6Z"/><path class="cls-15" d="M1808.74,1350l-11.61,41.56,8.19-48.51C1806.54,1345.41,1807.68,1347.74,1808.74,1350Z"/><path class="cls-18" d="M1835.68,1921.65c-9.19,63.93-17.41,121.31-16.49,145.73,2.11,56.13-219.19,391.48-219.19,391.48-31,6.36-61.44-16.93-61.44-16.93,4.94-125,110.81-330.86,122.81-349.22s-9.16-148.18-36-216.68-37.69-220.44-37.69-220.44,32.74-127.25,67.66-105.38,176.84,5.56,176.84,5.56,21.23,58.35,26.17,141.65C1861.16,1744.5,1847.61,1838.59,1835.68,1921.65Z"/><path class="cls-15" d="M1850.87,1626.56s-12-41.38-28.15-54.45c-20.12-16.34-106.86-1.88-113.31,10.59-10.59,20.47-20.3,272.31-27.3,278.4-10.83,9.42-62.57-2.07-62.57-2.07s-33.42-145.78-29.32-174.34,90.09-126.52,90.09-126.52,121.3,6.09,148.45-2.35Z"/><path class="cls-15" d="M1819.19,2067.38c-6-79.42-46.24-376.66-46.24-376.66,11.54-39.42,43.5,123.19,62.73,230.93C1826.49,1985.58,1818.27,2043,1819.19,2067.38Z"/><path class="cls-18" d="M1693.17,1509.27l-26.77,338.89s-82-4.11-117.26-19.35-48.71-11.71-48.71-11.71,84.88-270.41,87.27-291.59S1693.17,1509.27,1693.17,1509.27Z"/><path class="cls-18" d="M1602.88,1480.13l-2.88.4c-8,29.3-16.3,59.75-22,80.78,37.06-3.88,78.53-11,112.26-17.49,1.3-18.27,3-42.38,4.24-59.87a.66.66,0,0,1,0-.15c.28-3.94.53-7.55.74-10.66C1667.28,1474.08,1632.74,1476.05,1602.88,1480.13Z"/><path class="cls-15" d="M1578,1561.31c37.06-3.88,78.53-11,112.26-17.49-1,14.94-1.83,26-1.84,26.31-.1,1-100.75,23.06-117.76,18.17C1570.61,1588.3,1573.5,1577.66,1578,1561.31Z"/><path class="cls-15" d="M1696.06,1461s0,.07,0,.21c-.08,1-.39,5.42-.85,11.93-27.92.94-62.46,2.91-92.32,7l-2.88.4c.88-3.2,1.75-6.4,2.62-9.56C1602.62,1471,1682.26,1454.38,1696.06,1461Z"/><path class="cls-15" d="M1595.61,1387.07s-72.94,109.14-59.18,109.85,24.2-8.24,24.2-8.24Z"/><path class="cls-15" d="M1595.61,1387.07s12.13-17.24,15.31-22.53-9.46,73.43-9.46,73.43l-.79,1.79Z"/><path class="cls-27" d="M3150.66,2551.63a14.76,14.76,0,0,0,1.49.17A14.76,14.76,0,0,1,3150.66,2551.63Z"/><path class="cls-27" d="M3150,2550.75a16.32,16.32,0,0,0,2,.31A16.32,16.32,0,0,1,3150,2550.75Z"/><path class="cls-27" d="M3148.49,2551.18q.71.2,1.44.33Q3149.2,2551.38,3148.49,2551.18Z"/><path class="cls-27" d="M3136.91,2528.75a17,17,0,0,0-.53,2A17,17,0,0,1,3136.91,2528.75Z"/><path class="cls-27" d="M3141.78,2547.53c.27.26.55.5.84.74C3142.33,2548,3142.05,2547.79,3141.78,2547.53Z"/><path class="cls-27" d="M3158.12,2523.62l.74-.45-.74.45Z"/><path class="cls-27" d="M3159.5,2541.09h0c-.13-.39-.25-.78-.38-1.17C3159.25,2540.31,3159.37,2540.7,3159.5,2541.09Z"/><path class="cls-27" d="M3159.12,2539.92c-.12-.39-.24-.79-.37-1.18C3158.88,2539.13,3159,2539.53,3159.12,2539.92Z"/><path class="cls-27" d="M3136.2,2531.81a15.88,15.88,0,0,0-.16,2.06A15.88,15.88,0,0,1,3136.2,2531.81Z"/><path class="cls-27" d="M3157.64,2535.62a1.34,1.34,0,0,1,.24-1A1.34,1.34,0,0,0,3157.64,2535.62Z"/><path class="cls-27" d="M3158.7,2524.16l.16-1-.16,1Z"/><path class="cls-27" d="M3091.87,2537l-.26-.15Z"/><path class="cls-27" d="M3069.86,2547.18a4.17,4.17,0,0,0,.9.38C3070.53,2547.69,3070.28,2547.49,3069.86,2547.18Z"/><path class="cls-27" d="M3089.79,2535.81l.14.08.13.07-.07,0Z"/><path class="cls-27" d="M3135.55,2536.84a14.76,14.76,0,0,0,.31,1.5A14.76,14.76,0,0,1,3135.55,2536.84Z"/><path class="cls-27" d="M3090.09,2536l.6.33-.6-.33Z"/><path class="cls-27" d="M3141.68,2547.43l.05.06Z"/><path class="cls-27" d="M3138.15,2543.56c.19.28.39.55.6.82C3138.54,2544.11,3138.34,2543.84,3138.15,2543.56Z"/><path class="cls-27" d="M3138.75,2544.38a12.83,12.83,0,0,0,1.5,1.63A12.83,12.83,0,0,1,3138.75,2544.38Z"/><path class="cls-27" d="M3136.55,2540.5a13.94,13.94,0,0,0,.61,1.37A13.94,13.94,0,0,1,3136.55,2540.5Z"/><path class="cls-27" d="M3137.16,2541.87q.24.48.51.93Q3137.4,2542.35,3137.16,2541.87Z"/><path class="cls-27" d="M3146.31,2534.55l0,0Z"/><path class="cls-27" d="M3141.15,2546.16h0l-.34.34.14.16-.14-.16h0Z"/><path class="cls-27" d="M3144.31,2535.92a1.63,1.63,0,0,0,.41.1A1.63,1.63,0,0,1,3144.31,2535.92Z"/><path class="cls-27" d="M3143.87,2535.69a2.67,2.67,0,0,0,.44.23A2.67,2.67,0,0,1,3143.87,2535.69Z"/><path class="cls-27" d="M2990.09,2584.21h0Z"/><path class="cls-27" d="M3158.4,2534.12a2.36,2.36,0,0,0-.52.53A2.36,2.36,0,0,1,3158.4,2534.12Z"/><path class="cls-27" d="M3149.24,2538.1c-.19.63-.39,1.26-.58,1.92C3148.85,2539.36,3149.05,2538.73,3149.24,2538.1Z"/><polygon class="cls-27" points="3146.39 2534.61 3146.39 2534.61 3146.39 2534.61 3146.39 2534.61"/><path class="cls-27" d="M3053,2555.92l.32.35S3053,2555.94,3053,2555.92Z"/><path class="cls-27" d="M3089.53,2535.66l-1-.58Z"/><path class="cls-28" d="M2954.16,2586.7l.81-2.14,34.46-.34h1.36l.34-3.94c0-2.15,0-4.3-.05-6.43s0-4.26,0-6.38l24.9-5.31a15.11,15.11,0,0,1,1.9-.2c1,1.27,4.11,3.86,5,5.91a27.41,27.41,0,0,1,1.82,3.58,3.94,3.94,0,0,0,4.11,3c1.94,0,3.8-1.23,4-2.82.29-1.94-1.09-2.81-2.55-3.68a10.89,10.89,0,0,1-2.64-2.18c-1.62-1.89-3.11-3.89-4.66-5.84l9.75-3c2.24,2.51,4.52,5,6.72,7.54a3.89,3.89,0,0,1,.85,2,4.12,4.12,0,0,0,7.91,1.12,3.47,3.47,0,0,0-1.85-4.74c-2.38-.86-3.74-2.59-5.26-4.28-1-1.15-2.14-2.24-3.21-3.36l10.86-4.79c1.22,1.29,2.5,2.54,3.65,3.89a5.32,5.32,0,0,1,.59,1.71s.32.35.32.35c1.15,1.16,2.32,2.32,3.46,3.49s2,2.75,3.42,3.41c1.69.8,3.93-.75,4.54-2.59a3.89,3.89,0,0,0-2.24-4.72c-4.09-1.53-6.13-5.12-8.87-8l11.19-5.4,5,4.74c.42.31.67.51.9.38,1.39,1.89,2.88,3.81,4.26,5.82a3.45,3.45,0,0,0,4.48,1.43c1.79-.76,3-2.78,2.32-4.42-.46-1.08-1.43-2.58-2.35-2.71-2.8-.42-4-2.63-5.85-4.1a51.32,51.32,0,0,1-4.3-4.3l8.79-6.12c.47.37.94.73,1.41,1.11h0c2.32.81,8.68,7.88,8.68,7.88h0l1.74,1.88c1.45,1.58,2.95,1.83,4.66.75s2.46-3.4,1.35-5a10.36,10.36,0,0,0-3.1-2.3c-.32-.2-.65-.39-1-.57l-.26-.15-.92-.5-.6-.33h0l-.13-.07-.14-.08-.26-.15-1-.58,0,0c-1.83-1.15-4.76-3.16-5.84-4.86a14.73,14.73,0,0,1,1.24-1.59c2.33-2.3,4.69-4.57,7-6.85a5.48,5.48,0,0,1,2.24,1.58c1.13.81,2.53,1.83,3.82,2.82l.18.14.13.11c1,.78,1.9,1.52,2.51,2.1,1,.89,2,1.81,2.88,2.78,1.55,1.69,2.64,2.13,4.51,1.14a3.74,3.74,0,0,0,2-4.6c-.66-1.85-2.1-2.47-4-3a12.31,12.31,0,0,1-3.72-1.95c-2.61-1.47-5.75-3.47-6.34-4.91.67-1,1.3-2,2-2.94,1.36-1.79,2.77-3.55,4.16-5.32a16.54,16.54,0,0,1,2.51,1.51.34.34,0,0,1,.09.18l1.81,1.18.17,0v.16l1.91,1.24a.38.38,0,0,1,.17.06l.5.38,7.5,4.89c.28-.08.56-.18.85-.29a3.7,3.7,0,0,0,2.2-4.21s-13.3-6.87-14.46-9.49a20,20,0,0,0,1.48-1.72c2-2.86,3.95-5.73,5.91-8.6h0l14.63,8.9a5.85,5.85,0,0,0,1-.59,2.92,2.92,0,0,0,.75-4.15s-10.86-5-13.65-8.55c1.69-2.51,3.24-5.13,5.11-7.51,2.45-3.1,5.65-3.72,9.18-1.9a15.44,15.44,0,0,1,3.78,2.71c1.67,1.64,10.86,2.83,11.87,2.82,12-.21,24-.32,36.05-.44a17.85,17.85,0,0,1,1.93.22c-.4.81-.93,1.38-.87,1.87.18,1.43.81,2.82.88,4.24.51,10.6.88,21.19,3.74,31.53,1.27,4.56,2.05,9.24,3.11,13.86s2.29,8.94,3.15,13.47c2,10.75,2.53,21.64,2.79,32.55l-238.49,2.6C2956,2586.63,2955.1,2586.67,2954.16,2586.7Zm199.11-33.62c13,.09,20.62-9.82,20.34-19.56a19.1,19.1,0,0,0-19.74-18.85c-12.1.16-19.89,9.27-19.92,20.13A19.52,19.52,0,0,0,3153.27,2553.08Zm-40.73,27.74a4,4,0,0,0,4.06-4,4.1,4.1,0,0,0-8.19.09A4,4,0,0,0,3112.54,2580.82Zm-24.86.27a4,4,0,0,0,4-4,4.26,4.26,0,0,0-4.2-3.92,4.18,4.18,0,0,0-4,4.13A3.93,3.93,0,0,0,3087.68,2581.09Z"/><path class="cls-29" d="M2954.16,2586.7c.94,0,1.87-.07,2.81-.09l238.49-2.6c.18,2.48.42,4.95.49,7.43a34.5,34.5,0,0,1-.31,4l-1.7,0c0,1.73.07,3.43,0,5.14,0,1.43,1,1,1.76,1,.9,3.19-.51,5-3.8,5-1.86,0-3.73,0-5.6.06l-226.87,2.51c-.43,0-.86,0-1.3,0-3,0-3.84,0-4-2.88-.06-1-.25-2.09-.24-3.13C2954,2597.73,2954.08,2592.22,2954.16,2586.7Zm53.87,17a3.9,3.9,0,0,0,1.28,0l179.36-1.94a2.7,2.7,0,0,0,1.07-.05,4,4,0,0,0,.91-.81c-.28-.22-.54-.6-.84-.64a15.55,15.55,0,0,0-2.16,0l-88.92,1h0l-89.57,1a3.14,3.14,0,0,0-1.07.06,4.84,4.84,0,0,0-1,.72A3.61,3.61,0,0,0,3008,2603.68Z"/><path class="cls-29" d="M2991.13,2580.26l-.34,3.94h-1.36l-34.46.34c.62-1.29.93-2.89,1.91-3.83a36.65,36.65,0,0,1,7.25-5.8c8.31-4.6,17.49-6.51,26.9-7.48h0c0,2.12,0,4.25,0,6.38S2991.11,2578.11,2991.13,2580.26Z"/><path class="cls-29" d="M3088.53,2535l0,0,1,.58.26.15.2.11.07,0h0l.6.33.92.5.26.15c.33.18.66.37,1,.57a10.36,10.36,0,0,1,3.1,2.3c1.11,1.56.31,3.89-1.35,5s-3.21.83-4.66-.75l-1.74-1.88h0s-6.36-7.07-8.68-7.88c-.47-.38-.94-.74-1.41-1.11,0-1.34-.5-3.07,1.29-3.56,1-.27,2.18.36,3.29.58C3083.77,2531.88,3086.7,2533.89,3088.53,2535Z"/><path class="cls-29" d="M3073.62,2543.58c1.83,1.47,3.05,3.68,5.85,4.1.92.13,1.89,1.63,2.35,2.71.7,1.64-.53,3.66-2.32,4.42a3.45,3.45,0,0,1-4.48-1.43c-1.38-2-2.87-3.93-4.26-5.82a4.17,4.17,0,0,1-.9-.38l-5-4.74c-.2-3.69,1-4.54,4.5-3.16A51.32,51.32,0,0,0,3073.62,2543.58Z"/><path class="cls-29" d="M3101.49,2522.9a12.31,12.31,0,0,0,3.72,1.95c1.91.49,3.35,1.11,4,3a3.74,3.74,0,0,1-2,4.6c-1.87,1-3,.55-4.51-1.14-.91-1-1.88-1.89-2.88-2.78-.61-.58-1.51-1.32-2.51-2.1l-.13-.11-.18-.14c-1.29-1-2.69-2-3.82-2.82a5.48,5.48,0,0,0-2.24-1.58c-.76-3.1.29-4.68,2.78-4.16.48.1.93.27,1.4.41C3095.74,2519.43,3098.88,2521.43,3101.49,2522.9Z"/><path class="cls-29" d="M3119,2514.79a3.7,3.7,0,0,1-2.2,4.21c-.29.11-.57.21-.85.29l-7.5-4.89-.5-.38a.38.38,0,0,0-.17-.06l-1.91-1.24v-.16l-.17,0-1.81-1.18a.34.34,0,0,0-.09-.18,16.54,16.54,0,0,0-2.51-1.51c-1.07-3.52-.25-4.65,3.25-4.43C3105.73,2507.92,3119,2514.79,3119,2514.79Z"/><path class="cls-29" d="M3046.37,2562.75a3.47,3.47,0,0,1,1.85,4.74,4.12,4.12,0,0,1-7.91-1.12,3.89,3.89,0,0,0-.85-2c-2.2-2.55-4.48-5-6.72-7.54,0-1.34-.1-2.78,1.54-3.31s2.69.41,3.62,1.55,2.17,2.21,3.21,3.36C3042.63,2560.16,3044,2561.89,3046.37,2562.75Z"/><path class="cls-29" d="M3062.5,2555.86a3.89,3.89,0,0,1,2.24,4.72c-.61,1.84-2.85,3.39-4.54,2.59-1.38-.66-2.29-2.25-3.42-3.41s-2.31-2.33-3.46-3.49l-.32-.35a5.32,5.32,0,0,0-.59-1.71c-1.15-1.35-2.43-2.6-3.65-3.89.4-1.1.53-2.83,1.27-3.14.94-.39,2.38.39,3.6.66C3056.37,2550.74,3058.41,2554.33,3062.5,2555.86Z"/><path class="cls-29" d="M3128.39,2499.14a2.92,2.92,0,0,1-.75,4.15,5.85,5.85,0,0,1-1,.59L3112,2495c-.22-1.2-.93-2.6-.5-3.52.29-.64,2.13-.6,3.28-.87C3117.53,2494.15,3128.39,2499.14,3128.39,2499.14Z"/><path class="cls-29" d="M3030.29,2567.89c1.46.87,2.84,1.74,2.55,3.68-.24,1.59-2.1,2.83-4,2.82a3.94,3.94,0,0,1-4.11-3,27.41,27.41,0,0,0-1.82-3.58c-.93-2-4-4.64-5-5.91.51-1.05.75-2.44,1.6-3.08,1.32-1,2.5.18,3.56,1,1.55,2,3,4,4.66,5.84A10.89,10.89,0,0,0,3030.29,2567.89Z"/><path class="cls-30" d="M3194,2600.65c0-1.71,0-3.41,0-5.14l1.7,0,.09,6.2C3195,2601.64,3193.93,2602.08,3194,2600.65Z"/><path class="cls-29" d="M3153.87,2514.67a19.1,19.1,0,0,1,19.74,18.85c.28,9.74-7.38,19.65-20.34,19.56A19.52,19.52,0,0,1,3134,2534.8C3134,2523.94,3141.77,2514.83,3153.87,2514.67Zm-15.63,9.75a17,17,0,0,0-2.69,12.42,14.76,14.76,0,0,0,.31,1.5c.06.24.12.49.2.73a15.08,15.08,0,0,0,.49,1.43,13.94,13.94,0,0,0,.61,1.37q.24.48.51.93l.48.76c.19.28.39.55.6.82a12.83,12.83,0,0,0,1.5,1.63c.18.17.36.33.56.49l.14.16c.23.26.47.52.73.77l.05.06.05,0c.27.26.55.5.84.74a16.25,16.25,0,0,0,5.87,2.91q.71.2,1.44.33c.24,0,.49.09.73.12a14.76,14.76,0,0,0,1.49.17,20,20,0,0,0,6.79-.63c.5-.13,1-.29,1.47-.46a18.11,18.11,0,0,0,11.79-19.36,18.15,18.15,0,0,0-13.64-14.89,18.91,18.91,0,0,0-19.82,7A6.28,6.28,0,0,0,3138.24,2524.42Z"/><path class="cls-29" d="M3112.49,2572.86a4.19,4.19,0,0,1,4.11,4,4.1,4.1,0,0,1-8.19.09A4.22,4.22,0,0,1,3112.49,2572.86Zm.17,5.79c.69-.11,1.24-1.15,1.85-1.78-.65-.58-1.25-1.55-2-1.61s-1.4.85-2.69,1.74C3111.22,2577.85,3112,2578.75,3112.66,2578.65Z"/><path class="cls-29" d="M3087.48,2573.13a4.26,4.26,0,0,1,4.2,3.92,4,4,0,0,1-4,4,3.93,3.93,0,0,1-4.19-3.83A4.18,4.18,0,0,1,3087.48,2573.13Zm.13,5.79a2.58,2.58,0,0,0,1.87-1.67c.11-.62-.84-1.41-1.69-2.67-.94,1.2-1.94,1.92-1.88,2.56S3087,2578.92,3087.61,2578.92Z"/><path class="cls-30" d="M3009.16,2602.15l89.57-1h0l88.92-1a15.55,15.55,0,0,1,2.16,0c.3,0,.56.42.84.64a4,4,0,0,1-.91.81,2.7,2.7,0,0,1-1.07.05l-179.36,1.94a3.9,3.9,0,0,1-1.28,0,3.61,3.61,0,0,1-1-.75,4.84,4.84,0,0,1,1-.72A3.14,3.14,0,0,1,3009.16,2602.15Z"/><path class="cls-30" d="M3158.56,2516.46a17.84,17.84,0,0,1,4,33.33,18,18,0,0,1-2.11.92c-.48.17-1,.33-1.47.46a20,20,0,0,1-6.79.63,14.76,14.76,0,0,1-1.49-.17c-.24,0-.49-.07-.73-.12q-.73-.14-1.44-.33a16.25,16.25,0,0,1-5.87-2.91c-.29-.24-.57-.48-.84-.74l-.05,0-.05-.06c-.26-.25-.5-.51-.73-.77l-.14-.16.34-.34h0a25.16,25.16,0,0,0,2.49,1.86,18.79,18.79,0,0,0,6.35,2.73,16.32,16.32,0,0,0,2,.31,18.57,18.57,0,0,0,4.2-.08,18.11,18.11,0,0,0,12.85-8.2c.26-.42.51-.84.73-1.27.11-.22.22-.44.32-.66a16.37,16.37,0,0,0,1-2.75q.18-.7.3-1.44c.07-.48.13-1,.16-1.47.52-8.67-5-16.45-13.45-17.94-3.45-.61-7.43-1.18-10.75.7s-6.61,3.52-8.69,6.75a24.35,24.35,0,0,0-1.72,4.05,17,17,0,0,0-.53,2q-.11.51-.18,1a15.88,15.88,0,0,0-.16,2.06,15.42,15.42,0,0,0,.83,5.18,16.92,16.92,0,0,0,.88,2.09,12.81,12.81,0,0,0,.74,1.3c.68,1.07,1.48,2.07,2.22,3.1.15.21.3.41.44.62l-.34.34h0c-.2-.16-.38-.32-.56-.49a12.83,12.83,0,0,1-1.5-1.63c-.21-.27-.41-.54-.6-.82l-.48-.76q-.27-.45-.51-.93a13.94,13.94,0,0,1-.61-1.37,15.08,15.08,0,0,1-.49-1.43c-.08-.24-.14-.49-.2-.73a14.76,14.76,0,0,1-.31-1.5,17,17,0,0,1,2.69-12.42,6.28,6.28,0,0,1,.5-.92A18.91,18.91,0,0,1,3158.56,2516.46Z"/><path class="cls-30" d="M3114.51,2576.87c-.61.63-1.16,1.67-1.85,1.78s-1.44-.8-2.79-1.65c1.29-.89,2-1.79,2.69-1.74S3113.86,2576.29,3114.51,2576.87Z"/><path class="cls-30" d="M3089.48,2577.25a2.58,2.58,0,0,1-1.87,1.67c-.61,0-1.65-1.1-1.7-1.78s.94-1.36,1.88-2.56C3088.64,2575.84,3089.59,2576.63,3089.48,2577.25Z"/><path class="cls-30" d="M3149.24,2538.1c.19-.63.36-1.25.5-1.87a2.4,2.4,0,0,0-.7-2c-1.34-1.13-2.86-2-4.72-3.33a34.33,34.33,0,0,1,4.17,0c2.3.3,3.61-.42,4-2.78a22.41,22.41,0,0,1,1.28-3.81,33.3,33.3,0,0,1,1.51,4.37c.35,1.82,1.32,2.32,3.11,2.11,1.43-.16,2.9-.06,4.9-.08-1.83,1.29-3.13,2.27-4.49,3.16a3.27,3.27,0,0,0-.36.25,2.36,2.36,0,0,0-.52.53,1.34,1.34,0,0,0-.24,1,2.4,2.4,0,0,0,.25.83c.17.37.32.75.46,1.13s.28.77.4,1.16.25.79.37,1.18.25.78.38,1.17l-.15.63c-1.72-2.11-3.44-3.09-5.16-3.18a5.55,5.55,0,0,0-2.07.31c-.23.08-.46.18-.69.28a12.13,12.13,0,0,0-3.12,2.25c.1-.46.22-.92.35-1.36C3148.85,2539.36,3149.05,2538.73,3149.24,2538.1Z"/><path class="cls-29" d="M3140.71,2545.54c-.74-1-1.54-2-2.22-3.1a12.81,12.81,0,0,1-.74-1.3,16.92,16.92,0,0,1-.88-2.09,15.42,15.42,0,0,1-.83-5.18,15.88,15.88,0,0,1,.16-2.06q.08-.51.18-1a17,17,0,0,1,.53-2,24.35,24.35,0,0,1,1.72-4.05c2.08-3.23,5.5-4.94,8.69-6.75s7.3-1.31,10.75-.7c8.45,1.49,14,9.27,13.45,17.94,0,.5-.09,1-.16,1.47s-.18,1-.3,1.44a16.37,16.37,0,0,1-1,2.75c-.1.22-.21.44-.32.66-.22.43-.47.85-.73,1.27a18.11,18.11,0,0,1-12.85,8.2,18.57,18.57,0,0,1-4.2.08,16.32,16.32,0,0,1-2-.31,18.79,18.79,0,0,1-6.35-2.73,25.16,25.16,0,0,1-2.49-1.86h0C3141,2546,3140.86,2545.75,3140.71,2545.54Zm17.41-21.92h0l.74-.45-.16,1h0l.16-1Zm-6.69,15.51c.23-.1.46-.2.69-.28a5.55,5.55,0,0,1,2.07-.31c1.72.09,3.44,1.07,5.16,3.18l.15-.63h0c-.13-.39-.25-.78-.38-1.17s-.24-.79-.37-1.18-.25-.77-.4-1.16-.29-.76-.46-1.13a2.4,2.4,0,0,1-.25-.83,1.34,1.34,0,0,1,.24-1,2.36,2.36,0,0,1,.52-.53,3.27,3.27,0,0,1,.36-.25c1.36-.89,2.66-1.87,4.49-3.16-2,0-3.47-.08-4.9.08-1.79.21-2.76-.29-3.11-2.11a33.3,33.3,0,0,0-1.51-4.37,22.41,22.41,0,0,0-1.28,3.81c-.35,2.36-1.66,3.08-4,2.78a34.33,34.33,0,0,0-4.17,0c1.86,1.29,3.38,2.2,4.72,3.33a2.4,2.4,0,0,1,.7,2c-.14.62-.31,1.24-.5,1.87s-.39,1.26-.58,1.92c-.13.44-.25.9-.35,1.36A12.13,12.13,0,0,1,3151.43,2539.13Zm-5-4.51h0l0,0,0,0Zm-2.07,1.3a1.63,1.63,0,0,0,.41.1,1.63,1.63,0,0,1-.41-.1,2.67,2.67,0,0,1-.44-.23A2.67,2.67,0,0,0,3144.31,2535.92Z"/><polygon class="cls-31" points="3146.39 2534.61 3146.39 2534.61 3146.39 2534.61 3146.38 2534.62 3146.32 2534.55 3146.35 2534.58 3146.39 2534.61"/><path class="cls-27" d="M3187.56,2584.21Z"/><path class="cls-27" d="M3356.17,2524.16c0-.33.1-.66.16-1-.06.33-.11.66-.16,1Z"/><path class="cls-27" d="M3250.79,2556.27c-.11-.12-.22-.23-.32-.35S3250.79,2556.27,3250.79,2556.27Z"/><path class="cls-27" d="M3287.53,2536l-.13-.07-.14-.09.2.12Z"/><path class="cls-27" d="M3287.56,2536h0l.6.33Z"/><path class="cls-27" d="M3268.23,2547.56a4.17,4.17,0,0,1-.9-.38C3267.75,2547.49,3268,2547.69,3268.23,2547.56Z"/><path class="cls-27" d="M3338.28,2546.5h0l.14.16Z"/><path class="cls-28" d="M3392.93,2584c-.26-10.91-.77-21.8-2.8-32.55-.85-4.53-2.12-9-3.14-13.47s-1.84-9.3-3.11-13.86c-2.86-10.34-3.23-20.93-3.74-31.53-.07-1.42-.7-2.81-.88-4.24-.06-.49.47-1.06.87-1.87a17.85,17.85,0,0,0-1.93-.22c-12,.12-24,.23-36,.44-1,0-10.2-1.18-11.87-2.82a15.44,15.44,0,0,0-3.78-2.71c-3.53-1.82-6.73-1.2-9.18,1.9-1.87,2.38-3.42,5-5.11,7.51,2.79,3.56,13.65,8.55,13.65,8.55a2.92,2.92,0,0,1-.75,4.15,5.85,5.85,0,0,1-1.05.59l-14.63-8.9h0c-2,2.87-3.92,5.74-5.91,8.6a20,20,0,0,1-1.48,1.72c1.16,2.62,14.46,9.49,14.46,9.49a3.7,3.7,0,0,1-2.2,4.21c-.29.11-.57.21-.85.29l-7.5-4.89-.5-.38a.43.43,0,0,0-.17-.06l-1.91-1.24v-.16l-.17,0-1.81-1.18a.34.34,0,0,0-.09-.18,16.54,16.54,0,0,0-2.51-1.51c-1.39,1.77-2.8,3.53-4.16,5.32-.71.95-1.34,2-2,2.94.59,1.44,3.73,3.44,6.34,4.91a12.31,12.31,0,0,0,3.72,1.95c1.91.49,3.35,1.11,4,3a3.74,3.74,0,0,1-2,4.6c-1.87,1-3,.55-4.52-1.14a39.9,39.9,0,0,0-2.88-2.78c-.6-.58-1.5-1.32-2.5-2.1l-.13-.11-.18-.14c-1.29-1-2.69-2-3.82-2.82a5.48,5.48,0,0,0-2.24-1.58c-2.35,2.28-4.71,4.55-7,6.85a14.73,14.73,0,0,0-1.24,1.59c1.08,1.7,4,3.71,5.84,4.86l0,0,1,.58.26.14.14.09.13.07h0l.6.33.92.5.26.15c.33.18.66.37,1,.57a10.36,10.36,0,0,1,3.1,2.3c1.11,1.56.31,3.89-1.35,5s-3.21.83-4.66-.75l-1.74-1.88h0s-6.36-7.07-8.68-7.88h0c-.47-.38-.94-.74-1.41-1.11l-8.79,6.12a52.75,52.75,0,0,0,4.29,4.3c1.83,1.47,3.06,3.68,5.86,4.1.92.13,1.89,1.63,2.35,2.71.7,1.64-.53,3.66-2.32,4.42a3.45,3.45,0,0,1-4.48-1.43c-1.38-2-2.87-3.93-4.26-5.82-.23.13-.48-.07-.9-.38l-5-4.74-11.19,5.4c2.74,2.9,4.78,6.49,8.87,8a3.89,3.89,0,0,1,2.24,4.72c-.61,1.84-2.85,3.39-4.54,2.59-1.38-.66-2.29-2.25-3.42-3.41s-2.31-2.33-3.46-3.49c0,0-.35-.33-.32-.35a5.32,5.32,0,0,0-.59-1.71c-1.15-1.35-2.43-2.6-3.65-3.89l-10.86,4.79c1.07,1.12,2.17,2.21,3.21,3.36,1.52,1.69,2.88,3.42,5.26,4.28a3.47,3.47,0,0,1,1.85,4.74,4.12,4.12,0,0,1-7.91-1.12,3.89,3.89,0,0,0-.85-2c-2.2-2.55-4.48-5-6.72-7.54l-9.75,3c1.55,2,3,4,4.66,5.84a10.7,10.7,0,0,0,2.64,2.18c1.46.87,2.84,1.74,2.55,3.68-.24,1.59-2.1,2.83-4,2.82a3.94,3.94,0,0,1-4.1-3,27.41,27.41,0,0,0-1.82-3.58c-.93-2-4.05-4.64-5-5.91a15.11,15.11,0,0,0-1.9.2l-24.9,5.31c0,2.12,0,4.25.05,6.38s0,4.28,0,6.43l-.34,3.94h-1.36l-34.46.34-.81,2.14c.94,0,1.87-.07,2.81-.09Zm-49.07-49.4h0l-.07-.07,0,0Zm12.31-10.45h0c0-.33.1-.66.16-1C3356.27,2523.5,3356.22,2523.83,3356.17,2524.16Zm-17.89,22.34.14.16-.14-.16ZM3310,2572.86a4.19,4.19,0,0,1,4.11,4,4.1,4.1,0,0,1-8.19.09A4.22,4.22,0,0,1,3310,2572.86Zm-25,.27a4.26,4.26,0,0,1,4.2,3.92,4,4,0,0,1-4,4,3.93,3.93,0,0,1-4.19-3.83A4.18,4.18,0,0,1,3285,2573.13Z"/><path class="cls-1" d="M3393.2,2601.69c-.77-.05-1.8.39-1.76-1,0-1.71,0-3.41,0-5.14l1.7,0a34.5,34.5,0,0,0,.31-4c-.07-2.48-.31-5-.49-7.43l-238.49,2.6c-.94,0-1.87.06-2.81.09-.08,5.51-.17,11-.22,16.54,0,1,.18,2.08.24,3.13.14,2.86,1,2.86,4,2.88.43,0,.87,0,1.3,0l226.87-2.51c1.87,0,3.74-.08,5.6-.06C3392.69,2606.69,3394.1,2604.88,3393.2,2601.69Zm-6,0a2.7,2.7,0,0,1-1.07.05l-179.36,1.94a3.9,3.9,0,0,1-1.28,0,3.61,3.61,0,0,1-1-.75,4.84,4.84,0,0,1,1-.72,3.14,3.14,0,0,1,1.07-.06l89.57-1v0l88.92-1a15.39,15.39,0,0,1,2.15,0c.31,0,.57.42.85.64A4,4,0,0,1,3387.21,2601.71Z"/><path class="cls-1" d="M3187.56,2584.21h.7l.34-3.94c0-2.15,0-4.3,0-6.43s0-4.26-.05-6.38c-9.41,1-18.59,2.88-26.9,7.48a36.65,36.65,0,0,0-7.25,5.8c-1,.94-1.29,2.54-1.91,3.83l34.46-.34Z"/><path class="cls-29" d="M3285.67,2542.15h0l1.74,1.88c1.45,1.58,3,1.83,4.66.75s2.46-3.4,1.35-5a10.36,10.36,0,0,0-3.1-2.3c-.32-.2-.65-.39-1-.57l-.26-.15-.92-.5-.6-.33h0l-.07,0-.2-.12-.26-.14-1-.58,0,0c-1.83-1.15-4.76-3.16-5.84-4.86-1.11-.22-2.33-.85-3.29-.58-1.79.49-1.24,2.22-1.29,3.56.47.37.94.73,1.41,1.11C3279.31,2535.08,3285.67,2542.15,3285.67,2542.15Z"/><path class="cls-29" d="M3268.23,2547.56c1.39,1.89,2.88,3.81,4.26,5.82a3.45,3.45,0,0,0,4.48,1.43c1.79-.76,3-2.78,2.32-4.42-.46-1.08-1.43-2.58-2.35-2.71-2.8-.42-4-2.63-5.86-4.1a52.75,52.75,0,0,1-4.29-4.3c-3.49-1.38-4.7-.53-4.5,3.16l5,4.74A4.17,4.17,0,0,0,3268.23,2547.56Z"/><path class="cls-29" d="M3290.68,2523.32c1.13.81,2.53,1.83,3.82,2.82l.18.14.13.11c1,.78,1.9,1.52,2.5,2.1a39.9,39.9,0,0,1,2.88,2.78c1.56,1.69,2.65,2.13,4.52,1.14a3.74,3.74,0,0,0,2-4.6c-.66-1.85-2.1-2.47-4-3a12.31,12.31,0,0,1-3.72-1.95c-2.61-1.47-5.75-3.47-6.34-4.91-.47-.14-.92-.31-1.4-.41-2.49-.52-3.54,1.06-2.78,4.16A5.48,5.48,0,0,1,3290.68,2523.32Z"/><path class="cls-29" d="M3301.39,2511.42l1.81,1.18.17,0v.16l1.91,1.24a.43.43,0,0,1,.17.06l.5.38,7.5,4.89c.28-.08.56-.18.85-.29a3.7,3.7,0,0,0,2.2-4.21s-13.3-6.87-14.46-9.49c-3.5-.22-4.33.91-3.25,4.43a16.54,16.54,0,0,1,2.51,1.51A.34.34,0,0,1,3301.39,2511.42Z"/><path class="cls-29" d="M3237.78,2566.37a4.12,4.12,0,0,0,7.91,1.12,3.47,3.47,0,0,0-1.85-4.74c-2.38-.86-3.74-2.59-5.26-4.28-1-1.15-2.14-2.24-3.21-3.36s-2-2.08-3.62-1.55-1.56,2-1.54,3.31c2.24,2.51,4.52,5,6.72,7.54A3.89,3.89,0,0,1,3237.78,2566.37Z"/><path class="cls-29" d="M3250.47,2555.92c.1.12.21.23.32.35,1.15,1.16,2.32,2.32,3.46,3.49s2,2.75,3.42,3.41c1.69.8,3.93-.75,4.54-2.59a3.89,3.89,0,0,0-2.24-4.72c-4.09-1.53-6.13-5.12-8.87-8-1.22-.27-2.66-1.05-3.6-.66-.74.31-.87,2-1.27,3.14,1.22,1.29,2.5,2.54,3.65,3.89A5.32,5.32,0,0,1,3250.47,2555.92Z"/><path class="cls-29" d="M3325.11,2503.29a2.92,2.92,0,0,0,.75-4.15s-10.86-5-13.65-8.55c-1.15.27-3,.23-3.29.87-.42.92.29,2.32.51,3.52l14.63,8.9A5.85,5.85,0,0,0,3325.11,2503.29Z"/><path class="cls-29" d="M3222.16,2571.43a3.94,3.94,0,0,0,4.1,3c1.95,0,3.81-1.23,4-2.82.29-1.94-1.09-2.81-2.55-3.68a10.7,10.7,0,0,1-2.64-2.18c-1.62-1.89-3.11-3.89-4.66-5.84-1.06-.83-2.24-2-3.56-1-.85.64-1.09,2-1.6,3.08,1,1.27,4.11,3.86,5,5.91A27.41,27.41,0,0,1,3222.16,2571.43Z"/><path class="cls-30" d="M3391.44,2600.65c0,1.43,1,1,1.76,1l-.09-6.2-1.7,0C3391.43,2597.24,3391.48,2598.94,3391.44,2600.65Z"/><path class="cls-29" d="M3310,2580.82a4,4,0,0,0,4.06-4,4.1,4.1,0,0,0-8.19.09A4,4,0,0,0,3310,2580.82Zm0-5.56c.7.06,1.3,1,1.95,1.61-.61.63-1.16,1.67-1.85,1.78s-1.44-.8-2.79-1.65C3308.63,2576.11,3309.38,2575.21,3310,2575.26Z"/><path class="cls-29" d="M3285.15,2581.09a4,4,0,0,0,4-4,4.26,4.26,0,0,0-4.2-3.92,4.18,4.18,0,0,0-4,4.13A3.93,3.93,0,0,0,3285.15,2581.09Zm.11-6.51c.85,1.26,1.8,2.05,1.69,2.67a2.58,2.58,0,0,1-1.87,1.67c-.61,0-1.65-1.1-1.7-1.78S3284.32,2575.78,3285.26,2574.58Z"/><path class="cls-30" d="M3385.12,2600.23l-88.92,1v0l-89.57,1a3.14,3.14,0,0,0-1.07.06,4.84,4.84,0,0,0-1,.72,3.61,3.61,0,0,0,1,.75,3.9,3.9,0,0,0,1.28,0l179.36-1.94a2.7,2.7,0,0,0,1.07-.05,4,4,0,0,0,.91-.81c-.28-.22-.54-.6-.85-.64A15.39,15.39,0,0,0,3385.12,2600.23Z"/><path class="cls-30" d="M3312,2576.87c-.65-.58-1.25-1.55-1.95-1.61s-1.4.85-2.69,1.74c1.35.85,2.15,1.75,2.79,1.65S3311.37,2577.5,3312,2576.87Z"/><path class="cls-30" d="M3285.08,2578.92a2.58,2.58,0,0,0,1.87-1.67c.11-.62-.84-1.41-1.69-2.67-.94,1.2-1.94,1.92-1.88,2.56S3284.47,2578.92,3285.08,2578.92Z"/><path class="cls-31" d="M3343.85,2534.62h0l0,0,0,0Z"/><path class="cls-32" d="M3018.79,1792.57l-2,65.62s76.42,9.87,79.66-2-2.2-63.65-2.2-63.65Z"/><path class="cls-33" d="M3011.39,1845.61s-.45,31.82,16.06,34.29,57.46,2.14,61.4-3.37-4.19-27.72-4.19-27.72S3032.61,1860.66,3011.39,1845.61Z"/><path class="cls-16" d="M3001.63,1768.12s-5.09,51.58,0,81.68l3.9,22.7s20.81,24.18,19.62-45.89l8-55Z"/><path class="cls-34" d="M3144.6,1217.32s197.31-16.26,209.61-21.54,2.64,46.58,2.64,46.58L3142,1254.23Z"/><path class="cls-35" d="M3439.3,1828.33c-5.75,14.28-49.44,130.13-36.12,316.66,14.24,199.5-17.77,268.59-17.77,268.59-15.85,8-34.71,8.57-50.4,6.92l-.85-.1h0a154.25,154.25,0,0,1-31.36-6.82s-26.35-266.83-33.38-309.91-30.76-302.31-30.76-302.31-7,65.89-21.1,159.93S3207,2098.4,3207,2098.4c22.84,191.61-23.44,313.76-23.44,313.76-21.68,1.71-37.32,1.71-48.58.86h0c-27.43-2.07-29.08-9.19-29.08-9.19-4.86-21.1-24.12-143.72-26.77-379.69s26.77-370.06,26.77-370.06l210.09,6.35,123.94,166.4S3439.7,1827.33,3439.3,1828.33Z"/><path class="cls-36" d="M3083.39,1845.61s23.94,2.9,22.51-2.38-3.19-172,11.45-189.15l-19.85-2.45Z"/><path class="cls-37" d="M3185.31,2480.14a116.62,116.62,0,0,1-36.1,7.24c-22.92.67-35.36-7.24-35.36-7.24l-8-76.31c8.34,3.54,20.74,5.61,33.22,6.8h0a414.85,414.85,0,0,0,44.44,1.53Z"/><path class="cls-37" d="M3385.41,2413.58l-2.62,73.84a85.82,85.82,0,0,1-27.39,7.46,96.08,96.08,0,0,1-47.63-7.46l-5-73.84Z"/><path class="cls-38" d="M3238.65,1801.36s-7,65.89-21.1,159.93S3207,2098.4,3207,2098.4c22.84,191.61-23.44,313.76-23.44,313.76l1.74,68a116.62,116.62,0,0,1-36.1,7.24c9.14-18.76,17.67-51.15-15.45-73.8,0,0,.44-.17,1.21-.56h0a40.78,40.78,0,0,0,4.12-2.39h0c10.44-6.86,32.44-27.18,31.54-76.39-1.17-64.45-4.68-218,11.14-322.85s42.18-118.94,43.94-300C3225.75,1711.41,3240.39,1758.92,3238.65,1801.36Z"/><path class="cls-38" d="M3403.18,2145c14.24,199.5-17.77,268.59-17.77,268.59l-2.62,73.84a85.82,85.82,0,0,1-27.39,7.46c5.46-18.4,12.82-44.45,13.89-54.58,1.61-14.91-28.71-19.15-34.28-19.8l-.85-.1a26.77,26.77,0,0,0,15.26-6.82c32.16-28.42,25.7-139.33,21.06-253.36-5.29-129.49,12.88-203.31,14.64-237.29s-93.75-26.37-93.75-26.37v-35.75l147.93-32.48C3433.55,1842.61,3389.86,1958.46,3403.18,2145Z"/><path class="cls-16" d="M3318.91,1025.87v49.21s-4.1-11.71-22.27,52.74c-9.66,34.29-3.39,61.12,4.58,78.71,7,15.49,15.35,23.82,15.35,23.82s-16.4,20.51-29.3,34-118.36-5.27-84.36-29.28,21.67-69.15,19-81.45c-1.08-5.06-9.32-4.85-20.18-2.89l-.2,0c-15.52,2.8-36.35,9.09-49.5,8.57-22.4-.88-27.23-57.13-26.35-60.2s-20.22-4.84-24.61-11,11-17.13,11-17.13c11.14-13.47,11.14-27.54,11.14-27.54,0-62.69,22.84-72.06,22.84-72.06l123.63-22.27Z"/><path class="cls-39" d="M3126.12,1009s23.31-16.65,64.4-16.21,63.28-19.55,67.24-10.55,12.3,46.15,2.52,86.36c0,0,28.45-38.94,38.29-27.69s-9.19,68.2-1.93,86.94l2.49-8.68s30-54.53,14.88-84.85-36.8-71.41-36.8-71.41-65.38,5.71-97.89,9.45S3124.12,973.55,3126.12,1009Z"/><path class="cls-39" d="M3316.57,1230.35s-16.4,20.51-29.3,34-118.36-5.27-84.36-29.28,21.67-69.15,19-81.45c-1.08-5.06-9.32-4.85-20.18-2.89,3.22-.68,37.88-8.46,41.87-5.6s-9.39,60-14.22,73.53c-4.71,13.17,33.44,22.41,71.81-12.11C3308.23,1222,3316.57,1230.35,3316.57,1230.35Z"/><path class="cls-40" d="M3305.14,1214.3s-36.32,30.26-62.25,27.48-27.87-18.34-27.87-18.34l-1.9,2.26s-7.58,13,5.45,24.43,73.1-5.13,83.64-15.24,4.57-17.77,4.57-17.77Z"/><path class="cls-23" d="M3213.12,1225.7s12.78,37.76,60.68,12.27c0,0,22.89-12.69,33-20.85,0,0,4.37-6.34,10.08,0s50.1,9.42,50.1,9.42l-21.09,421.87s-209.18-10.54-254-22.85l43.94-386.71s58-9.08,67.68-12.6S3211.91,1223,3213.12,1225.7Z"/><path class="cls-24" d="M3328.23,1221.53s-28.51,342.87-64.1,346.43-86.13-5.68-86.13-5.68,8.32,25,92.49,38.67c0,0,17.37,4.84,15.61,15.82s-26.67,25.17-26.67,25.17l49.39,4.22,54.49-419.9Z"/><path class="cls-24" d="M3175.87,1232.25s-45.7,334-9,372.66,53.54,33.7,53.54,33.7l-132.93-10.85,58.24-390.5Z"/><polygon class="cls-41" points="3109.61 1629.15 3105.9 1654.08 3315.98 1660.42 3315.98 1646.77 3109.61 1629.15"/><path class="cls-42" d="M3349.9,1195.28c-8.19,62.62-76.51,589.49-69.07,674.61,0,0,90.52,13.19,141.5,0s90.52-22.85,90.52-22.85-30.27-147.22-29.39-236.87c0,0,44.34-41.59,42.58-77.7s-81.67-273.71-138-307.65c-12.75-7.68-26.8-23.16-33.45-30.94A2.68,2.68,0,0,0,3349.9,1195.28Z"/><path class="cls-43" d="M3373.26,1615.65c0,.7,44.48,51.18,44.48,51.18l34.57-28s-33.59,1.86-73.38-41.25l-13.59,12.6Z"/><path class="cls-44" d="M3401.39,1236.05s21.82,41.47,17.42,46.74-43.94,25-42.18,36.92,17.57,28.56,9.66,40-67.69,86.56-67.69,86.56l5.13-41.43,69.87-176.08Z"/><path class="cls-42" d="M3120.87,1282.79s-46.58,115.28-75.58,249.68-62.85,213.28-58.45,231.74,38.89,15.38,38.89,15.38l-8.57,46.36s58.75,15.42,79,10.15c0,0-6.7-100.68,4.19-149.9s49.56-369.13,49.56-369.13Z"/><path class="cls-44" d="M3102.62,1332s23.82,6.78,18.84,11.17-19.93,19.93-15.82,29.3,29.16,66.49,29.16,66.49l2.34-15.54-5.35-94-24.1-8.21Z"/><path class="cls-44" d="M3026,1782l98.6-409.56-121.81,380.29S3005.74,1782.59,3026,1782Z"/><path class="cls-45" d="M3349.87,1195.81a3.58,3.58,0,0,1,5.87-2.29c8.16,7,24,20.27,30.85,24.53,9.37,5.86,14.35,41.6,25.19,55.66,0,0,9.38,2.35-33.1,26.08,0,0-11.14,5.86-7.33,23.14s9.09,24,8.5,28.12-60.2,86.38-60.2,86.38Z"/><path class="cls-45" d="M3144.6,1217.32s-27.94,22-44.29,31.2v73.82s19.94,5.72,28.82,19.34c0,0-20.13,22.41-17.93,27.25s19.86,46.49,24.55,62.43C3135.75,1431.36,3167.89,1254.67,3144.6,1217.32Z"/><g class="cls-46"><path class="cls-35" d="M3385.35,1221.53a1,1,0,0,1-.9-.62c-1-2.8-1.66-4.48-1.66-4.49a1,1,0,1,1,1.79-.67l1.67,4.49a1,1,0,0,1-.56,1.23A1,1,0,0,1,3385.35,1221.53Z"/><path class="cls-35" d="M3329.06,1413.4a1,1,0,0,1-.55-.17,1,1,0,0,1-.24-1.34l5.54-7.9a1,1,0,1,1,1.57,1.1l-5.54,7.9A.93.93,0,0,1,3329.06,1413.4Zm11.07-15.81a1,1,0,0,1-.55-.17,1,1,0,0,1-.24-1.34l5.54-7.9a1,1,0,0,1,1.57,1.09l-5.53,7.91A1,1,0,0,1,3340.13,1397.59Zm11.06-15.81a.9.9,0,0,1-.54-.18.94.94,0,0,1-.24-1.33l5.53-7.91a1,1,0,0,1,1.57,1.1l-5.53,7.91A1,1,0,0,1,3351.19,1381.78Zm11.06-15.82a1,1,0,0,1-.55-.17,1,1,0,0,1-.24-1.34l5.53-7.91a1,1,0,1,1,1.57,1.09l-5.52,7.92A1,1,0,0,1,3362.25,1366Zm9.92-16.32h-.05a1,1,0,0,1-.9-1c0-.28,0-.58,0-.89a49.06,49.06,0,0,0-1-8.46,1,1,0,0,1,.77-1.12,1,1,0,0,1,1.12.77,50,50,0,0,1,1,8.81c0,.34,0,.67,0,1A1,1,0,0,1,3372.17,1349.64Zm-3.07-19a1,1,0,0,1-.94-.73c-.76-3.1-1.6-6.27-2.42-9.31a1,1,0,1,1,1.85-.5c.82,3.06,1.66,6.23,2.44,9.35a1,1,0,0,1-.7,1.16Zm-4.94-18.65a1,1,0,0,1-.93-.72c-.78-3-1.28-5-1.6-6.62a5.62,5.62,0,0,1-.12-1.15,6.55,6.55,0,0,1,.39-2.17,1,1,0,1,1,1.81.62,4.67,4.67,0,0,0-.28,1.55,4.9,4.9,0,0,0,.07.77c.32,1.56.81,3.57,1.58,6.52a1,1,0,0,1-.68,1.17Zm4.73-16.72a1,1,0,0,1-.61-1.7,75.27,75.27,0,0,1,8-5.57,1,1,0,0,1,1.32.31,1,1,0,0,1-.32,1.32,72.74,72.74,0,0,0-7.82,5.43A1,1,0,0,1,3368.89,1295.29ZM3385.2,1285a1,1,0,0,1-.46-1.8c3-1.62,6-3.13,8.6-4.45a1,1,0,0,1,.86,1.71c-2.6,1.32-5.54,2.81-8.55,4.43A1.06,1.06,0,0,1,3385.2,1285Zm17.09-9a1,1,0,0,1-.53-1.75,5.37,5.37,0,0,0,.51-.38c0-.8-.38-2.67-1.86-7.52a1,1,0,1,1,1.83-.56c1.76,5.74,2,7.36,2,8.09a1.86,1.86,0,0,1-.17.83,3.37,3.37,0,0,1-1.2,1.13A1,1,0,0,1,3402.29,1276Zm-3.94-18.15a1,1,0,0,1-.91-.65c-1-2.9-2-6-3.14-9.11a1,1,0,0,1,1.81-.63c1.1,3.13,2.17,6.22,3.15,9.13a1,1,0,0,1-.61,1.21A.79.79,0,0,1,3398.35,1257.87Zm-6.38-18.21a1,1,0,0,1-.9-.63c-1.14-3.19-2.26-6.26-3.28-9.07a1,1,0,0,1,1.8-.65c1,2.8,2.14,5.88,3.28,9.07a1,1,0,0,1-.57,1.23A1.26,1.26,0,0,1,3392,1239.66Z"/><path class="cls-35" d="M3321,1425a1,1,0,0,1-.55-.17,1,1,0,0,1-.23-1.34l2.75-3.92a1,1,0,1,1,1.56,1.1l-2.74,3.92A1,1,0,0,1,3321,1425Z"/></g><path class="cls-47" d="M3340.58,1040.66a81.56,81.56,0,0,0-3.73,9.47c-9.87,30.45-2.63,64.18-17.19,70.95-16.12,7.47-20.53-1.94-20.53-1.94s2.36-37.18,6.75-43.77,6.15-37.79-9.68-39.54c-15.08-1.68-34.19,29.84-35.92,32.74.64-1.23,3.95-8.21,8.69-27.91a46.08,46.08,0,0,0,1-7.49c1.55-24.78-9.83-68.53-9.83-68.53s28.13-28.56,29.46-29.88,22.84-6.6,50.95,17.57S3356,1008.14,3340.58,1040.66Z"/><path class="cls-36" d="M3336.85,1050.13c-9.87,30.45-2.63,64.18-17.19,70.95-16.12,7.47-20.53-1.94-20.53-1.94s2.36-37.18,6.75-43.77,6.15-37.79-9.68-39.54c-15.08-1.68-34.19,29.84-35.92,32.74.64-1.23,3.95-8.21,8.69-27.91a46.08,46.08,0,0,0,1-7.49s22.1-25.7,46.21-11.52C3325.27,1027,3332,1038.19,3336.85,1050.13Z"/><path class="cls-36" d="M3325.29,941.47s-6,44.29-60.37,44.28l-4.75-21.11,30.62-31.29S3310,930.61,3325.29,941.47Z"/><path class="cls-36" d="M3263.07,977.49s47.62-3.56,51.8-41.38L3297.09,931l-34.89,42Z"/><path class="cls-47" d="M3308.08,944.86c-5.29,15.83-26.83,22.27-26.83,22.27a31.57,31.57,0,0,1-4,1.8c-7,2.68-23.69,7.45-53.07,7.13-40.88-.44-87.47,7-94.92,20.66-4.64,8.43-15.49,7.61-21.52-.64-3.72-5.05-5.6-12.89-3.09-23.09,6.59-26.81,39.12-105.46,118.65-101.07S3313.35,929.05,3308.08,944.86Z"/><path class="cls-36" d="M3277.21,968.93c-7,2.68-23.69,7.45-53.07,7.13-40.88-.44-87.47,7-94.92,20.66-4.64,8.43-15.49,7.61-21.52-.64,1.36-6.19,5.92-15,17.26-27.15C3154.27,937.48,3277.21,968.93,3277.21,968.93Z"/><g class="cls-46"><path class="cls-35" d="M3107.57,1249.73h0a1,1,0,0,1-.93-1c.11-3,.18-4.79.18-4.79a.9.9,0,0,1,1-.91,1,1,0,0,1,.92,1s-.07,1.78-.18,4.78A1,1,0,0,1,3107.57,1249.73Z"/><path class="cls-35" d="M3133.32,1402.56a.94.94,0,0,1-.91-.66c-1-2.91-2-6.07-3.1-9.24a1,1,0,0,1,1.82-.62c1.08,3.18,2.14,6.34,3.1,9.26a1,1,0,0,1-.61,1.21A.79.79,0,0,1,3133.32,1402.56Zm-6.33-18.47a1,1,0,0,1-.9-.63c-1.33-3.69-2.5-6.74-3.48-9.08a1,1,0,0,1,1.77-.73c1,2.36,2.17,5.44,3.51,9.15a1,1,0,0,1-.9,1.29Zm-6.32-18.23-.17,0a1,1,0,0,1-.77-1.12c.47-2.53,2-5.47,4.62-9a1,1,0,0,1,1.54,1.15c-2.46,3.28-3.86,6-4.28,8.19A1,1,0,0,1,3120.67,1365.86Zm10.79-16a.93.93,0,0,1-.65-.25,1,1,0,0,1-.06-1.36l1.35-1.46c1.75-1.88,3.26-3.5,4.28-4.8a1.86,1.86,0,0,0,.36-.75,1,1,0,0,1,1.15-.72.94.94,0,0,1,.72,1.14,3.77,3.77,0,0,1-.72,1.51c-1.07,1.37-2.61,3-4.38,4.93l-1.35,1.45A.93.93,0,0,1,3131.46,1349.84Zm1.4-15.52a1,1,0,0,1-.65-.25,66,66,0,0,0-7.6-5.9,1,1,0,1,1,1.08-1.58,68.72,68.72,0,0,1,7.82,6.07,1,1,0,0,1,0,1.36A.94.94,0,0,1,3132.86,1334.32Zm-16-11.08a1,1,0,0,1-.46-.12,43,43,0,0,0-5.9-2.8c-.92-.31-1.6-1.31-2.16-3.14a1,1,0,1,1,1.83-.56c.51,1.68.94,1.88.94,1.88a44.35,44.35,0,0,1,6.21,2.94,1,1,0,0,1-.46,1.8Zm-9.09-15a1,1,0,0,1-.95-.88c-.23-2.77-.41-6.07-.54-9.78a1,1,0,0,1,.92-1,1,1,0,0,1,1,.93c.13,3.68.31,7,.54,9.69a1,1,0,0,1-.87,1Zm-.75-19.49a1,1,0,0,1-1-1c0-2.07,0-4.17,0-6.26,0-1.18,0-2.35,0-3.51a1,1,0,0,1,1-1h0a1,1,0,0,1,1,1c0,1.17,0,2.34,0,3.5,0,2.09,0,4.18,0,6.25a1,1,0,0,1-1,1Zm.09-19.51h0a1,1,0,0,1-.94-1c.06-3.47.13-6.77.21-9.76a1,1,0,0,1,1-.93,1,1,0,0,1,.93,1c-.07,3-.15,6.28-.2,9.74A1,1,0,0,1,3107.07,1269.22Z"/><path class="cls-35" d="M3137.75,1416.35a1,1,0,0,1-.91-.68s-.55-1.74-1.45-4.56a1,1,0,0,1,1.83-.58c.9,2.82,1.45,4.57,1.45,4.57a1,1,0,0,1-.63,1.2A1,1,0,0,1,3137.75,1416.35Z"/></g><path class="cls-44" d="M3483.46,1610.17s-40.57,40.31-70.8,58.66c0,0-32.65-48.13-47.32-58.66,0,0,80.64-72,79.23-97.37s-45.26-110.24-45.26-110.24,45.26,111.66,29.72,118.72-86.13,94.18-86.13,94.18-8.63,7.33,7.33,30.7,47,69.27,81.63,53,54.85-24,54.85-24Z"/><path class="cls-44" d="M3425.12,1701.6s-24.92,9.59-58.16-4.88c0,0-11.58-4.13-18,8s-62.16,38.78-62.12,38.34,3.28-36.16,3.28-36.16l83.84-51.13Z"/><path class="cls-16" d="M3343.81,1642.21s-31,22.43-42.39,26.14c0,0-14.6.72-23.34-1.32s-13.75-2.72-20.35,5.54-11.58,10.63-11.58,10.63-2.76,2.17,3.28,4.18,10.63-3.13,10.63-3.13,12.22,44.33,24.9,49.49c0,0,18-4.56,43.13-27.06s51.26-28.9,51.26-28.9Z"/><path class="cls-39" d="M3343.81,1642.21s5.38,13.27,6.48,24.14-17.18,36.06-17.18,36.06,14.49-14.25,50-26.13Z"/><path class="cls-16" d="M3260.06,1684.25a132.55,132.55,0,0,1,15.14-5c6.23-1.44-5-7.55-9.46-4.08s-16.31,12.19-16.31,12.19S3251.9,1689.28,3260.06,1684.25Z"/><path class="cls-39" d="M3260.06,1684.25s-13.68,7.67-12.58,11.73,18.09,36.58,24.46,38.8c6.87,2.39,18.18-2.87,18.18-2.87A129,129,0,0,1,3260.06,1684.25Z"/><path class="cls-45" d="M3370.45,1598.23s49.64,48,54.58,68.25c0,0,3.77,8.71-38.83,25.89,0,0-2.59,1.17-9.18-4.24s-46.83-55.54-42.36-64.25S3368.11,1593.52,3370.45,1598.23Z"/><polygon class="cls-24" points="3283.51 1732.09 3298.05 1763.64 3312.43 1754.77 3297.97 1725.55 3283.51 1732.09"/><polygon class="cls-24" points="3245.52 1652.7 3260.07 1684.25 3274.45 1675.38 3259.99 1646.16 3245.52 1652.7"/><rect class="cls-42" x="3235.95" y="1614.46" width="26.96" height="52.13" transform="translate(-384.99 1437.79) rotate(-23.59)"/><path class="cls-48" d="M3813.12,2257.06a90.89,90.89,0,0,0-15.79,16.11q-2.22-18.93-4.42-37.85c-.88-7.57-1.76-15.32,0-22.74,1.28-5.41,4-10.76,3-16.24a22.51,22.51,0,0,0-5.69,16.1c-2.67-10-3.83-20.34-6.38-30.41-3.25-12.81-5.77-31.29-7.74-52.68,21.11-31.89,35-32.46,35-32.46s9.56-6.17,0-4.41c-7.7,1.42-28,22.23-35.53,30.25,1.5-1.58-1.12-14.45-1.29-16.95q-.64-9.3-1.15-18.62c-.7-12.58-3.79-25.21.26-37.33a119.51,119.51,0,0,1,18.23-34.46c-1.07-.94-2.6.4-3.36,1.6q-8.88,14-17,28.51-2.3-68.31-1.8-136.69c-2.15,1.7-2.36,4.82-2.39,7.56l-.37,39.77-14.13-12-1.16,1.73,12.14,15.81a12.41,12.41,0,0,1,3.23,9.9l.28,51.23c-12.1-13.85-24.87-28.19-42-35,8.74,3.47,17.73,14,23.92,20.84a142.1,142.1,0,0,1,18.3,25.52c.6,35.89,1.75,72.57,3.84,99.13a219.54,219.54,0,0,0-13.85-20.3s-5.68-4.31-3.13-1.37c1.79,2.07,11.85,19.31,17.63,29.3.26,2.79.53,5.45.81,7.93,3.24,28.07,8.2,56.06,12.42,84l-43.83-55.41c-2.76,2.93-.06,7.59,2.57,10.64a456.05,456.05,0,0,1,35.13,46.28c3,4.44,5.85,9,7.61,14s2.34,10.64,2.87,16.07c3.09,32.28,5.55,65.53-3.87,96.56l15.67-.07q-1.47-37.65-2.95-75.32a18.1,18.1,0,0,1,.35-5.5,15.08,15.08,0,0,1,2.47-4.69,53.32,53.32,0,0,1,9.74-10.44,10.86,10.86,0,0,0,3.34-3.58C3814.86,2259.9,3814.58,2257.8,3813.12,2257.06Z"/><path class="cls-42" d="M3755.93,2143a129.13,129.13,0,0,1-1.73,14.34c-1.75,10.22-5,18.38-9.41,24.86-.53.79-1.08,1.55-1.64,2.29l-.1.12-1,1.29c-.32.39-.65.78-1,1.15-9.33,10.47-22.31,15.4-36.55,17.27-23.87,3.13-55.58-32.89-56-65.77-.09-8.12,1.38-16.48,5.7-23.43.07-.13.15-.26.23-.39l.73-1.08.13-.17.13-.2a40.12,40.12,0,0,1,16.45-13h0l.63-.29c14.95-6.42,33.8-5.89,48-1.76,17.51,5.09,27.4,12.19,32.08,22.35C3755.48,2126.85,3756.4,2134.25,3755.93,2143Z"/><path class="cls-48" d="M3744.79,2182.23c-.53.79-1.08,1.55-1.64,2.29l-.1.12-1,1.29-87-72a2.12,2.12,0,0,1,.12-.2l.12-.19v0Z"/><path class="cls-49" d="M3865.65,1980.87a60.86,60.86,0,0,1-1.48,14c-.08.42-.19.83-.29,1.24a51.65,51.65,0,0,1-5.09,12.9c-.24.43-.49.86-.75,1.28a49.45,49.45,0,0,1-6.49,8.55c-22.59,23.88-62.12,3.91-62.12,3.91a6.8,6.8,0,0,1-1.14-.52c-.31-.15-.69-.36-1.11-.6l-.2-.11-.14-.08-1-.59h0l-.44-.27c-.3-.2-.63-.4-1-.64-8.54-5.67-24.73-20.21-22.36-45.57.07-.71.15-1.44.25-2.17a64.34,64.34,0,0,1,2.44-10.9,42.76,42.76,0,0,1,1.74-4.69c.21-.52.43-1,.68-1.54a44,44,0,0,1,7.35-11.12c.29-.34.6-.67.94-1a45.85,45.85,0,0,1,8.5-7l1.07-.65a53.23,53.23,0,0,1,11-5c.38-.14.76-.25,1.14-.36a61.28,61.28,0,0,1,11.06-2.31c.39,0,.78-.1,1.18-.13a70.16,70.16,0,0,1,13.35-.09l1.15.12a61.3,61.3,0,0,1,9.43,1.74c.39.09.77.2,1.13.31a49.09,49.09,0,0,1,4.8,1.63c.38.14.75.29,1.12.46l.64.28c.31.14.61.27.91.42a33.39,33.39,0,0,1,5.85,3.49l.13.1a22.28,22.28,0,0,1,3.57,3.39,48.68,48.68,0,0,1,4,5.61c.2.31.39.62.57.94a66.06,66.06,0,0,1,4,8l.45,1.1a74.12,74.12,0,0,1,3.46,11.43c.08.4.17.79.25,1.19a72.63,72.63,0,0,1,1.35,12C3865.64,1980.06,3865.65,1980.47,3865.65,1980.87Z"/><path class="cls-44" d="M3759.51,2114.66a4.68,4.68,0,0,1-.45.57l-1.38,1.53,0,0a4.2,4.2,0,0,1-.32.29,21.66,21.66,0,0,1-4.7,3.51c-9.76,5.43-22.05,5.92-33.35,4.66-.85-.09-1.69-.18-2.52-.3-2-.26-3.92-.58-5.79-.92-3.75-.68-7.7-1.48-11.58-2.55h0c-.72-.2-1.45-.41-2.17-.63h0a49.87,49.87,0,0,1-14.39-6.64c-.44-.29-.89-.62-1.31-.95a28.19,28.19,0,0,1-7.37-8.37c-.21-.38-.41-.75-.61-1.15a2.26,2.26,0,0,1-.11-.22c-.52-1.05-1-2.14-1.51-3.26a73.35,73.35,0,0,1-2.75-7.53c-.11-.38-.22-.77-.34-1.17a62.2,62.2,0,0,1-2.07-10.92c0-.4-.08-.79-.1-1.19a46.49,46.49,0,0,1,1-14.17c.08-.38.18-.74.28-1.1a34.49,34.49,0,0,1,4.06-9.45c.21-.34.42-.68.64-1a34.29,34.29,0,0,1,5.64-6.44c.23-.21.48-.42.73-.63.87-.73,1.78-1.43,2.74-2.1l.57-.38a3,3,0,0,1,.44-.29,61.14,61.14,0,0,1,6-3.54l.12-.07.81-.41c.52-.26,1-.52,1.56-.76a66.5,66.5,0,0,1,6.46-2.6c.37-.13.74-.26,1.12-.36a63.32,63.32,0,0,1,9.78-2.36c.39-.07.78-.13,1.18-.18a61.9,61.9,0,0,1,11.21-.6l1.21.06a57.67,57.67,0,0,1,12.85,2.17c.41.11.81.24,1.21.37a52.66,52.66,0,0,1,12.08,5.48h0c.4.25.78.51,1.17.79C3766.72,2054.12,3774.21,2096.13,3759.51,2114.66Z"/><path class="cls-42" d="M3740,1975.7c-.18,2.49-.39,4.66-.43,6.39-.07,3.05-1.34,6.82-3.7,10.7-.13.23-.28.46-.42.69l-.13.2-1.17,1.69-.12.18c-8.56,11.66-26.61,23.11-51.12,18.54-34.65-6.46-33.77-44.63-28.78-66.94a24.7,24.7,0,0,1,2.67-6.93.13.13,0,0,1,0-.07c5.95-10.29,18.3-13.18,26-13.93,1.92-.2,3.53-.24,4.69-.26h.05c1,0,1.63,0,1.82,0,34.65,3,46.14,16.89,49.59,30.56C3740.75,1963.46,3740.45,1970.31,3740,1975.7Z"/><path class="cls-48" d="M3754.39,1945.6l0,.06a18,18,0,0,1-1.23,2.34,19.15,19.15,0,0,1-11.45,8.25c-12.56,3.61-55.2-22.9-65.18-45.51-3.74-8.46-7.24-18.87-3.91-28a5.74,5.74,0,0,1,1.9-2.59l.4-.31h0c3.69-2.51,10.27-2.29,14.12-2a51.82,51.82,0,0,1,17,4.27c13.28,5.66,24.9,15.24,34.64,25.77,5.36,5.78,14.3,14.58,15.41,22.9A27.94,27.94,0,0,1,3754.39,1945.6Z"/><path class="cls-44" d="M3853.46,2152c-2.69,21.55-33.35,55.93-45.5,56.67-5.25.32-9.33-1-12.41-3.39a16.56,16.56,0,0,1-2.42-2.31,23,23,0,0,1-4.92-11.07c-1.29-7.17,4.25-17.05,7.43-23.39,5.79-11.53,13.5-22.84,23.76-31.42a52.14,52.14,0,0,1,13.92-8.54c3.37-1.32,9.16-3.45,13.13-2.46a5.3,5.3,0,0,1,2.84,1.7C3854.74,2134.35,3854.47,2144,3853.46,2152Z"/><path class="cls-42" d="M3821,1868.48h0c0,.51,0,1-.07,1.54a48.88,48.88,0,0,1-4.92,18.34h0c-.28.58-.56,1.13-.85,1.71h0c-.33.62-.67,1.24-1,1.86-8,14.2-22.31,23.6-39,20.84,0,0-1.87-.08-4.86-.53l-1.13-.18-.48-.07-1.61-.29c-11.71-2.23-32.64-9-38.46-29-.17-.57-.32-1.13-.45-1.72a39.12,39.12,0,0,1-.87-5.18,42.45,42.45,0,0,1-.1-7.3c0-.47.08-.94.13-1.41a44.44,44.44,0,0,1,2.33-10.28c.13-.39.28-.81.44-1.21a52.57,52.57,0,0,1,4.49-9l.71-1.09a60.12,60.12,0,0,1,6.66-8.32c.27-.28.55-.57.83-.84a61.05,61.05,0,0,1,5.62-5c.56-.45,1.14-.89,1.72-1.34l1-.74h0a80.35,80.35,0,0,1,9.62-6.12l1-.49a51.13,51.13,0,0,1,8.72-3.58c.38-.13.76-.24,1.13-.33h0a34.4,34.4,0,0,1,7.16-1.22l.57,0a29.55,29.55,0,0,1,3,0h.17a25.12,25.12,0,0,1,5.6,1l.86.29a23.8,23.8,0,0,1,5.49,2.77q1,.66,2,1.41l.93.71a59,59,0,0,1,7.35,7l.81.91c2.13,2.47,4.13,5,6,7.67.26.36.5.72.74,1.07s.47.66.68,1h0a51.33,51.33,0,0,1,6.38,13.56c.11.42.23.83.34,1.24h0A43.89,43.89,0,0,1,3821,1868.48Z"/><path class="cls-48" d="M3906.87,2226.11c0,.36,0,.73,0,1.1a54.76,54.76,0,0,1-.45,5.46q-.06.59-.15,1.17a70,70,0,0,1-1.56,7.61c-.11.38-.21.77-.32,1.16a82.5,82.5,0,0,1-4,11.07c-.16.38-.34.74-.5,1.12h0a81.73,81.73,0,0,1-6,10.9c-.22.35-.46.71-.69,1.06a69.35,69.35,0,0,1-8.94,10.67l-1,.92a51.21,51.21,0,0,1-9.73,7.12h0c-.46.24-.9.48-1.36.71a37.79,37.79,0,0,1-17.36,4.29c-17.17,0-37-9.75-42-27.46l-.18-.63,0-.14c-.12-.46-.24-.93-.35-1.41a.42.42,0,0,0,0-.12c-.13-.55-.24-1.12-.35-1.69,0-.08,0-.18-.05-.26-2.65-14.23-.51-30.72,6.54-43.49a31.83,31.83,0,0,1,2.62-4,21.59,21.59,0,0,1,1.46-1.71,34.79,34.79,0,0,1,10.09-7.67c.44-.25.9-.47,1.36-.7a58.16,58.16,0,0,1,10.3-3.73l1.43-.38a112.1,112.1,0,0,1,12.11-2.2l1.35-.18q2.19-.27,4.32-.48a60,60,0,0,1,7.18-.33h0l1.34,0a46.59,46.59,0,0,1,12,1.9l1.14.37a35.94,35.94,0,0,1,8.06,3.85c.33.21.66.44,1,.66a33.3,33.3,0,0,1,5,4.25,10.58,10.58,0,0,1,.79.86,32.77,32.77,0,0,1,2.68,3.31l0,.05a.67.67,0,0,0,.07.11.5.5,0,0,1,.08.12,24.44,24.44,0,0,1,3.72,10.34c.05.35.1.69.14,1A43.21,43.21,0,0,1,3906.87,2226.11Z"/><path class="cls-50" d="M3754.39,1945.6l0,.06-1.23,2.34-78.64-67.86.4-.31h0Z"/><path class="cls-51" d="M3848.7,2127.81l-53.61,77a23.22,23.22,0,0,1-2.8-2.9Z"/><path class="cls-50" d="M3736,1992.81l-.47.67-.13.2-1.17,1.69-.12.18-77.23-55.33a.13.13,0,0,1,0-.07l79,52.64Z"/><path class="cls-50" d="M3790,2015.83l-1.08.45c-.21-.5-14.9-39.73-22.38-59.73.21-.52.43-1,.68-1.54C3774.49,1974.53,3789.73,2015.22,3790,2015.83Z"/><path class="cls-50" d="M3794.19,2009.21l-.5,2.58-19.15-67.9c.29-.34.6-.67.94-1Z"/><path class="cls-50" d="M3798.89,2003.23l-.49-.35-.61,1.79c0-1.68-8.76-44.59-13.81-68.75l1.07-.65C3799.39,2002.54,3799.09,2003,3798.89,2003.23Z"/><path class="cls-50" d="M3785.93,2020.26l-.53.26-.52.25-.44-.89-22.36-45.57c.07-.71.15-1.44.25-2.17Z"/><path class="cls-50" d="M3804.89,1995.48l-1.17.14-7.63-65.35c.38-.14.76-.25,1.14-.36Z"/><path class="cls-50" d="M3810.64,1987.08l-1.25,1.69c-.47-18.69-1.1-48.25-1.1-61.17.39,0,.78-.1,1.18-.13C3809.53,1939.41,3810.14,1967.22,3810.64,1987.08Z"/><path class="cls-50" d="M3824,1927.5l-6.85,52.13-1,.82,6.72-53.07Z"/><path class="cls-50" d="M3834.53,1929.55l-7.61,35.57-1.59,1.76,8.07-37.64C3833.79,1929.33,3834.17,1929.44,3834.53,1929.55Z"/><path class="cls-50" d="M3842,1932.34c-1.67,6.42-3.82,14.53-5.05,19.19l-.93.68c1.61-6,3.59-14.11,5.07-20.29C3841.4,1932.06,3841.7,1932.19,3842,1932.34Z"/><path class="cls-50" d="M3858.79,2009c-.24.43-.49.86-.75,1.28l-68.54,8.67-.15-1.17Z"/><path class="cls-50" d="M3864.17,1994.82c-.08.42-.19.83-.29,1.24L3796,2009l-.23-1.16Z"/><path class="cls-50" d="M3865.65,1980.87l-64.31,19.88-.34-1.11,64.64-20C3865.64,1980.06,3865.65,1980.47,3865.65,1980.87Z"/><path class="cls-50" d="M3864.29,1967.62c-20.12,8.49-53.71,22.64-54.81,22.67l-.09-1.17c1.53-.3,34-13.94,54.65-22.69C3864.12,1966.83,3864.21,1967.22,3864.29,1967.62Z"/><path class="cls-50" d="M3860.58,1955,3820,1975.67l-.54-1.05,40.63-20.72Z"/><path class="cls-50" d="M3856.12,1945.87l-25.2,14.08.88-1.56,23.75-13.46C3855.75,1945.24,3855.94,1945.55,3856.12,1945.87Z"/><path class="cls-1" d="M3822.41,2209.59c-2.82,18.61-6.26,41.46-7.16,47.57-.15,1-.23,1.49-.24,1.56l-1.17-.13s0-.28.1-.71h0c.65-4.35,4.11-27.29,7-46.57A21.59,21.59,0,0,1,3822.41,2209.59Z"/><path class="cls-1" d="M3833.86,2201.22l-12.46,52.56-.05.19-1.68,2,.36-1.47,12.47-52.61C3832.94,2201.67,3833.4,2201.45,3833.86,2201.22Z"/><path class="cls-1" d="M3845.59,2197.11c-11.69,38-15.31,49.14-16.55,52.46-.49,1.37-.59,1.41-.68,1.46l-.24-.54-1.41,1.27c.06-.12.21-.51.43-1.14,2.05-5.81,10.38-32,17-53.13Z"/><path class="cls-1" d="M3859.05,2194.73l-20.5,49.63-.74,1.81-.17.4-.26.61-.8-.33h0l-.28-.12.61-1.47,20.8-50.35Z"/><path class="cls-1" d="M3871.9,2193.94c-6.12,11.3-16.15,30.31-24,45.29-.3.57-.59,1.15-.9,1.71l-.49.95-1.92.87c.12-.21.23-.43.34-.64.31-.58.61-1.18.93-1.78,7.51-14.3,18.09-34.3,24.7-46.42h0Z"/><path class="cls-1" d="M3885.05,2196.21l-28.31,38.16-1.33,1.78-.14.2-.29.05-1,.17.84-1.15,29.09-39.58Z"/><path class="cls-1" d="M3894.08,2200.72,3872,2226l-1.29,1.48-1.34,1.53-2.24.78.47-.54,1.39-1.59,24.15-27.6C3893.44,2200.27,3893.77,2200.5,3894.08,2200.72Z"/><path class="cls-1" d="M3899.87,2205.83l-8.16,9.32-.63.73-.54.62-1.44.51-.81.28.43-.49,10.36-11.83A10.58,10.58,0,0,1,3899.87,2205.83Z"/><path class="cls-1" d="M3873.52,2285.48c-.46.24-.9.48-1.36.71l-59.43-23.87-.16-.07c-.12-.46-.24-.93-.35-1.41l1.79.71Z"/><path class="cls-1" d="M3884.23,2277.44l-1,.92-62.59-20.72-1.6-.53.12-.37.25-.74.67.22,1.91.64Z"/><path class="cls-1" d="M3893.86,2265.71c-.22.35-.46.71-.69,1.06l-64.75-13.67-.88-.19.22-1,0-.1.13,0,2,.43Z"/><path class="cls-1" d="M3900.4,2253.68c-.16.38-.34.74-.5,1.12-18.78-2-55-6-62.33-7.08a8.73,8.73,0,0,1-1.28-.25l.28-.61h0l.2-.45c.07,0,.22,0,.44.1a2.61,2.61,0,0,1,.42.07l1.53.21C3848.38,2248,3881.47,2251.63,3900.4,2253.68Z"/><path class="cls-1" d="M3904.69,2241.45c-.11.38-.21.77-.32,1.16l-54.7-2-.87,0,0-.68,0-.5.79,0,1.91.07Z"/><path class="cls-1" d="M3906.4,2232.67q-.06.59-.15,1.17l-44.18-.52-1.63,0h-.16l1.53-.94h1.87Z"/><path class="cls-1" d="M3906.87,2226.11c0,.36,0,.73,0,1.1l-33.73-.38-1.06,0,1.52-.94,1.15,0Z"/><path class="cls-1" d="M3906.6,2220.81l-22.8-.26h-.87l.49-.3,1-.64h.1l.87,0,21.05.14C3906.51,2220.11,3906.56,2220.45,3906.6,2220.81Z"/><path class="cls-50" d="M3771.3,1903l-.71.94c-.37-.28-26.09-21.28-43.41-35.42,0-.47.08-.94.13-1.41C3744.56,1881.17,3770.85,1902.63,3771.3,1903Z"/><path class="cls-50" d="M3771.91,1897.63l-.83-.81-41.44-40c.13-.39.28-.81.44-1.21l41,39.54.47,1.31Z"/><path class="cls-50" d="M3772.65,1887.61l-.58-.06.37,1.85c-.73-1.19-21.46-24.48-37.87-42.77l.71-1.09C3772.73,1886.82,3772.68,1887.29,3772.65,1887.61Z"/><path class="cls-50" d="M3770,1908.84l-.24.38-.4.61-.22-.14-.59-.4-40-26.59c-.17-.57-.32-1.13-.45-1.72l41,27.25Z"/><path class="cls-50" d="M3773.94,1877.89l-.94.71-31.06-41.38c.27-.28.55-.57.83-.84Z"/><path class="cls-50" d="M3774.67,1867.74l-.22,2.09c-7-11.37-16.89-27.48-24.34-39.83l1-.74C3758.11,1840.82,3767.39,1856,3774.67,1867.74Z"/><path class="cls-50" d="M3776.52,1858l-.45,1.22-15.35-36.13,1-.49Z"/><path class="cls-50" d="M3779.09,1841.76l-.49,2.34-8.21-25c.38-.13.76-.24,1.13-.33h0Z"/><path class="cls-50" d="M3781.2,1824.61l-.18,1.18c-.69-2.52-1.5-5.37-2.33-8.28l.57,0C3780,1820.2,3780.67,1822.69,3781.2,1824.61Z"/><path class="cls-50" d="M3821,1868.49c0,.51,0,1-.07,1.54l-51.15,39.19-.62.47-.18.14-.41-.54-.31-.4.85-.66h0Z"/><path class="cls-50" d="M3816,1888.38c-.28.58-.56,1.13-.85,1.71h0l-46,22-.36.18-.12-.25-.39-.81Z"/><path class="cls-50" d="M3819.57,1856.18h0L3771,1898.45l-.78-.9.85-.73.42-.37,47.73-41.51C3819.34,1855.36,3819.46,1855.77,3819.57,1856.18Z"/><path class="cls-50" d="M3812.85,1841.37h0l-39.87,43.4-.86-.8,40.05-43.61C3812.42,1840.71,3812.64,1841,3812.85,1841.37Z"/><path class="cls-50" d="M3805.43,1831.63c-12.91,17.2-29.33,39-30.14,39.47l-.67-1c1-.89,17-22.08,30-39.41Z"/><path class="cls-50" d="M3797.27,1823.74l-19.76,30.73-1-.64,19.82-30.8Z"/><path class="cls-50" d="M3788.87,1818.85l-9,15.23.23-1.73,7.91-13.79Z"/><path class="cls-50" d="M3749,2108c-.41.13-28.33,7.71-49.59,13.48h0c-.72-.2-1.45-.41-2.17-.63l51.44-14Z"/><path class="cls-50" d="M3744.94,2102.81l-62.16,11.42c-.44-.29-.89-.62-1.31-.95l61-11.2Z"/><path class="cls-50" d="M3739.27,2098.07c-1.56-.11-40.16,4-65.17,6.84-.21-.38-.41-.75-.61-1.15,63.82-7.46,64.19-7.13,64.44-6.91l-.38.44Z"/><path class="cls-50" d="M3753.07,2112.44l-33.81,12.83c-.85-.09-1.69-.18-2.52-.3l35.91-13.64Z"/><path class="cls-50" d="M3731.24,2091.33l-62.12,1.42c-.11-.38-.22-.77-.34-1.17l62.44-1.42Z"/><path class="cls-50" d="M3725.12,2085.05c-17.5-1.19-44.51-3.14-58.41-4.39,0-.4-.08-.79-.1-1.19,13,1.09,38.42,2.91,56.95,4.17Z"/><path class="cls-50" d="M3716.12,2076.11l-48.5-10.81c.08-.38.18-.74.28-1.1l47.51,10.82Z"/><path class="cls-50" d="M3704.76,2065.05l-32.8-10.3c.21-.34.42-.68.64-1l30.54,9.58Z"/><path class="cls-50" d="M3690.8,2051.77c-3.72-1.38-8.23-3-12.56-4.48.23-.21.48-.42.73-.63l11.25,4.13Z"/><path class="cls-50" d="M3751.64,2107.66l-1.18,0-2.16-66.6h0c.4.25.78.51,1.17.79Z"/><path class="cls-50" d="M3742.37,2100.26l-1.17.12-6.19-65.14c.41.11.81.24,1.21.37Z"/><path class="cls-50" d="M3734.67,2092.75l-1.15.24L3721,2033l1.21.06Z"/><path class="cls-50" d="M3725,2083.34l-1.18,0c-.15-1.38-8.64-28.49-15.28-49.52.39-.07.78-.13,1.18-.18C3716.3,2054.4,3725.07,2082.35,3725,2083.34Z"/><path class="cls-50" d="M3713.24,2072.54l-1.1.44-14.48-36.47c.37-.13.74-.26,1.12-.36Z"/><path class="cls-50" d="M3697.58,2057.82l-1.48-1-7.39-16.46.12-.07.81-.41Z"/><path class="cls-50" d="M3848,1935.93l-59.69,86.25c-.31-.15-.69-.36-1.11-.6l-.2-.11-.14-.08-1-.59h0l-.44-.27,62.45-84.69Z"/><path class="cls-42" d="M3886.71,2095.17c-16.43,21.84-49.09,27.49-71.44,11.36a34,34,0,0,1-8.1-8.18l-.18-.25a1.37,1.37,0,0,1-.15-.21c-.1-.13-.19-.27-.29-.41-.43-.65-.83-1.32-1.2-2,0,0,0,0,0,0l-.07-.12c-10.59-18.79-4-46.54,5.11-64.82,9-17.94,27.85-30.41,48.26-28.8,12.95,1,22.56,8.46,28.95,19l0,.06c.87,1.42,1.67,2.9,2.42,4.43h0c.22.46.44.92.65,1.39C3900.61,2048.29,3899.05,2078.78,3886.71,2095.17Z"/><path class="cls-50" d="M3887.61,2020.76l-80.44,77.59-.18-.25a1.37,1.37,0,0,1-.15-.21c-.1-.13-.19-.27-.29-.41-.43-.65-.83-1.32-1.2-2l82.23-74.79Z"/><path class="cls-50" d="M3759.51,2114.66a4.68,4.68,0,0,1-.45.57l-1.38,1.53,0,0a4.2,4.2,0,0,1-.32.29l-75-72.92a3,3,0,0,1,.44-.29Z"/><path class="cls-50" d="M3782.41,1817.52l-12.13,94.75c-1-.14-2.05-.32-3.22-.54l15.18-94.22Z"/><g class="cls-52"><path class="cls-44" d="M3755.93,2143c-77,21.65-83.9-41.23-84.06-42.72v0s0,0,0,0c.49,1.1,1,2.19,1.5,3.23a2.26,2.26,0,0,0,.11.22c.2.4.4.77.61,1.15a28.19,28.19,0,0,0,7.37,8.37c.42.33.87.66,1.31.95a49.87,49.87,0,0,0,14.39,6.64h0c.72.22,1.45.43,2.17.63h0c3.88,1.07,7.83,1.87,11.58,2.55,1.87.34,3.81.66,5.79.92.83.12,1.67.21,2.52.3,11.3,1.26,23.59.77,33.35-4.66C3755.48,2126.85,3756.4,2134.25,3755.93,2143Z"/></g><g class="cls-52"><path class="cls-44" d="M3740,1975.7c-23.09-2.17-47.53-35.08-57.19-49.48l4.69-.26h.05c15.16,16.08,39.77,30.35,51.41,30.61C3740.75,1963.46,3740.45,1970.31,3740,1975.7Z"/></g><line class="cls-51" x1="3902.66" y1="2209.31" x2="3812.19" y2="2260.72"/><path class="cls-51" d="M3902.74,2209.42l-90.14,53c-.14-.54-.28-1.1-.41-1.67s-.25-1.11-.35-1.69l90.75-49.84s0,.08.07.12A1,1,0,0,1,3902.74,2209.42Z"/><path class="cls-44" d="M3868.34,2360.14v35.47a6.57,6.57,0,0,1-6.57,6.57v70.91a32.46,32.46,0,0,1-32.46,32.46h-74a32.48,32.48,0,0,1-32.48-32.48v-70.89a6.57,6.57,0,0,1-6.56-6.57v-35.46a11.31,11.31,0,0,1,11.31-11.32H3857A11.3,11.3,0,0,1,3868.34,2360.14Z"/><path class="cls-53" d="M3861.77,2402.18v70.91a32.46,32.46,0,0,1-32.46,32.46h-30.78c22.82-1.53,30.39-20.08,31.53-40.36,1-17.5,4-50.59-18.57-55.53l-34.18-7.48Z"/></g></g></g></svg>