<svg xmlns="http://www.w3.org/2000/svg" viewBox="0 0 4680 3120"><defs><style>.cls-1{fill:#fff;}.cls-2{fill:#ebf6f8;}.cls-3{fill:#b4cdd6;opacity:0.33;}.cls-4,.cls-6{fill:#050b1b;}.cls-13,.cls-4{fill-rule:evenodd;}.cls-5{fill:#c6e9ef;}.cls-10,.cls-11,.cls-7,.cls-8,.cls-9{fill:none;stroke-miterlimit:10;stroke-width:2px;}.cls-7{stroke:#53729d;}.cls-8{stroke:#6d8ab1;}.cls-9{stroke:#86a1c5;}.cls-10{stroke:#a2bbd9;}.cls-11{stroke:#bed3ed;}.cls-12{fill:#53729d;}.cls-13,.cls-14{fill:#342b1e;}.cls-15{fill:#f6d6cb;}.cls-16{fill:#111751;}.cls-17{fill:#243b7f;}.cls-18{fill:#4e445c;}.cls-19,.cls-20{fill:#0e0506;}.cls-20{opacity:0.32;}.cls-21{fill:#4f3b43;}.cls-22{fill:#f1b7ac;}.cls-23{fill:#efbeaf;}.cls-24{fill:#331a24;}.cls-25{fill:#58434a;}.cls-26{fill:#f7908b;}.cls-27{fill:#f89739;}.cls-28{fill:#e67225;}.cls-29{fill:#d15a18;}.cls-30{fill:#010838;}.cls-31{fill:#100708;}.cls-32{fill:#3e2a2c;}.cls-33{fill:#f9fafa;}.cls-34{opacity:0.47;}.cls-35{fill:#4bb2b7;}.cls-36{fill:#9df7fc;}.cls-37{fill:#d0e2e4;}.cls-38{fill:#e5eaee;}.cls-39{fill:#668787;}.cls-40{fill:#65566d;}.cls-41{fill:#4ebfc4;}.cls-42{fill:#a5ddea;}.cls-43{fill:#bbf2ff;}.cls-44{fill:#5bc7d1;}.cls-45{fill:#f3f9ff;}.cls-46{fill:#6198ba;}.cls-47{opacity:0.34;}</style></defs><title>03</title><g id="Layer_2" data-name="Layer 2"><g id="Layer_1-2" data-name="Layer 1"><g id="_03" data-name="03"><rect class="cls-1" width="4680" height="3120"/><rect class="cls-2" width="4680" height="2400"/><ellipse class="cls-3" cx="890.25" cy="2465.36" rx="130.25" ry="34.35"/><ellipse class="cls-3" cx="2322" cy="2605.39" rx="948.99" ry="75.36"/><rect class="cls-1" x="1886.42" y="1082.02" width="1183.92" height="875.25"/><path class="cls-4" d="M2453.67,2519.66V1980.23c0-11.13,12.34-20.23,27.38-20.23h0c15.07,0,27.38,9.1,27.38,20.23v539.43c0,11.14-12.31,20.25-27.38,20.25h0C2466,2539.91,2453.67,2530.8,2453.67,2519.66Z"/><path class="cls-5" d="M2478.66,1093.55h619.07v885.86H2478.66v-33.36h564.78V1126.92H2478.66Zm-592,0h592v33.37H1913.82v819.13h564.84v33.36H1859.55V1093.55Z"/><path class="cls-4" d="M2025.15,2586.85l295.11-592.27h57.4l-300.29,602.65C2064.37,2623.34,2012,2616.73,2025.15,2586.85Z"/><path class="cls-4" d="M2937,2586.85l-295.1-592.27h-57.42l300.29,602.65C2896,2620,2949.74,2612.48,2937,2586.85Z"/><rect class="cls-6" x="2206.17" y="2276.09" width="549.79" height="34.58"/><rect class="cls-7" x="2516.79" y="1343.79" width="84.21" height="486.3"/><rect class="cls-8" x="2419.38" y="1527.15" width="84.25" height="302.94"/><rect class="cls-9" x="2322" y="1629.74" width="84.24" height="200.34"/><rect class="cls-10" x="2224.62" y="1535.8" width="84.22" height="294.29"/><rect class="cls-11" x="2127.22" y="1619.64" width="84.23" height="210.44"/><polyline class="cls-7" points="2127.22 1856.22 2632.79 1856.22 2632.79 1309.22"/><path class="cls-12" d="M2632.79,1297.15c2.11,5.68,5.7,12.72,9.51,17.09l-9.51-3.44-9.51,3.44C2627.09,1309.87,2630.69,1302.83,2632.79,1297.15Z"/><path class="cls-13" d="M1846.82,1968.08h1269c15.06,0,27.38,7.79,27.38,17.29h0c0,9.51-12.32,17.29-27.38,17.29h-1269c-15.08,0-27.39-7.78-27.39-17.29h0C1819.43,1975.87,1831.74,1968.08,1846.82,1968.08Z"/><path class="cls-13" d="M1846.82,1059h1269c15.06,0,27.38,7.79,27.38,17.29h0c0,9.52-12.32,17.29-27.38,17.29h-1269c-15.08,0-27.39-7.77-27.39-17.29h0C1819.43,1066.76,1831.74,1059,1846.82,1059Z"/><rect class="cls-14" x="2701.74" y="1349.66" width="260.21" height="7.82" rx="1.9"/><rect class="cls-14" x="2701.74" y="1368.67" width="260.21" height="7.82" rx="1.9"/><rect class="cls-14" x="2701.74" y="1387.67" width="260.21" height="7.82" rx="1.9"/><rect class="cls-14" x="2701.74" y="1406.67" width="260.21" height="7.82" rx="1.9"/><rect class="cls-14" x="2701.74" y="1425.67" width="162.32" height="7.82" rx="1.9"/><polygon class="cls-15" points="1539.78 2399 1532.89 2521.24 1524.95 2544.21 1489.73 2534.56 1485.65 2489.43 1478.34 2408.58 1539.78 2399"/><path class="cls-16" d="M1534.6,2490.92l-1.71,30.32-7.94,23-35.22-9.65-4.08-45.13C1498.09,2492.86,1516.48,2495.83,1534.6,2490.92Z"/><polygon class="cls-15" points="1681.57 2367.5 1674.26 2471.64 1670.71 2522.23 1625.81 2529.7 1623.72 2473.94 1620.89 2398.47 1681.57 2367.5"/><path class="cls-16" d="M1674.26,2471.63l-3.55,50.6-44.9,7.47-2.09-55.76C1634.75,2476.57,1656.77,2480,1674.26,2471.63Z"/><path class="cls-17" d="M1724.19,2072.94c-16,98.23-40.17,331.23-40.17,331.23-18.31,12.51-35.87,13.14-48.79,10.72a62.39,62.39,0,0,1-20.82-7.68c-12.57-64.94-23.35-306.19-23.88-318.18,0,1.53-.17,3.53-.44,5.91-2.42,22.3-14.61,76.68-14.61,76.68-22.36,58.71-33.33,249.29-33.33,249.29-55.13,19.91-70.31-6.37-70.31-6.37s-26.27-260.94-11.63-295.42,1.6-199.22-7.07-259.19c-2.94-20.32-3.23-41.91-2.32-61.59v0a504,504,0,0,1,8.05-69.48l37.95-3.36,221.64-19.57s.77,9.45,1.9,25.48c.43,5.95.9,12.81,1.4,20.44C1727.15,1833,1736.07,2000,1724.19,2072.94Z"/><path class="cls-16" d="M1722.3,1759.87s-128.81,46.28-171.92,44.91-96,64.16-96,64.16-9.8-76.55,0-93,267.4-24.06,267.4-24.06Z"/><path class="cls-16" d="M1614.41,2407.2c-12.66-65.44-23.51-310-23.89-318.4a60.54,60.54,0,0,1-.42,6.14l.42-6.37L1639.3,1802s12.78,51-14.54,199.6c-23.79,129.38,3.12,356.65,10.47,413.26A62.51,62.51,0,0,1,1614.41,2407.2Z"/><path class="cls-18" d="M1678.71,2503.82s-27.78,20.11-53.19,3.73c0,0-3.23-6.71-6.88,28s-2.41,42.19-2.41,42.19,64.45,13,180.53,9c0,0,24.82-4.47,19.41-34.33,0,0-3.09-7.48-6.91-10.3S1725.59,2527,1678.71,2503.82Z"/><path class="cls-19" d="M1616,2571.75s163.89,13.59,197.53,2.8c0,0-.11,1.56-6.32,19.34l-191.34-4.64Z"/><path class="cls-20" d="M1618.64,2535.56s36.45,37.88,175.57,42.06c0,0-122,11-178.18-5.87Z"/><path class="cls-18" d="M1532.9,2521.24s-19.7,20.54-45.1,4.16c0,0-3.24-6.72-6.89,28s-2.41,42.19-2.41,42.19,64.45,13,180.53,9c0,0,24.83-4.48,19.41-34.34,0,0-3.08-7.47-6.91-10.29S1579.77,2544.4,1532.9,2521.24Z"/><path class="cls-19" d="M1478.3,2589.6s163.89,13.58,197.54,2.8c0,0-.12,1.55-6.32,19.34l-191.34-4.65Z"/><path class="cls-20" d="M1480.91,2553.41s36.45,37.87,175.57,42.06c0,0-122,11-178.18-5.87Z"/><path class="cls-21" d="M1673.24,1160.11c-5.47,18.07-14.4,25.18-14.4,25.18l-23.71-90.08s36.15-33.78,41.48,19C1678.63,1134.1,1676.57,1149.14,1673.24,1160.11Z"/><path class="cls-22" d="M1541.79,1288.7s8.45,56.45,3.11,75.56,56.89,18.22,61.78,5.78c0,0-5.77-35.56,0-65.34S1541.79,1288.7,1541.79,1288.7Z"/><path class="cls-22" d="M1616.17,1101.73s55.11,1.19,51,94.82c0,0-3.56,10.67,5.33,30.82s-30.22,98.37-64.59,94.22-89.49-24.89-107.86-75.26c0,0-31.41-23.11-21.92-53.33S1616.17,1101.73,1616.17,1101.73Z"/><path class="cls-23" d="M1639.26,1110.9s-24.32-1.76-35.12,20.91-65.46,73.11-64.13,91.78l-.29,13.85-15.56-19.27s-16.22-25.41-37.18-8.33,5.48-38.15,5.48-38.15S1619.38,1069.32,1639.26,1110.9Z"/><path class="cls-24" d="M1550.68,1178.18s-20.15,13.33-11,59.26c0,0-23.71-19.26-25.49-52.15S1550.68,1178.18,1550.68,1178.18Z"/><path class="cls-25" d="M1642.57,1113.47s-23.88-23.88-45.22,19.68a121.42,121.42,0,0,1-19.25,28.65c-21.26,23.47-49.41,34.6-78.54,37.56,0,0-8.28,1.13-11.75,8.36v0a5.13,5.13,0,0,0-.37.83s0,0,0,0c-2.72,6.7-1.38,18.2,12.6,37.72,0,0,7.3,18.76,16.28,28.38,0,0,12.62,10.89-4.73,15.77s-8-34.67-20.43-40c-7-3-27.56-17.37-37.18-37.16-7.44-15.35-8.33-34,8.72-53.07,22.24-24.89,36-76.45,82.23-97.33C1624.82,1026.81,1653.12,1094.48,1642.57,1113.47Z"/><path class="cls-24" d="M1520.72,1281.89l-.09-.21a9.85,9.85,0,0,0-1.57-3.75c-9-22.21-6.6-28.18-6.6-28.18a15.58,15.58,0,0,1-2.39-.33,24.41,24.41,0,0,1-15.63-11.54c-8.7-14.49-9.33-23.6-7-29.27-1.71,3.27-9.36,14-33.46,4.71,9.62,19.79,30.16,34.15,37.18,37.16,12.44,5.33,3.1,44.89,20.43,40,7.68-2.16,9.48-5.5,9.11-8.55Z"/><path class="cls-26" d="M1544.38,1309.39s30,32.64,59.76,29.09v-17.39s-31.31-4.61-61.05-22.8Z"/><path class="cls-27" d="M1754.92,1658.36c-9.84,6.64-16.48,10.56-18.36,10.45,0,0-6.8,27-8.94,50.22-.71,7.73,1.37.68,1.37.68s1.38-25.44-16.5-26.13-86.67,3.43-101.11,6.87-71.55,29.57-107.32,33S1468,1770.1,1468,1770.1s-30.84-11.64-33.35-115a1190.3,1190.3,0,0,1-11.7-122.46c-2.76-66-3.74-126.78,26-140.09s86.82-41.5,86.82-41.5l44.48,15.37,51.12-15.37s65.9,6.11,76.13,14.91c24.54,21.09,51.06,196.73,51.06,196.73s-10.93,20.17,156.91-85.75L1945,1514S1806.35,1623.59,1754.92,1658.36Z"/><path class="cls-28" d="M1516.84,1360.27s29.64,46.69,37.44,42.11,18.34-24.54,29.81-16.05,18.57,17,30.26,7.33,33.53-41.11,33.53-41.11-76.63,20.71-93.83,14.06a161.49,161.49,0,0,0-32.31-8.74Z"/><path class="cls-28" d="M1739.37,1680c1.57,9.54,2.08,24-4.53,38.54-9.68,21.27-13.07,33.33-13.07,33.33l-110.5,23.57a275.27,275.27,0,0,1-48.11,5.89l-112.33,3.77s2-7.79-1.79-21.15c-3.39-11.91-9.12-29.07-12.39-53.61a303.23,303.23,0,0,1-2.05-55.24c11.68,35.07,27.28,39.88,27.28,39.88,36.46,8.27,244.64-16.5,244.64-16.5-.51-1.51-2.73-8.53-3-10a49.61,49.61,0,0,1,.21-19.19,66.34,66.34,0,0,1,3.22-11.11c.83-2.13,1.44-3.35,1.44-3.35s-185,1-194.19-7.23-14.24-120.36-14.24-120.36,13.76,90.79,20.79,107.3c5.93,13.92,129.12,15,174,13.77a15.63,15.63,0,0,0,15.18-16.11c-1.26-39.9-4.61-144.43-5-146.87.78,2.86,16.87,105,32.67,176.12,1.15,5.17,2.29,10.18,3.43,15-9.84,6.65-2.59,12.56-4.47,12.45,0,0,.5,1.29,1.13,3.59a.11.11,0,0,1,0,.07,75.13,75.13,0,0,1,1.63,7.41Z"/><path class="cls-29" d="M1739.37,1680s-22.07-.83-34.46,11.1c-10.81,10.41-204.84,37.64-268.26,19.24a303.23,303.23,0,0,1-2.05-55.24c11.68,35.07,27.28,39.88,27.28,39.88,36.46,8.27,244.64-16.5,244.64-16.5-.51-1.51-2.73-8.53-3-10a49.61,49.61,0,0,1,.21-19.19c25.63,4.19,33.46,21.93,34,23.18a.25.25,0,0,0,0,.07l1.63,7.41Z"/><path class="cls-22" d="M1920.66,1488.66l15.86,23.47s4.12-9.51,20-17.75,46.29-43.46,49.47-46c1.3-1,2-5,2.16-9.68a85.53,85.53,0,0,0-1.06-17.13c-.14-.76-.3-1.46-.46-2a16.29,16.29,0,0,1-.4-4.92c.34-7.58,3.81-18.52,4.84-27.43,1.26-11.09-5.08-7.6-5.08-7.6-11.37,6.76-16.79,39.41-17.12,41.44a.34.34,0,0,0,0,.1s-26.32,23.79-29.49,22.2,1.59-9.52,4.44-14.28,1.27-22.19-2.85-26-4.44,18.72-13,29-12.68,21.8-10.46,32.57c1.3,6.35-3.81,13.11-8.79,17.87A44.24,44.24,0,0,1,1920.66,1488.66Z"/><path class="cls-26" d="M1994,1436.87c9.09-6.76,3.39-16.91,2.33-27.48s8.88-13.54,8.88-7.62c0,3.13.51,8.48,1,12.84.34-7.58,3.81-18.52,4.84-27.43,1.26-11.09-5.08-7.6-5.08-7.6-11.37,6.76-16.79,39.41-17.12,41.44a.34.34,0,0,0,0,.1C1992.54,1432,1994,1436.87,1994,1436.87Z"/><path class="cls-26" d="M1920.66,1488.66l15.86,23.47s4.12-9.51,20-17.75,46.29-43.46,49.47-46c1.3-1,2-5,2.16-9.68-8.23,5.63-22.4,29.56-39.9,38.54a61.17,61.17,0,0,1-39.55,5.18A44.24,44.24,0,0,1,1920.66,1488.66Z"/><path class="cls-16" d="M1786.28,1705.44l31.4-55.64c2.41-1.34,5-5.2,7.56-13.41l11.76-20.83,14.5-25.7,194.79-325.25s4-8.86-2.92-5.64c-2.28,1.06-40,61.65-84.73,134.28s-96.15,157.11-126.17,206.45l-4.5,7.08v0h0l-56,88.18S1773.3,1708.57,1786.28,1705.44Z"/><path class="cls-30" d="M1786.28,1705.44l31.4-55.64c2.41-1.34,5-5.2,7.56-13.41l11.76-20.83c-11.85,2.07-9.24-8-9-8.74l-56,88.18S1773.3,1708.57,1786.28,1705.44Z"/><path class="cls-22" d="M1812.11,1638.11a7.39,7.39,0,0,0,1.73,2.2v0c0,.18-.08,1.28-.2,3-.55,9.12-2.37,36.08-4,37.52l0,0a21.34,21.34,0,0,1-6,2.6,26,26,0,0,1-5,.78h0c-13.14.81-28.23-6.81-37.63-8.52-2-.38-4.72-.8-7.92-1.26l-6.21-.87-9-1.13-29.28-3.64-5-.42c-2.52-12.45,1.21-24.62,3.43-30.3,8.39,1,21.92,2.62,30.68,3.27,1.92.13,3.6.24,5,.27,10.84.27,36.44-10.29,43.48-14.64,5.22-3.23,18.24-1,24.66.36,2.23.46,3.67.84,3.67.84l-.85.87A7.75,7.75,0,0,0,1812.11,1638.11Z"/><path class="cls-26" d="M1798.21,1684.21l.31,0h0a13.76,13.76,0,0,0,5-.79,33.64,33.64,0,0,0,6.08-2.63,57.72,57.72,0,0,0,6.34-4c11.23-7.94,15.67-34.27,14.89-40.6a0,0,0,0,1,0,0,3,3,0,0,0-.29-1.1c-1.75-3-2.65-3.54-2.65-3.54s2.63,9-14.1,8.71v0c-.06.17-.33,1.2-.79,2.84C1810.32,1653,1801.29,1684.66,1798.21,1684.21Z"/><polygon class="cls-31" points="1718.92 1653.95 1717.08 1669.85 1729.51 1671.36 1731.65 1653.71 1718.92 1653.95"/><path class="cls-26" d="M1810.68,1642.55a22.69,22.69,0,0,0,2.37.63l.59.13c12.66,2.47,17.24-7,17.24-7a0,0,0,0,1,0,0,3,3,0,0,0-.29-1.1c-1.75-3-2.65-3.54-2.65-3.54l-2.32,3.65c-1.27,2-3.37,4.61-9.6,5a4.09,4.09,0,0,1-3.89-2.13v0c-1.5-2.89-.4-6,1.58-8.85l.66-1s-1.44-.38-3.67-.84C1806,1632,1800.73,1639.43,1810.68,1642.55Z"/><circle class="cls-32" cx="1726.91" cy="1648.57" r="10.39"/><path class="cls-1" d="M1537.54,1338.75l42.65,27.63,35.77-31.19,26.59,15.6-38.41,41.73s-7.9-17.89-24-26.14c0,0-19.74,13.76-27.06,26.14l-32.41-35.77Z"/><path class="cls-27" d="M2109.55,1268.14h24.55c14.65,0,27.23,5.36,27.23,22.28,0,16.4-12.79,23.52-26.82,23.52h-7.22v21.25h-17.74Zm24.13,31.77c7,0,10.32-3.51,10.32-9.49s-3.92-8.25-10.73-8.25h-6v17.74Z"/><path class="cls-27" d="M2172.3,1268.14h17.75v52.2h25.38v14.85H2172.3Z"/><path class="cls-27" d="M2237.94,1268.14h21.46l20.43,67h-18.78l-7.63-32.6c-1.65-6.39-3.3-14.54-5-21.25h-.41c-1.44,6.81-3.09,14.86-4.74,21.25l-7.64,32.6h-18.16Zm-5.78,39.1H2265V1321h-32.81Z"/><path class="cls-27" d="M2285.23,1268.14h18.15l14.86,29.92,6.39,15.06h.42c-.83-7.23-2.27-17.34-2.27-25.59v-19.39h16.92v67h-18.16l-14.86-30-6.39-15h-.42c.83,7.63,2.28,17.33,2.28,25.58v19.39h-16.92Z"/><path d="M2105.46,1357.49c12.19-1,24.39-1.91,36.59-2.76s24.43-1.51,36.64-2.15c24.44-1.29,48.89-2.31,73.35-2.93s48.95-.6,73.41.15c12.23.36,24.46,1,36.65,2.07s24.37,2.66,36.25,5.62c-11.92-2.8-24.11-4.13-36.29-5.13s-24.4-1.6-36.63-1.9c-24.45-.64-48.91-.41-73.37.19s-48.9,1.41-73.33,2.59q-18.33.88-36.65,2T2105.46,1357.49Z"/><path d="M2097.91,1387c13-1.59,26-3.06,39-4.49s26-2.67,39-3.91c26-2.45,52.12-4.67,78.22-6.48s52.25-3,78.41-3.56c13.08-.27,26.17-.31,39.25.08a323.66,323.66,0,0,1,39.09,3.27,323.68,323.68,0,0,0-39.1-2.78c-13.07-.32-26.15-.23-39.23.1-26.14.63-52.26,2.08-78.36,3.88s-52.17,3.81-78.22,6.15q-19.55,1.77-39.06,3.74T2097.91,1387Z"/><ellipse class="cls-5" cx="2152.49" cy="599.37" rx="179.8" ry="182.04"/><ellipse class="cls-33" cx="2152.49" cy="599.37" rx="160.3" ry="162.3"/><path class="cls-5" d="M2165.91,599.37a13.43,13.43,0,1,1-13.42-13.59A13.5,13.5,0,0,1,2165.91,599.37Z"/><rect class="cls-5" x="2149.44" y="443" width="6.45" height="29.69"/><rect class="cls-5" x="2149.44" y="726.23" width="6.45" height="29.69"/><rect class="cls-5" x="2289.27" y="584.8" width="6.53" height="29.32" transform="translate(2892 -1693.08) rotate(90)"/><rect class="cls-5" x="2009.53" y="584.8" width="6.53" height="29.32" transform="translate(2612.26 -1413.34) rotate(90)"/><polygon class="cls-5" points="2149.12 594.67 2152.73 491.75 2156.34 594.67 2149.12 594.67"/><polygon class="cls-5" points="2148.55 601.21 2079.28 525.79 2153.66 596.05 2148.55 601.21"/><g class="cls-34"><rect class="cls-35" x="3448.87" y="1597.87" width="471.13" height="901.45"/><path class="cls-36" d="M3876.21,1641.66v813.87H3492.67V1641.66h383.54m43.79-43.79H3448.87v901.45H3920V1597.87Z"/><rect class="cls-36" x="3473.73" y="2039.5" width="422.29" height="43.79"/><rect class="cls-1" x="3516.16" y="2264.78" width="337.44" height="96.58"/><rect class="cls-37" x="3516.16" y="2286.68" width="337.44" height="6.26"/><rect class="cls-37" x="3516.16" y="2309.94" width="337.44" height="6.26"/><rect class="cls-37" x="3516.16" y="2334.09" width="337.44" height="6.26"/><rect class="cls-1" x="3516.16" y="2168.2" width="337.44" height="96.58"/><rect class="cls-37" x="3516.16" y="2190.1" width="337.44" height="6.26"/><rect class="cls-37" x="3516.16" y="2213.36" width="337.44" height="6.26"/><rect class="cls-37" x="3516.16" y="2237.51" width="337.44" height="6.26"/><rect class="cls-38" x="3410.39" y="1865.04" width="289.35" height="49.27" transform="translate(5444.74 -1665.39) rotate(90)"/><rect class="cls-39" x="3438.35" y="1881.66" width="298.73" height="16.03" transform="translate(5477.39 -1698.04) rotate(90)"/><rect class="cls-39" x="3373.83" y="1881.66" width="298.73" height="16.03" transform="translate(5412.87 -1633.52) rotate(90)"/><rect class="cls-38" x="3490.94" y="1865.04" width="289.35" height="49.27" transform="translate(5525.29 -1745.93) rotate(90)"/><rect class="cls-40" x="3518.89" y="1881.66" width="298.73" height="16.03" transform="translate(5557.93 -1778.58) rotate(90)"/><rect class="cls-40" x="3454.38" y="1881.66" width="298.73" height="16.03" transform="translate(5493.42 -1714.07) rotate(90)"/><rect class="cls-27" x="3516.16" y="2359.62" width="337.44" height="95.41"/><rect class="cls-27" x="3676.67" y="1740.31" width="80.55" height="298.73"/><rect class="cls-37" x="3757.21" y="1740.31" width="80.55" height="298.73"/></g><path class="cls-41" d="M1162.19,2225.6a92.72,92.72,0,0,0-15.82,16.15q-2.22-19-4.43-37.93c-.89-7.59-1.76-15.37,0-22.81,1.28-5.42,4-10.78,3-16.27a22.51,22.51,0,0,0-5.71,16.14c-2.67-10.06-3.83-20.4-6.39-30.49-3.26-12.84-5.79-31.37-7.76-52.82,21.15-32,35-32.54,35-32.54s9.58-6.18,0-4.41c-7.72,1.42-28,22.28-35.62,30.32,1.5-1.59-1.13-14.48-1.3-17q-.64-9.33-1.15-18.67c-.7-12.61-3.8-25.27.26-37.43a119.81,119.81,0,0,1,18.27-34.54c-1.07-.94-2.6.4-3.36,1.6q-8.91,14.05-17,28.59-2.31-68.49-1.81-137c-2.16,1.69-2.37,4.83-2.39,7.57l-.38,39.88-14.16-12.09-1.17,1.74,12.18,15.84a12.5,12.5,0,0,1,3.23,9.93l.28,51.36c-12.13-13.89-24.93-28.26-42.06-35.08,8.76,3.48,17.78,14.06,24,20.89a143.17,143.17,0,0,1,18.35,25.58c.59,36,1.75,72.76,3.84,99.39a219.49,219.49,0,0,0-13.88-20.36s-5.69-4.31-3.14-1.37c1.8,2.08,11.88,19.36,17.67,29.38.26,2.79.54,5.46.82,7.94,3.24,28.14,8.22,56.21,12.45,84.24l-43.94-55.56c-2.77,2.94-.06,7.62,2.58,10.67a458.41,458.41,0,0,1,35.22,46.4c3,4.45,5.86,9,7.62,14.06s2.35,10.67,2.87,16.12c3.11,32.36,5.57,65.69-3.87,96.8l15.71-.07q-1.48-37.76-3-75.51a18.23,18.23,0,0,1,.35-5.52,15.49,15.49,0,0,1,2.48-4.7,53,53,0,0,1,9.77-10.47,11,11,0,0,0,3.35-3.58C1163.94,2228.46,1163.66,2226.35,1162.19,2225.6Z"/><path class="cls-42" d="M1104.86,2111.29a130.06,130.06,0,0,1-1.73,14.38c-1.75,10.24-5,18.42-9.43,24.92-.53.79-1.08,1.56-1.65,2.3l-.09.12-1,1.29c-.32.39-.65.78-1,1.15-9.36,10.49-22.37,15.44-36.64,17.31-23.94,3.15-55.72-33-56.11-65.93-.1-8.14,1.38-16.52,5.71-23.49.07-.13.15-.26.23-.39l.73-1.08.13-.18.13-.2a40.27,40.27,0,0,1,16.5-13h0c.21-.11.41-.19.62-.28,15-6.44,33.89-5.91,48.15-1.77,17.55,5.1,27.46,12.22,32.16,22.41C1104.41,2095.07,1105.33,2102.48,1104.86,2111.29Z"/><path class="cls-41" d="M1093.7,2150.59c-.53.79-1.08,1.56-1.65,2.3l-.09.12-1,1.29-87.18-72.23a2,2,0,0,1,.11-.2,2,2,0,0,0,.12-.19h0Z"/><path class="cls-43" d="M1214.86,1948.72a61.21,61.21,0,0,1-1.48,14c-.08.42-.19.83-.3,1.25a51.41,51.41,0,0,1-5.09,12.92c-.25.44-.5.86-.76,1.29a49.21,49.21,0,0,1-6.51,8.57c-22.64,23.93-62.27,3.92-62.27,3.92a7.85,7.85,0,0,1-1.14-.52c-.32-.15-.7-.36-1.12-.6l-.2-.12-.14-.08-1-.59h0l-.44-.27c-.3-.2-.63-.4-1-.64-8.56-5.68-24.8-20.26-22.42-45.68.07-.72.15-1.45.25-2.18a65.39,65.39,0,0,1,2.45-10.92,42.35,42.35,0,0,1,1.74-4.71c.21-.52.43-1,.68-1.54a44.37,44.37,0,0,1,7.37-11.15c.3-.35.6-.68.94-1a46.5,46.5,0,0,1,8.53-7l1.07-.66a53.76,53.76,0,0,1,11.07-5c.37-.14.76-.26,1.14-.37a62.47,62.47,0,0,1,11.09-2.31c.39,0,.78-.1,1.18-.13a68.86,68.86,0,0,1,13.38-.09l1.16.12a61.79,61.79,0,0,1,9.45,1.74c.39.1.77.2,1.13.31a47,47,0,0,1,4.82,1.64c.37.14.75.29,1.12.46l.64.28c.31.14.62.27.91.42a32.79,32.79,0,0,1,5.86,3.5l.13.1a21.57,21.57,0,0,1,3.58,3.4,46.91,46.91,0,0,1,4,5.62c.2.31.39.63.56,1a63,63,0,0,1,4,8c.15.36.29.73.45,1.09a75,75,0,0,1,3.47,11.47c.08.4.16.79.25,1.19a73,73,0,0,1,1.35,12.07C1214.85,1947.91,1214.86,1948.32,1214.86,1948.72Z"/><path class="cls-44" d="M1108.45,2082.85a4.68,4.68,0,0,1-.45.57l-1.38,1.53,0,.05c-.11.11-.21.21-.32.3a22.09,22.09,0,0,1-4.71,3.52c-9.78,5.43-22.11,5.93-33.44,4.67-.84-.09-1.69-.19-2.53-.31-2-.26-3.92-.57-5.8-.91-3.76-.69-7.71-1.49-11.61-2.56h0c-.73-.2-1.46-.41-2.18-.64h0a50.12,50.12,0,0,1-14.43-6.65c-.44-.29-.89-.62-1.31-1a28.23,28.23,0,0,1-7.39-8.4c-.21-.37-.41-.75-.61-1.15a2.39,2.39,0,0,1-.12-.22c-.51-1-1-2.15-1.5-3.26a72.28,72.28,0,0,1-2.76-7.55c-.12-.39-.22-.78-.34-1.18a62.55,62.55,0,0,1-2.08-10.95c0-.4-.07-.79-.1-1.19a46.75,46.75,0,0,1,1-14.21c.09-.38.18-.74.29-1.09a34.41,34.41,0,0,1,4.06-9.48c.21-.34.42-.68.65-1a34.05,34.05,0,0,1,5.65-6.45c.23-.21.48-.42.73-.63.87-.73,1.79-1.44,2.75-2.11l.57-.38a3.46,3.46,0,0,1,.45-.29,58.36,58.36,0,0,1,6-3.55l.12-.07.81-.41c.52-.26,1-.52,1.57-.76a67.24,67.24,0,0,1,6.47-2.61c.37-.13.74-.25,1.12-.36a63.72,63.72,0,0,1,9.81-2.37c.39-.07.77-.13,1.18-.17a60.46,60.46,0,0,1,11.24-.6l1.21,0a58,58,0,0,1,12.88,2.18c.41.11.81.24,1.21.37a52.59,52.59,0,0,1,12.12,5.5h0c.4.25.79.5,1.18.79C1115.68,2022.15,1123.19,2064.27,1108.45,2082.85Z"/><path class="cls-42" d="M1088.93,1943.54c-.18,2.5-.39,4.67-.42,6.41-.07,3.06-1.34,6.84-3.71,10.72-.13.24-.28.46-.43.7l-.12.2-1.18,1.69-.12.18c-8.58,11.69-26.68,23.17-51.25,18.59-34.73-6.48-33.85-44.74-28.85-67.11a24.54,24.54,0,0,1,2.68-7s0,0,0-.07c6-10.31,18.36-13.21,26-14,1.91-.2,3.53-.25,4.69-.26h0c1,0,1.64,0,1.83,0,34.74,3,46.25,16.93,49.72,30.63C1089.65,1931.27,1089.34,1938.14,1088.93,1943.54Z"/><path class="cls-41" d="M1103.32,1913.36l0,.06a17.51,17.51,0,0,1-1.23,2.35,19.17,19.17,0,0,1-11.48,8.27c-12.59,3.62-55.34-23-65.35-45.62-3.74-8.49-7.25-18.92-3.92-28.08a5.8,5.8,0,0,1,1.91-2.6l.4-.31h0c3.7-2.52,10.29-2.3,14.15-2.06a51.82,51.82,0,0,1,17,4.29c13.32,5.67,25,15.28,34.73,25.83,5.37,5.79,14.33,14.62,15.45,23A28.15,28.15,0,0,1,1103.32,1913.36Z"/><path class="cls-44" d="M1202.64,2120.3c-2.69,21.6-33.44,56.08-45.61,56.82-5.26.32-9.36-1-12.44-3.4a16.72,16.72,0,0,1-2.43-2.32,23.06,23.06,0,0,1-4.93-11.09c-1.3-7.2,4.26-17.1,7.45-23.46,5.8-11.56,13.53-22.9,23.82-31.49a51.61,51.61,0,0,1,14-8.56c3.38-1.33,9.18-3.46,13.16-2.47a5.33,5.33,0,0,1,2.85,1.7C1203.92,2102.59,1203.65,2112.21,1202.64,2120.3Z"/><path class="cls-42" d="M1170.12,1836.05h0c0,.52,0,1-.07,1.54a48.9,48.9,0,0,1-4.93,18.39h0c-.28.58-.57,1.13-.86,1.71h0c-.33.63-.67,1.25-1,1.87-8,14.24-22.37,23.66-39.11,20.89,0,0-1.87-.08-4.87-.53l-1.13-.18-.48-.07-1.62-.29c-11.74-2.24-32.72-9-38.56-29.11-.16-.56-.31-1.13-.44-1.71a37.85,37.85,0,0,1-.87-5.2,41.72,41.72,0,0,1-.11-7.32c0-.47.08-.94.13-1.41a43.88,43.88,0,0,1,2.34-10.3c.13-.4.28-.82.44-1.22a52.49,52.49,0,0,1,4.51-9l.7-1.1a61.11,61.11,0,0,1,6.68-8.33c.27-.29.55-.58.83-.85a64,64,0,0,1,5.63-5c.57-.45,1.14-.9,1.73-1.34l1-.75h0a80.21,80.21,0,0,1,9.64-6.13l1-.5a52.3,52.3,0,0,1,8.75-3.59c.37-.13.75-.23,1.13-.33h0a34.49,34.49,0,0,1,7.17-1.22l.58,0a29.79,29.79,0,0,1,3,0h.16a24.75,24.75,0,0,1,5.62,1l.86.28a24.59,24.59,0,0,1,5.51,2.78c.67.45,1.33.92,2,1.41.32.24.63.47.93.72a58.6,58.6,0,0,1,7.37,7l.82.92c2.14,2.48,4.14,5.07,6,7.69.26.35.51.72.75,1.07s.47.66.68,1h0a51.06,51.06,0,0,1,6.39,13.59c.12.43.24.84.34,1.25h0A44.11,44.11,0,0,1,1170.12,1836.05Z"/><path class="cls-41" d="M1256.19,2194.58c0,.36,0,.73,0,1.1-.05,1.78-.2,3.61-.44,5.48,0,.39-.1.78-.16,1.17A70.15,70.15,0,0,1,1254,2210c-.11.39-.21.78-.32,1.17a84.36,84.36,0,0,1-4,11.1c-.16.38-.34.74-.51,1.12h0a81,81,0,0,1-6,10.93c-.22.35-.46.71-.69,1.06a69.14,69.14,0,0,1-9,10.7l-1,.92a50.65,50.65,0,0,1-9.75,7.13h0c-.46.25-.91.49-1.37.72a37.93,37.93,0,0,1-17.4,4.3c-17.21,0-37.08-9.77-42.12-27.53l-.18-.63,0-.14c-.12-.46-.24-.93-.36-1.42a.43.43,0,0,0,0-.11c-.13-.56-.25-1.12-.35-1.7a2.38,2.38,0,0,1-.05-.26c-2.66-14.27-.52-30.8,6.56-43.6a32.7,32.7,0,0,1,2.62-4c.46-.6.94-1.16,1.46-1.72a35.16,35.16,0,0,1,10.12-7.69c.44-.24.9-.47,1.36-.69a57.71,57.71,0,0,1,10.33-3.74l1.43-.38a112.68,112.68,0,0,1,12.14-2.21l1.36-.18c1.46-.18,2.9-.34,4.33-.48a60,60,0,0,1,7.19-.33h0l1.35,0a46.54,46.54,0,0,1,12,1.91c.39.12.77.23,1.14.36a36.35,36.35,0,0,1,8.08,3.86l1,.66a34,34,0,0,1,5,4.27c.28.28.55.56.8.85a35.84,35.84,0,0,1,2.69,3.33l0,0,.07.12a.32.32,0,0,1,.08.12,24.49,24.49,0,0,1,3.74,10.36c0,.35.09.69.14,1.06A45.35,45.35,0,0,1,1256.19,2194.58Z"/><path class="cls-45" d="M1103.32,1913.36l0,.06-1.23,2.35-78.84-68,.4-.31h0Z"/><path class="cls-46" d="M1197.87,2096l-53.74,77.21a22.71,22.71,0,0,1-2.82-2.9Z"/><path class="cls-45" d="M1084.85,1960.69l-.48.68-.12.2-1.18,1.69-.12.18L1005.53,1908s0,0,0-.07l79.24,52.77Z"/><path class="cls-45" d="M1139,1983.77l-1.08.45c-.21-.5-14.94-39.83-22.44-59.88.21-.52.43-1,.68-1.54C1123.48,1942.36,1138.75,1983.16,1139,1983.77Z"/><path class="cls-45" d="M1143.22,1977.13l-.49,2.59-19.21-68.07c.3-.35.6-.68.94-1Z"/><path class="cls-45" d="M1147.93,1971.14l-.48-.36-.62,1.81c0-1.69-8.78-44.71-13.84-68.93l1.07-.66C1148.44,1970.44,1148.13,1970.85,1147.93,1971.14Z"/><path class="cls-45" d="M1134.94,1988.21l-.53.26-.53.26-.43-.9L1111,1942.15c.07-.72.15-1.45.25-2.18Z"/><path class="cls-45" d="M1154,1963.37l-1.17.14-7.65-65.51c.37-.14.76-.26,1.14-.37Z"/><path class="cls-45" d="M1159.71,1955l-1.26,1.69c-.47-18.74-1.09-48.37-1.09-61.32.39,0,.78-.1,1.18-.13C1158.6,1907.16,1159.21,1935,1159.71,1955Z"/><path class="cls-45" d="M1173.08,1895.22l-6.87,52.26-1,.82,6.73-53.2Z"/><path class="cls-45" d="M1183.66,1897.27l-7.63,35.66-1.59,1.77,8.09-37.74C1182.92,1897.06,1183.3,1897.16,1183.66,1897.27Z"/><path class="cls-45" d="M1191.15,1900.07c-1.67,6.44-3.83,14.57-5.06,19.24l-.93.68c1.61-6.06,3.6-14.15,5.08-20.34C1190.55,1899.79,1190.86,1899.92,1191.15,1900.07Z"/><path class="cls-45" d="M1208,1976.88c-.25.44-.5.86-.76,1.29l-68.71,8.69-.15-1.17Z"/><path class="cls-45" d="M1213.38,1962.71c-.08.42-.19.83-.3,1.25l-68,13-.22-1.15Z"/><path class="cls-45" d="M1214.86,1948.72l-64.47,19.93-.34-1.11,64.8-20C1214.85,1947.91,1214.86,1948.32,1214.86,1948.72Z"/><path class="cls-45" d="M1213.5,1935.44c-20.17,8.51-53.84,22.7-55,22.72l-.1-1.16c1.55-.31,34-14,54.8-22.75C1213.33,1934.65,1213.41,1935,1213.5,1935.44Z"/><path class="cls-45" d="M1209.78,1922.78l-40.65,20.72-.54-1,40.74-20.77C1209.48,1922.05,1209.62,1922.42,1209.78,1922.78Z"/><path class="cls-45" d="M1205.3,1913.64l-25.25,14.11.88-1.56,23.81-13.5C1204.94,1913,1205.13,1913.32,1205.3,1913.64Z"/><path class="cls-1" d="M1171.51,2178c-2.82,18.66-6.27,41.58-7.18,47.7-.14.95-.22,1.49-.24,1.56l-1.17-.13s0-.28.1-.71v0c.65-4.35,4.12-27.35,7-46.68C1170.51,2179.13,1171,2178.57,1171.51,2178Z"/><path class="cls-1" d="M1183,2169.63l-12.49,52.69,0,.19-1.68,2,.35-1.47,12.51-52.75C1182.07,2170.08,1182.53,2169.85,1183,2169.63Z"/><path class="cls-1" d="M1194.75,2165.51c-11.72,38.08-15.35,49.26-16.59,52.59-.49,1.37-.6,1.41-.68,1.46l-.25-.54-1.41,1.27c.06-.12.21-.5.44-1.14,2-5.83,10.4-32.07,17.06-53.26Z"/><path class="cls-1" d="M1208.25,2163.12l-20.56,49.75-.74,1.82-.17.4-.26.61-.8-.33h0l-.28-.12.61-1.47,20.85-50.48Z"/><path class="cls-1" d="M1221.13,2162.33c-6.14,11.33-16.19,30.39-24.07,45.4-.31.58-.6,1.15-.91,1.72l-.49,1-1.92.87c.12-.21.22-.43.34-.64.31-.58.61-1.18.93-1.78,7.53-14.34,18.13-34.39,24.76-46.54h0Z"/><path class="cls-1" d="M1234.31,2164.6l-28.38,38.26-1.33,1.78-.15.2-.29,0-1,.18.85-1.16,29.16-39.67C1233.56,2164.36,1233.94,2164.47,1234.31,2164.6Z"/><path class="cls-1" d="M1243.37,2169.12l-22.17,25.35-1.3,1.49-1.34,1.53-2.25.77.47-.54,1.4-1.59,24.21-27.67Z"/><path class="cls-1" d="M1249.17,2174.24l-8.18,9.35-.64.73-.54.63-1.44.5-.81.29.43-.5,10.38-11.85C1248.65,2173.67,1248.92,2174,1249.17,2174.24Z"/><path class="cls-1" d="M1222.75,2254.09c-.46.25-.91.49-1.37.72l-59.57-23.93-.16-.07c-.12-.46-.24-.93-.36-1.42l1.8.72Z"/><path class="cls-1" d="M1233.49,2246l-1,.92-62.74-20.77-1.6-.53.12-.38.24-.74.67.23,1.92.63Z"/><path class="cls-1" d="M1243.14,2234.28c-.22.35-.46.71-.69,1.06l-64.91-13.71-.88-.18.22-1,0-.11.13,0,2,.42Z"/><path class="cls-1" d="M1249.7,2222.22c-.16.38-.34.74-.51,1.12-18.82-2-55.16-6-62.48-7.1a8.73,8.73,0,0,1-1.28-.25l.28-.61h0l.2-.45a4,4,0,0,0,.44.1,2.61,2.61,0,0,1,.42.07l1.53.21C1197.54,2216.54,1230.72,2220.16,1249.7,2222.22Z"/><path class="cls-1" d="M1254,2210c-.11.39-.21.78-.32,1.17l-54.84-2-.87,0,0-.68,0-.49.8,0,1.91.07Z"/><path class="cls-1" d="M1255.72,2201.16c0,.39-.1.78-.16,1.17l-44.29-.52-1.64,0h-.15l1.53-.94h1.87Z"/><path class="cls-1" d="M1256.19,2194.58c0,.36,0,.73,0,1.1l-33.81-.38-1.06,0,1.52-.94H1224Z"/><path class="cls-1" d="M1255.92,2189.27l-22.87-.26h-.87l.5-.31,1-.63h1l21.11.14C1255.82,2188.56,1255.87,2188.9,1255.92,2189.27Z"/><path class="cls-45" d="M1120.27,1870.64l-.7.94c-.38-.28-26.16-21.33-43.53-35.51,0-.47.08-.94.13-1.41Z"/><path class="cls-45" d="M1120.89,1865.27l-.84-.81-41.54-40.1c.13-.4.28-.82.44-1.22l41,39.63.47,1.32Z"/><path class="cls-45" d="M1121.63,1855.23l-.58-.06.36,1.86c-.72-1.2-21.51-24.55-38-42.88l.7-1.1C1121.71,1854.44,1121.66,1854.91,1121.63,1855.23Z"/><path class="cls-45" d="M1119,1876.51l-.24.38-.4.61-.22-.14-.6-.4-40.09-26.66c-.16-.56-.31-1.13-.44-1.71l41.07,27.31Z"/><path class="cls-45" d="M1122.92,1845.49l-.94.71-31.14-41.48c.27-.29.55-.58.83-.85Z"/><path class="cls-45" d="M1123.65,1835.3l-.22,2.1c-7-11.4-16.93-27.55-24.4-39.92l1-.75C1107.05,1808.32,1116.35,1823.48,1123.65,1835.3Z"/><path class="cls-45" d="M1125.51,1825.58l-.46,1.22-15.39-36.21,1-.5Z"/><path class="cls-45" d="M1128.08,1809.26l-.48,2.34-8.23-25.1c.37-.13.75-.23,1.13-.33h0Z"/><path class="cls-45" d="M1130.2,1792.07l-.18,1.18c-.69-2.52-1.51-5.38-2.34-8.3l.58,0C1129,1787.65,1129.67,1790.14,1130.2,1792.07Z"/><path class="cls-45" d="M1170.12,1836.06c0,.52,0,1-.07,1.54l-51.28,39.29-.62.47-.18.14-.42-.54-.3-.4.84-.66h0Z"/><path class="cls-45" d="M1165.12,1856c-.28.58-.57,1.13-.86,1.71h0l-46.14,22-.37.18-.11-.25-.39-.81Z"/><path class="cls-45" d="M1168.66,1823.72h0L1120,1866.09l-.78-.89.85-.74.42-.37,47.85-41.62C1168.44,1822.9,1168.56,1823.31,1168.66,1823.72Z"/><path class="cls-45" d="M1161.93,1808.87h0l-40,43.51-.86-.8,40.15-43.72C1161.49,1808.21,1161.72,1808.53,1161.93,1808.87Z"/><path class="cls-45" d="M1154.49,1799.11c-12.94,17.24-29.4,39.06-30.21,39.56l-.68-1c1-.9,17-22.14,30.07-39.52Z"/><path class="cls-45" d="M1146.3,1791.2l-19.8,30.8-1-.63,19.86-30.89C1145.69,1790.72,1146,1791,1146.3,1791.2Z"/><path class="cls-45" d="M1137.89,1786.29l-9,15.27.22-1.73L1137,1786Z"/><path class="cls-45" d="M1097.88,2076.19c-.41.13-28.4,7.73-49.72,13.52h0c-.73-.2-1.46-.41-2.18-.64l51.57-14Z"/><path class="cls-45" d="M1093.85,2071l-62.32,11.45c-.44-.29-.89-.62-1.31-1l61.1-11.23Z"/><path class="cls-45" d="M1088.17,2066.22c-1.57-.12-40.27,4-65.34,6.85-.21-.37-.41-.75-.61-1.15,64-7.48,64.34-7.15,64.6-6.92l-.38.43Z"/><path class="cls-45" d="M1102,2080.62l-33.9,12.87c-.84-.09-1.69-.19-2.53-.31l36-13.67Z"/><path class="cls-45" d="M1080.11,2059.46l-62.27,1.43c-.12-.39-.22-.78-.34-1.18l62.59-1.42Z"/><path class="cls-45" d="M1074,2053.16c-17.54-1.18-44.62-3.14-58.56-4.4,0-.4-.07-.79-.1-1.19,13,1.1,38.51,2.92,57.09,4.18Z"/><path class="cls-45" d="M1065,2044.21l-48.63-10.85c.09-.38.18-.74.29-1.09l47.62,10.84Z"/><path class="cls-45" d="M1053.56,2033.11l-32.88-10.32c.21-.34.42-.68.65-1l30.61,9.61Z"/><path class="cls-45" d="M1039.58,2019.8c-3.74-1.38-8.26-3-12.6-4.49.23-.21.48-.42.73-.63l11.28,4.14Z"/><path class="cls-45" d="M1100.56,2075.83l-1.17,0-2.17-66.76h0c.4.25.79.5,1.18.79Z"/><path class="cls-45" d="M1091.27,2068.41l-1.17.12-6.21-65.3c.41.11.81.24,1.21.37Z"/><path class="cls-45" d="M1083.55,2060.89l-1.15.23L1069.8,2001l1.21,0Z"/><path class="cls-45" d="M1073.87,2051.45l-1.17,0c-.16-1.39-8.67-28.56-15.32-49.65.39-.07.77-.13,1.18-.17C1065.14,2022.44,1073.93,2050.46,1073.87,2051.45Z"/><path class="cls-45" d="M1062.06,2040.63l-1.09.43-14.52-36.56c.37-.13.74-.25,1.12-.36Z"/><path class="cls-45" d="M1046.37,2025.86l-1.48-1-7.41-16.5.12-.07.81-.41Z"/><path class="cls-45" d="M1197.14,1903.67l-59.83,86.47c-.32-.15-.7-.36-1.12-.6l-.2-.12-.14-.08-1-.59h0l-.44-.27,62.6-84.9Z"/><path class="cls-42" d="M1236,2063.31c-16.47,21.89-49.21,27.55-71.62,11.39a34.16,34.16,0,0,1-8.12-8.21l-.18-.24-.15-.22-.28-.41c-.44-.65-.84-1.32-1.22-2,0,0,0,0,0,0l-.07-.12c-10.62-18.84-4-46.66,5.12-65,9-18,27.92-30.49,48.38-28.88,13,1,22.62,8.49,29,19a.09.09,0,0,1,0,.06c.87,1.42,1.67,2.9,2.42,4.43h0c.21.46.43.92.64,1.39C1249.91,2016.31,1248.35,2046.88,1236,2063.31Z"/><path class="cls-45" d="M1236.88,1988.72l-80.65,77.77-.18-.24-.15-.22-.28-.41c-.44-.65-.84-1.32-1.22-2l82.44-75A.09.09,0,0,1,1236.88,1988.72Z"/><path class="cls-45" d="M1108.45,2082.85a4.68,4.68,0,0,1-.45.57l-1.38,1.53,0,.05c-.11.11-.21.21-.32.3L1031,2012.19a3.46,3.46,0,0,1,.45-.29Z"/><path class="cls-45" d="M1131.41,1785l-12.16,95c-1-.14-2-.32-3.23-.54l15.23-94.46Z"/><g class="cls-47"><path class="cls-44" d="M1104.86,2111.29c-77.21,21.7-84.11-41.34-84.26-42.83v0s0,0,0,0c.48,1.11,1,2.2,1.49,3.24a2.39,2.39,0,0,0,.12.22c.2.4.4.78.61,1.15a28.23,28.23,0,0,0,7.39,8.4c.42.33.87.66,1.31,1a50.12,50.12,0,0,0,14.43,6.65h0c.72.23,1.45.44,2.18.64h0c3.9,1.07,7.85,1.87,11.61,2.56,1.88.34,3.82.65,5.8.91.84.12,1.69.22,2.53.31,11.33,1.26,23.66.76,33.44-4.67C1104.41,2095.07,1105.33,2102.48,1104.86,2111.29Z"/></g><g class="cls-47"><path class="cls-44" d="M1088.93,1943.54c-23.15-2.18-47.65-35.17-57.32-49.6l4.69-.26h0c15.2,16.12,39.88,30.42,51.55,30.68C1089.65,1931.27,1089.34,1938.14,1088.93,1943.54Z"/></g><line class="cls-46" x1="1251.96" y1="2177.73" x2="1161.27" y2="2229.28"/><path class="cls-46" d="M1252,2177.85l-90.36,53.1c-.14-.54-.28-1.11-.41-1.67s-.25-1.12-.36-1.7l91-50,.07.12A.5.5,0,0,1,1252,2177.85Z"/><path class="cls-44" d="M1217.56,2328.94v35.56a6.59,6.59,0,0,1-6.59,6.59v71.09a32.54,32.54,0,0,1-32.54,32.54H1104.2a32.55,32.55,0,0,1-32.55-32.56v-71.07a6.59,6.59,0,0,1-6.59-6.59V2329a11.35,11.35,0,0,1,11.35-11.34h129.82A11.33,11.33,0,0,1,1217.56,2328.94Z"/><path class="cls-35" d="M1211,2371.09v71.09a32.54,32.54,0,0,1-32.54,32.54h-30.85c22.87-1.54,30.46-20.13,31.6-40.46,1-17.54,4-50.72-18.62-55.67l-34.27-7.5Z"/></g></g></g></svg>