<svg xmlns="http://www.w3.org/2000/svg" xmlns:xlink="http://www.w3.org/1999/xlink" viewBox="0 0 4680 3120"><defs><style>.cls-1,.cls-24{fill:none;}.cls-10,.cls-15,.cls-17,.cls-18,.cls-19,.cls-2,.cls-20,.cls-40,.cls-49,.cls-6,.cls-63,.cls-64,.cls-71,.cls-76,.cls-8,.cls-85,.cls-9{fill:#fff;}.cls-16,.cls-3,.cls-4,.cls-45,.cls-48,.cls-50,.cls-52,.cls-53,.cls-58,.cls-67,.cls-70,.cls-72{fill:#1f60e5;}.cls-14,.cls-15,.cls-3{opacity:0.8;}.cls-4,.cls-41,.cls-8{opacity:0.57;}.cls-5{opacity:0.93;}.cls-6,.cls-7{opacity:0.15;}.cls-13,.cls-52,.cls-9{opacity:0.47;}.cls-10,.cls-11,.cls-50{opacity:0.14;}.cls-12{opacity:0.1;}.cls-16,.cls-66,.cls-90{opacity:0.29;}.cls-17{opacity:0.91;}.cls-18{opacity:0.65;}.cls-19{opacity:0.79;}.cls-20,.cls-61{opacity:0.53;}.cls-21{fill:#512d50;}.cls-22,.cls-23{fill:#020e49;}.cls-22{opacity:0.32;}.cls-23{opacity:0.64;}.cls-24{stroke:#000;stroke-miterlimit:10;}.cls-25{fill:#f8bbc2;}.cls-26,.cls-51,.cls-55,.cls-57,.cls-59{fill:#003fc3;}.cls-27,.cls-28,.cls-29,.cls-62{fill:#03157a;}.cls-27,.cls-32,.cls-33{opacity:0.3;}.cls-28,.cls-42{opacity:0.44;}.cls-30{fill:#fb4a44;}.cls-31,.cls-32,.cls-35{fill:#e8635d;}.cls-31{opacity:0.75;}.cls-33{fill:#fe8796;}.cls-34,.cls-89{opacity:0.67;}.cls-36{opacity:0.46;fill:url(#linear-gradient);}.cls-37,.cls-38,.cls-39,.cls-41,.cls-42,.cls-60,.cls-61,.cls-78,.cls-79,.cls-80,.cls-81,.cls-82,.cls-87,.cls-88{fill:#fe7101;}.cls-37{opacity:0.39;}.cls-39{opacity:0.82;}.cls-40{opacity:0.63;}.cls-43{fill:url(#linear-gradient-2);}.cls-44{fill:url(#linear-gradient-3);}.cls-45{opacity:0.08;}.cls-46{clip-path:url(#clip-path);}.cls-47,.cls-57{opacity:0.68;}.cls-48{opacity:0.31;}.cls-49,.cls-53{opacity:0.11;}.cls-51,.cls-82,.cls-84{opacity:0.42;}.cls-54{fill:#2d1d2c;}.cls-55,.cls-87{opacity:0.5;}.cls-56{clip-path:url(#clip-path-2);}.cls-58,.cls-59{opacity:0.36;}.cls-60,.cls-72{opacity:0.28;}.cls-62,.cls-71,.cls-88{opacity:0.17;}.cls-63,.cls-92{opacity:0.72;}.cls-64{opacity:0.87;}.cls-65{opacity:0.51;}.cls-68{opacity:0.33;}.cls-69{opacity:0.58;}.cls-70{opacity:0.05;}.cls-73{opacity:0.7;}.cls-74{fill:url(#linear-gradient-4);}.cls-75{fill:url(#linear-gradient-5);}.cls-76,.cls-93{opacity:0.54;}.cls-77,.cls-81{opacity:0.78;}.cls-78{opacity:0.69;}.cls-79{opacity:0.43;}.cls-80{opacity:0.45;}.cls-83{opacity:0.61;}.cls-85{opacity:0.56;}.cls-86,.cls-89,.cls-90,.cls-91,.cls-92,.cls-93{fill:#ffb600;}.cls-91{opacity:0.35;}</style><linearGradient id="linear-gradient" x1="1973.52" y1="1920.5" x2="3346.85" y2="589.1" gradientUnits="userSpaceOnUse"><stop offset="0" stop-color="#fff"/><stop offset="1" stop-color="#fff" stop-opacity="0"/></linearGradient><linearGradient id="linear-gradient-2" x1="1726.68" y1="1422.54" x2="2139.77" y2="2039.09" xlink:href="#linear-gradient"/><linearGradient id="linear-gradient-3" x1="1925.78" y1="1289.14" x2="2338.86" y2="1905.69" xlink:href="#linear-gradient"/><clipPath id="clip-path"><path class="cls-1" d="M1387.55,1149.84c-69,184-278.74,237-452.33,250-103.37,7.74-209.11,4.65-308-26.59-77.81-24.6-147.26-66.86-199.44-125.52a380.33,380.33,0,0,1-71-116.39C291,960.39,328,688.6,456.71,551.8c193.23-205.41,564.07-76.86,755.15,68.22C1363.83,735.41,1457,964.85,1387.55,1149.84Z"/></clipPath><clipPath id="clip-path-2"><path class="cls-1" d="M4302.9,1229.92q2.42-4,4.74-8.1c168.93-298.48-145.53-566.06-428.06-497.15-186.4,45.47-303.23,196.78-271.6,391.27C3659.82,1434.62,4139.82,1500.24,4302.9,1229.92Z"/></clipPath><linearGradient id="linear-gradient-4" x1="3422.2" y1="1760.44" x2="3424.85" y2="1909.32" xlink:href="#linear-gradient"/><linearGradient id="linear-gradient-5" x1="3417.84" y1="1961.52" x2="3419.48" y2="2053.19" xlink:href="#linear-gradient"/></defs><g id="_2" data-name="2"><rect class="cls-2" width="4680" height="3120"/><path class="cls-3" d="M4128,2222.75q-9.54,17.13-20.43,33.55c-1.9,2.9-3.84,5.75-5.83,8.6a523,523,0,0,1-44.76,56.23q-8.59,9.42-17.67,18.41a676.31,676.31,0,0,1-56.42,50c-.75.6-1.49,1.2-2.26,1.78a737.43,737.43,0,0,1-104.75,68.52c-1.58.86-3.19,1.73-4.8,2.54a869.49,869.49,0,0,1-93,42.59h0c-3.83,1.48-7.69,3-11.55,4.41-2.28.86-4.54,1.72-6.84,2.56h-.05q-39.84,14.61-81.18,26h0q-18.76,5.25-37.76,9.88l-7.19,1.73q-15.93,3.73-31.84,6.78c-3.72.72-7.46,1.42-11.18,2.06a863.69,863.69,0,0,1-134.63,12.88,1109,1109,0,0,1-133.6-5.75c-230.56-23.09-457.74-106-693.08-122.5-241.49-16.93-490.28,11.24-709,115-175,83-341.36,144-514.69,156.95h-.31c-.5.05-1,.1-1.49.12,0,0,0,0,0,0q-15.36.54-30.69.77-33.45.54-66.78-.53a1.45,1.45,0,0,1,.17.19c3.28.2,6.57.39,9.83.56-3.26-.17-6.52-.34-9.81-.53-.33,0-.69-.05-1-.05-3-.17-6.09-.36-9.12-.55h-.11q-35-1.44-69.71-5a3.42,3.42,0,0,1-.45,0c-1.85-.12-3.67-.29-5.52-.43-2.2-.17-4.43-.36-6.64-.58l-.36,0c-3.83-.56-7.72-1.11-11.58-1.73-9.33-1.42-18.65-3-28-4.75h0a954.77,954.77,0,0,1-94.44-22.61s0,0,0,0c-2.73-.79-5.49-1.6-8.22-2.44q-26.73-8-53.88-17.84a660.22,660.22,0,0,1-67.45-28.75c-3.33-1.63-6.64-3.31-9.92-5a665.19,665.19,0,0,1-121.69-80.37l-5.1-4.29a579.59,579.59,0,0,1-81.69-84.88v0a473.84,473.84,0,0,1-53.3-85.31c-2.57-5.32-5-10.69-7.36-16.11q-2.13-4.89-4.1-9.85-2.49-6.23-4.78-12.52c-.14-.36-.26-.72-.4-1.1q-5.83-16.18-10.19-32.8v0c-1-3.91-2-7.84-2.9-11.77,0,0,0-.07,0-.12-.36-1.51-.67-3-1-4.53q-1.47-6.87-2.68-13.76a194.94,194.94,0,0,1-2.49-19.81c-.08-.79-.15-1.61-.2-2.4-2.73-38.89,5.16-76.1,18.2-112.43.72-2.08,1.49-4.14,2.28-6.23.91-2.49,1.87-5,2.85-7.46,1.08-2.73,2.19-5.44,3.31-8.15,42.23-102.26,117-198.34,98.31-305.39-.15-.79-.29-1.61-.43-2.4q-1.7-9.11-4.32-18.3-2.8-9.73-6.35-19.06c-.27-.79-.58-1.6-.89-2.39C712.61,1655.53,600,1587,530,1494.74q-10-13.2-18.9-26.73c-56.37-85.94-77.4-181.61-50.13-282.69,38.45-142.52,162.9-270.13,330.4-261.23,57.52,3.07,115,17.81,172,10.24,52.75-7,100.63-32.61,143.48-62.18a698.22,698.22,0,0,0,118.38-103.31c2.42-2.66,4.81-5.32,7.19-8,4.6-5.13,9.06-10.33,13.45-15.59.89-1,1.75-2.06,2.61-3.11q16.72-20.29,31.75-41.79c2.44-3.46,4.84-7,7.19-10.46q8-11.86,15.47-24a651.21,651.21,0,0,0,31.31-57.24q5.64-11.64,10.79-23.47,4.5-10.35,8.61-20.86c24.26-61.84,44.76-127.15,74-187.16C1451,329.2,1479.9,284.67,1520.76,248c3.62-3.26,7.33-6.45,11.17-9.59l.81-.67c3.65-2.95,7.36-5.85,11.18-8.68a330,330,0,0,1,32-21c3-1.76,6.07-3.43,9.09-5,1.08-.58,2.13-1.13,3.21-1.65,107.52-55.39,222-28.56,327.84,23.52,111.8,55,208.31,131.82,327.48,171.94q16.42,5.54,33.47,10.09c.5.14,1,.26,1.53.41q11.3,3,22.69,5.63a827.92,827.92,0,0,0,86.12,15.2q13.41,1.66,26.88,2.86a883.2,883.2,0,0,0,137.15,1.7c2.63-.14,5.25-.34,7.89-.53q27.61-2,55-5.78,20.36-2.73,40.48-6.42,19.64-3.57,39-8c129.55-29.71,264.64-88.5,397.64-40.59,130.79,47.16,191.84,159.75,220.7,281,1.83,7.67,3.46,15.37,4.94,23.11,2.83,14.65,5.13,29.44,7.22,44.21,8.39,58.87,13.64,118.21,36.23,174.53,53.13,132.4,161.08,162.71,286.88,167.29,31.8,1.15,64.77.65,98.26-.24,101.76-2.73,220.66,14.12,270.92,96.79,20.88,34.34,26.52,69.75,24.21,105.86a318.32,318.32,0,0,1-6.23,44.24c-18.53,90.06-67.3,183.18-37.45,273.15,23.64,71.25,84.28,125.54,126.76,188.69C4217.28,1909.09,4206.61,2082,4128,2222.75Z"/><path class="cls-4" d="M3494.15,942.63c19.83,11.1,47.87,17.79,62.84.69,11.35-13,8.44-33.55-.6-48.2s-22.93-25.58-34.09-38.69c-49.55-58.23-8-96.41-13.19-156.24C3504.51,647,3442,627,3404.7,664.81,3327,743.6,3419.47,900.84,3494.15,942.63Z"/><path class="cls-4" d="M4058.05,1643.1c6.76,12.73,15.78,25.13,28.9,31.09s31,3.2,38.39-9.19c7-11.81,2.38-27-3.94-39.23-11.52-22.24-28.5-42.9-30.93-67.84-3.29-33.63,92.36-146,4.5-110.54C4028.45,1474.25,4030.63,1591.47,4058.05,1643.1Z"/><path class="cls-4" d="M616.78,1835.32c-4.2,21.16-16.63,39.42-23.87,59.66s-7.85,46.24,7.88,60.21c21.72,19.29,56.19.69,71.53-24.45,21.79-35.74,23.59-82,12.44-122.8-6.48-23.71-90.62-196.67-129.33-142.76C539,1688.05,625.45,1791.61,616.78,1835.32Z"/><path class="cls-4" d="M1153.55,469.25c2.32,17.36,13.53,32.87,28.24,42.36s32.61,13.32,50.12,12.9c25.29-.62,51-10.49,67.48-29.65s22.3-48.05,11.22-70.79c-4.21-8.63-10.55-16.09-17.7-22.48C1238.75,353.17,1143,390.72,1153.55,469.25Z"/><g class="cls-5"><path class="cls-6" d="M2544.16,435.13,2434.54,705.9a7.07,7.07,0,0,1-9.23,3.91L2320,667.18a7.06,7.06,0,0,1-3.91-9.24L2407,433.42A881.85,881.85,0,0,0,2544.16,435.13Z"/><g class="cls-7"><path class="cls-2" d="M1770.68,923.16V849.3a2.38,2.38,0,0,0-2.38-2.37l-430.89.1a2.38,2.38,0,0,0-2.37,2.38l0,73.86a2.38,2.38,0,0,0,2.37,2.38l430.89-.11A2.36,2.36,0,0,0,1770.68,923.16Z"/><rect class="cls-8" x="1432.52" y="828.15" width="185.06" height="373.4" rx="2.96" transform="matrix(0, 1, -1, 0, 2539.53, -510.44)"/><rect class="cls-2" x="1497.25" y="925.59" width="158.86" height="502.78" rx="2.96" transform="matrix(0, 1, -1, 0, 2753.26, -399.99)"/><path class="cls-2" d="M1649.3,1055.16c6.32-29.8.73-64.85-.36-95.2-.2-5.61-8.5-5.6-8.7,0-1.08,30.35-6.65,65.41-.32,95.2C1641,1060.13,1648.24,1060.13,1649.3,1055.16Z"/><path class="cls-2" d="M1605.63,1055.17c6.32-29.8.73-64.85-.36-95.2-.21-5.61-8.51-5.6-8.7,0-1.08,30.35-6.65,65.41-.32,95.2C1597.31,1060.14,1604.57,1060.14,1605.63,1055.17Z"/><path class="cls-2" d="M1562,1055.18c6.33-29.79.73-64.85-.36-95.2-.2-5.61-8.5-5.6-8.7,0-1.07,30.34-6.65,65.4-.31,95.19C1553.64,1060.15,1560.9,1060.15,1562,1055.18Z"/></g><path class="cls-9" d="M3703.59,1249.5l-569.14,0-153.91,0H2790.22l-182.92,0-.22-820.78q-27.37,3.78-55,5.78l.07,286.07-327.26.07-226.32.07-718.32.17v-28.7q-18.13,27-38.94,52.25c-.86,1.05-1.73,2.08-2.61,3.11-4.39,5.25-8.85,10.46-13.45,15.59v5.61l.12,481.1-220.16,0,0,39.76,220.14,0,.12,477-469.71,0h-8.08q4.07,10.47,7.24,21.46,2.63,9.21,4.31,18.3h7.63l458.61,0,0,137.58,55,0,0-137.58,817.25-.19,454.63-.12.05,137.58h55l-.16-654.31h32.75l367.35,0,708.09,0,260.82,0v-39.75Zm-1667.88,517-269.43.07h-66.11l-64.25,0-107.61,0-26,0-119.86,0-102,0-.12-477,288.06-.08,983.85-.24.12,477Zm-207.64-516.68-229.58.07-273.17.07h-45l-.12-489.18,688.24-.16,267.24-.08,316.4-.07.15,489.18-171.61.05Z"/><path class="cls-6" d="M2380.14,430.57,2187.58,695.71a5.71,5.71,0,0,1-8,1.25l-54.38-39.49a5.72,5.72,0,0,1-1.27-8l170-234.13A828.57,828.57,0,0,0,2380.14,430.57Z"/><path class="cls-10" d="M1767.06,1776.12l-50.84,21.19a3,3,0,0,1-3.87-1.59l-148.56-356.43a3,3,0,0,1,1.6-3.87l50.84-21.19a3,3,0,0,1,3.86,1.59l148.56,356.43A3,3,0,0,1,1767.06,1776.12Z"/><g class="cls-11"><path class="cls-2" d="M1501.55,1779.91l-110.81,18.42a3,3,0,0,1-3.4-2.43l-72-432.92a3,3,0,0,1,2.44-3.4l110.8-18.42a3,3,0,0,1,3.4,2.43l72,432.92A3,3,0,0,1,1501.55,1779.91Z"/><path class="cls-2" d="M1411.48,1389.21c-19.79-3.28-41.06,4.43-60.28,7.67-4.57.75-6,5.92-5.24,10.71s3.86,9.21,8.42,8.44c19.24-3.16,41.85-2.74,59.52-12.25C1418.93,1401.08,1417.11,1390.14,1411.48,1389.21Z"/><path class="cls-2" d="M1438.54,1552c-19.79-3.28-41,4.43-60.28,7.66-4.56.75-6,5.92-5.24,10.72s3.87,9.2,8.43,8.44c19.23-3.16,41.85-2.75,59.51-12.25C1446,1563.9,1444.17,1553,1438.54,1552Z"/><ellipse class="cls-2" cx="1394.94" cy="1482.02" rx="14.54" ry="19.72" transform="translate(-224.15 248.81) rotate(-9.44)"/></g><g class="cls-12"><path class="cls-2" d="M1634.72,1770.58l-97.09,22.76a3,3,0,0,1-3.56-2.2l-82.66-352.49a3,3,0,0,1,2.2-3.55l97.09-22.77a3,3,0,0,1,3.56,2.2L1636.92,1767A3,3,0,0,1,1634.72,1770.58Z"/><path class="cls-2" d="M1515.29,1472c-7,1.64-10,14.85-6.66,29s11.91,24.69,18.87,23.06,10-14.84,6.66-29S1522.25,1470.32,1515.29,1472Z"/><path class="cls-2" d="M1561.41,1574.93c-9.35,1.38-18.51,3.76-27.73,5.77-8.3,1.82-17,2.25-24.21,8.06-3.54,2.87-.6,15.45,3.85,16.44,9,2,17-1.48,25.28-3.54,9.15-2.3,18.41-4.23,27.4-7.16,3.26-.41,3.6-5.83,2.32-10.87C1567.23,1578.55,1564.51,1573.84,1561.41,1574.93Z"/></g></g><g class="cls-13"><path class="cls-9" d="M1773.78,446.73c0,138.32-114,250.44-254.63,250.44A255.64,255.64,0,0,1,1327,611q5.64-11.65,10.79-23.47,4.49-10.37,8.6-20.86c24.27-61.84,44.77-127.15,74-187.17,23.33-47.93,52.27-92.45,93.12-129.11q5.43-4.89,11.18-9.59l.81-.67c3.65-3,7.36-5.85,11.17-8.68a330.24,330.24,0,0,1,32-21c3-1.75,6.07-3.43,9.09-5,1.08-.58,2.13-1.13,3.21-1.66C1691.76,230.94,1773.78,329.41,1773.78,446.73Z"/><g class="cls-14"><rect class="cls-2" x="1513.55" y="637.01" width="11.19" height="46.17"/><path class="cls-2" d="M1524.74,240.82v17.05h-11.18v-7.46Q1519,245.52,1524.74,240.82Z"/></g><g class="cls-14"><polygon class="cls-2" points="1754.89 453.02 1754.89 441.84 1708.72 441.84 1708.72 453.03 1754.89 453.02"/></g><g class="cls-14"><polygon class="cls-2" points="1681.89 618.09 1689.8 610.18 1657.15 577.54 1649.24 585.44 1681.89 618.09"/></g><g class="cls-14"><rect class="cls-2" x="1646.41" y="291.47" width="46.17" height="11.19" transform="translate(278.41 1266.77) rotate(-44.97)"/><polygon class="cls-2" points="1348.49 610.19 1356.4 618.11 1389.05 585.45 1381.14 577.55 1348.49 610.19"/></g><rect class="cls-15" x="1506.55" y="342.7" width="25.19" height="108.78"/><polygon class="cls-15" points="1621.76 556.96 1635.04 543.67 1525.11 433.7 1511.85 446.99 1621.76 556.96"/></g><path class="cls-16" d="M1557.52,1391.48c-23,22.48-20.75,65.85,5.46,84.51s69.31,5,78.6-25.75-21.19-66.59-52.86-60.85c-11,2-20.9,7.95-30.48,13.79"/><circle class="cls-17" cx="2209.09" cy="1183.72" r="132.91"/><circle class="cls-18" cx="3897.93" cy="1719.37" r="28.2" transform="translate(-261.67 2640.12) rotate(-36.28)"/><circle class="cls-17" cx="1982.34" cy="549.42" r="36.9" transform="translate(192.11 1562.65) rotate(-45)"/><circle class="cls-19" cx="1806.37" cy="622.39" r="9.23" transform="translate(785.61 2237.44) rotate(-76.72)"/><circle class="cls-19" cx="1088.84" cy="1646.55" r="9.23"/><circle class="cls-20" cx="1198.94" cy="1530.42" r="86.06"/><path class="cls-21" d="M3205.45,1189.9c-17.19,24.43-41.36,44.09-71,59.65-35.46,18.7-78.74,31.53-127,39.76-107.49,18.29-240,13.76-367.35,0-93.15-10.07-183.55-25.08-259.39-39.68-120.19-23.19-203.82-45.37-203.82-45.37s184.62-191.81,105.5-333.28c-20.55-36.73-35.61-74.59-46.62-110.51-4.17-13.59-7.76-26.9-10.86-39.75-5.18-21.58-9-41.91-11.75-60.21-8.05-53.13-7.5-89.24-7.5-89.24s-.38-16.37,4.6-40.52c7-33.85,24.44-82.94,68.31-123.43,35.15-32.49,87.26-59.47,164.46-68.62,83.54-9.93,155.68,23,211.77,81.28q7.23,7.51,14.09,15.56c66.13,77.59,86.3,193.2,194.48,227.16,137.08,43,285.81,21.41,364.91,169.11C3287.5,942.5,3277.48,1087.42,3205.45,1189.9Z"/><path class="cls-22" d="M2343.48,920.16l-.36,3.42a397.91,397.91,0,0,1-105.8,230.87l-20.92,22.26,812.82,103.1s83.92-225.38-50.36-347.67c-55-50-127-75.55-197.25-95.59-57.62-16.44-128.08-38.67-151-101.44-5.7-15.6-7.89-32.34-14-47.8"/><path class="cls-23" d="M2333.49,930.88a183.25,183.25,0,0,1,10.33,191.92l-24.32,44.69,499.18,8.46c7.29.12,46.58-79.2,49-90.68,9.19-44.43-33.92-91-67-113.71-41.87-28.75-91.5-44.94-132.46-75-30.64-22.47-127.35-125.46-84-163.08-40.65,36.37-80.82,73.27-122.2,108.83-8.46,7.26-125.6,101.17-128.51,88.61Z"/><rect class="cls-24" x="2428.59" y="2065.06" width="213.4" height="47.95"/><path class="cls-25" d="M2623.74,712.08a97.17,97.17,0,0,1-7.5,32c-2.69,6.37-5.9,13.78-9.57,21.93-5.94,13.22-13.11,28.42-21.41,44.55-.14.32-.31.65-.48,1-15.44,30.07-34.57,63.33-56.44,93.06C2499,944.45,2464.75,978,2428,988.92a81.87,81.87,0,0,1-8.9,2.18c-2,.41-4,.75-6.09,1-66.63,8.15-120.94-29.21-155.47-63.06a150.24,150.24,0,0,1-42.94-83.32c-4.56-28.25-15.06-64.79-25.77-97.68-1.44-4.44-2.88-8.83-4.32-13.1,27.45-6,59.32-21.6,95.43-48.55q17.11-12.76,33-22.7c2.76-1.76,5.49-3.41,8.2-5,1.37-.82,2.71-1.61,4-2.37,1.61-.94,3.19-1.85,4.77-2.74,1.87-1,3.7-2.06,5.52-3s3.64-1.94,5.44-2.86c.84-.43,1.68-.83,2.49-1.24,3-1.54,6-2.95,8.9-4.29,2.49-1.15,5-2.23,7.41-3.29l3.76-1.58c1.15-.43,2.31-.89,3.46-1.34,1.32-.53,2.63-1,3.93-1.49,2.08-.77,4.17-1.49,6.21-2.16,1.29-.43,2.56-.84,3.83-1.22,1-.31,2-.63,3-.91,1.56-.46,3.07-.89,4.58-1.27l2.52-.65c2.3-.58,4.58-1.1,6.83-1.54.67-.14,1.35-.28,2-.4,1-.19,1.89-.36,2.85-.51,1.25-.21,2.47-.43,3.69-.6.87-.12,1.73-.24,2.57-.33s1.65-.22,2.47-.29,1.75-.19,2.59-.26l3.33-.27c1.44-.09,2.83-.16,4.22-.19,1.15,0,2.3,0,3.43,0,3.12,0,6.18.12,9.16.39.57,0,1.15.07,1.7.14,2.57.24,5.11.58,7.58,1,.6.1,1.2.22,1.79.34.32.05.63.09.94.17.84.16,1.65.36,2.49.55a90.47,90.47,0,0,1,13.89,4.34c.76.28,1.51.6,2.25.93q2.23.95,4.39,2c.72.36,1.44.72,2.13,1.1s1.42.77,2.11,1.15,1.42.79,2.09,1.2,1.39.84,2.06,1.27l2,1.29c1.35.89,2.67,1.83,4,2.79,1.63,1.19,3.21,2.44,4.77,3.74s3.07,2.63,4.56,4c.6.55,1.2,1.12,1.77,1.7s1.18,1.15,1.75,1.75c1.34,1.37,2.64,2.78,3.91,4.2s2.33,2.71,3.45,4.07c.19.24.36.48.55.7.53.65,1,1.32,1.54,2,1.2,1.54,2.32,3.1,3.45,4.68l1.63,2.37c1.58,2.35,3.09,4.75,4.56,7.2s2.9,5,4.27,7.6a.18.18,0,0,0,0,.09,225,225,0,0,1,17.31,44.53c.2.67.39,1.37.58,2,.46-.84.91-1.71,1.39-2.55,1.32-2.39,2.66-4.79,3.86-7.24l0-.07c2.35-4.94,2.69-10.24,4.25-15.51a1.61,1.61,0,0,1,.09-.29c2.76-9.23,7.32-18,12.09-26.18.77-1.32,1.53-2.64,2.33-4,1-1.75,2.06-3.71,3.11-5.8a1.74,1.74,0,0,1,.12-.14h0c.74-1.44,1.51-2.95,2.3-4.46.31-.6.65-1.2,1-1.83.67-1.22,1.39-2.47,2.14-3.66.26-.46.55-.92.84-1.35.48-.74,1-1.46,1.48-2.16s.82-1.12,1.25-1.65.89-1.1,1.37-1.61.86-.93,1.31-1.36.89-.84,1.35-1.23c.05,0,.09-.07.14-.09a17.15,17.15,0,0,1,1.51-1.15,16.57,16.57,0,0,1,6-2.66c16.21-3.38,27.26,12.87,32.22,25.7A90.26,90.26,0,0,1,2623.74,712.08Z"/><path class="cls-25" d="M2359.71,638.81c-2.45,1.06-4.92,2.14-7.41,3.29C2354.79,640.92,2357.26,639.84,2359.71,638.81Z"/><path class="cls-25" d="M2565,671.4a1.74,1.74,0,0,0-.12.14.94.94,0,0,0,.1-.14Z"/><path class="cls-25" d="M2547.18,715.42l-9.49,17.72c-28.77-105.5-106.7-159.45-257.75-46.76-36.11,27-68,42.51-95.43,48.55-13.31-39.75-25.66-71.33-25.66-71.33l88.72-81.52,292.52-40.76S2546.27,708.56,2547.18,715.42Z"/><path class="cls-25" d="M2692.34,1106l-110.29,155.85s-158.25-69.53-153.46-103.1c.65-4.49-.09-79.56-.45-142.33,0-6.86-.07-13.59-.1-20,0-2.52,0-5,0-7.44,0-4.6,0-9,0-13.26,0-25.2.1-43.16.62-44.71,0,0,50.4-94.4,93.44-149.21,29.73-37.84,56-56.78,59.61-12.64.22,2.59.36,5.37.41,8.39.12,7,.57,14.22,1.29,21.61.39,4.07.87,8.22,1.44,12.39,1,7.82,2.35,15.8,3.91,23.88,9.13,47.12,26.35,97.66,44.19,142.14A1368.4,1368.4,0,0,0,2692.34,1106Z"/><path class="cls-21" d="M2581.64,649a5.67,5.67,0,0,0-.79.19s-.46.57-1.25,1.63a17.15,17.15,0,0,0-1.51,1.15c-.05,0-.09.07-.14.09q-.69.58-1.35,1.23c-.45.43-.88.88-1.31,1.36s-.94,1.06-1.37,1.61-.84,1.08-1.25,1.65-1,1.42-1.48,2.16c-.29.43-.58.89-.84,1.35-.75,1.19-1.47,2.44-2.14,3.66-.33.63-.67,1.23-1,1.83-2,3.74-3.76,7.4-5.51,10.4-.8,1.32-1.56,2.64-2.33,4-4.82,8.27-9.42,17.14-12.18,26.47-1.56,5.27-1.9,10.57-4.25,15.51l0,.07-5.25,9.79c-8.87-32.49-22.39-60.09-41.29-79.44-37.79-38.75-97.08-44.4-183.47,10-1.13.69-2.25,1.41-3.4,2.15a5.58,5.58,0,0,0-.6.39l0,0h0q-14,9-28.94,20.14c-36.11,27-68,42.51-95.43,48.55a124.76,124.76,0,0,1-13.86,2.31c-78,8.51-115.78-66.18-108.9-173.14,9.59-148.66,256.55-158.25,256.55-158.25l219.39,89.91Z"/><path class="cls-26" d="M3493.17,1786.92l-531.42,244-22.23,10.22-5,2.3a184.51,184.51,0,0,0-12.76-22.06s0-.05-.05-.07a250.53,250.53,0,0,0-27.38-34.51c-1.46-1.55-3-3.14-4.55-4.7.05-5.46.17-11,.29-16.66.79-33.57,2.61-70.08,5.17-107.66,15.28-11.67,31.37-24.14,47.41-36.87,71.21-56.47,141.72-117.9,138.13-137.13-1-5.54-1.92-10.43-2.69-14.74-4.5-25.54-4.5-30.81-4.5-30.81s-84.52-164.84-114.73-183c-.39-.24-.8-.46-1.16-.65v0a7.6,7.6,0,0,0-4-.94c-4.53.46-10.84,22.83-17.77,59.25v0c-6.28,33-13.06,77.61-19.42,127.82-4.58,36.06-8.94,75-12.75,114.75-3.31,34-6.21,68.6-8.52,102.31-52.19,39.88-95,70.57-95,70.57a185.74,185.74,0,0,1,17.62,5.92l-24.67,14.39a51.21,51.21,0,0,1-31.27,6.66l-139.11-15-145,76.41-32.42,17.1s58.6,29.3,87.3,31.07c.91.07,1.77.1,2.61.1,27.58,0,140.27-40.76,157.05-36,7.89,2.25,34.82,15.61,61.17,29.16a118,118,0,0,0,116-4.61l20.89-12.9c1.82,46.47,7.29,80,17.76,91.45,3.12,3.41,3.26,6.5.75,9.28-39.8,44.69-748.83,17.1-748.83,17.1l-86.31-410-8.92-411.76a171,171,0,0,1,136.09-171.07l227.85-47.4,107.73,335.31,189.42-381.23,162.87,10a298.08,298.08,0,0,1,71.31,13.24c1.63.5,3.26,1,4.87,1.58a297.48,297.48,0,0,1,141.22,100.58c2.81,3.62,5.54,7.32,8.13,11.11,1.73,2.42,3.38,4.86,5,7.36l16.12,24.6Z"/><path class="cls-27" d="M3078.08,1669.08c-4.5-25.54-4.5-30.81-4.5-30.81s-84.52-164.84-114.73-183c-.39-.24-.8-.46-1.16-.67-22.37-30.21-21.24,52.17-21.77,58.36-3.5,42.49-14,85.4-19.42,127.82-3.74,29.52,1.58,73-11.53,102.19-2.76,27.54-5.27,55.55-7.43,83.28a70.58,70.58,0,0,1-27.89,51c-39.9,30-69.41,51.18-69.41,51.18a185.74,185.74,0,0,1,17.62,5.92l-24.67,14.39a51.21,51.21,0,0,1-31.27,6.66l-139.11-15-145,76.41c29.89-39.27,99.64-116.55,182.17-111.18,53.09,3.45,132.5,56.47,189.42-50.35,12.76-23.93,24.46-54.81,35-88.74a52.4,52.4,0,0,1-11.22,4.77c-14.92,4.44-30.72,4.51-46.26,4.53-22.27.07-53.56-4.53-75.83-4.48,49.08-10.07,105.49-24,129.71-77.76,22.76-50.54,16-106.91,8.42-159.09q-10.29-70.8-20.55-141.58a33.69,33.69,0,0,1,26.92-37.94c22.63-4.35,47.88-8.16,63.73-.3,24.22,12,40.89,60,52.32,82.57,33.81,66.71,59.23,138.78,66.87,213.49C3079.14,1656.82,3079.62,1663.23,3078.08,1669.08Z"/><path class="cls-28" d="M2908.13,2132.19c3.12,3.41,3.26,6.5.75,9.28-58.53,1.68-184.72,4.63-186.57-.89-1.58-4.72-113.14-47.06-189.63-75.62.91.07,1.77.1,2.61.1,27.58,0,140.27-40.76,157.05-36,7.89,2.25,34.82,15.61,61.17,29.16a118,118,0,0,0,116-4.61l20.89-12.9C2892.19,2087.21,2897.66,2120.78,2908.13,2132.19Z"/><path class="cls-26" d="M2890.37,2040.74l-20.89,12.9a118,118,0,0,1-116,4.61c-26.35-13.55-53.28-26.91-61.17-29.16-16.78-4.79-129.47,36-157.05,36s-89.91-31.17-89.91-31.17l177.43-93.51,139.11,15a51.21,51.21,0,0,0,31.27-6.66l24.67-14.39a185.74,185.74,0,0,0-17.62-5.92s42.8-30.69,95-70.57c-2.56,37.58-4.38,74.09-5.17,107.66-.12,5.63-.24,11.2-.29,16.66C2889.48,2003.22,2889.65,2022.93,2890.37,2040.74Z"/><polygon class="cls-29" points="2849.39 1080.8 2709.13 1362.53 2683.09 1369.05 2622.81 1384.11 2624.41 1388.5 2651.58 1463.23 2502.92 1758.15 2492.45 1733.84 2390.23 1496.8 2428.59 1432.07 2375.85 1388.91 2322.71 1143.89 2321.49 1138.25 2428.59 1115.57 2456.6 1196.11 2530.88 1409.69 2541.69 1440.77 2674.41 1122.79 2691.02 1083.01 2695.94 1071.21 2725.55 1070.97 2849.39 1080.8"/><polygon class="cls-27" points="2875.76 1083.2 2735.5 1364.93 2709.46 1371.45 2649.18 1386.51 2650.79 1390.9 2677.95 1465.63 2529.3 1760.55 2518.82 1736.24 2416.61 1499.2 2454.97 1434.46 2402.22 1391.3 2349.09 1146.28 2347.86 1140.65 2454.97 1117.97 2482.97 1198.51 2557.26 1412.09 2568.07 1443.17 2700.78 1125.18 2717.4 1085.41 2722.31 1073.61 2751.92 1073.37 2875.76 1083.2"/><polygon class="cls-29" points="2683.09 1369.05 2680.35 1374.52 2624.41 1388.5 2622.81 1384.11 2683.09 1369.05"/><polygon class="cls-29" points="2691.02 1083.01 2674.41 1122.79 2541.69 1440.77 2530.88 1409.69 2645.63 1134.77 2667.17 1083.2 2691.02 1083.01"/><path class="cls-25" d="M2921.7,2021.35l-31.33,19.39-20.89,12.9a118,118,0,0,1-116,4.61c-26.35-13.55-53.28-26.91-61.17-29.16-16.78-4.79-129.47,36-157.05,36-14.17,0-37.55-8.25-56.89-16.24-18.3-7.57-33-14.93-33-14.93l177.43-93.51,139.11,15c1.06.12,2.11.19,3.14.22a50.8,50.8,0,0,0,24.51-5c1.22-.58,2.44-1.2,3.62-1.89l24.67-14.39,11.22-6.55,7.12-4.17S2893.32,1962.05,2921.7,2021.35Z"/><path class="cls-2" d="M2674.05,1070l-62.18,96.49a92.47,92.47,0,0,1-77.73,42.36h-.36a92.38,92.38,0,0,1-80.8-48.36l-24.39-44.93,113.1,325.2,154.25-369.56Z"/><path class="cls-30" d="M2674.41,1122.79l-132.72,318-85.09-244.66,3.57,6.57A92.42,92.42,0,0,0,2541,1251h.36a92.51,92.51,0,0,0,77.74-42.37Z"/><path class="cls-31" d="M2439.51,886.45l-1.27,9a83,83,0,0,1-2,9.71,79.21,79.21,0,0,1-3.18,9.43,72.91,72.91,0,0,1-10.66,17.88A59.58,59.58,0,0,1,2405.2,947a47.54,47.54,0,0,1-22.6,6l-.13-.86c1.79-.54,3.52-1.13,5.19-1.79h0a52.27,52.27,0,0,0,13.5-7.71A60.61,60.61,0,0,0,2414,928.46a90.26,90.26,0,0,0,5.78-10.14c1-2.07,2-4.17,2.9-6.28l.35-.81c1.11-2.57,2.13-5.16,3.08-7.78.08-.24.18-.49.27-.74-1.51.58-3,1.12-4.52,1.66-4.79,1.69-9.62,3.14-14.45,4.48-9.66,2.69-19.43,4.87-29.19,6.89s-19.58,3.73-29.4,5.37l-5.46.9c-8,1.27-16,2.45-24.06,3.46l-.14-.86q14.55-3,29-6.36c9.63-2.22,19.22-4.63,28.74-7.13s19-5.22,28.2-8.22c4.62-1.51,9.18-3.11,13.57-4.89a76.71,76.71,0,0,0,12.21-6Z"/><path class="cls-32" d="M2588.69,835.37c-47,107.47-126.38,147.61-160.65,161,0-2.52,0-5,0-7.44,64.16-19.11,120.65-107,156.78-177.43C2585.81,819.31,2587.13,827.29,2588.69,835.37Z"/><path class="cls-33" d="M2632.88,977.51c-82.89,39.11-177.22,39.68-204.74,38.89,0-6.86-.07-13.59-.1-20,0-2.52,0-5,0-7.44,64.16-19.11,120.65-107,156.78-177.43,1,7.82,2.35,15.8,3.91,23.88C2597.82,882.49,2615,933,2632.88,977.51Z"/><path class="cls-33" d="M2623.74,712.08c-9.95-57.85-38-55.36-55.19-47.59,3-5.35,6.5-10.55,11-13.64a16.57,16.57,0,0,1,6-2.66c16.21-3.38,27.26,12.87,32.22,25.7A90.26,90.26,0,0,1,2623.74,712.08Z"/><g class="cls-34"><path class="cls-35" d="M2583.82,703.33a41.15,41.15,0,0,0-12.7,11.74c-3.38,4.6-6.65,9.56-8.61,15.16a46.45,46.45,0,0,0,.79,34.08,54.78,54.78,0,0,1-1.58-16.81,52.77,52.77,0,0,1,3.56-16.23c1.88-5.21,5.12-9.78,8.18-14.56A90,90,0,0,1,2583.82,703.33Z"/></g><g class="cls-34"><path class="cls-35" d="M2561.4,747.38a34.65,34.65,0,0,0,28.71-3.43,33.09,33.09,0,0,1-27.6.54,1.55,1.55,0,0,0-1.27,2.83Z"/></g><path class="cls-33" d="M2585.26,810.53v0c-15.53,30.31-34.83,64-56.93,94l34-83.47a18.46,18.46,0,0,1,22.92-10.55Z"/><path class="cls-33" d="M2537.69,733.14s-86.32-136.67-191.82-55.49c-79.84,61.43-135,69.9-157,70.38-1.44-4.44-2.88-8.83-4.32-13.1,27.45-6,59.32-21.6,95.43-48.55C2431,573.69,2508.92,627.64,2537.69,733.14Z"/><path class="cls-22" d="M2496.4,653.7c-38.29-39.25-98.64-44.55-186.87,12.13,2.42-2.2,9.44-12.73,10.33-13.78a227.8,227.8,0,0,1,31.29-31.2c29.11-23.42,66.56-39.61,103-22.87C2475.83,608,2489.74,630.83,2496.4,653.7Z"/><path class="cls-22" d="M2565,671.4a1.74,1.74,0,0,0-.12.14,101.65,101.65,0,0,0-17.53,35.94,1.61,1.61,0,0,0-.09.29c-1.56,5.27-1.9,10.57-4.25,15.51l0,.07c-1.2,2.45-2.54,4.85-3.86,7.24a6.11,6.11,0,0,1-1.87.51h-.1a225,225,0,0,0-17.31-44.53.18.18,0,0,1,0-.09c-1.37-2.57-2.79-5.11-4.27-7.6s-3-4.85-4.56-7.2l-1.63-2.37c-1.13-1.58-2.25-3.14-3.45-4.68-.5-.64-1-1.31-1.54-2-.19-.22-.36-.46-.55-.7-1.12-1.39-2.28-2.75-3.45-4.07s-2.57-2.83-3.91-4.2c-.57-.6-1.15-1.17-1.75-1.75s-1.17-1.15-1.77-1.7c-1.49-1.42-3-2.76-4.56-4s-3.14-2.55-4.77-3.74c-1.29-1-2.61-1.9-4-2.79l-2-1.29c-.67-.43-1.37-.86-2.06-1.27s-1.37-.82-2.09-1.2-1.39-.77-2.11-1.15-1.41-.74-2.13-1.1q-2.16-1.08-4.39-2c-.74-.33-1.49-.65-2.25-.93a90.47,90.47,0,0,0-13.89-4.34c-.84-.19-1.65-.39-2.49-.55-.31-.08-.62-.12-.94-.17-.59-.12-1.19-.24-1.79-.34-2.47-.45-5-.79-7.58-1-.55-.07-1.13-.12-1.7-.14-3-.27-6-.39-9.16-.39-1.13,0-2.28,0-3.43,0-1.39,0-2.78.1-4.22.19l-3.33.27c-.84.07-1.71.14-2.59.26s-1.63.17-2.47.29-1.7.21-2.57.33c-1.22.17-2.44.36-3.69.6-1,.15-1.89.32-2.85.51-.67.12-1.35.26-2,.4-2.25.44-4.53,1-6.83,1.54l-2.52.65c-1.51.38-3,.81-4.58,1.27-1,.28-2,.6-3,.91-1.27.38-2.54.79-3.83,1.22-2,.67-4.13,1.39-6.21,2.16-1.3.48-2.61,1-3.93,1.49-1.15.45-2.31.91-3.46,1.34l-3.76,1.58c-2.45,1.06-4.92,2.14-7.41,3.29-2.92,1.34-5.9,2.75-8.9,4.29-.81.41-1.65.81-2.49,1.24-1.8.92-3.62,1.87-5.44,2.86s-3.65,2-5.52,3c-1.58.89-3.16,1.8-4.77,2.74-1.34.76-2.68,1.55-4,2.37-2.71,1.63-5.44,3.28-8.2,5,9.61-24.29,42.1-85.43,126.45-91.19,21.44-1.46,41.46,4.92,57.31,19.52,17.67,16.25,20.4,32.7,31,53.18a50,50,0,0,0,37.26,26.21Z"/><path class="cls-22" d="M2281.14,414.24s78-14.75,150.94,20.94a127.33,127.33,0,0,0,36.69,11.25l20.63,3.17a5.1,5.1,0,0,0,3.49-9.36C2465.49,422.89,2400.68,395.46,2281.14,414.24Z"/><path class="cls-33" d="M2921.7,2021.35l-14.76,9.13-16.57,10.26-20.89,12.9a118,118,0,0,1-116,4.61c-26.35-13.55-53.28-26.91-61.17-29.16-16.78-4.79-129.47,36-157.05,36-14.17,0-37.55-8.25-56.89-16.24l39.15,4.63a109.53,109.53,0,0,0,52.94-6.86l90.56-35.55a39.63,39.63,0,0,1,35.68,3.33,366.06,366.06,0,0,1,32.78,23.11c35.46,28.37,129.85,35.9,139.06-24,3.48-22.61-24.09-64.48-39.49-85.75l7.12-4.17S2893.32,1962.05,2921.7,2021.35Z"/><path class="cls-33" d="M2823,2025.49c-11.59-32.12-36.93-55.31-58-69.91a50.8,50.8,0,0,0,24.51-5C2825.58,1975.6,2823,2025.49,2823,2025.49Z"/><path class="cls-27" d="M3493.17,1786.92l-531.42,244-40-9.54s0-.05-.05-.07a250.53,250.53,0,0,0-27.38-34.51c41.39-37.09,154.77-110.36,248.93-169.11a211.59,211.59,0,0,0,88.6-247.13l-125.67-372.77q6.92,8.93,13.14,18.47Z"/><path class="cls-27" d="M3114.31,1208.94c-45.63,17.35-93.24,21.77-106.41-26.4-9.85-36.11-28.29-64.91-47.81-86.87,1.63.5,3.26,1,4.87,1.58a297.48,297.48,0,0,1,141.22,100.58C3109,1201.45,3111.72,1205.15,3114.31,1208.94Z"/><path class="cls-36" d="M3762.91,1447.65,2477.75,2049.47l-380-243.29-62.05-39.73-367.59-235.36L1578,1473.35l-11.68-7.45L1500.9,1424l-23-14.72,90.51-119.7,25.11-33.18,5-6.57,107.92-142.71,5.37-7.12,1.89-2.5,254.81-336.94,30.06-39.76,245-324q16.42,5.54,33.47,10.09c.5.14,1,.26,1.53.41,35.15-32.49,87.26-59.47,164.46-68.62,83.54-9.93,155.68,23,211.77,81.28q19.64-3.57,39-8c129.55-29.71,264.64-88.5,397.64-40.59,130.79,47.16,191.84,159.75,220.7,281,1.83,7.67,3.46,15.37,4.94,23.11,2.83,14.65,5.13,29.44,7.22,44.21,8.39,58.87,13.64,118.21,36.23,174.53,53.13,132.4,161.08,162.71,286.88,167.29l56.25,188,11.9,39.76Z"/><g id="laptop"><polygon class="cls-2" points="2482.04 2051.7 2462.21 2051.58 2440.87 2051.46 2328.49 2050.81 2281.5 2050.53 2226.18 2050.22 2086.68 2049.4 1832.79 2047.91 1701.66 2047.17 1646.06 2046.83 1645.84 2046.02 1479.39 1417.51 1477.26 1409.45 1474.1 1397.51 1568.68 1398.07 1763.5 1399.19 1922.87 1400.13 1997.27 1400.56 2310.08 1402.38 2465.52 1989.34 2482.04 2051.7"/><polygon class="cls-37" points="2482.04 2051.7 2462.21 2051.58 2440.87 2051.46 2328.49 2050.81 2281.5 2050.53 2226.18 2050.22 2086.68 2049.4 1832.79 2047.91 1701.66 2047.17 1646.06 2046.83 1645.84 2046.02 1479.39 1417.51 1477.26 1409.45 1474.1 1397.51 1568.68 1398.07 1763.5 1399.19 1922.87 1400.13 1997.27 1400.56 2310.08 1402.38 2465.52 1989.34 2482.04 2051.7"/><path class="cls-38" d="M2817,2113.11v.93l-333-2.28-154.66-1.05-194.95-1.32-484.22-3.28.36-50.31,51,.36,131.13.89,261.47,1.77,131.92.91,63,.44,90.17.59,69.32.48,35,.24h.77l282.68,1.92a1.31,1.31,0,0,1,.34,0A50.29,50.29,0,0,1,2817,2113.11Z"/><polygon class="cls-2" points="1645.49 2046.02 2462.22 2051.57 2293.62 1415.01 1476.89 1409.44 1645.49 2046.02"/><path class="cls-39" d="M1692.62,1732.47c43.29,19.51,195.1,36.13,339.08,37.11s225.58-14,182.29-33.56-195.09-36.13-339.06-37.11S1649.33,1713,1692.62,1732.47Z"/><path class="cls-40" d="M2817,2113.11v.93l-333-2.27.35-50.29L2767,2063.4a1.94,1.94,0,0,1,.34,0A50.32,50.32,0,0,1,2817,2113.11Z"/><rect class="cls-2" x="2291.66" y="1985.07" width="22.1" height="153.23" transform="translate(225.36 4350.28) rotate(-89.61)"/><rect class="cls-2" x="1756.11" y="1992.47" width="22.1" height="131.13" transform="translate(-302.85 3811.16) rotate(-89.61)"/><rect class="cls-41" x="2291.66" y="1985.07" width="22.1" height="153.23" transform="translate(225.36 4350.28) rotate(-89.61)"/><rect class="cls-41" x="1756.11" y="1992.47" width="22.1" height="131.13" transform="translate(-302.85 3811.16) rotate(-89.61)"/><polygon class="cls-42" points="2288.19 1423.03 1479.03 1417.52 1476.89 1409.44 2293.62 1415.01 2462.22 2051.57 2454.64 2051.52 2288.19 1423.03"/></g><g class="cls-13"><polygon class="cls-43" points="2329.35 2110.71 2134.4 2109.39 2094.19 2058.82 2086.68 2049.4 2086.4 2049.02 1584.73 1418.23 1578.3 1410.15 1568.68 1398.07 1763.5 1399.19 1773.26 1411.47 1779.68 1419.55 2281.35 2050.36 2281.47 2050.5 2281.5 2050.53 2289.14 2060.16 2299.14 2072.7 2329.35 2110.71"/><polygon class="cls-44" points="2507.67 2042.33 2483.6 2061.48 2462.31 2078.41 2448.64 2061.24 2440.87 2051.46 2440.85 2051.44 1939.2 1420.65 1932.75 1412.55 1922.87 1400.13 1997.27 1400.56 2007.22 1413.08 2013.65 1421.15 2424.52 1937.76 2435.84 1952.01 2465.52 1989.34 2507.67 2042.33"/></g><path class="cls-2" d="M1387.69,1147.14c-69,184-278.61,237.17-452.19,250.29-103.36,7.81-209.1,4.78-308-26.4-77.82-24.56-147.3-66.77-199.52-125.4A380.64,380.64,0,0,1,357,1129.28C291,958.33,327.87,686.52,456.49,549.65c193.11-205.53,564-77.2,755.19,67.77C1363.72,732.72,1457,962.1,1387.69,1147.14Z"/><path class="cls-45" d="M1387.69,1147.14c-69,184-278.61,237.17-452.19,250.29-103.36,7.81-209.1,4.78-308-26.4-77.82-24.56-147.3-66.77-199.52-125.4A380.64,380.64,0,0,1,357,1129.28C291,958.33,327.87,686.52,456.49,549.65c193.11-205.53,564-77.2,755.19,67.77C1363.72,732.72,1457,962.1,1387.69,1147.14Z"/><g class="cls-46"><g class="cls-47"><path class="cls-48" d="M1410.15,1139.77,1149,1099.37l18.83-183,3.59-.56c.41.31.84.56,1.24.84L1187.4,926l0,0c2.67,4.18,5.71,8.46,9.09,13.17,11.71,16.33,26,36.4,43.6,50,.19.12.35.28.53.4l-2.22,29.44-3.74,49.27-1.82,24.17,109.35,0-2.65-31.14-4.53-53.36-2.33-27.14c.15-.12.28-.28.43-.4,4.65-4.31,8.95-8.9,13-13.48,9.11-10.23,19.61-18.88,25.53-31.09,1-2,1.92-4,2.85-6l1.33-.9.34-.22Z"/><path class="cls-2" d="M1542.37,1530.84l-507.82-221.66,8.69-158.34a104.25,104.25,0,0,1,71.58-93.39c2.47-.82,5-1.55,7.5-2.17l20.78-5.14,33.82-8.37,18-4.45,38.32-9.49,1.41-.34-.27,3.13-1.55,17,9.33,2.11L1312,1065.4l24.78,5.56,2.25-39.72.54-9.58,5.91,1.44,20.28,4.93,22,5.33,50.33,12.17a90.89,90.89,0,0,1,17.41,6.49c.24.1.47.23.69.34,31,15.46,47,46.43,53.9,83.56Z"/><path class="cls-48" d="M1542.37,1530.84l-487.95-63.63-11.18-316.37a104.25,104.25,0,0,1,71.58-93.39c2.47-.82,5-1.55,7.5-2.17l20.78-5.14,33.82-8.37,18-4.45,38.32-9.49,1.41-.34-.27,3.13-1.55,17,9.33,2.11L1312,1065.4l24.78,5.56,2.25-39.72.54-9.58,5.91,1.44,20.28,4.93,22,5.33,50.33,12.17a90.89,90.89,0,0,1,17.41,6.49c.24.1.47.23.69.34,31,15.46,47,46.43,53.9,83.56Z"/><path class="cls-49" d="M1412.25,883.83c-.3,10.16-4.79,21-10.83,27a2,2,0,0,1-.31.34l-.9.84a51.67,51.67,0,0,1-5.89,4.52l-18.09,12.15-.34.22-1.33.9c-.93,2-1.86,4.06-2.85,6-5.92,12.21-16.42,20.86-25.53,31.09-4.09,4.58-8.39,9.17-13,13.48-.15.12-.28.28-.43.4l2.33,27.14,4.53,53.36,2.65,31.14-109.35,0,1.82-24.17,3.74-49.27,2.22-29.44c-.18-.12-.34-.28-.53-.4-17.6-13.63-31.89-33.7-43.6-50-3.38-4.71-6.42-9-9.09-13.17l0,0-14.72-9.35c-.4-.28-.83-.53-1.24-.84a53.24,53.24,0,0,1-22-31.26A15.65,15.65,0,0,1,1159,866l17.69-6.82c2.78-15.68,7.73-31.14,11.11-46.57q7.05-32.22,14.08-64.46l140.23-40.44,23.82,71.33q6.74,30.35,13.52,60.79c1.27,5.76,2.85,11.65,4.28,17.56l.34.13,21.72,7.74a1.82,1.82,0,0,1,.31.31C1410.7,870.19,1412.44,876.89,1412.25,883.83Z"/><path class="cls-50" d="M1335,998.7c-14.78,14.29-32.63,26.3-53.69,26.31-16.17,0-30.39-6.94-42.92-17.06l1.71-18.76c12.1,9.39,25.75,15.73,41.23,15.73,20.18,0,37.39-11,51.79-24.5Z"/><path class="cls-48" d="M1388.55,861.07c-.31,1.7-1.7,10.26-9.51-2.38-.47-.75-.9-1.49-1.34-2.3-.62-1-1.2-2.2-1.76-3.4s-1.3-2.76-2-4.25a1.31,1.31,0,0,0-.12-.28c-.59-1.42-1.18-2.88-1.74-4.4-.31-.8-.62-1.64-.89-2.48-.63-1.64-1.21-3.34-1.77-5.11s-1.12-3.53-1.68-5.33-1.08-3.65-1.58-5.54c-.77-2.79-1.52-5.61-2.2-8.49-.34-1.3-.65-2.64-1-4s-.62-2.6-.9-3.9-.56-2.42-.81-3.6c-.87-4-1.67-7.9-2.42-11.71-.31-1.64-.62-3.28-.93-4.86-.18-1.15-.4-2.3-.62-3.44-.34-2-.68-3.87-1-5.7-.19-1.09-.37-2.14-.53-3.16l-.06-.44-2.73-18.53-.07-.49-.12-.84c-34.23,18.11-120.59.28-139.12,1.31-2.08.09-3.29.46-3.54,1.11a5.51,5.51,0,0,0-.15.59c-.06.22-.12.47-.19.78-.12.55-.24,1.24-.4,2-.12.56-.21,1.21-.34,1.89-.25,1.52-.59,3.32-.93,5.33-.18,1-.37,2.11-.58,3.26v0c-.22,1.33-.47,2.72-.72,4.15-.52,2.88-1.11,6-1.73,9.33-.19,1-.37,2-.59,3-.34,1.83-.71,3.66-1.08,5.55-.37,1.73-.74,3.5-1.15,5.27,0,0,0,.06,0,.06-.61,2.76-1.23,5.58-1.88,8.36-.9,3.75-1.83,7.5-2.85,11.19-.78,2.76-1.55,5.49-2.39,8.12-.31,1-.65,2.08-1,3.07s-.68,2-1,3-.68,2-1,2.89-.71,1.85-1.08,2.75a74.77,74.77,0,0,1-4.62,9.67c-5.85,10.07-8.61,7.41-9.51,11.9-1.74-29.22-6.45-43.1-7.82-72.35-.72-15.21-.72-29.56,1.75-42.54a79.17,79.17,0,0,1,4.4-15.52c30.1-74.81,177-77,210.7-4,1.49,3.22,2.85,6.41,4,9.51C1406.75,779.79,1396.75,814.87,1388.55,861.07Z"/><path class="cls-48" d="M1353.05,757.8l2.73,18.53C1354.29,767.38,1353.39,760.56,1353.05,757.8Z"/><path class="cls-48" d="M1367.78,831.14c.56,1.8,1.12,3.6,1.68,5.33a3.23,3.23,0,0,1-.22-.59Q1368.49,833.56,1367.78,831.14Z"/><path class="cls-51" d="M1396,1185.56l-37.79-4,19.9,31.81-57.2,77.22-68,91.86-59.51-91.83-53.9-83.15,31.81-57.68h-31.82l0-95.46,7.7-3.4,31.3-7.74,16.69-4.13,35.45-8.77,1.06,2.58,7.2,17.68,25.91,63.41,38.71-48.91,25-31.61,6-7.54,18.77,4.57,20.37,4.93,46.58,11.27a84.43,84.43,0,0,1,16.11,6c.22.1.44.22.63.32Z"/><path class="cls-2" d="M1338.93,1021.53l-7.06,5.22a72.81,72.81,0,0,1-85.36.88l-8.58-6.08-4.3,10.75,25.86,272.92,62.28-154.75Z"/></g><polygon class="cls-2" points="936.37 1153.53 807.38 1153.56 809.53 1125.04 813.92 1066.94 818.56 1005.44 922.31 988.58 927.87 1053.85 933.25 1116.8 936.37 1153.53"/><path class="cls-2" d="M1172.36,1409l-598.91.15L583.7,1222.4a123,123,0,0,1,84.43-110.15c2.91-1,5.85-1.83,8.84-2.56l24.51-6.07,39.9-9.87,21.26-5.25,45.2-11.19,1.67-.4-.33,3.7-1.82,20.05,11,2.48,82.36,18.48,29.23,6.56,2.65-46.84.63-11.31,7,1.7,23.93,5.82,26,6.28,59.37,14.36a107.8,107.8,0,0,1,20.53,7.65l.82.4c36.55,18.24,55.39,54.77,63.57,98.56Z"/><path class="cls-52" d="M1172.36,1409l-598.91.15L583.7,1222.4a123,123,0,0,1,84.43-110.15c2.91-1,5.85-1.83,8.84-2.56l24.51-6.07,39.9-9.87,21.26-5.25,45.2-11.19,1.67-.4-.33,3.7-1.82,20.05,11,2.48,82.36,18.48,29.23,6.56,2.65-46.84.63-11.31,7,1.7,23.93,5.82,26,6.28,59.37,14.36a107.8,107.8,0,0,1,20.53,7.65l.82.4c36.55,18.24,55.39,54.77,63.57,98.56Z"/><path class="cls-2" d="M989.27,907.25c-.69,18.56-7,37.32-14.76,54.4v0c-1.12,2.41-2.21,4.8-3.36,7.12-7,14.42-19.37,24.6-30.14,36.69-4.79,5.38-9.89,10.8-15.36,15.9-17,15.9-37.29,28.89-61.09,28.9-18.26,0-34.35-7.48-48.63-18.55-20.75-16.07-37.61-39.73-51.44-59-4-5.55-7.55-10.62-10.69-15.53-9.23-14.61-14.53-28-15.13-49.46a145.08,145.08,0,0,1,2.47-29.36c3.27-18.48,9.1-36.71,13.08-54.93q8.31-38,16.61-76l165.42-47.71,28.07,84.12q7.95,35.83,15.94,71.69c1.52,6.82,3.4,13.74,5,20.72C987.73,886.56,989.66,896.9,989.27,907.25Z"/><path class="cls-53" d="M927.87,1043c-17.44,16.86-38.49,31-63.34,31-19.06,0-35.83-8.18-50.61-20.12l2-22.12c14.28,11.07,30.37,18.55,48.63,18.55,23.8,0,44.1-13,61.09-28.9Z"/><path class="cls-2" d="M747.35,876l-27.09,10.44A18.5,18.5,0,0,0,709,908.28h0a63.33,63.33,0,0,0,27.4,37.84l23.66,15Z"/><path class="cls-2" d="M1018.94,907.47c-.33,12-5.63,24.76-12.78,31.85a2.71,2.71,0,0,1-.36.4c-.34.33-.7.64-1.07,1a64.5,64.5,0,0,1-6.92,5.36l-21.73,14.55-1.57,1.07v0l10.63-85.41.59.22,25.61,9.14a2.22,2.22,0,0,1,.39.36C1017.12,891.4,1019.19,899.28,1018.94,907.47Z"/><path class="cls-54" d="M952.35,780.68c-1.63-9.9-2.69-17.59-3.15-21.19Z"/><path class="cls-54" d="M954.56,793.49c-.41-2.21-.79-4.37-1.15-6.43C953.79,789.15,954.15,791.28,954.56,793.49Z"/><path class="cls-54" d="M997.49,747.75c-.62-2.16-1.27-4.31-2-6.5C996.24,743.44,996.89,745.59,997.49,747.75Z"/><path class="cls-2" d="M968.23,850.92c-18.37-23.91-40.42-73.23-40.42-73.23-22,14.25-133.42,0-133.42,0-6.19,24.23-19.62,47-31.42,63.72,10.37-33.12,16.24-77.12,17.67-81.35.28-.76,1.71-1.18,4.15-1.32,21.87-1.19,123.72,19.82,164.1-1.53l.14,1c.33,2.78,1.46,11.16,3.31,22.43l.09.51C955.63,800.62,961,828.38,968.23,850.92Z"/><path class="cls-2" d="M1018.7,1275.17l-48.16-5.06,25.35,40.55L923,1409.08l-86.73,117.08-75.84-117-68.7-106,40.54-73.51H691.71l0-121.67,9.8-4.34,39.9-9.87,21.26-5.25,45.2-11.19,1.34,3.3,9.18,22.53,33,80.82,49.34-62.34,31.88-40.28,7.6-9.61,23.93,5.82,26,6.28,59.37,14.36a107.8,107.8,0,0,1,20.53,7.65l.82.4Z"/><path class="cls-55" d="M1018.7,1275.17l-48.16-5.06,25.35,40.55L923,1409.08l-86.73,117.08-75.84-117-68.7-106,40.54-73.51H691.71l0-121.67,9.8-4.34,39.9-9.87,21.26-5.25,45.2-11.19,1.34,3.3,9.18,22.53,33,80.82,49.34-62.34,31.88-40.28,7.6-9.61,23.93,5.82,26,6.28,59.37,14.36a107.8,107.8,0,0,1,20.53,7.65l.82.4Z"/><path class="cls-2" d="M932.47,1069.88l-8.33,6.16a85.88,85.88,0,0,1-100.68,1l-10.13-7.17-5.06,12.67,30.49,321.91L912.23,1222Z"/><path class="cls-55" d="M1003.35,786.67c.8,30-6.22,59.32-12.37,93.94-.36,2-2,12.11-11.22-2.8a73.69,73.69,0,0,1-3.65-6.69c-1.18-2.42-2.33-5-3.43-7.77-.36-.91-.72-1.84-1.08-2.8-1.66-4.39-3.24-9.11-4.75-14q-.61-2.06-1.23-4.17c-1.58-5.52-3-11.22-4.41-17-.27-1.13-.53-2.26-.79-3.38s-.53-2.26-.77-3.38-.58-2.52-.84-3.77c-.46-2.11-.89-4.19-1.32-6.28-.24-1.1-.46-2.2-.67-3.28-.56-2.78-1.08-5.54-1.59-8.2-.07-.46-.17-.94-.26-1.39-.15-.75-.27-1.49-.41-2.23-.41-2.21-.77-4.34-1.15-6.43s-.68-4-1-5.87l-.07-.51-3.15-21.19-.09-.67-.07-.53v0l-.15-1c-.81.44-1.63.84-2.49,1.23-41.93,19.29-140.17-.85-161.61.3-2.44.15-3.86.58-4.14,1.32a23.58,23.58,0,0,0-.58,2.45c-.05.19-.07.38-.12.6s-.05.26-.07.4c-.1.46-.19,1-.29,1.52-.19,1.15-.43,2.47-.69,3.93,0,.31-.1.62-.17,1s-.1.64-.17,1c-.14.82-.28,1.68-.45,2.59-.1.58-.19,1.17-.31,1.8s-.27,1.58-.41,2.4c-.53,2.85-1.08,6-1.68,9.3-.12.62-.24,1.27-.36,1.92-.57,3-1.17,6.18-1.82,9.47-.21,1.05-.43,2.13-.67,3.24-.33,1.65-.69,3.35-1.05,5.06-.17.79-.34,1.58-.5,2.37-.29,1.32-.58,2.66-.89,4q-.82,3.7-1.72,7.41c-1,4-2,8-3.07,11.87-.55,2-1.13,4-1.7,5.95s-1.15,3.81-1.77,5.66l-.36,1.1c-.79,2.37-1.58,4.68-2.45,6.91-.19.55-.4,1.1-.62,1.65a95.85,95.85,0,0,1-6.11,13c-6.88,11.87-10.14,8.76-11.19,14-2.07-34.45-7.62-50.83-9.26-85.33-.84-17.93-.82-34.84,2.1-50.18a94.26,94.26,0,0,1,5.18-18.3c12.67-31.48,42.88-52.06,78.31-61.57a187,187,0,0,1,71.93-4.62.88.88,0,0,1,.15.05,194.32,194.32,0,0,0,26.73,5.63c64.84,8.73,86.86-27.19,86.86-27.19s28.1,69-7.93,102.09c.72,2.19,1.37,4.34,2,6.5s1.15,4.27,1.66,6.4c.26,1.06.5,2.11.72,3.17s.45,2.11.64,3.14.41,2.11.58,3.14c.46,2.64.84,5.25,1.15,7.86.1.75.2,1.49.27,2.21.12,1.15.24,2.28.31,3.4.07.77.12,1.56.19,2.33l.15,2.45c.05.81.07,1.6.12,2.42S1003.35,785.87,1003.35,786.67Z"/><path class="cls-54" d="M949,758.24v0c-.89.07-1.75.12-2.64.17.86-.39,1.68-.79,2.49-1.23Z"/><g class="cls-47"><path class="cls-2" d="M708.52,1517.21,206.93,1298.27l8.58-156.39a103,103,0,0,1,70.71-92.25c2.44-.81,4.9-1.53,7.4-2.14l20.53-5.08,33.4-8.27,17.81-4.4,37.85-9.37,1.4-.34-.28,3.1-1.52,16.79L412,1042l69,15.48,24.47,5.49,2.22-39.23.53-9.46,5.84,1.42,20,4.87,21.73,5.26,49.72,12a90.17,90.17,0,0,1,17.19,6.4l.68.34c30.61,15.28,46.39,45.86,53.24,82.54Z"/><path class="cls-48" d="M708.52,1517.21,206.93,1298.27l8.58-156.39a103,103,0,0,1,70.71-92.25c2.44-.81,4.9-1.53,7.4-2.14l20.53-5.08,33.4-8.27,17.81-4.4,37.85-9.37,1.4-.34-.28,3.1-1.52,16.79L412,1042l69,15.48,24.47,5.49,2.22-39.23.53-9.46,5.84,1.42,20,4.87,21.73,5.26,49.72,12a90.17,90.17,0,0,1,17.19,6.4l.68.34c30.61,15.28,46.39,45.86,53.24,82.54Z"/><path class="cls-49" d="M580,878.15c-.3,10-4.74,20.72-10.7,26.66a1.67,1.67,0,0,1-.31.34c-.3.27-.58.55-.89.82a49.28,49.28,0,0,1-5.81,4.47l-18.21,12.22-1.31.89c-.92,2-1.84,4-2.82,6-5.84,12.06-16.21,20.6-25.21,30.7-4,4.53-8.29,9.06-12.88,13.32-.15.12-.27.27-.43.39l2.31,26.81,4.48,52.7,2.61,30.76-108,0,1.8-23.87,3.69-48.67,2.2-29.07c-.19-.13-.34-.28-.52-.4-17.39-13.46-31.5-33.29-43.08-49.42-3.33-4.65-6.33-8.87-9-13l0,0-14.54-9.24a52.81,52.81,0,0,1-22.93-31.7,15.48,15.48,0,0,1,9.42-18.28l17.48-6.73c2.75-15.49,7.64-30.76,11-46q7-31.81,13.91-63.66l138.51-39.94,23.52,70.45q6.68,30,13.36,60c1.26,5.69,2.82,11.51,4.23,17.35l.34.12,21.45,7.65a2.27,2.27,0,0,1,.31.31C578.47,864.69,580.18,871.3,580,878.15Z"/><path class="cls-50" d="M503.73,991.6c-14.61,14.12-32.24,26-53,26-16,0-30-6.85-42.39-16.85L410,982.21c11.95,9.27,25.43,15.54,40.72,15.53,19.93,0,36.93-10.88,51.16-24.19Z"/><path class="cls-48" d="M556.58,855.66c-.3,1.69-1.68,10.13-9.39-2.35-.46-.74-.89-1.47-1.32-2.27-.61-1-1.19-2.17-1.74-3.36s-1.29-2.73-1.93-4.19a.79.79,0,0,0-.13-.28c-.58-1.41-1.16-2.85-1.71-4.35-.31-.79-.61-1.62-.89-2.44q-.91-2.45-1.74-5c-.56-1.72-1.11-3.49-1.66-5.27s-1.07-3.61-1.56-5.47c-.77-2.76-1.5-5.54-2.18-8.39-.33-1.29-.64-2.6-1-3.92s-.61-2.57-.88-3.85-.56-2.39-.8-3.55c-.86-3.92-1.65-7.81-2.39-11.57-.31-1.62-.61-3.25-.92-4.81-.18-1.13-.4-2.26-.61-3.39-.34-1.93-.68-3.83-1-5.63-.19-1.08-.37-2.12-.52-3.13l-.07-.42-2.69-18.31-.06-.49-.13-.82c-33.81,17.88-119.11.27-137.41,1.29-2.05.09-3.25.46-3.49,1.1a5.25,5.25,0,0,0-.15.58,6.67,6.67,0,0,0-.19.77c-.12.55-.24,1.22-.4,2-.12.55-.21,1.19-.33,1.86-.25,1.5-.58,3.28-.92,5.27-.18,1-.37,2.08-.58,3.21v0c-.21,1.32-.46,2.7-.7,4.1-.52,2.85-1.1,6-1.71,9.22-.19,1-.37,2-.58,3-.34,1.81-.71,3.62-1.07,5.48s-.74,3.46-1.14,5.21c0,0,0,.06,0,.06-.61,2.72-1.22,5.51-1.86,8.26-.89,3.71-1.8,7.41-2.81,11.05-.77,2.72-1.53,5.42-2.36,8-.3,1-.64,2-1,3s-.67,2-1,3-.67,1.93-1,2.85-.7,1.83-1.07,2.72A72.9,72.9,0,0,1,357,844c-5.79,9.95-8.51,7.32-9.4,11.75-1.72-28.86-6.37-42.57-7.73-71.46-.7-15-.71-29.19,1.74-42a78.8,78.8,0,0,1,4.34-15.33c29.73-73.89,174.86-76,208.11-4,1.47,3.18,2.82,6.33,4,9.39C574.56,775.38,564.68,810,556.58,855.66Z"/><path class="cls-48" d="M521.52,753.66,524.21,772C522.74,763.12,521.85,756.39,521.52,753.66Z"/><path class="cls-48" d="M536.07,826.1c.55,1.78,1.1,3.55,1.66,5.27a3.79,3.79,0,0,1-.22-.58C537,829.26,536.53,827.69,536.07,826.1Z"/><path class="cls-51" d="M564,1176.16l-37.32-3.91,19.65,31.42-56.5,76.27-67.21,90.73L363.81,1280l-53.24-82.13,31.42-57H310.56l0-94.29,7.6-3.36,30.92-7.65,16.48-4.07,35-8.67,1,2.55,7.11,17.46,25.6,62.64,38.23-48.31,24.7-31.22,5.89-7.45,18.55,4.52,20.12,4.86,46,11.13a83.62,83.62,0,0,1,15.92,5.93c.21.09.43.21.62.31Z"/><path class="cls-2" d="M507.57,1014.15l-7,5.16a71.92,71.92,0,0,1-84.31.87l-8.48-6-4.24,10.62,25.54,269.56,61.51-152.84Z"/></g></g><path class="cls-2" d="M4302.9,1229.92q2.42-4,4.74-8.1c168.93-298.48-145.53-566.06-428.06-497.15-186.4,45.47-303.23,196.78-271.6,391.27C3659.82,1434.62,4139.82,1500.24,4302.9,1229.92Z"/><path class="cls-45" d="M4302.9,1229.92q2.42-4,4.74-8.1c168.93-298.48-145.53-566.06-428.06-497.15-186.4,45.47-303.23,196.78-271.6,391.27C3659.82,1434.62,4139.82,1500.24,4302.9,1229.92Z"/><g class="cls-56"><g class="cls-47"><path class="cls-57" d="M4075.64,1313.32l-262.73-90.78,53.81-185.94,3.82.09c.36.4.77.74,1.13,1.1l13.48,12.44,0,0c2,4.83,4.32,9.83,6.93,15.33,9.07,19.1,20.1,42.56,35.76,60,.17.16.3.35.47.52l-7.82,30.05-13.1,50.3-6.42,24.68,113.19,20.47,3.11-32.73,5.31-56.08,2.67-28.53c.19-.1.34-.24.53-.34,5.62-3.59,10.93-7.53,16-11.51,11.34-8.88,23.83-15.86,32.25-27.39,1.39-1.87,2.73-3.78,4.08-5.72l1.55-.68.39-.16Z"/><path class="cls-2" d="M4139.18,1742.94l-484.11-324.67L3693.75,1256a109.69,109.69,0,0,1,91.61-83.25c2.72-.39,5.43-.68,8.17-.85l22.48-1.42,36.58-2.32,19.5-1.23,41.44-2.64,1.53-.09-.88,3.2-4.78,17.31,9.26,3.92,69.34,29.32,24.61,10.4,9.77-40.69,2.35-9.82,5.85,2.6,20.08,8.91,21.78,9.64,49.82,22a96.39,96.39,0,0,1,16.8,10c.23.15.45.33.65.48,29.18,21.82,39.91,56.87,40.12,96.6Z"/><path class="cls-58" d="M4139.18,1742.94,3646,1585.58,3693.75,1256a109.69,109.69,0,0,1,91.61-83.25c2.72-.39,5.43-.68,8.17-.85l22.48-1.42,36.58-2.32,19.5-1.23,41.44-2.64,1.53-.09-.88,3.2-4.78,17.31,9.26,3.92,69.34,29.32,24.61,10.4,9.77-40.69,2.35-9.82,5.85,2.6,20.08,8.91,21.78,9.64,49.82,22a96.39,96.39,0,0,1,16.8,10c.23.15.45.33.65.48,29.18,21.82,39.91,56.87,40.12,96.6Z"/><path class="cls-2" d="M4125.81,1048.78c-2.22,10.46-8.9,20.82-16.28,25.91a1.74,1.74,0,0,1-.38.29c-.38.23-.72.47-1.09.7a54.83,54.83,0,0,1-6.94,3.58l-21,9.19-.39.16-1.55.68c-1.35,1.94-2.69,3.85-4.08,5.72-8.42,11.53-20.91,18.51-32.25,27.39-5.1,4-10.41,7.92-16,11.51-.19.1-.34.24-.53.34l-2.67,28.53-5.31,56.08-3.11,32.73L3901,1231.12l6.42-24.68,13.1-50.3,7.82-30.05c-.17-.17-.3-.36-.47-.52-15.66-17.41-26.69-40.87-35.76-60-2.61-5.5-5-10.5-6.93-15.33l0,0-13.48-12.44c-.36-.36-.77-.7-1.13-1.1a55.87,55.87,0,0,1-11.49-16,56.61,56.61,0,0,1-5.39-20.53A16.47,16.47,0,0,1,3867,982.85l19.59-3.74c5.82-15.71,13.85-30.79,20.24-46.13q13.34-32,26.66-64.08l152.74-15.56,11.28,78.29q1.29,32.68,2.6,65.46c.24,6.21.77,12.6,1.14,19l.33.19,21,12.09a3.12,3.12,0,0,1,.27.38C4126.76,1034.38,4127.3,1041.63,4125.81,1048.78Z"/><path class="cls-50" d="M4024.34,1153.21c-18,12-38.72,21.11-60.52,17.17-16.74-3-30.15-12.88-41.23-25.71l5.29-19.1c10.77,12,23.7,21.12,39.73,24,20.89,3.78,40.77-4.39,58.21-15.64Z"/><path class="cls-57" d="M4096.35,829.85c23.95,22.3,40,49.06,39,82.11-.58,19.72-1,36-7.79,54.93-6.58,18.27-15.38,35.65-22,53.89-.62,1.71-3.68,10.29-9.38-4.26-.36-.85-.65-1.71-1-2.62-.43-1.2-.83-2.51-1.19-3.85-.42-1.52-.83-3.09-1.23-4.76a.68.68,0,0,0-.08-.31c-.34-1.59-.67-3.22-1-4.89-.18-.88-.35-1.81-.47-2.73q-.53-2.73-.88-5.62c-.26-1.91-.49-3.86-.74-5.83s-.44-4-.59-6c-.28-3-.51-6.09-.69-9.2-.11-1.41-.18-2.86-.26-4.29s-.14-2.81-.18-4.21-.14-2.61-.18-3.87c-.15-4.27-.24-8.49-.31-12.57,0-1.78,0-3.53,0-5.22,0-1.23,0-2.44,0-3.68,0-2.09,0-4.13.05-6.08,0-1.17,0-2.28,0-3.38v-.45l.64-19.69.05-.53,0-.89c-19.48,6.19-42.31,1.52-61.72-2.63s-47.28-16.81-67.25-10.74c-5.87,1.78-10.84,5.68-15.35,9.83-12.53,11.55-21,24.73-28.27,39.89-1.3,2.73-2.61,5.39-4,8-.51,1-1.06,2-1.59,3s-1.1,2-1.63,2.91-1.09,1.9-1.63,2.79-1.08,1.78-1.64,2.64a74.32,74.32,0,0,1-6.6,9.14c-3.61,4.13-8.33,6.4-11.91,10.17,5.37-10.83.08-31.27-.32-43.08-.57-16.83-1.11-33.76.78-50.53,1.93-17.1,3.19-38.88,12.84-53.81,6.33-9.81,15.84-17.11,25.61-23.49,24.7-16.11,53.66-23.14,83.06-23.5C4042.17,786,4072.86,808,4096.35,829.85Z"/><path class="cls-48" d="M4088.15,907.23l-.64,19.69C4087.64,917.37,4088,910.14,4088.15,907.23Z"/><path class="cls-48" d="M4089.66,985.91c.24,2,.48,3.93.73,5.83a3.84,3.84,0,0,1-.11-.65C4090.05,989.39,4089.83,987.66,4089.66,985.91Z"/><path class="cls-59" d="M4052.44,1358.08l-38.37-11.2,14.62,36.67L3955,1452.76l-87.67,82.32L3823,1428.87l-40.2-96.19,43.74-53.74-32.94-6,17.87-98.82,8.61-2.08,33.85-2.15,18.05-1.14,38.35-2.44.6,2.88,4.15,19.65,14.92,70.5,49.25-43.37,31.81-28,7.59-6.69,18.58,8.25,20.16,8.92,46.1,20.4a88.76,88.76,0,0,1,15.55,9.23l.6.45Z"/><path class="cls-2" d="M4024.09,1177.57l-8.29,4.08a76.58,76.58,0,0,1-88.52-15.09l-7.75-7.9-6.46,10.32-24.41,287.36,93.49-148.51Z"/></g></g><rect class="cls-2" x="1088.36" y="1746.36" width="139.19" height="385.46" rx="2.96" transform="translate(3097.04 781.13) rotate(90)"/><rect class="cls-60" x="1088.36" y="1746.36" width="139.19" height="385.46" rx="2.96" transform="translate(3097.04 781.13) rotate(90)"/><rect class="cls-2" x="1151.47" y="1801.53" width="119.48" height="519.01" rx="2.96" transform="translate(3272.24 849.82) rotate(90)"/><rect class="cls-61" x="1151.47" y="1801.53" width="119.48" height="519.01" rx="2.96" transform="translate(3272.24 849.82) rotate(90)"/><path class="cls-2" d="M1286.21,1969.42c6.53-22.4.77-48.77-.35-71.59-.21-4.22-8.78-4.22-9,0-1.12,22.82-6.88,49.19-.35,71.59C1277.62,1973.16,1285.12,1973.16,1286.21,1969.42Z"/><path class="cls-2" d="M1241.12,1969.42c6.54-22.4.77-48.77-.34-71.59-.21-4.22-8.78-4.22-9,0-1.12,22.82-6.88,49.19-.35,71.59C1232.54,1973.16,1240,1973.16,1241.12,1969.42Z"/><path class="cls-2" d="M1196,1969.42c6.54-22.4.77-48.77-.35-71.59-.2-4.22-8.77-4.22-9,0-1.11,22.82-6.88,49.19-.34,71.59C1187.46,1973.16,1195,1973.16,1196,1969.42Z"/><rect class="cls-2" x="636.32" y="2111.81" width="3071.45" height="170.24"/><polygon class="cls-62" points="3719.75 2162.16 3719.75 2332.4 648.31 2332.4 648.31 2282.05 3707.77 2282.05 3707.77 2162.16 3719.75 2162.16"/><path class="cls-2" d="M3739.29,1486.39c-14.05,25.09-36.06,55.06-66.34,69.59-4.65,2.23-6.62,8-4.77,12.81,4.48,11.75,1.94,35.87-56.32,73.08-48.29,30.86-86.1,73.73-110,105.5h86l-18.09,82.77-2.27,10.37-1.06,4.87-2.28,10.42-10.69,49h0l-2.63,12-6.51,29.78-1.18,5.41-2.44,11.17-.25,1.13L3523.72,2041l-10.14,46.37-2.23,10.23-2.59,11.85h-208.6l-8.24-41.47L3282.2,2019l-5.54-27.89-6.88-34.62h0l-11-55.31-.76-3.84-9.53-47.93-2.89-14.59-1.44-7.26-15.94-80.19h145.85l-9.45-29.55c-5.72-2.19-11.69-4.41-17.86-6.61-1.67-.6-3.35-1.2-5.05-1.78-1-.37-2-.72-3.06-1.07l-4.13-1.41c-1.12-.39-2.25-.77-3.39-1.15-2.26-.76-4.55-1.51-6.85-2.25l-2.39-.76c-.36-.11-.72-.24-1.08-.34-.81-.27-1.63-.52-2.45-.77l-3.69-1.14c-1.18-.36-2.36-.73-3.55-1.08q-8.24-2.48-16.61-4.72c-1.24-.33-2.48-.67-3.72-1l-3.88-1c-.74-.2-1.48-.38-2.22-.56-1.48-.38-3-.73-4.45-1.08-6.9-1.64-13.82-3.13-20.7-4.42-.59-.13-1.18-.23-1.76-.33l-4.17-.74-3.54-.59c-.39,0-.77-.12-1.16-.18l-3.72-.57-1.42-.19-2.52-.35c-1.24-.18-2.48-.32-3.72-.47l-3.78-.43-1.92-.21c-4.08-.4-8.13-.71-12.11-.92-1.43-.08-2.86-.13-4.28-.18-.6,0-1.19,0-1.79,0-3.86-.1-7.67-.07-11.4,0A70.61,70.61,0,0,1,3151,1661.7l-28.31-27c5.18,4.93-36.21,21.29-38.49,21.61-22.73,3.53-49.27-4.48-70.49-12.47-53.8-20.2-110.84-67.06-127.15-124.39l80.52-45.57A174.28,174.28,0,0,1,3187,1514.21l12.42,15,57.22-5,15.07-1.31a57.4,57.4,0,0,1,33.26,7.2,6.9,6.9,0,0,1-.05-1v-4.93c0-10.26-9.52-18.21-19.49-15.83a38.75,38.75,0,0,1-10.31,1c-25-.68-90.08-97.63-123.65-126.39a25.56,25.56,0,0,1-2.39-2.38,27.28,27.28,0,0,1-2.74-3.78c-.42-.69-.81-1.39-1.19-2.13a41.84,41.84,0,0,1-2.45-6c-2.93-8.93-3.86-20.31-3.49-32.81,0-1,.07-2.06.12-3.1q.15-3,.37-6.11c.07-.94.15-1.88.23-2.84.08-.8.15-1.62.23-2.42s.17-1.77.26-2.65.17-1.49.25-2.24c.13-1.1.26-2.2.4-3.28,0-.2.05-.39.07-.57.1-.8.21-1.6.32-2.4s.19-1.43.29-2.12q.72-5.05,1.58-10.13c.16-1,.32-1.87.48-2.81s.31-1.69.46-2.54c.21-1.13.42-2.27.64-3.4.35-1.85.71-3.67,1.08-5.48.23-1.16.47-2.33.72-3.48.89-4.25,1.82-8.42,2.77-12.48.22-.91.43-1.83.65-2.75.16-.63.31-1.26.46-1.89.24-1,.49-2,.73-3,1.62-6.53,3.23-12.6,4.74-18l.36-1.32c.34-1.21.68-2.38,1-3.53.14-.5.28-1,.42-1.46.09-.32.18-.61.26-.91,0-.08,0-.16.07-.23h0s0,0,0,0a16,16,0,0,1,21-10.54c18.42,6.87,53.93,17.84,111.33,26.9,81.52,12.88,111.23,158.22,116.57,188.64a15.65,15.65,0,0,0,5,9,112,112,0,0,1,8.93,9q.78.87,1.53,1.77c1.23,1.42,2.42,2.9,3.59,4.41.49.62,1,1.26,1.46,1.92s1,1.39,1.54,2.09,1.15,1.62,1.72,2.45c.45.66.9,1.32,1.35,2s.83,1.25,1.24,1.88l.56.88c.38.61.76,1.2,1.13,1.81l1.39,2.28,1,1.7c.33.56.66,1.12,1,1.71q2,3.43,3.78,7c.26.5.52,1,.76,1.5.66,1.31,1.3,2.62,1.93,4,.3.61.59,1.23.87,1.85s.58,1.24.86,1.87c.86,1.9,1.7,3.85,2.52,5.81.38.89.75,1.8,1.12,2.71q1.92,4.72,3.69,9.61c.26.71.52,1.42.76,2.13s.43,1.17.63,1.77c.38,1.09.75,2.17,1.12,3.28A118.56,118.56,0,0,1,3473.8,1504a73.62,73.62,0,0,1,73.9-15.15l41.16,14.14a10.11,10.11,0,0,0,13.41-9.56,48.21,48.21,0,0,1,48.17-48.17H3715c.5,0,1,0,1.48,0s.89.06,1.34.1l.26,0c.31,0,.61.06.92.11a4.33,4.33,0,0,1,.5.08c.44.06.88.14,1.31.24a12,12,0,0,1,1.29.3c.37.09.74.2,1.1.31l.57.19a5.67,5.67,0,0,1,.66.22l.44.16c.3.1.59.22.88.35s.42.17.63.28a.18.18,0,0,1,.1,0,5.89,5.89,0,0,1,.63.29,24.79,24.79,0,0,1,3.1,1.76c.23.15.45.29.67.46s.66.46,1,.71a27.4,27.4,0,0,1,2.85,2.53c.27.27.53.54.77.82a28,28,0,0,1,3.1,4.09c.21.35.43.7.63,1.06l0,.06c.16.29.32.58.47.89s.46.9.66,1.37.31.7.45,1c.07.17.13.33.18.49s.22.56.31.84.26.78.37,1.16.18.63.25.94.11.43.16.64.15.64.21,1,.16.83.22,1.25c0,0,0,.06,0,.08.12.82.19,1.63.24,2.46A27.23,27.23,0,0,1,3739.29,1486.39Z"/><path class="cls-3" d="M3739.29,1486.39c-14.05,25.09-36.06,55.06-66.34,69.59-4.65,2.23-6.62,8-4.77,12.81,4.48,11.75,1.94,35.87-56.32,73.08-48.29,30.86-86.1,73.73-110,105.5h86l-18.09,82.77-2.27,10.37-1.06,4.87-2.28,10.42-10.69,49h0l-2.63,12-6.51,29.78-1.18,5.41-2.44,11.17-.25,1.13L3523.72,2041l-10.14,46.37-2.23,10.23-2.59,11.85h-208.6l-8.24-41.47L3282.2,2019l-5.54-27.89-6.88-34.62h0l-11-55.31-.76-3.84-9.53-47.93-2.89-14.59-1.44-7.26-15.94-80.19h145.85l-9.45-29.55c-5.72-2.19-11.69-4.41-17.86-6.61-1.67-.6-3.35-1.2-5.05-1.78-1-.37-2-.72-3.06-1.07l-4.13-1.41c-1.12-.39-2.25-.77-3.39-1.15-2.26-.76-4.55-1.51-6.85-2.25l-2.39-.76c-.36-.11-.72-.24-1.08-.34-.81-.27-1.63-.52-2.45-.77l-3.69-1.14c-1.18-.36-2.36-.73-3.55-1.08q-8.24-2.48-16.61-4.72c-1.24-.33-2.48-.67-3.72-1l-3.88-1c-.74-.2-1.48-.38-2.22-.56-1.48-.38-3-.73-4.45-1.08-6.9-1.64-13.82-3.13-20.7-4.42-.59-.13-1.18-.23-1.76-.33l-4.17-.74-3.54-.59c-.39,0-.77-.12-1.16-.18l-3.72-.57-1.42-.19-2.52-.35c-1.24-.18-2.48-.32-3.72-.47l-3.78-.43-1.92-.21c-4.08-.4-8.13-.71-12.11-.92-1.43-.08-2.86-.13-4.28-.18-.6,0-1.19,0-1.79,0-3.86-.1-7.67-.07-11.4,0A70.61,70.61,0,0,1,3151,1661.7l-28.31-27c5.18,4.93-36.21,21.29-38.49,21.61-22.73,3.53-49.27-4.48-70.49-12.47-53.8-20.2-110.84-67.06-127.15-124.39l80.52-45.57A174.28,174.28,0,0,1,3187,1514.21l12.42,15,57.22-5,15.07-1.31a57.4,57.4,0,0,1,33.26,7.2,6.9,6.9,0,0,1-.05-1v-4.93c0-10.26-9.52-18.21-19.49-15.83a38.75,38.75,0,0,1-10.31,1c-25-.68-90.08-97.63-123.65-126.39a25.56,25.56,0,0,1-2.39-2.38,27.28,27.28,0,0,1-2.74-3.78c-.42-.69-.81-1.39-1.19-2.13a41.84,41.84,0,0,1-2.45-6c-2.93-8.93-3.86-20.31-3.49-32.81,0-1,.07-2.06.12-3.1q.15-3,.37-6.11c.07-.94.15-1.88.23-2.84.08-.8.15-1.62.23-2.42s.17-1.77.26-2.65.17-1.49.25-2.24c.13-1.1.26-2.2.4-3.28,0-.2.05-.39.07-.57.1-.8.21-1.6.32-2.4s.19-1.43.29-2.12q.72-5.05,1.58-10.13c.16-1,.32-1.87.48-2.81s.31-1.69.46-2.54c.21-1.13.42-2.27.64-3.4.35-1.85.71-3.67,1.08-5.48.23-1.16.47-2.33.72-3.48.89-4.25,1.82-8.42,2.77-12.48.22-.91.43-1.83.65-2.75.16-.63.31-1.26.46-1.89.24-1,.49-2,.73-3,1.62-6.53,3.23-12.6,4.74-18l.36-1.32c.34-1.21.68-2.38,1-3.53.14-.5.28-1,.42-1.46.09-.32.18-.61.26-.91,0-.08,0-.16.07-.23h0s0,0,0,0a16,16,0,0,1,21-10.54c18.42,6.87,53.93,17.84,111.33,26.9,81.52,12.88,111.23,158.22,116.57,188.64a15.65,15.65,0,0,0,5,9,112,112,0,0,1,8.93,9q.78.87,1.53,1.77c1.23,1.42,2.42,2.9,3.59,4.41.49.62,1,1.26,1.46,1.92s1,1.39,1.54,2.09,1.15,1.62,1.72,2.45c.45.66.9,1.32,1.35,2s.83,1.25,1.24,1.88l.56.88c.38.61.76,1.2,1.13,1.81l1.39,2.28,1,1.7c.33.56.66,1.12,1,1.71q2,3.43,3.78,7c.26.5.52,1,.76,1.5.66,1.31,1.3,2.62,1.93,4,.3.61.59,1.23.87,1.85s.58,1.24.86,1.87c.86,1.9,1.7,3.85,2.52,5.81.38.89.75,1.8,1.12,2.71q1.92,4.72,3.69,9.61c.26.71.52,1.42.76,2.13s.43,1.17.63,1.77c.38,1.09.75,2.17,1.12,3.28A118.56,118.56,0,0,1,3473.8,1504a73.62,73.62,0,0,1,73.9-15.15l41.16,14.14a10.11,10.11,0,0,0,13.41-9.56,48.21,48.21,0,0,1,48.17-48.17H3715c.5,0,1,0,1.48,0s.89.06,1.34.1l.26,0c.31,0,.61.06.92.11a4.33,4.33,0,0,1,.5.08c.44.06.88.14,1.31.24a12,12,0,0,1,1.29.3c.37.09.74.2,1.1.31l.57.19a5.67,5.67,0,0,1,.66.22l.44.16c.3.1.59.22.88.35s.42.17.63.28a.18.18,0,0,1,.1,0,5.89,5.89,0,0,1,.63.29,24.79,24.79,0,0,1,3.1,1.76c.23.15.45.29.67.46s.66.46,1,.71a27.4,27.4,0,0,1,2.85,2.53c.27.27.53.54.77.82a28,28,0,0,1,3.1,4.09c.21.35.43.7.63,1.06l0,.06c.16.29.32.58.47.89s.46.9.66,1.37.31.7.45,1c.07.17.13.33.18.49s.22.56.31.84.26.78.37,1.16.18.63.25.94.11.43.16.64.15.64.21,1,.16.83.22,1.25c0,0,0,.06,0,.08.12.82.19,1.63.24,2.46A27.23,27.23,0,0,1,3739.29,1486.39Z"/><path class="cls-2" d="M3587.88,1747.37l-18.09,82.77-2.27,10.37-1.06,4.87-2.27,10.42-10.7,49-2.64,12-6.51,29.78-1.18,5.41-2.43,11.17-.25,1.13L3523.72,2041l-10.14,46.37-2.23,10.23-2.59,11.85h-208.6l-8.24-41.47L3282.2,2019l-5.54-27.89-6.88-34.62h0l-11-55.31-.76-3.84-9.52-47.93h0l-2.88-14.59-1.44-7.26-15.94-80.19Z"/><path class="cls-61" d="M3587.88,1747.37l-18.09,82.77-2.27,10.37-1.06,4.87-2.27,10.42-10.7,49-2.64,12-6.51,29.78-1.18,5.41-2.43,11.17-.25,1.13L3523.72,2041l-10.14,46.37-2.23,10.23-2.59,11.85h-208.6l-8.24-41.47L3282.2,2019l-5.54-27.89-6.88-34.62h0l-11-55.31-.76-3.84-9.52-47.93h0l-2.88-14.59-1.44-7.26-15.94-80.19Z"/><path class="cls-20" d="M3739.29,1486.39c-14.05,25.09-36.06,55.06-66.34,69.59-4.65,2.23-6.62,8-4.77,12.81,4.48,11.75,1.94,35.87-56.32,73.08-48.29,30.86-86.1,73.73-110,105.5h-94.37V1747c0-1.72.05-3.5.09-5.32,0-1,0-2,.08-3s0-2,.07-3c.26-9.1.67-19,1.34-29.45,3.74-58.92,15.15-135.11,47.5-182A118.56,118.56,0,0,1,3473.8,1504a73.62,73.62,0,0,1,73.9-15.15l41.16,14.14a10.11,10.11,0,0,0,13.41-9.56,48.21,48.21,0,0,1,48.17-48.17H3715a27.38,27.38,0,0,1,19.71,8.2c.27.27.53.54.77.82A27.44,27.44,0,0,1,3739.29,1486.39Z"/><path class="cls-63" d="M3456.56,1524.17c-32.35,46.94-43.76,123.13-47.5,182-.67,10.46-1.08,20.35-1.34,29.45,0,1,0,2-.07,3s-.05,2-.08,3c0,1.82-.07,3.6-.09,5.32v.39h-33.4l-9.45-29.55L3305.72,1534a14.87,14.87,0,0,1-.72-3.86,6.9,6.9,0,0,1-.05-1v-4.93c0-10.26-9.52-18.21-19.49-15.83a38.75,38.75,0,0,1-10.31,1c-25-.68-90.08-97.63-123.65-126.39-26.18-22.45-4.22-110.56,6.71-148.24a16,16,0,0,1,21-10.54c18.42,6.87,53.93,17.84,111.33,26.9,81.52,12.88,111.23,158.22,116.57,188.64a15.65,15.65,0,0,0,5,9c14.21,12.76,25.55,30.13,34.61,50.15A271,271,0,0,1,3456.56,1524.17Z"/><path class="cls-64" d="M3364.63,1717.82c-5.72-2.19-11.69-4.41-17.86-6.61-44.88-16-100-31.26-144.51-29.67A70.61,70.61,0,0,1,3151,1661.7l-28.31-27c5.18,4.93-36.21,21.29-38.49,21.61-22.73,3.53-49.27-4.48-70.49-12.47-53.8-20.2-110.84-67.06-127.15-124.39l80.52-45.57A174.28,174.28,0,0,1,3187,1514.21l12.42,15,57.22-5,15.07-1.31a57.4,57.4,0,0,1,33.26,7.2,14.87,14.87,0,0,0,.72,3.86l36.86,115,2.3,7.19Z"/><g class="cls-65"><path class="cls-2" d="M3328.91,1844.88c-33.28,0-62.08,1.24-80.4,4.53h0l-4.32-21.85,22.42-17.86Z"/><path class="cls-2" d="M3513.58,2087.34l-2.23,10.23-139.51-63.28-60.63-27.5-34.55-15.67-6.88-34.62h0l-11-55.31-.76-3.84c.92.84,1.86,1.67,2.81,2.54,13.29,11.91,29.85,25.53,48.34,40,17.78,14,37.35,28.72,57.48,43.54,15.27,11.25,30.86,22.55,46.26,33.56C3450,2043.54,3486,2068.48,3513.58,2087.34Z"/><path class="cls-2" d="M3544.34,1946.59l-1.18,5.41-2.43,11.17-.25,1.13h0l-1-.58-53.81-30.38-68.73-38.8-78.15-44.12-9.81-5.54c6,0,12.11,0,18.35.12,44.08.53,93.63,2.85,136.25,5.37l8,12.72,33.81,53.51Z"/><path class="cls-2" d="M3567.52,1840.51l-3.33,15.3c-18.94-1.44-47.74-3.5-80.66-5.44l-65.09-103H3457Z"/></g><g class="cls-66"><path class="cls-67" d="M3158.37,1234.49c8.91,7.3,17.49,15,26,22.76s16.75,15.79,24.9,23.91q24.45,24.39,47.07,50.54t43,54q20.46,27.87,38.34,57.54,8.91,14.84,17.09,30.1t15.41,31q7.2,15.75,13.4,32c4.07,10.82,7.69,21.8,11,32.88s6,22.34,8.35,33.65l1.65,8.51c.53,2.84.95,5.71,1.44,8.55l.69,4.28.58,4.3c.35,2.87.79,5.72,1.07,8.6,1.28,11.48,2,23,2.23,34.55l0,8.65v2.17l-.08,2.16-.15,4.32c-.1,5.76-.65,11.5-1.06,17.24l-.5,0c.24-11.5.23-23-.47-34.43s-1.74-22.86-3.41-34.19-3.69-22.6-6.28-33.75-5.44-22.22-8.84-33.15a593.43,593.43,0,0,0-55.56-125.35q-17.41-29.65-37.53-57.67t-42.32-54.34q-22.17-26.37-46.24-51.1-12-12.35-24.52-24.24c-8.34-7.9-16.81-15.69-25.58-23.1Z"/></g><g class="cls-68"><path class="cls-67" d="M3344.88,1656.18c-4.12-3.34-8.31-6.62-12.58-9.76-9.2-6.8-18.58-13.37-28.25-19.46a593.53,593.53,0,0,0-123.67-59.21q-32.52-11.24-66-19.47t-67.47-13.82q-34-5.67-68.35-8.82c-11.45-1-22.91-1.9-34.39-2.5s-23-1-34.46-.94v-.5c11.51-.23,23,0,34.52.44s23,1.12,34.46,2q34.44,2.68,68.62,7.85t67.84,13.14q33.66,7.88,66.53,18.83,16.41,5.51,32.54,11.78t31.87,13.57q15.71,7.31,30.94,15.61c10.13,5.58,20,11.58,29.74,17.84s19.06,13.1,28.21,20.15l6.78,5.4.83.68Z"/></g><g class="cls-69"><path class="cls-67" d="M3735.51,1454.28c-8.31,4.52-16.53,9.21-24.69,14q-29.7,17.48-58.08,37.09t-55.16,41.24q-26.74,21.67-51.43,45.73a593.74,593.74,0,0,0-86.67,106.23c-6.15,9.65-11.84,19.57-17.27,29.65q-3.78,7-7.23,14.19l-1-7.49.47-1,3.83-7.78c5.27-10.29,10.89-20.4,16.94-30.25s12.52-19.44,19.31-28.8,13.95-18.43,21.35-27.31,15.14-17.44,23-25.85,16.09-16.54,24.42-24.51q25-23.88,52.18-45.39t55.78-40.78q28.7-19.21,58.75-36.31c8.15-4.63,16.37-9.16,24.66-13.52C3735,1453.73,3735.27,1454,3735.51,1454.28Z"/></g><path class="cls-70" d="M3364.63,1717.82c-5.72-2.19-11.69-4.41-17.86-6.61-19.72-50.28-73.21-154.46-90.1-187l15.07-1.31a57.4,57.4,0,0,1,33.26,7.2,14.87,14.87,0,0,0,.72,3.86l36.86,115,2.3,7.19Z"/><path class="cls-45" d="M3446.72,1498.86a271,271,0,0,1,9.84,25.31c-32.35,46.94-43.76,123.13-47.5,182-.67,10.46-1.08,20.35-1.34,29.45,0,1,0,2-.07,3s-.05,2-.08,3c0,1.82-.07,3.6-.09,5.32v.39h-30.06C3361.4,1650.1,3416,1547.34,3446.72,1498.86Z"/><path class="cls-71" d="M3633.44,2248.48v301.8q-15.8,3.84-31.7,7.31c-3.88.86-7.82,1.7-11.73,2.54.12-.55.27-1.12.41-1.68a863.69,863.69,0,0,1-134.63,12.88,1109,1109,0,0,1-133.6-5.75c-230.56-23.09-457.74-106-693.08-122.5-241.49-16.93-490.28,11.24-709,115-175,83-341.36,144-514.69,156.95h-.31l-1.46.07q-15.36.54-30.69.77-33.45.54-66.78-.53c-3.31-.12-6.62-.24-9.93-.38h-.11q-35-1.44-69.71-5a3.42,3.42,0,0,1-.45,0q-12.09-1.23-24.1-2.76-13.69-1.72-27.33-3.84c-55.68-8.56-110.66-22-164.53-41.41a648.09,648.09,0,0,1-67-28.55h0q-4.89-2.37-9.71-4.87a666.23,666.23,0,0,1-121.51-80c-1.66-1.35-3.29-2.74-4.92-4.13a577.37,577.37,0,0,1-83.2-86.39,0,0,0,0,1,0,0,476.06,476.06,0,0,1-52.42-83.87q-5.43-11.22-10.16-22.68v0q-2-4.82-3.89-9.71v0c-1.17-3.07-2.3-6.12-3.4-9.21s-2.14-6-3.12-9.09v0c-.81-2.45-1.58-4.87-2.32-7.31q-5.14-16.77-8.73-33.93c-.15-.7-.29-1.39-.43-2.11,0,0,0,0,0,0-.63-3.06-1.2-6.13-1.75-9.23-.12-.64-.22-1.27-.32-1.92-.28-1.63-.55-3.28-.76-4.91-.75-5.16-1.27-10.29-1.61-15.37Z"/><path class="cls-32" d="M2921.7,2021.35l-14.76,9.13c-5.3-38.15-56.59-92.53-70.74-106.89C2836.2,1923.59,2893.32,1962.05,2921.7,2021.35Z"/><polygon class="cls-72" points="3707.77 2213.26 3707.77 2282.05 636.32 2282.05 636.32 2119.08 3707.77 2213.26"/><circle class="cls-2" cx="1731.12" cy="983.86" r="18.45"/><g class="cls-73"><polygon class="cls-74" points="3587.88 1747.37 3569.79 1830.14 3560.07 1834.23 3516.83 1852.44 3516.82 1852.44 3491.57 1863.09 3416.89 1894.54 3353.71 1921.14 3309.18 1939.89 3269.78 1956.48 3258.79 1901.17 3260.84 1899.88 3338.74 1850.41 3347.28 1844.99 3401.9 1810.32 3444.71 1788.92 3483.38 1769.61 3527.9 1747.37 3587.88 1747.37"/><polygon class="cls-75" points="3553.49 1904.76 3550.85 1916.82 3544.34 1946.59 3543.16 1951.99 3540.73 1963.16 3540.72 1963.16 3539.43 1963.71 3412.92 2016.98 3371.84 2034.29 3291.92 2067.95 3282.2 2019.01 3311.21 2006.79 3366.66 1983.43 3485.62 1933.34 3525.38 1916.6 3553.48 1904.76 3553.49 1904.76"/></g><path class="cls-2" d="M4128.51,2031.3l-6.36,35.5a290.69,290.69,0,0,1-226.55,233.29l-13.42,2.82,8.48-40.85a290.69,290.69,0,0,1,198.55-218.58Z"/><path class="cls-2" d="M3762.52,2362.81l32.44-6.25A268.73,268.73,0,0,1,4070.1,2473l6.9,10.52-37.71,6.2a268.73,268.73,0,0,1-253.18-97.4Z"/><path class="cls-76" d="M4128.51,2031.3l-6.36,35.5a290.69,290.69,0,0,1-226.55,233.29l-13.42,2.82,8.48-40.85a290.69,290.69,0,0,1,198.55-218.58Z"/><path class="cls-2" d="M3762.52,2362.81l32.44-6.25A268.73,268.73,0,0,1,4070.1,2473l6.9,10.52-37.71,6.2a268.73,268.73,0,0,1-253.18-97.4Z"/><path class="cls-2" d="M4354.49,2282.45l-30.7,18.91a290.7,290.7,0,0,1-324.92-13.48l-11-8.14,36.11-20.89a290.66,290.66,0,0,1,295.28,2.41Z"/><path class="cls-2" d="M4354.49,2282.45l-30.7,18.91a290.7,290.7,0,0,1-324.92-13.48l-11-8.14,36.11-20.89a290.66,290.66,0,0,1,295.28,2.41Z"/><path class="cls-2" d="M4128.51,2031.3l-6.36,35.5a290.69,290.69,0,0,1-226.55,233.29l-13.42,2.82,8.48-40.85a290.69,290.69,0,0,1,198.55-218.58Z"/><path class="cls-2" d="M3650.29,2390l3.73,40.13,11.21-7.43c53-35.11,93.42-85.76,116.93-143a.61.61,0,0,0,.05-.18c19.48-47.48,27.34-99.5,21.19-150.9l-4.13-34.52-31.79,25.35a311.67,311.67,0,0,0-35.89,33.61C3673,2217.32,3642.37,2304.33,3650.29,2390Z"/><path class="cls-2" d="M3762.51,2362.82l23.58,29.48a268.55,268.55,0,0,0,253.2,97.4l37.71-6.19-6.91-10.52a268.71,268.71,0,0,0-176.38-116.9.05.05,0,0,0-.08,0,266.63,266.63,0,0,0-98.66.48Z"/><g class="cls-77"><path class="cls-38" d="M3560.27,2535.84c2.74.59,5.51,1.16,8.28,1.72a446.72,446.72,0,0,1,48.35-62.09c2.06-2.25,4.14-4.46,6.27-6.64a504.57,504.57,0,0,1,47.35-43.17,606,606,0,0,1,93.25-61.3c1.79-1,3.54-1.91,5.31-2.81,58.54-30.89,118.39-51.79,170.3-65.87,7.84-2.11,15.58-4.14,23.25-6q15-3.68,29.47-6.78h0c12.09-2.63,23.87-4.95,35.22-7,87.92-16,151.91-16.73,152.74-16.74a4,4,0,1,0,0-7.91c-.86,0-63.92.73-151,16.29q-14.68,2.63-30.23,5.83c-3,.6-6,1.26-9,1.91q-12.73,2.74-25.91,5.95t-26.45,6.77c-.06,0-.09,0-.14,0q-20,5.42-39.25,11.54c-61.18,19.35-116.58,43.79-165.14,72.84q-12.15,7.28-23.74,14.95-19.71,13-37.71,27.17-9,7-17.64,14.4a514.3,514.3,0,0,0-39.58,37.59c-2.11,2.24-4.2,4.48-6.23,6.75a461.33,461.33,0,0,0-47.62,62.18A2.46,2.46,0,0,0,3560.27,2535.84Z"/></g><path class="cls-78" d="M4127.32,2038.88l-6.35,35.5a290.71,290.71,0,0,1-226.55,233.3l-13.42,2.81,8.47-40.85A290.73,290.73,0,0,1,4088,2051.06Z"/><path class="cls-42" d="M3650.29,2390l3.73,40.13,11.21-7.43c53-35.11,93.42-85.76,116.93-143a.61.61,0,0,0,.05-.18,322.46,322.46,0,0,0,15-140.86l-4.42-37-34,27.15a331.25,331.25,0,0,0-27.15,24.22C3673,2217.32,3642.37,2304.33,3650.29,2390Z"/><path class="cls-79" d="M3775.71,2364.88l23.59,29.49a245.28,245.28,0,0,0,240,95.33l37.71-6.19-6.91-10.52a268.71,268.71,0,0,0-176.38-116.9.05.05,0,0,0-.08,0,266.39,266.39,0,0,0-85.46,2.54Z"/><path class="cls-2" d="M4354.49,2282.45l-30.7,18.91a290.7,290.7,0,0,1-324.92-13.48l-11-8.14,36.11-20.89a290.66,290.66,0,0,1,295.28,2.41Z"/><path class="cls-80" d="M4354.49,2282.45l-30.7,18.91a290.7,290.7,0,0,1-324.92-13.48l-11-8.14,36.11-20.89a290.66,290.66,0,0,1,295.28,2.41Z"/><path class="cls-2" d="M1280.69,2647.65v0c-3.62.79-7.24,1.61-10.86,2.4l-1,.24h0s0,0-.08,0c-2.08-.9-4.64-2-7.63-3.2s-6.76-2.69-10.82-4.22c-.51-.19-1-.37-1.54-.58a546.61,546.61,0,0,0-109.61-28.1c-11.91-1.74-24.32-3.11-37.07-3.93a413.92,413.92,0,0,0-58.83.29c-3,.24-6,.5-9.06.82v0a347.71,347.71,0,0,0-59.63,11.3,317.39,317.39,0,0,0-47.84,17.72q-6.47,3-12.92,6.39a307,307,0,0,0-27.59,16.35c-30.79,20.44-60.39,48-86.9,84.84a3.92,3.92,0,0,1-3.22,1.64.83.83,0,0,1-.27,0,3.76,3.76,0,0,1-2.06-.71,3.58,3.58,0,0,1-1.29-1.61,3.94,3.94,0,0,1,.39-3.91c24.19-33.54,52-61.34,83.21-83.15A313,313,0,0,1,944,2624.14a323.79,323.79,0,0,1,33.58-10.8,352.73,352.73,0,0,1,51.44-9.53c3-.34,6-.66,9.11-.92a421.31,421.31,0,0,1,64.75-.56c9.38.61,18.59,1.51,27.54,2.64a548.52,548.52,0,0,1,114.45,27.47c2.51.89,4.91,1.76,7.15,2.61s4.15,1.56,6,2.3c2.77,1.08,5.31,2.08,7.55,3,8.5,3.48,13.26,5.75,13.44,5.83A4.11,4.11,0,0,1,1280.69,2647.65Z"/><path class="cls-2" d="M801.51,2737.16l-22.93,10.23a204.26,204.26,0,0,0-120.74,192.34l.28,9.56,26.19-12.56a204.25,204.25,0,0,0,115.35-170.92Z"/><path class="cls-2" d="M925.29,2635.6l-18,17.49a204.27,204.27,0,0,0-47.22,222.13l3.55,8.88,20.28-20.79a204.27,204.27,0,0,0,49.52-200.17Z"/><path class="cls-81" d="M925.29,2635.6l-18,17.49a204.27,204.27,0,0,0-47.22,222.13l3.55,8.88,20.28-20.79a204.27,204.27,0,0,0,49.52-200.17Z"/><g class="cls-77"><path class="cls-38" d="M1280.69,2647.65v0c-3.62.79-7.24,1.61-10.86,2.4l-1,.24h0s0,0-.08,0c-2.08-.9-4.64-2-7.63-3.2s-6.76-2.69-10.82-4.22c-.51-.19-1-.37-1.54-.58a546.61,546.61,0,0,0-109.61-28.1c-11.91-1.74-24.32-3.11-37.07-3.93a413.92,413.92,0,0,0-58.83.29c-3,.24-6,.5-9.06.82v0a347.71,347.71,0,0,0-59.63,11.3,317.39,317.39,0,0,0-47.84,17.72q-6.47,3-12.92,6.39a307,307,0,0,0-27.59,16.35c-30.79,20.44-60.39,48-86.9,84.84a3.92,3.92,0,0,1-3.22,1.64.83.83,0,0,1-.27,0,3.76,3.76,0,0,1-2.06-.71,3.58,3.58,0,0,1-1.29-1.61,3.94,3.94,0,0,1,.39-3.91c24.19-33.54,52-61.34,83.21-83.15A313,313,0,0,1,944,2624.14a323.79,323.79,0,0,1,33.58-10.8,352.73,352.73,0,0,1,51.44-9.53c3-.34,6-.66,9.11-.92a421.31,421.31,0,0,1,64.75-.56c9.38.61,18.59,1.51,27.54,2.64a548.52,548.52,0,0,1,114.45,27.47c2.51.89,4.91,1.76,7.15,2.61s4.15,1.56,6,2.3c2.77,1.08,5.31,2.08,7.55,3,8.5,3.48,13.26,5.75,13.44,5.83A4.11,4.11,0,0,1,1280.69,2647.65Z"/></g><path class="cls-82" d="M801.51,2737.16l-22.93,10.23a204.26,204.26,0,0,0-120.74,192.34l.28,9.56,26.19-12.56a204.25,204.25,0,0,0,115.35-170.92Z"/><path class="cls-2" d="M1080.79,2679.73c-2.8.16-5.62.29-8.45.42a446.79,446.79,0,0,0-38.18-68.81q-2.54-3.81-5.18-7.53a503.89,503.89,0,0,0-40.11-50,606,606,0,0,0-82.67-75c-1.62-1.24-3.2-2.43-4.81-3.59-53.08-39.55-109-69.45-158.09-91.36-7.42-3.3-14.76-6.5-22-9.53q-14.26-6-28.07-11.25h0c-11.54-4.47-22.81-8.59-33.72-12.36-84.39-29.37-147.5-40-148.32-40.11a4,4,0,1,1,1.27-7.82c.84.13,63,10.59,146.63,39.4q14.1,4.88,29,10.43c2.85,1.06,5.7,2.16,8.58,3.27q12.15,4.68,24.69,9.88t25.08,10.77c.06,0,.08.06.13.06q18.94,8.43,37,17.45c57.46,28.57,108.42,61.26,151.91,97.47q10.9,9.06,21.16,18.43,17.46,15.92,33.06,32.66,7.83,8.36,15.21,17a510.22,510.22,0,0,1,33.29,43.26q2.63,3.8,5.13,7.63a461.28,461.28,0,0,1,37.44,68.79A1.72,1.72,0,0,1,1080.79,2679.73Z"/><path class="cls-2" d="M3981.8,2634.12a4.84,4.84,0,0,1-4-2.07,263.28,263.28,0,0,0-28.28-34.05c-78.37-79.54-194.91-92.84-278.91-90-91.41,3.11-165,25.46-165.7,25.68a4.84,4.84,0,1,1-2.85-9.26c.74-.24,75.53-22.95,168.22-26.11,85.9-2.89,205.31,10.8,286.14,92.84a273.6,273.6,0,0,1,29.33,35.3,4.86,4.86,0,0,1-4,7.63Z"/><path class="cls-2" d="M3768.27,2727.29s18.44-172.47-164.58-222.38C3603.69,2504.91,3563.26,2660,3768.27,2727.29Z"/><path class="cls-2" d="M3999.45,2396.66s-162.3-61.22-256.62,103.36C3742.83,2500,3882.74,2578.16,3999.45,2396.66Z"/><path class="cls-2" d="M3917.5,2593.37c4.23-13,178.07,47.16,123.1,223.16C4040.6,2816.53,3862.63,2762.71,3917.5,2593.37Z"/><g class="cls-77"><path class="cls-38" d="M3981.8,2634.12a4.84,4.84,0,0,1-4-2.07,263.28,263.28,0,0,0-28.28-34.05c-78.37-79.54-194.91-92.84-278.91-90-91.41,3.11-165,25.46-165.7,25.68a4.84,4.84,0,1,1-2.85-9.26c.74-.24,75.53-22.95,168.22-26.11,85.9-2.89,205.31,10.8,286.14,92.84a273.6,273.6,0,0,1,29.33,35.3,4.86,4.86,0,0,1-4,7.63Z"/><g class="cls-83"><path class="cls-38" d="M3768.27,2727.29s18.44-172.47-164.58-222.38C3603.69,2504.91,3563.26,2660,3768.27,2727.29Z"/></g><path class="cls-38" d="M3999.45,2396.66s-162.3-61.22-256.62,103.36C3742.83,2500,3882.74,2578.16,3999.45,2396.66Z"/><g class="cls-84"><path class="cls-38" d="M3917.5,2561.28c4.23-13,178.07,47.16,123.1,223.16C4040.6,2784.44,3862.63,2730.62,3917.5,2561.28Z"/></g></g><path class="cls-2" d="M3599.17,2483.36v0c-.12,4.34-.28,8.68-.52,13-.15,2.76-.32,5.51-.48,8.27-.24,3.31-.53,6.62-.84,9.9a323.22,323.22,0,0,1-6.91,43.9,863.69,863.69,0,0,1-134.63,12.88,1109,1109,0,0,1-133.6-5.75c25.51-69.75,86.46-175.8,218.38-233.18a436,436,0,0,1,44.55-16.59s.39,2,1,5.7c.48,2.74,1.11,6.41,1.83,10.89C3592.58,2361,3600.88,2422.51,3599.17,2483.36Z"/><path class="cls-85" d="M3599.17,2483.36v0c-.12,4.34-.28,8.68-.52,13-.15,2.76-.32,5.51-.48,8.27-.24,3.31-.53,6.62-.84,9.9a323.22,323.22,0,0,1-6.91,43.9,863.69,863.69,0,0,1-134.63,12.88c39.76-93.56,87.3-178.77,123.72-238.93,2.26-3.74,4.49-7.36,6.64-10.89.48,2.74,1.11,6.41,1.83,10.89C3592.58,2361,3600.88,2422.51,3599.17,2483.36Z"/><g class="cls-34"><path class="cls-86" d="M3599.17,2483.36v0c-.12,4.34-.28,8.68-.52,13-.15,2.76-.32,5.51-.48,8.27-.24,3.31-.53,6.62-.84,9.9a323.22,323.22,0,0,1-6.91,43.9,863.69,863.69,0,0,1-134.63,12.88,1109,1109,0,0,1-133.6-5.75c25.51-69.75,86.46-175.8,218.38-233.18a436,436,0,0,1,44.55-16.59s.39,2,1,5.7c.48,2.74,1.11,6.41,1.83,10.89C3592.58,2361,3600.88,2422.51,3599.17,2483.36Z"/></g><path class="cls-87" d="M3599.17,2483.36v0c-.12,4.34-.28,8.68-.52,13-.15,2.76-.32,5.51-.48,8.27-.24,3.31-.53,6.62-.84,9.9a323.22,323.22,0,0,1-6.91,43.9,863.69,863.69,0,0,1-134.63,12.88c39.76-93.56,87.3-178.77,123.72-238.93,2.26-3.74,4.49-7.36,6.64-10.89.48,2.74,1.11,6.41,1.83,10.89C3592.58,2361,3600.88,2422.51,3599.17,2483.36Z"/><path class="cls-2" d="M597.24,2093.52l.8,36.06A290.7,290.7,0,0,0,785.86,2395l12.83,4.85-2.07-41.66a290.69,290.69,0,0,0-162.43-246.61Z"/><path class="cls-2" d="M907.67,2477.55l-31.08-11.18a268.7,268.7,0,0,0-289.82,72.56l-8.44,9.33,36.3,11.94a268.73,268.73,0,0,0,265.19-57.15Z"/><path class="cls-76" d="M597.24,2093.52l.8,36.06A290.7,290.7,0,0,0,785.86,2395l12.83,4.85-2.07-41.66a290.69,290.69,0,0,0-162.43-246.61Z"/><path class="cls-2" d="M907.67,2477.55l-31.08-11.18a268.7,268.7,0,0,0-289.82,72.56l-8.44,9.33,36.3,11.94a268.73,268.73,0,0,0,265.19-57.15Z"/><path class="cls-2" d="M335.2,2306.77l27.42,23.43A290.71,290.71,0,0,0,685.72,2367l12.16-6.34-32.44-26.21a290.7,290.7,0,0,0-292.12-43.2Z"/><path class="cls-2" d="M335.2,2306.77l27.42,23.43A290.71,290.71,0,0,0,685.72,2367l12.16-6.34-32.44-26.21a290.7,290.7,0,0,0-292.12-43.2Z"/><path class="cls-2" d="M597.24,2093.52l.8,36.06A290.7,290.7,0,0,0,785.86,2395l12.83,4.85-2.07-41.66a290.69,290.69,0,0,0-162.43-246.61Z"/><path class="cls-2" d="M1014.36,2521.76l-9.88,39.08-9.93-9.07c-47-42.87-79.06-99.16-93.45-159.36a.42.42,0,0,1,0-.19c-11.91-49.91-11.65-102.52,2.36-152.36l9.41-33.46,27.5,29.95a311.23,311.23,0,0,1,30.26,38.74C1018.63,2347.63,1035.41,2438.32,1014.36,2521.76Z"/><path class="cls-2" d="M907.68,2477.56l-27.85,25.49a268.54,268.54,0,0,1-265.2,57.14l-36.3-11.93,8.45-9.33a268.74,268.74,0,0,1,192.32-88.27s0,0,.07,0a267,267,0,0,1,97.41,15.7Z"/><g class="cls-77"><path class="cls-38" d="M1080.79,2679.73c-2.8.16-5.62.29-8.45.42a446.79,446.79,0,0,0-38.18-68.81q-2.54-3.81-5.18-7.53a503.89,503.89,0,0,0-40.11-50,606,606,0,0,0-82.67-75c-1.62-1.24-3.2-2.43-4.81-3.59-53.08-39.55-109-69.45-158.09-91.36-7.42-3.3-14.76-6.5-22-9.53q-14.26-6-28.07-11.25h0c-11.54-4.47-22.81-8.59-33.72-12.36-84.39-29.37-147.5-40-148.32-40.11a4,4,0,1,1,1.27-7.82c.84.13,63,10.59,146.63,39.4q14.1,4.88,29,10.43c2.85,1.06,5.7,2.16,8.58,3.27q12.15,4.68,24.69,9.88t25.08,10.77c.06,0,.08.06.13.06q18.94,8.43,37,17.45c57.46,28.57,108.42,61.26,151.91,97.47q10.9,9.06,21.16,18.43,17.46,15.92,33.06,32.66,7.83,8.36,15.21,17a510.22,510.22,0,0,1,33.29,43.26q2.63,3.8,5.13,7.63a461.28,461.28,0,0,1,37.44,68.79A1.72,1.72,0,0,1,1080.79,2679.73Z"/></g><path class="cls-82" d="M597.24,2101.19l.8,36.06a290.69,290.69,0,0,0,187.82,265.46l12.83,4.86-2.07-41.67a290.69,290.69,0,0,0-162.43-246.61Z"/><path class="cls-88" d="M1014.36,2521.76l-9.88,39.08-9.93-9.07c-47-42.87-79.06-99.16-93.45-159.36a.42.42,0,0,1,0-.19A322.59,322.59,0,0,1,908,2250.75l10.07-35.86L947.52,2247a329.28,329.28,0,0,1,23.08,28.11C1018.63,2347.63,1035.41,2438.32,1014.36,2521.76Z"/><path class="cls-79" d="M894.32,2477.56l-27.86,25.49a269,269,0,0,1-174.82,70.46,266.48,266.48,0,0,1-77-13.32l-36.3-11.93,8.45-9.33a268.74,268.74,0,0,1,192.32-88.27s0,0,.07,0a266.45,266.45,0,0,1,84,15.7Z"/><path class="cls-2" d="M335.2,2306.77l27.42,23.43A290.71,290.71,0,0,0,685.72,2367l12.16-6.34-32.44-26.21a290.7,290.7,0,0,0-292.12-43.2Z"/><path class="cls-81" d="M335.2,2306.77l27.42,23.43A290.71,290.71,0,0,0,685.72,2367l12.16-6.34-32.44-26.21a290.7,290.7,0,0,0-292.12-43.2Z"/><path class="cls-2" d="M1436.69,2614.27c-1.08,5.81-2.23,11.51-3.52,17.19-2.57,11.59-5.54,22.9-9,33.84q-.86,2.73-1.75,5.39c-.72,2.13-1.44,4.24-2.2,6.33-.48,1.37-1,2.71-1.47,4.05-1.1,3-2.23,5.95-3.4,8.83-.29.72-.55,1.41-.86,2.11-.39,1-.8,1.89-1.2,2.83-.58,1.36-1.15,2.75-1.78,4.07-1,2.35-2.11,4.65-3.19,6.93-.43.91-.88,1.85-1.34,2.76-.67,1.34-1.34,2.66-2,4-.26.51-.5,1-.76,1.54-.17.33-.36.65-.53,1q-15.36.54-30.69.77-33.45.54-66.78-.53a1.45,1.45,0,0,1,.17.19c3.28.2,6.57.39,9.83.56-3.26-.17-6.52-.34-9.81-.53-.33,0-.69-.05-1-.05-3-.17-6.09-.36-9.12-.55h-.11l-11.95-.72a6.78,6.78,0,0,0-.71-.07c-3.89-.24-7.77-.48-11.61-.77-1,0-2.11-.12-3.14-.19-2.28-.15-4.58-.31-6.86-.48-2.54-.17-5.06-.34-7.6-.55v0l-11.15-.84c-.36,0-.69,0-1,0l0,0-1.87-.14-3.57-.29a7.72,7.72,0,0,1-.94-.07c-.62,0-1.25-.1-1.87-.15l-7.34-.65c-.28-3.11-.57-6.35-.81-9.85v0c-.07-1-.12-2-.19-3-.24-3.55-.43-7.24-.63-11.1a495.33,495.33,0,0,1,.48-51.82c.17-2.66.34-5.37.58-8.12a461.61,461.61,0,0,1,6.14-47.69v-.05c1.29-7.17,2.8-14.46,4.53-21.77,0-.05,0-.05,0-.08a398.57,398.57,0,0,1,21.82-66.46v0c.46-1.06.91-2.11,1.39-3.17v-.07a354.63,354.63,0,0,1,49.06-80.47c5.25-6.47,10.84-12.85,16.71-19.13l0,0c.08-.05.12-.14.2-.21,4.12-4.37,8.36-8.61,12.82-12.86v0h0c2.88-2.79,5.87-5.52,8.92-8.25,0,0,0,0,0,0q12.38-11,26.4-21.46,8.16-6,16.93-11.84a419.81,419.81,0,0,1,43.35-25s1.56,9.16,3.62,25c2.64,20.31,6.11,51.62,8.15,88.62C1449.09,2478.25,1448.8,2549.18,1436.69,2614.27Z"/><path class="cls-89" d="M1436.69,2614.27c-1.08,5.81-2.23,11.51-3.52,17.19-2.57,11.59-5.54,22.9-9,33.84q-.86,2.73-1.75,5.39c-.72,2.13-1.44,4.24-2.2,6.33-.48,1.37-1,2.71-1.47,4.05-1.1,3-2.23,5.95-3.4,8.83-.29.72-.55,1.41-.86,2.11-.39,1-.8,1.89-1.2,2.83-.58,1.36-1.15,2.75-1.78,4.07-1,2.35-2.11,4.65-3.19,6.93-.43.91-.88,1.85-1.34,2.76-.67,1.34-1.34,2.66-2,4-.26.51-.5,1-.76,1.54-.17.33-.36.65-.53,1q-15.36.54-30.69.77-33.45.54-66.78-.53a1.45,1.45,0,0,1,.17.19c3.28.2,6.57.39,9.83.56-3.26-.17-6.52-.34-9.81-.53-.33,0-.69-.05-1-.05-3-.17-6.09-.36-9.12-.55h-.11l-11.95-.72a6.78,6.78,0,0,0-.71-.07c-3.89-.24-7.77-.48-11.61-.77-1,0-2.11-.12-3.14-.19-2.28-.15-4.58-.31-6.86-.48-2.54-.17-5.06-.34-7.6-.55v0l-11.15-.84c-.36,0-.69,0-1,0l0,0-1.87-.14-3.57-.29a7.72,7.72,0,0,1-.94-.07c-.62,0-1.25-.1-1.87-.15l-7.34-.65c-.28-3.11-.57-6.35-.81-9.85v0c-.07-1-.12-2-.19-3-.24-3.55-.43-7.24-.63-11.1a495.33,495.33,0,0,1,.48-51.82c.17-2.66.34-5.37.58-8.12a461.61,461.61,0,0,1,6.14-47.69v-.05c1.29-7.17,2.8-14.46,4.53-21.77,0-.05,0-.05,0-.08a398.57,398.57,0,0,1,21.82-66.46v0c.46-1.06.91-2.11,1.39-3.17v-.07a354.63,354.63,0,0,1,49.06-80.47c5.25-6.47,10.84-12.85,16.71-19.13l0,0c.08-.05.12-.14.2-.21,4.12-4.37,8.36-8.61,12.82-12.86v0h0c2.88-2.79,5.87-5.52,8.92-8.25,0,0,0,0,0,0q12.38-11,26.4-21.46,8.16-6,16.93-11.84a419.81,419.81,0,0,1,43.35-25s1.56,9.16,3.62,25c2.64,20.31,6.11,51.62,8.15,88.62C1449.09,2478.25,1448.8,2549.18,1436.69,2614.27Z"/><path class="cls-89" d="M1418.73,2681.07c-1.1,3-2.23,5.95-3.4,8.83-.29.72-.55,1.41-.86,2.11-.39,1-.8,1.89-1.2,2.83-.58,1.36-1.15,2.75-1.78,4.07-1,2.35-2.11,4.65-3.19,6.93-.43.91-.88,1.85-1.34,2.76-.67,1.34-1.34,2.66-2,4-.26.51-.5,1-.76,1.54-.17.33-.36.65-.53,1q-15.36.54-30.69.77-33.45.54-66.78-.53a1.45,1.45,0,0,1,.17.19c3.28.2,6.57.39,9.83.56-3.26-.17-6.52-.34-9.81-.53-.33,0-.69-.05-1-.05-3-.17-6.09-.36-9.12-.55h-.11l-11.95-.72a6.78,6.78,0,0,0-.71-.07c-3.89-.24-7.77-.48-11.61-.77-1,0-2.11-.12-3.14-.19-2.28-.15-4.58-.31-6.86-.48-2.54-.17-5.06-.34-7.6-.55v0l-11.15-.84c-.36,0-.69,0-1,0l0,0-1.87-.14-3.57-.29a7.72,7.72,0,0,1-.94-.07c-.62,0-1.25-.1-1.87-.15l-7.34-.65c-.28-3.11-.57-6.35-.81-9.85v0c-.07-1-.12-2-.19-3-.24-3.55-.43-7.24-.63-11.1a495.33,495.33,0,0,1,.48-51.82c.17-2.66.34-5.37.58-8.12a461.61,461.61,0,0,1,6.14-47.69v-.05c1.29-7.17,2.8-14.46,4.53-21.77,0-.05,0-.05,0-.08a398.57,398.57,0,0,1,21.82-66.46v0c.46-1.06.91-2.11,1.39-3.17v-.07a354.63,354.63,0,0,1,49.06-80.47c5.25-6.47,10.84-12.85,16.71-19.13l0,0c.08-.05.12-.14.2-.21,1.2,1.94,2.37,3.88,3.52,5.85.29.45.55.88.79,1.34,1.63,2.78,3.24,5.56,4.77,8.39,1.75,3.17,3.5,6.4,5.16,9.66.69,1.27,1.37,2.59,2,3.91a571.54,571.54,0,0,1,25.41,58.31c1.78,4.65,3.46,9.35,5.09,14.08.45,1.2.83,2.4,1.27,3.59,1.08,3.15,2.11,6.21,3.14,9.36l0,0c1.49,4.46,2.93,8.92,4.34,13.45,1,3.27,2,6.5,3,9.76a1119.78,1119.78,0,0,1,28.17,119.26c.79,4.25,1.54,8.47,2.28,12.66C1416.1,2664.82,1417.46,2673,1418.73,2681.07Z"/><path class="cls-2" d="M1306.16,2715.31a1.45,1.45,0,0,1,.17.19c3.28.2,6.57.39,9.83.56-3.26-.17-6.52-.34-9.81-.53-.33,0-.69-.05-1-.05-3-.17-6.09-.36-9.12-.55h-.11l-11.95-.72a6.78,6.78,0,0,0-.71-.07c-3.89-.24-7.77-.48-11.61-.77-1,0-2.11-.12-3.14-.19-2.28-.15-4.58-.31-6.86-.48-2.54-.17-5.06-.34-7.6-.55v0l-11.15-.84c-.36,0-.69,0-1,0l0,0-1.87-.14-3.57-.29a7.72,7.72,0,0,1-.94-.07c-.62,0-1.25-.1-1.87-.15l-7.34-.65a3.42,3.42,0,0,1-.45,0c-1.85-.12-3.67-.29-5.52-.43-2.2-.17-4.43-.36-6.64-.58l-.36,0c-3.83-.56-7.72-1.11-11.58-1.73q-13.69-1.72-27.33-3.84c-.24-.28-.48-.6-.72-.91h0c-6.42-8-13-16.54-19.66-25.7a271.75,271.75,0,0,1-24.6-41c-1.91-3.93-3.74-7.91-5.44-11.91s-3.36-8.06-4.84-12.14c-1.06-2.73-2-5.49-3-8.27-31.91-94-12.32-196.75,12.26-271,6.21-18.82,12.75-35.8,18.87-50.35,5.61-13.43,10.86-24.77,15.15-33.57,6.5-13.35,10.79-20.86,10.79-20.86,1.2.55,2.4,1.13,3.57,1.7.77.39,1.54.79,2.3,1.2s1.42.72,2.11,1.1c.46.24.91.51,1.37.75,1.15.62,2.3,1.27,3.43,1.92s2.25,1.34,3.38,2c.43.26.86.5,1.27.79,2,1.25,4,2.57,6,3.91.6.41,1.2.81,1.78,1.22.93.65,1.87,1.32,2.78,2,1.13.82,2.23,1.63,3.31,2.47l1.15.89c.38.29.79.6,1.17.91h0c.79.62,1.56,1.22,2.32,1.87.91.72,1.82,1.49,2.74,2.25.69.58,1.39,1.18,2.08,1.78l1.2,1c5,4.42,9.9,9.11,14.63,14.1q4.89,5.17,9.54,10.72c.5.6,1,1.2,1.49,1.8h0q3.89,4.68,7.62,9.61,7.41,9.83,14.29,20.53c2.16,3.38,4.32,6.83,6.41,10.36q1.44,2.4,2.87,4.89c.48.84,1,1.65,1.42,2.47s.93,1.65,1.41,2.49c.36.65.75,1.32,1.11,2,2.47,4.46,4.86,9,7.19,13.57a569.44,569.44,0,0,1,25.44,58.31q2.63,7,5.06,14.08c.24.6.43,1.2.65,1.8.12.33.24.69.36,1s.19.52.28.76c1.08,3.14,2.09,6.21,3.14,9.35v.05c.91,2.76,1.85,5.54,2.74,8.32.55,1.71,1.1,3.41,1.63,5.13,1.65,5.3,3.26,10.65,4.79,16s3.07,10.71,4.53,16.11c3.67,13.45,7,27,10.17,40.54,1.25,5.4,2.45,10.82,3.62,16.21.72,3.38,1.44,6.74,2.14,10.12q3.16,15.14,5.87,30c.74,4,1.46,8,2.13,12,1.39,7.93,2.71,15.8,3.94,23.54q.9,5.83,1.77,11.56c5.11,34,8.73,65.7,11.32,93Q1339.49,2716.38,1306.16,2715.31Z"/><path class="cls-89" d="M1306.16,2715.31a1.45,1.45,0,0,1,.17.19c3.28.2,6.57.39,9.83.56-3.26-.17-6.52-.34-9.81-.53-.33,0-.69-.05-1-.05-3-.17-6.09-.36-9.12-.55h-.11l-11.95-.72a6.78,6.78,0,0,0-.71-.07c-3.89-.24-7.77-.48-11.61-.77-1,0-2.11-.12-3.14-.19-2.28-.15-4.58-.31-6.86-.48-2.54-.17-5.06-.34-7.6-.55v0l-11.15-.84c-.36,0-.69,0-1,0l0,0-1.87-.14-3.57-.29a7.72,7.72,0,0,1-.94-.07c-.62,0-1.25-.1-1.87-.15l-7.34-.65a3.42,3.42,0,0,1-.45,0c-1.85-.12-3.67-.29-5.52-.43-2.2-.17-4.43-.36-6.64-.58l-.36,0c-3.83-.56-7.72-1.11-11.58-1.73q-13.69-1.72-27.33-3.84c-.24-.28-.48-.6-.72-.91h0c-6.42-8-13-16.54-19.66-25.7a271.75,271.75,0,0,1-24.6-41c-1.91-3.93-3.74-7.91-5.44-11.91s-3.36-8.06-4.84-12.14c-1.06-2.73-2-5.49-3-8.27-31.91-94-12.32-196.75,12.26-271,6.21-18.82,12.75-35.8,18.87-50.35,5.61-13.43,10.86-24.77,15.15-33.57,6.5-13.35,10.79-20.86,10.79-20.86,1.2.55,2.4,1.13,3.57,1.7.77.39,1.54.79,2.3,1.2s1.42.72,2.11,1.1c.46.24.91.51,1.37.75,1.15.62,2.3,1.27,3.43,1.92s2.25,1.34,3.38,2c.43.26.86.5,1.27.79,2,1.25,4,2.57,6,3.91.6.41,1.2.81,1.78,1.22.93.65,1.87,1.32,2.78,2,1.13.82,2.23,1.63,3.31,2.47l1.15.89c.38.29.79.6,1.17.91h0c.79.62,1.56,1.22,2.32,1.87.91.72,1.82,1.49,2.74,2.25.69.58,1.39,1.18,2.08,1.78l1.2,1c5,4.42,9.9,9.11,14.63,14.1q4.89,5.17,9.54,10.72c.5.6,1,1.2,1.49,1.8h0q3.89,4.68,7.62,9.61,7.41,9.83,14.29,20.53c2.16,3.38,4.32,6.83,6.41,10.36q1.44,2.4,2.87,4.89c.48.84,1,1.65,1.42,2.47s.93,1.65,1.41,2.49c.36.65.75,1.32,1.11,2,2.47,4.46,4.86,9,7.19,13.57a569.44,569.44,0,0,1,25.44,58.31q2.63,7,5.06,14.08c.24.6.43,1.2.65,1.8.12.33.24.69.36,1s.19.52.28.76c1.08,3.14,2.09,6.21,3.14,9.35v.05c.91,2.76,1.85,5.54,2.74,8.32.55,1.71,1.1,3.41,1.63,5.13,1.65,5.3,3.26,10.65,4.79,16s3.07,10.71,4.53,16.11c3.67,13.45,7,27,10.17,40.54,1.25,5.4,2.45,10.82,3.62,16.21.72,3.38,1.44,6.74,2.14,10.12q3.16,15.14,5.87,30c.74,4,1.46,8,2.13,12,1.39,7.93,2.71,15.8,3.94,23.54q.9,5.83,1.77,11.56c5.11,34,8.73,65.7,11.32,93Q1339.49,2716.38,1306.16,2715.31Z"/><path class="cls-2" d="M1372.94,2715.84q-33.45.54-66.78-.53a376.24,376.24,0,0,1-44.6-68c-1.84-3.51-3.62-7.05-5.37-10.63a554.09,554.09,0,0,1-24.21-58.28c-27.62-78.12-41.48-165.85-48-246-1.39-17.19-2.44-34-3.21-50.35-.53-11.46-.94-22.68-1.22-33.57q-.25-9.14-.39-18c.7.36,1.42.72,2.11,1.1.46.24.91.51,1.37.75,1.15.62,2.3,1.27,3.43,1.92s2.25,1.34,3.38,2c.43.26.86.5,1.27.79,2,1.25,4,2.57,6,3.91.6.41,1.2.81,1.78,1.22.93.65,1.87,1.32,2.78,2,1.13.82,2.23,1.63,3.31,2.47l1.15.89c.38.29.79.6,1.17.91h0c.79.62,1.56,1.22,2.32,1.87.91.72,1.82,1.49,2.74,2.25.69.58,1.39,1.18,2.08,1.78l1.2,1c5,4.42,9.9,9.11,14.63,14.1q4.89,5.17,9.54,10.72c.53.6,1,1.2,1.51,1.8q3.89,4.68,7.62,9.61,7.41,9.83,14.29,20.53c2.16,3.38,4.32,6.83,6.41,10.36q1.44,2.4,2.87,4.89c.48.84,1,1.65,1.42,2.47s.93,1.65,1.39,2.49h0c.36.65.75,1.32,1.11,2,2.47,4.46,4.86,9,7.19,13.57a569.44,569.44,0,0,1,25.44,58.31q2.63,7,5.06,14.08c.24.6.43,1.2.65,1.8.12.33.24.69.36,1s.16.5.26.76c1.08,3.12,2.11,6.21,3.14,9.35l0,.05c.91,2.76,1.85,5.54,2.74,8.32.55,1.71,1.08,3.41,1.6,5.13,1.66,5.3,3.26,10.65,4.82,16s3.07,10.71,4.53,16.11c3.67,13.45,7,27,10.17,40.54,1.25,5.4,2.45,10.82,3.62,16.21.72,3.38,1.44,6.74,2.14,10.12q3.12,15.14,5.85,30c.74,4,1.46,8,2.15,12,1.39,7.93,2.69,15.8,3.94,23.54q.9,5.83,1.77,11.56C1366.73,2656.88,1370.35,2688.58,1372.94,2715.84Z"/><path class="cls-90" d="M1372.94,2715.84q-33.45.54-66.78-.53a376.24,376.24,0,0,1-44.6-68c-1.84-3.51-3.62-7.05-5.37-10.63a554.09,554.09,0,0,1-24.21-58.28c-27.62-78.12-41.48-165.85-48-246-1.39-17.19-2.44-34-3.21-50.35-.53-11.46-.94-22.68-1.22-33.57q-.25-9.14-.39-18c.7.36,1.42.72,2.11,1.1.46.24.91.51,1.37.75,1.15.62,2.3,1.27,3.43,1.92s2.25,1.34,3.38,2c.43.26.86.5,1.27.79,2,1.25,4,2.57,6,3.91.6.41,1.2.81,1.78,1.22.93.65,1.87,1.32,2.78,2,1.13.82,2.23,1.63,3.31,2.47l1.15.89c.38.29.79.6,1.17.91h0c.79.62,1.56,1.22,2.32,1.87.91.72,1.82,1.49,2.74,2.25.69.58,1.39,1.18,2.08,1.78l1.2,1c5,4.42,9.9,9.11,14.63,14.1q4.89,5.17,9.54,10.72c.53.6,1,1.2,1.51,1.8q3.89,4.68,7.62,9.61,7.41,9.83,14.29,20.53c2.16,3.38,4.32,6.83,6.41,10.36q1.44,2.4,2.87,4.89c.48.84,1,1.65,1.42,2.47s.93,1.65,1.39,2.49h0c.36.65.75,1.32,1.11,2,2.47,4.46,4.86,9,7.19,13.57a569.44,569.44,0,0,1,25.44,58.31q2.63,7,5.06,14.08c.24.6.43,1.2.65,1.8.12.33.24.69.36,1s.16.5.26.76c1.08,3.12,2.11,6.21,3.14,9.35l0,.05c.91,2.76,1.85,5.54,2.74,8.32.55,1.71,1.08,3.41,1.6,5.13,1.66,5.3,3.26,10.65,4.82,16s3.07,10.71,4.53,16.11c3.67,13.45,7,27,10.17,40.54,1.25,5.4,2.45,10.82,3.62,16.21.72,3.38,1.44,6.74,2.14,10.12q3.12,15.14,5.85,30c.74,4,1.46,8,2.15,12,1.39,7.93,2.69,15.8,3.94,23.54q.9,5.83,1.77,11.56C1366.73,2656.88,1370.35,2688.58,1372.94,2715.84Z"/><circle class="cls-72" cx="395.93" cy="2199.2" r="31.82" transform="translate(-1838.29 2237.75) rotate(-80.78)"/><circle class="cls-4" cx="454.54" cy="2468.81" r="26.79" transform="translate(-1501.4 895.3) rotate(-40.75)"/><circle class="cls-91" cx="651.7" cy="2761.01" r="17.58"/><circle class="cls-92" cx="3833.74" cy="2687.06" r="17.58"/><circle class="cls-72" cx="4127.63" cy="2560.63" r="18.42"/><circle class="cls-93" cx="4264.95" cy="2180.5" r="22.61"/></g></svg>