<svg xmlns="http://www.w3.org/2000/svg" xmlns:xlink="http://www.w3.org/1999/xlink" viewBox="0 0 4680 3120"><defs><style>.cls-1{fill:none;}.cls-12,.cls-13,.cls-16,.cls-17,.cls-19,.cls-2,.cls-20,.cls-21,.cls-22,.cls-5,.cls-65,.cls-7,.cls-76,.cls-8,.cls-9{fill:#fff;}.cls-3,.cls-40,.cls-42,.cls-45,.cls-46,.cls-47,.cls-51,.cls-52,.cls-56,.cls-61{fill:#1f60e5;}.cls-4{opacity:0.93;}.cls-5,.cls-6{opacity:0.15;}.cls-52,.cls-54,.cls-7{opacity:0.57;}.cls-60,.cls-8{opacity:0.47;}.cls-10,.cls-42,.cls-9{opacity:0.14;}.cls-11,.cls-13,.cls-56{opacity:0.1;}.cls-12{opacity:0.21;}.cls-14,.cls-24{opacity:0.32;}.cls-15,.cls-16{opacity:0.8;}.cls-17{opacity:0.71;}.cls-18,.cls-38{opacity:0.75;}.cls-19{opacity:0.91;}.cls-20{opacity:0.65;}.cls-21{opacity:0.79;}.cls-22{opacity:0.53;}.cls-23{fill:#512d50;}.cls-24,.cls-37{fill:#020e49;}.cls-25{fill:#f8bbc2;}.cls-26,.cls-39{fill:#fe8796;}.cls-26,.cls-36{opacity:0.3;}.cls-27,.cls-43,.cls-44,.cls-49,.cls-53,.cls-55{fill:#003fc3;}.cls-28,.cls-29,.cls-30,.cls-31{fill:#03157a;}.cls-28{opacity:0.24;}.cls-29{opacity:0.2;}.cls-30{opacity:0.07;}.cls-31,.cls-47{opacity:0.08;}.cls-32,.cls-33,.cls-67,.cls-68,.cls-69,.cls-70,.cls-71,.cls-72,.cls-73,.cls-78,.cls-79{fill:#fe7101;}.cls-32{opacity:0.18;}.cls-33{opacity:0.82;}.cls-34,.cls-80{opacity:0.67;}.cls-35,.cls-36,.cls-38{fill:#e8635d;}.cls-39{opacity:0.19;}.cls-40{opacity:0.16;}.cls-41{clip-path:url(#clip-path);}.cls-43,.cls-58{opacity:0.68;}.cls-44,.cls-45{opacity:0.36;}.cls-46{opacity:0.4;}.cls-48{clip-path:url(#clip-path-2);}.cls-49{opacity:0.06;}.cls-50,.cls-81{opacity:0.29;}.cls-51{opacity:0.13;}.cls-53,.cls-73,.cls-75{opacity:0.42;}.cls-55,.cls-78{opacity:0.5;}.cls-57{clip-path:url(#clip-path-3);}.cls-59{fill:#464646;}.cls-61{opacity:0.28;}.cls-62,.cls-63,.cls-64,.cls-77,.cls-80,.cls-81{fill:#ffb600;}.cls-62{opacity:0.35;}.cls-63{opacity:0.72;}.cls-64,.cls-65{opacity:0.54;}.cls-66,.cls-72{opacity:0.78;}.cls-68{opacity:0.69;}.cls-69{opacity:0.44;}.cls-70{opacity:0.43;}.cls-71{opacity:0.45;}.cls-74{opacity:0.61;}.cls-76{opacity:0.56;}.cls-79{opacity:0.17;}</style><clipPath id="clip-path"><path class="cls-1" d="M883.93,1363.13c-152.27,68.71-255.18,221-273.1,385.75A518.29,518.29,0,0,0,652,2013.31c48.22,109.12,132,204,240.72,255.39,101.67,48,217.31,47.85,324.94,21.77,206.84-50.12,320.2-256.83,357.66-451.56,33.39-173.51,16.88-399.55-162.26-487.7-77.22-38-168-41.87-252.42-41.43C1066.24,1310.28,969.82,1324.38,883.93,1363.13Z"/></clipPath><clipPath id="clip-path-2"><path class="cls-1" d="M1555,683.13c-24,143.57,11.1,299.06,116,426.35,158,191.74,496,304.53,720.87,152.12,416.32-282.2,136.44-1079.42-390.19-1005.89C1749.66,290.89,1589.88,474.43,1555,683.13Z"/></clipPath><clipPath id="clip-path-3"><path class="cls-1" d="M3473.9,1172.39c-16.3,97.52,7.54,203.13,78.77,289.59,107.28,130.23,336.9,206.84,489.62,103.32,282.76-191.68,92.67-733.16-265-683.21C3606.13,906,3497.6,1030.64,3473.9,1172.39Z"/></clipPath></defs><g id="_9" data-name="9"><rect class="cls-2" width="4680" height="3120"/><path class="cls-3" d="M4156.85,1939.28c-15.48,77.3-53.8,151.35-100.81,218-11.05,15.67-22.57,31-34.38,45.8q-12.64,15.81-25.66,30.93c-1.46,1.72-2.95,3.43-4.43,5.12q-8.85,10.2-17.78,20-26.62,29.28-55.77,55.69c-6.19,5.63-12.45,11.13-18.78,16.56q-31.18,26.7-64.83,50.41h0q-29,20.47-59.58,38.81-7.37,4.41-14.82,8.7-16.55,9.53-33.47,18.46c-1.61.85-3.24,1.7-4.87,2.54,0,0,0,0,0,0q-15.12,7.92-30.53,15.31-46.61,22.43-95.66,40.74-19.18,7.2-38.67,13.8-6.77,2.3-13.55,4.49c-1.35.45-2.71.89-4.06,1.31q-21.37,6.93-43.09,13.13-33.18,9.52-67,17.47c-1.4.34-2.8.68-4.22,1q-31,7.24-62.52,13.2-16.71,3.16-33.52,6h0l-.06,0q-8.07,1.36-16.18,2.65c-2.12.33-4.23.67-6.37,1l-4.15.64-3.81.57c-.6.08-1.19.19-1.78.25s-1.17.19-1.76.28l-7.9,1.14c-2.77.4-5.52.78-8.3,1.16-3.68.51-7.36,1-11.07,1.51-.46,0-.93.1-1.42.17a.06.06,0,0,0,0,0c-1.46.19-2.94.38-4.4.55-2.06.27-4.11.53-6.17.78l-.16,0h0c-2.94.38-5.9.74-8.85,1.08-.63.09-1.29.15-1.92.24l-6.1.69c-1.55.2-3.11.36-4.66.53,0,0,0,0,0,0-2.82.29-5.61.61-8.43.91l-3.66.38-8,.82c-2.82.3-5.66.57-8.49.83q-1.9.2-3.81.36l-.07,0h-.06c-2.58.25-5.19.49-7.77.7-1,.1-2,.19-3,.27-1.27.13-2.54.24-3.81.32q-6.76.6-13.53,1.12c-.36.05-.72.07-1.08.09-1.08.1-2.14.17-3.22.25s-2.16.17-3.24.23q-3.74.3-7.49.56l-.09,0h-.08q-10.77.75-21.55,1.39c-.45,0-.91.07-1.38.09-1.93.1-3.85.23-5.8.32-1.21.08-2.44.14-3.64.21l-3.88.19-1.71.1-4.26.22c-.27,0-.57,0-.87,0-4,.19-8.09.38-12.13.53-2.67.12-5.36.23-8,.32q-.77.06-1.53.06l-1.48.06-9.19.32-12.43.36-5.31.13c-.34,0-.68,0-1,0l-2.94.06c-1.31,0-2.61.07-3.9.07q-5.86.12-11.69.19c-.31,0-.63,0-.93,0-2.66,0-5.31.06-8,.08-1.08,0-2.14,0-3.17,0-4.81,0-9.62.07-14.4.07-2,0-4,0-5.93,0-3.56,0-7.09,0-10.63,0-1.65,0-3.32,0-5,0-1.32,0-2.63,0-3.94,0l-9.51-.15a2.18,2.18,0,0,1-.51,0c-.55,0-1.1,0-1.65,0l-3.32-.06c-3,0-6-.11-8.92-.2l-1.54,0-7.58-.19-2.9-.08q-7.15-.2-14.29-.47c-.87,0-1.74-.06-2.59-.1-2.24-.07-4.47-.15-6.69-.26-2.54-.08-5.08-.19-7.6-.3a1.23,1.23,0,0,0-.27,0c-4.7-.21-9.41-.42-14.08-.67-3.07-.15-6.12-.32-9.17-.49-30-1.63-59.67-3.9-88.91-6.75l-4.53-.45c-.53,0-1.06-.11-1.57-.15l-2.94-.29-2.65-.26c-.46-.06-.93-.1-1.39-.15-4.07-.44-8.13-.86-12.18-1.31-.36,0-.72-.06-1.08-.11-3.36-.36-6.75-.74-10.12-1.14q-16.74-1.93-33.28-4.11c-2.56-.31-5.13-.65-7.69-1-1.16-.15-2.26-.32-3.43-.49h0q-32.84-4.47-64.68-9.89c-50.69-8.61-100.38-21.13-149.57-35.52-4.53-1.34-9.08-2.69-13.61-4.05-4.3-1.29-8.58-2.58-12.86-3.92-1.1-.31-2.18-.65-3.26-1q-5.1-1.56-10.18-3.16-19.05-5.93-38.05-12.11c-15.84-5.14-31.65-10.39-47.47-15.62q-15-5-29.94-10l-6.79-2.25-3.73-1.23c-2.05-.67-4.11-1.37-6.18-2l-10.33-3.41-1.74-.57-2.22-.72-12.47-4.06a.16.16,0,0,0-.09,0q-10.83-3.52-21.68-7l-6.39-2c-.77-.24-1.51-.49-2.27-.7a2,2,0,0,0-.32-.11s0,0,0,0l-3-.93-2.05-.64a.9.9,0,0,1-.21-.08l-.47-.15-.53-.15c-1.16-.38-2.33-.74-3.49-1.1q-3.27-1-6.54-2h0c-1.49-.47-3-.93-4.47-1.38-.57-.19-1.14-.36-1.72-.52-1.35-.43-2.71-.83-4.06-1.23-3.28-1-6.59-2-9.89-3a.65.65,0,0,0-.19,0c-4.13-1.25-8.28-2.46-12.41-3.66-2.94-.87-5.88-1.72-8.85-2.57l-6.65-1.88-8.42-2.35-3.39-.91-.13,0c-1.18-.34-2.37-.66-3.55-1l-1.38-.38c-2-.55-4-1.1-6.08-1.63l-1.46-.38-2.26-.61-2.4-.62c-.44-.12-.89-.23-1.33-.36q-9.18-2.39-18.4-4.66l-4-1-2.67-.64-2-.48c-.21-.07-.45-.11-.66-.17l-1.12-.28c-.34-.08-.68-.17-1-.23-2.5-.59-5-1.19-7.51-1.76-27.57-6.35-55.37-11.77-83.51-15.9q-5.82-.86-11.56-1.59c-1.78-.23-3.54-.44-5.32-.65-2.43-.3-4.84-.57-7.26-.83-1.14-.13-2.26-.25-3.41-.36-2.3-.25-4.59-.46-6.88-.68-1.88-.17-3.79-.33-5.67-.48-2.35-.19-4.68-.36-7-.53s-4.68-.32-7-.45c-1.86-.1-3.75-.21-5.61-.29-2.16-.11-4.34-.22-6.5-.3-1.67-.08-3.32-.15-5-.17q-5-.16-9.91-.23h0c-5.84-.09-11.64-.11-17.42,0-187.11,2.41-346.84,88.46-525.51,157.06l-.17.06-1,.38c-33.22,12.73-68,24.69-103.68,34.54a2.14,2.14,0,0,1-.32.08q-5.91,1.62-11.84,3.18l-1.25.31a701.18,701.18,0,0,1-95.32,18.25,2.93,2.93,0,0,1-.29.05c-9.91,1.12-19.78,2-29.67,2.62a458.76,458.76,0,0,1-74.08-1.08,364.2,364.2,0,0,1-97.55-22.93c-3.57-1.37-7.13-2.86-10.69-4.38a366.56,366.56,0,0,1-77-44.7c-2.42-1.86-4.81-3.72-7.18-5.63l0,0c-.66-.53-1.31-1-2-1.61q-8.64-7-16.68-14.46v0c-.92-.83-1.83-1.7-2.74-2.58a358.91,358.91,0,0,1-65.74-84.61q-6.86-12.1-12.85-24.71a437.26,437.26,0,0,1-22.06-56.13q-2.81-8.9-5.27-17.93c-.77-2.69-1.47-5.4-2.16-8.11-.85-3.26-1.66-6.52-2.42-9.83q-2.22-9.39-4.08-19c-.53-2.67-1-5.31-1.51-8,0,0,0,0,0,0q-3.07-16.9-5.1-34.11-2.25-18.7-3.28-37.71-1.27-22-1-44.29c.15-12.67.81-25,1.91-37,.19-2.14.4-4.26.63-6.38,11-104.55,54.44-187,71.5-287.93a284.29,284.29,0,0,0,2.19-77,367.33,367.33,0,0,0-6-37.73c-20.87-99.76-78.72-194.07-94-294.7-8.65-56.77-7.36-113.59,2.06-169.53,2.09-12.62,4.64-25.22,7.56-37.73,11.24-48.15,28.24-95.47,49.84-141.35,55-116.92,139.74-224.46,234.09-312.45q17.08-15.94,34.53-31A1134.21,1134.21,0,0,1,1208.77,660a1045.05,1045.05,0,0,1,106.58-62.1c233.75-118.29,507.52-146.64,760.85-70.4,262.46,79,569.43,213.36,849,176.39,211.63-28,414.1-148.78,618.06-53.71a407.74,407.74,0,0,1,47.11,25.91c1.72,1.08,3.41,2.18,5.11,3.31,126.25,83.14,197,231.8,198.24,381.36.8,96.28-8.34,195.77,20.66,286.85q3,9.31,6.5,18.53a352.79,352.79,0,0,0,20.05,43.19s0,0,0,.05c48.27,88.16,130.59,155.74,204,226.46,31.14,30,57.63,62.08,77.58,96.61a323.29,323.29,0,0,1,18.69,37.73C4162.31,1821.16,4169.28,1877.18,4156.85,1939.28Z"/><path class="cls-3" d="M2943.16,607.88A68.25,68.25,0,0,0,2962.08,594c12.34-13.32,27.37-62.41-1-65.9-56.4-6.94-112,26.61-168.11,32.25-56.27,5.65-107.86,1.76-160.51-20.73-26.36-11.26-86.4-42.7-101.56,8.57-15.81,53.47,115.26,98.51,153.28,101.3a578,578,0,0,0,238.56-33A172,172,0,0,0,2943.16,607.88Z"/><path class="cls-3" d="M1996.16,2486c11.16,3.92,22.43,8.18,31.76,15.45s16.56,18.12,16.75,29.95c.89,54.54-97.16,32-124.7,25.59-67.47-15.72-106.66,5-166,34.49-30,14.9-42.5-7-28-32.25,13.17-23,40.67-46.28,63.48-58.64C1851.74,2466.86,1929.69,2462.7,1996.16,2486Z"/><g class="cls-4"><path class="cls-5" d="M3343.79,1241.15l-101.12-41.48a3.65,3.65,0,0,1-2-4.74l189.45-473.35a3.59,3.59,0,0,1,4.68-2L3536,761.05a3.66,3.66,0,0,1,2,4.74l-189.46,473.35A3.58,3.58,0,0,1,3343.79,1241.15Z"/><g class="cls-6"><rect class="cls-2" x="2522.34" y="1198.39" width="72.43" height="396.49" rx="2.38" transform="translate(3955.18 -1161.92) rotate(90)"/><rect class="cls-7" x="2447.96" y="1345.16" width="170.51" height="339.85" rx="2.96" transform="translate(4048.3 -1018.13) rotate(90)"/><rect class="cls-2" x="2506.98" y="1435.67" width="146.37" height="457.6" rx="2.96" transform="translate(4244.63 -915.69) rotate(90)"/><rect class="cls-2" x="2495.37" y="936.33" width="146.37" height="457.6" rx="2.96" transform="translate(3733.69 -1403.42) rotate(90)"/><path class="cls-2" d="M2646.29,1552.24c5.76-27.44.68-59.74-.31-87.7-.18-5.17-7.74-5.17-7.92,0-1,28-6.06,60.26-.3,87.7A4.36,4.36,0,0,0,2646.29,1552.24Z"/><path class="cls-2" d="M2606.54,1552.24c5.76-27.44.68-59.74-.31-87.7-.18-5.17-7.73-5.17-7.92,0-1,28-6.06,60.26-.3,87.7A4.36,4.36,0,0,0,2606.54,1552.24Z"/><path class="cls-2" d="M2566.79,1552.24c5.76-27.44.68-59.74-.31-87.7a4,4,0,0,0-7.91,0c-1,28-6.07,60.26-.31,87.7A4.36,4.36,0,0,0,2566.79,1552.24Z"/></g><path class="cls-8" d="M4122.51,1746.46H3595.43v-1066c-1.7-1.14-3.39-2.25-5.11-3.34a406.89,406.89,0,0,0-47.11-26.24v587.46h-1207V1047.4H2284v190.91H777.71c-2.92,12.67-5.47,25.42-7.56,38.2H2284v470H862.14a375.86,375.86,0,0,1,6,38.2H2284v458.21H558.21v38.18H2284v132.18h52.24V2281.05h1207v267.38q26.4-8.67,52.22-18.52V1784.66H4141.2A328.83,328.83,0,0,0,4122.51,1746.46Zm-579.3,496.41h-1207V1784.66h1207Zm0-496.41h-1207V1276.51h1207Z"/><path class="cls-5" d="M3352.47,904.82l-53.22-39.14a2.86,2.86,0,0,0-4,.65l-229.67,320a3,3,0,0,0,.63,4.08l53.22,39.14a2.86,2.86,0,0,0,4-.65l229.67-320A3,3,0,0,0,3352.47,904.82Z"/><path class="cls-9" d="M2738.5,2223.75l-39.68,16.73a6.24,6.24,0,0,1-8.19-3.42L2558.25,1915.3a6.37,6.37,0,0,1,3.37-8.29l39.69-16.73a6.23,6.23,0,0,1,8.19,3.42l132.38,321.75A6.37,6.37,0,0,1,2738.5,2223.75Z"/><g class="cls-10"><path class="cls-2" d="M2499.25,2225.94l-99.07,16.64a3.59,3.59,0,0,1-4.13-3l-65.11-397.09a3.63,3.63,0,0,1,3-4.18l99.07-16.65a3.61,3.61,0,0,1,4.14,3l65.1,397.09A3.64,3.64,0,0,1,2499.25,2225.94Z"/><path class="cls-2" d="M2418.26,1865.79c-18-3-37.37,4.08-54.87,7-4.15.69-5.5,5.45-4.77,9.87s3.52,8.49,7.66,7.78c17.51-2.91,38.1-2.52,54.18-11.27C2425,1876.73,2423.38,1866.65,2418.26,1865.79Z"/><path class="cls-2" d="M2442.85,2015.81c-18-3-37.36,4.07-54.86,7-4.15.69-5.5,5.45-4.77,9.87s3.51,8.48,7.66,7.78c17.51-2.91,38.09-2.52,54.18-11.27C2449.63,2026.75,2448,2016.67,2442.85,2015.81Z"/><ellipse class="cls-2" cx="2403.18" cy="1951.3" rx="13.24" ry="18.16" transform="translate(-277.13 402.51) rotate(-9.05)"/></g><g class="cls-11"><path class="cls-2" d="M2620.47,2217.42,2533.86,2238a3.58,3.58,0,0,1-4.32-2.71l-74.74-323a3.63,3.63,0,0,1,2.68-4.37l86.61-20.54a3.59,3.59,0,0,1,4.32,2.72l74.74,323A3.63,3.63,0,0,1,2620.47,2217.42Z"/><path class="cls-2" d="M2512.72,1942.05c-6.33,1.5-9.09,13.67-6.07,26.76s10.84,22.74,17.18,21.24,9.09-13.67,6.06-26.75S2519.05,1940.55,2512.72,1942.05Z"/><path class="cls-2" d="M2554.68,2036.94c-8.52,1.27-16.85,3.46-25.24,5.31-7.56,1.67-15.51,2.07-22,7.42-3.23,2.65-.55,14.23,3.5,15.15,8.21,1.86,15.51-1.36,23-3.26,8.33-2.11,16.75-3.9,24.94-6.59,3-.37,3.28-5.37,2.11-10C2560,2040.27,2557.5,2035.94,2554.68,2036.94Z"/></g><path class="cls-9" d="M1870,2223.75l39.69,16.73a6.24,6.24,0,0,0,8.19-3.42l132.38-321.76a6.37,6.37,0,0,0-3.38-8.29l-39.68-16.73a6.23,6.23,0,0,0-8.19,3.42L1866.6,2215.45A6.38,6.38,0,0,0,1870,2223.75Z"/><g class="cls-10"><path class="cls-2" d="M2109.22,2225.94l99.07,16.64a3.61,3.61,0,0,0,4.14-3l65.1-397.09a3.63,3.63,0,0,0-3-4.18l-99.08-16.65a3.6,3.6,0,0,0-4.13,3l-65.11,397.09A3.64,3.64,0,0,0,2109.22,2225.94Z"/><path class="cls-2" d="M2190.22,1865.79c18-3,37.37,4.08,54.86,7,4.16.69,5.5,5.45,4.78,9.87s-3.52,8.49-7.67,7.78c-17.51-2.91-38.09-2.52-54.17-11.27C2183.44,1876.73,2185.09,1866.65,2190.22,1865.79Z"/><path class="cls-2" d="M2165.62,2015.81c18-3,37.37,4.07,54.87,7,4.15.69,5.5,5.45,4.77,9.87s-3.52,8.48-7.67,7.78c-17.51-2.91-38.09-2.52-54.17-11.27C2158.84,2026.75,2160.5,2016.67,2165.62,2015.81Z"/><path class="cls-2" d="M2208.23,1933.37c7.12,1.2,11.72,10.35,10.12,20.12s-8.88,16.92-16,15.73-11.71-10.35-10.11-20.12S2201.11,1932.18,2208.23,1933.37Z"/></g><g class="cls-11"><path class="cls-2" d="M1988,2217.42l86.62,20.54a3.59,3.59,0,0,0,4.32-2.71l74.74-323a3.65,3.65,0,0,0-2.68-4.37l-86.62-20.54a3.58,3.58,0,0,0-4.31,2.72l-74.75,323A3.64,3.64,0,0,0,1988,2217.42Z"/><path class="cls-2" d="M2095.76,1942.05c6.33,1.5,9.09,13.67,6.06,26.76s-10.84,22.74-17.17,21.24-9.09-13.67-6.07-26.75S2089.42,1940.55,2095.76,1942.05Z"/><path class="cls-2" d="M2053.8,2036.94c8.51,1.27,16.85,3.46,25.24,5.31,7.55,1.67,15.51,2.07,22,7.42,3.22,2.65.54,14.23-3.51,15.15-8.2,1.86-15.5-1.36-23-3.26-8.33-2.11-16.76-3.9-25-6.59-3-.37-3.28-5.37-2.11-10C2048.5,2040.27,2051,2035.94,2053.8,2036.94Z"/></g><path class="cls-12" d="M3747.24,1573.22l-23,.12-26.78.12c-91.6-124.63-3.36-264.65-3.36-264.65,35.36,37.42,54,77.34,62.55,115.49C3769.81,1483.49,3758.56,1538.42,3747.24,1573.22Z"/><path class="cls-13" d="M3804.6,1573l-57.36.26c11.32-34.8,22.57-89.73,9.4-148.92,29.51-47.87,67.08-75,67.08-75C3860.4,1442.57,3835.53,1520.62,3804.6,1573Z"/><polygon class="cls-13" points="3876.5 1572.64 3845.34 1743.14 3674.15 1743.94 3647.28 1573.69 3697.45 1573.46 3724.23 1573.34 3747.24 1573.22 3804.6 1572.96 3876.5 1572.64"/><path class="cls-12" d="M1977.09,1573.22l-23,.12-26.78.12c-91.6-124.63-3.36-264.65-3.36-264.65,35.36,37.42,54,77.34,62.55,115.49C1999.66,1483.49,1988.41,1538.42,1977.09,1573.22Z"/><path class="cls-13" d="M2034.45,1573l-57.36.26c11.32-34.8,22.57-89.73,9.4-148.92,29.51-47.87,67.08-75,67.08-75C2090.25,1442.57,2065.38,1520.62,2034.45,1573Z"/><polygon class="cls-13" points="2106.35 1572.64 2075.19 1743.14 1904 1743.94 1877.13 1573.69 1927.3 1573.46 1954.08 1573.34 1977.09 1573.22 2034.45 1572.96 2106.35 1572.64"/><path class="cls-12" d="M3899.24,2352.79a912.91,912.91,0,0,1-124.44,90.32c-164.45-235.52-.19-496.15-.19-496.15,67.48,71.39,103.12,147.53,119.33,220.32C3908.81,2234,3907.37,2298,3899.24,2352.79Z"/><path class="cls-13" d="M4056,2176.53a1067.37,1067.37,0,0,1-82.25,103.12,829.47,829.47,0,0,1-74.55,73.14c8.13-54.83,9.57-118.75-5.3-185.51,56.3-91.33,128-143,128-143C4043,2077.85,4053.4,2128.78,4056,2176.53Z"/><path class="cls-13" d="M3760,2451.92q-33.63,19.6-68.89,36.76l-5.76-36.42Z"/><path class="cls-12" d="M1652.89,1065.92l-23,.11-26.78.12c-91.6-124.63-3.37-264.65-3.37-264.65,35.37,37.42,54.06,77.34,62.56,115.5C1675.46,976.18,1664.21,1031.11,1652.89,1065.92Z"/><path class="cls-13" d="M1710.25,1065.65l-57.36.27c11.32-34.81,22.57-89.74,9.4-148.92,29.51-47.88,67.08-75,67.08-75C1766.05,935.27,1741.18,1013.31,1710.25,1065.65Z"/><polygon class="cls-13" points="1782.15 1065.33 1750.99 1235.84 1579.8 1236.63 1552.93 1066.39 1603.1 1066.15 1629.88 1066.03 1652.89 1065.92 1710.25 1065.65 1782.15 1065.33"/></g><g class="cls-14"><path class="cls-8" d="M1428.16,853.83c0,192.05-156.36,347.72-349.25,347.72a348.72,348.72,0,0,1-251.36-106.33c55-118.36,139.74-227.22,234.09-316.3q17.08-16.14,34.53-31.36a1134.4,1134.4,0,0,1,112.6-86.76,1042.77,1042.77,0,0,1,106.58-62.87C1384.71,661.46,1428.16,752.6,1428.16,853.83Z"/><g class="cls-15"><rect class="cls-2" x="1071.23" y="1118.03" width="15.35" height="64.11"/></g><g class="cls-15"><polygon class="cls-2" points="1402.24 862.57 1402.24 847.04 1338.92 847.04 1338.92 862.58 1402.24 862.57"/></g><g class="cls-15"><polygon class="cls-2" points="1302.12 1091.75 1312.97 1080.77 1268.19 1035.45 1257.34 1046.42 1302.12 1091.75"/></g><g class="cls-15"><polygon class="cls-2" points="1257.31 663.19 1268.16 674.18 1312.94 628.85 1302.09 617.86 1257.31 663.19"/><polygon class="cls-2" points="844.84 1080.78 855.68 1091.78 900.46 1046.43 889.62 1035.46 844.84 1080.78"/></g><path class="cls-16" d="M1096.17,747.56V860.43h-34.53V778.92Q1078.72,762.78,1096.17,747.56Z"/><polygon class="cls-16" points="1219.65 1006.87 1237.87 988.42 1087.09 835.73 1068.9 854.18 1219.65 1006.87"/></g><circle class="cls-2" cx="2885.98" cy="1118.03" r="143.62"/><circle class="cls-17" cx="2529.39" cy="1874.69" r="74.03"/><circle class="cls-2" cx="3439.77" cy="2156.85" r="143.62"/><g class="cls-18"><circle class="cls-19" cx="1222.96" cy="1121.89" r="82.41" transform="translate(-435.1 1193.36) rotate(-45)"/><circle class="cls-20" cx="1463.3" cy="1010.53" r="30.48" transform="translate(-81.35 129.36) rotate(-4.93)"/></g><circle class="cls-19" cx="3201.33" cy="844.14" r="39.87" transform="translate(1180.91 3466.92) rotate(-67.16)"/><path class="cls-21" d="M3064.5,993.06a10,10,0,1,1-4.24,13.44A10,10,0,0,1,3064.5,993.06Z"/><path class="cls-21" d="M1922.36,1785.59a10,10,0,1,1-4.24,13.45A10,10,0,0,1,1922.36,1785.59Z"/><circle class="cls-22" cx="1974.5" cy="1628.18" r="93" transform="translate(-572.98 1873.07) rotate(-45)"/><circle class="cls-2" cx="2074.66" cy="1948.6" r="19.94" transform="translate(-770.41 1865.86) rotate(-41.54)"/><circle class="cls-2" cx="1632.55" cy="2178.86" r="19.94" transform="translate(-324.16 285.73) rotate(-9.1)"/><path class="cls-23" d="M3235.82,2498.12c16.94-6.35,315.48-150.33,256.2-431.92-29.66-140.91-84.88-274.34-118.24-414.14-33.63-140.9-6.74-279.35-32.45-420.5-5.4-29.65-12.37-59.24-24.61-86.79-34.55-77.71-104.77-120.84-188-128.81-49.62-4.76-103.56-1.33-151.53,12.79-54.95,16.19-106.31,35-152.56,69.46-38,28.33-82.27,62.52-99.88,108.36-3.34,8.69-3.51,17.61-7.7,26-6.14,12.33-14,23.84-20.18,36.24A398.44,398.44,0,0,0,2669,1342c-16.2,60-16,121.68-8.77,182.92,1.36,11.45.51,72.35,3.89,77.63Z"/><path class="cls-24" d="M3125.47,1786.47c17.21,69.71,57.09,138.15,103.08,184.94,59.45,60.49,141.79,91.24,156,185.89,10.66,70.82-7.88,142.42-26.27,211.63-3.42,12.9-7,26.11-14.73,37-18.53,26-54.87,31.31-86.8,30a356.06,356.06,0,0,1-158.61-45c-36.64-20.54-69.3-47.39-101.58-74.27-37-30.79-74.08-62.19-102.74-100.83-43.86-59.14-65.34-131.7-81.34-203.57-37-166.22-18.73-300,137.91-389.83,44-25.24,141.72-53.93,172.22,9.2,9.1,18.82-2.35,38.12-4.64,57.28C3114.25,1720.26,3117.33,1753.5,3125.47,1786.47Z"/><path class="cls-25" d="M3025.3,1999.5v155.17l-261.78,100.72s-266.78-196-278.28-198.73-2.3-66.71,119.31-102.35c1.25-.38,2.52-.74,3.79-1.1,61.79-17.44,93.76-88.56,110.27-156.17,1.8-7.35,3.41-14.65,4.87-21.83.51-2.52,1-5,1.46-7.52.32-1.56.59-3.13.87-4.67.34-1.87.68-3.73,1-5.57.21-1.29.42-2.59.63-3.86.13-.82.28-1.65.4-2.47,29.69,11.09,78.32,20.56,148.26,8.21a504.1,504.1,0,0,0,73.72-19.22c-.23,1.75-.47,3.47-.7,5.21-.3,2.09-.55,4.19-.8,6.26-.19,1.51-.38,3-.53,4.49q-.32,2.51-.57,5c-.32,2.94-.62,5.84-.89,8.72-4.26,45.31-2.4,81.92,3,111.43a236,236,0,0,0,12.11,43.64c1.06,2.73,2.14,5.36,3.29,7.9C2988.8,1987.36,3025.3,1999.5,3025.3,1999.5Z"/><path class="cls-26" d="M2965.87,1920.78c-.47,4-.83,8-1.14,12-2.29,28.54-1.87,57.57-11,84.63-17.58,52.17-69.92,88.14-124.54,95.06s-110.23-11.94-155.84-42.81c-21.27-14.4-41.22-31.95-53.33-54.6-8.6-16.07-12.94-34.13-14.8-52.26-.3-2.81-.51-5.63-.68-8.45,1.25-.38,2.52-.74,3.79-1.1,61.79-17.44,93.76-88.56,110.27-156.17,1.8-7.35,3.41-14.65,4.87-21.83.51-2.52,1-5,1.46-7.52.32-1.56.59-3.13.87-4.67.34-1.87.68-3.73,1-5.57.21-1.29.42-2.59.63-3.86a25.15,25.15,0,0,1,13.53,2.29c21.13,10.35,17.64,46.52,13.89,64.92-8.41,41.16-36.52,81.68-21.64,125,15.16,44.12,71.54,62.21,116.77,50.75,43.28-11,78.42-41.37,111.45-71.67C2962.93,1923.49,2964.41,1922.13,2965.87,1920.78Z"/><path class="cls-27" d="M2974.53,2171.34l43.32,49.2-169.55,255-67.19,101-52.42,6.33q-34.62-4.67-68.16-10.38c-50.68-8.61-100.38-21.13-149.56-35.52v2.75l-13.62-6.8-5.35-2.67-8-247.59-4.82-150-2.48-76.56-.57-17.83-1.61-49.72-.36-10.9,43.34,12.53,56.72,16.39,113,32.69,345.52,27-39.84,25.7-33.75,61.91.8.91Z"/><path class="cls-28" d="M2848.3,2475.57l-67.19,101-52.42,6.33q-34.62-4.67-68.16-10.38c-50.68-8.61-100.38-21.13-149.56-35.52v2.75l-13.62-6.8-5.35-2.67-8-247.59-4.82-150c20-12.83,42.58-20.94,66.54-22,31.95-1.47,63.29,14.84,53.42,48.67-3.75,12.81-16.53,23.78-21.17,37-8.19,23.44-9.08,51.75-13.09,76.23-6.81,41.94-13.67,84.31-11.22,126.74s15,85.56,42.94,117.61c9.53,11,21.51,20.86,35.85,23.15,20,3.19,39.19-9.09,54.33-22.62,59-52.68,89.73-129.62,138.68-191.76,33.47-42.47,75.65-78.21,103.77-124.41C2935.36,2297.87,2890,2386.37,2848.3,2475.57Z"/><path class="cls-29" d="M3054.94,2026.91l-29.64,53.49-21.23,38.28-150,131.84-100.64-106.71-169.61,87.11-84.4-122.77,131.08-114.05,32.12,32.9a155.93,155.93,0,0,0,204.89,16c44.08-32.91,87.47-65.3,99.81-74.56C2985.67,1954.73,3028.35,1997,3054.94,2026.91Z"/><path class="cls-2" d="M3054.94,1996.93l-29.64,53.49-21.23,38.28-150,131.84-100.64-106.71-120.81,62-48.8,25.07-54.46-79.21-29.94-43.55,131.08-114.06,26.81,27.46,5.31,5.44a156,156,0,0,0,204.89,16c44.08-32.91,87.47-65.3,99.81-74.55C2985.67,1924.76,3028.35,1967,3054.94,1996.93Z"/><path class="cls-30" d="M3054.94,1996.93l-29.64,53.49-21.23,38.28-150,131.84-100.64-106.71-120.81,62-48.8,25.07-54.46-79.21-29.94-43.55,131.08-114.06,26.81,27.46,5.31,5.44a156,156,0,0,0,204.89,16c44.08-32.91,87.47-65.3,99.81-74.55C2985.67,1924.76,3028.35,1967,3054.94,1996.93Z"/><path class="cls-31" d="M2739.93,2040.19c-2.5,21.62-10.67,43-19.9,55.07-17,22.13-43.24,34.87-64,53.51a144,144,0,0,0-23.4,27.1l-48.8,25.07-54.46-79.21c12.11-24,32.29-45.44,52.47-63.75,15.2-13.81,45.39-46,75.48-66.4l5.31,5.44A155.18,155.18,0,0,0,2739.93,2040.19Z"/><path class="cls-2" d="M2504.81,2533c-21.51-6.46-43-13.25-64.35-20.18-15.84-5.14-31.65-10.39-47.47-15.62q-18.39-6.11-36.73-12.2l-3.73-1.23c-6.82-2.26-13.66-4.51-20.47-6.73l-12.47-4.06q-10.43-3.37-20.84-6.69c-2.43-.79-4.89-1.57-7.32-2.33-.77-.24-1.51-.49-2.27-.7l-.36-.13-5.06-1.57-4.7-1.48q-3.27-1-6.54-2c-1.48-.47-3-.93-4.49-1.38-.57-.19-1.14-.36-1.72-.52-1.35-.43-2.71-.83-4.06-1.23-3.28-1-6.59-2-9.89-3a.65.65,0,0,0-.19,0c-4.13-1.25-8.28-2.46-12.41-3.66-2.94-.87-5.88-1.72-8.85-2.57q-3.3-.91-6.65-1.88l-8.42-2.35c-1.17-.32-2.35-.66-3.52-1s-2.37-.66-3.55-1l-1.38-.38c-2-.55-4-1.1-6.08-1.63l-1.46-.38-2.26-.61-2.4-.62c-.44-.12-.89-.23-1.33-.36q-9.18-2.39-18.4-4.66c-1.67-.42-3.37-.82-5.06-1.24-1.21-.3-2.43-.6-3.66-.87l-1.78-.45c-1.12-.27-2.25-.53-3.37-.78-1.71-.42-3.45-.81-5.16-1.21-27.57-6.35-55.37-11.77-83.51-15.9a614.77,614.77,0,0,0-81.16-6.56c-5.84-.09-11.64-.11-17.42,0l137.56-294.2a191.22,191.22,0,0,1,108.51-99l29.9-10.76a185.21,185.21,0,0,1,22.27-6.5,188.37,188.37,0,0,1,21.26-3.62c.51-.06,1-.11,1.5-.15a185.86,185.86,0,0,1,19.76-1H2482l1.61,49.72.57,17.83,5.44,168.91,1.87,57.66,8,247.59Z"/><path class="cls-2" d="M3362.29,2570.79q-16.71,3.16-33.52,6h0l-.06,0q-8.07,1.36-16.18,2.65c-2.12.33-4.23.67-6.37,1l-4.15.64-3.81.57c-.6.08-1.19.19-1.78.25s-1.17.19-1.76.28l-7.9,1.14c-2.77.4-5.52.78-8.3,1.16-3.68.51-7.36,1-11.07,1.51l-1.46.19c-1.46.19-2.94.38-4.4.55-2.06.27-4.11.53-6.17.78l-.16,0h0c-2.94.38-5.9.74-8.85,1.08-.63.09-1.29.15-1.92.24l-6.1.69c-1.57.2-3.14.36-4.7.56-2.82.29-5.61.61-8.43.91l-3.66.38-8,.82c-2.82.3-5.66.57-8.49.83l-3.88.38h-.06c-2.58.25-5.19.49-7.77.7-1,.1-2,.19-3,.27-1.27.13-2.54.24-3.81.32q-6.76.6-13.53,1.12c-.36.05-.72.07-1.08.09-1.08.1-2.14.17-3.22.25s-2.16.17-3.24.23c-2.51.22-5.06.39-7.58.58h-.08q-10.77.75-21.55,1.39c-.45,0-.91.07-1.38.09-1.93.1-3.85.23-5.8.32-1.21.08-2.44.14-3.64.21l-3.88.19-6,.32c-.27,0-.57,0-.87,0-4,.19-8.09.38-12.13.53-2.67.12-5.36.23-8,.32q-.77.06-1.53.06l-1.48.06-9.19.32-12.43.36-5.31.13c-.34,0-.68,0-1,0l-2.94.06c-1.31,0-2.61.07-3.9.07q-5.86.12-11.69.19c-.31,0-.63,0-.93,0-2.66,0-5.31.06-8,.08-1.08,0-2.14,0-3.17,0-4.81,0-9.62.07-14.4.07-2,0-4,0-5.93,0-3.54,0-7.09,0-10.63,0-1.65,0-3.32,0-5,0-4.49,0-9-.11-13.45-.19a2.18,2.18,0,0,1-.51,0c-.55,0-1.1,0-1.65,0l-3.32-.06c-3,0-6-.11-8.92-.2l-1.54,0-7.58-.19-2.9-.08q-7.15-.2-14.29-.47c-.87,0-1.74-.06-2.59-.1-2.24-.07-4.47-.15-6.69-.26-2.54-.08-5.08-.19-7.6-.3a1.23,1.23,0,0,0-.27,0c-4.7-.21-9.41-.42-14.08-.67-3.07-.15-6.12-.32-9.17-.49-30-1.63-59.67-3.9-88.91-6.75l-4.53-.45c-.53,0-1.06-.11-1.57-.15-1.86-.17-3.74-.36-5.59-.55-.46-.06-.93-.1-1.39-.15-4.07-.44-8.13-.86-12.18-1.31-.36,0-.72-.06-1.08-.11-3.36-.36-6.75-.74-10.12-1.14q-16.74-1.93-33.28-4.11c-2.56-.31-5.13-.65-7.69-1l-.34-.87-2.22-5.46,33.33-60.13,125.32-226.05,25.47-45.94,12.05-21.75,22.06-39.78v0l12.73-23,2.87-5.19,4.22-7.6,0,0,18.67-33.69,13.75-24.79,3.38-6.1,9.72-17.53,8.13-14.65v0l19.31-34.81,10.33-18.66,4.18-7.51c2.83.95,8,2.73,15.05,5.23,29.93,10.56,59.47,22.51,88.34,35.75,2.42,1.1,4.86,2.22,7.3,3.35,1.75.79,3.51,1.61,5.27,2.44,5.67,2.69,11.35,5.38,17,8.13l0,0h0c3,1.46,6,2.94,9,4.45,2,1,4,2,6,3l1.12.57c1.88,1,3.77,2,5.65,3s4,2.14,6,3.24c.12.06.25.15.38.21,2,1.1,4,2.23,6,3.37s4.2,2.39,6.25,3.62c.25.15.51.3.74.42,2.29,1.36,4.55,2.73,6.78,4.13l0,0c2.24,1.4,4.47,2.82,6.65,4.28q3,1.93,5.82,3.94l.74.51a1.15,1.15,0,0,0,.19.14,2.18,2.18,0,0,1,.34.26l.32.19a1.5,1.5,0,0,1,.23.17c.93.65,1.84,1.29,2.73,2,1.23.89,2.44,1.8,3.64,2.71,1.46,1.1,2.92,2.22,4.36,3.36,1.27,1,2.52,2,3.75,3s2.29,1.9,3.41,2.9c.74.61,1.46,1.25,2.18,1.88,1.08,1,2.14,1.91,3.2,2.88l.89.83c1,1,2.05,2,3.05,2.92,1.27,1.23,2.5,2.48,3.74,3.75a1,1,0,0,1,.09.1c1.14,1.17,2.26,2.38,3.34,3.58.32.32.6.64.89,1,1,1.08,2,2.2,2.93,3.32,1.12,1.29,2.2,2.61,3.26,3.94.36.42.7.87,1,1.29.74.95,1.49,1.91,2.21,2.88.23.32.46.61.72.93,1,1.31,1.92,2.65,2.85,4l.13.17c.85,1.21,1.67,2.46,2.48,3.71.59.91,1.18,1.84,1.73,2.75s1.15,1.84,1.7,2.77c2,3.35,3.87,6.78,5.61,10.34.38.74.74,1.46,1.08,2.22a157.13,157.13,0,0,1,6.27,15.1c.29.82.59,1.65.86,2.49.45,1.3.87,2.61,1.27,3.94.36,1.13.7,2.27,1,3.43a646.16,646.16,0,0,1,16,71.67v0c5.86,34.88,9.46,70.36,12.13,105.7q1.08,14.84,2,29.6,1.18,18.93,2.25,37.69c2.69,46.79,4,90.3,4.64,123.37.06,2.63.1,5.19.14,7.67.11,6.9.22,13.25.28,19C3362.27,2569.39,3362.29,2570.09,3362.29,2570.79Z"/><path class="cls-2" d="M2504.81,2533c-21.51-6.46-43-13.25-64.35-20.18-15.84-5.14-31.65-10.39-47.47-15.62q-18.39-6.11-36.73-12.2l-3.73-1.23c-6.82-2.26-13.66-4.51-20.47-6.73l-12.47-4.06q-10.43-3.37-20.84-6.69c-3.2-1-6.39-2-9.59-3-1.8-.57-3.62-1.15-5.42-1.7l-.68-.23c-1.35-.42-2.69-.82-4-1.25q-3.27-1-6.54-2l-3.6-1.12-.89-.26c-.57-.19-1.14-.36-1.72-.52-1.35-.43-2.71-.83-4.06-1.23-3.28-1-6.59-2-9.89-3a.65.65,0,0,0-.19,0c-4.13-1.25-8.28-2.46-12.41-3.66-2.94-.87-5.88-1.72-8.85-2.57q-3.3-.91-6.65-1.88l-8.42-2.35c-1.17-.32-2.35-.66-3.52-1s-2.37-.66-3.55-1l-1.38-.38c-2-.55-4-1.1-6.08-1.63l-1.46-.38-2.26-.61-2.4-.62c-.44-.12-.89-.23-1.33-.36q-9.18-2.39-18.4-4.66c-1.67-.42-3.37-.82-5.06-1.24-1.21-.3-2.43-.6-3.66-.87-1.72-.43-3.43-.83-5.15-1.23s-3.45-.81-5.16-1.21c-27.57-6.35-55.37-11.77-83.51-15.9a614.77,614.77,0,0,0-81.16-6.56c-5.84-.09-11.64-.11-17.42,0l137.56-294.2a191.22,191.22,0,0,1,108.51-99l29.9-10.76a185.21,185.21,0,0,1,22.27-6.5,188.37,188.37,0,0,1,21.26-3.62c.51-.06,1-.11,1.5-.15a185.86,185.86,0,0,1,19.76-1H2482l1.61,49.72.57,17.83,5.44,168.91,1.87,57.66,8,247.59Z"/><path class="cls-32" d="M2403.32,2238c-10.69,30.34-27.2,58.29-45.11,85a864.12,864.12,0,0,1-105.87,128.9.65.65,0,0,0-.19,0c-4.13-1.25-8.28-2.46-12.41-3.66-2.94-.87-5.88-1.72-8.85-2.57q-3.3-.91-6.65-1.88l-8.42-2.35c-1.17-.32-2.35-.66-3.52-1s-2.37-.66-3.55-1l-1.38-.38c-2-.55-4-1.1-6.08-1.63l-1.46-.38-2.26-.61-2.4-.62c-.44-.12-.89-.23-1.33-.36q-9.18-2.39-18.4-4.66c-1.67-.42-3.37-.82-5.06-1.24-1.21-.3-2.43-.6-3.66-.87-1.72-.43-3.43-.83-5.15-1.23s-3.45-.81-5.16-1.21c-27.57-6.35-55.37-11.77-83.51-15.9a614.77,614.77,0,0,0-81.16-6.56c20-8.15,42.71-9.47,64.54-9.21,27,.32,54.56,2.56,80.6-4.55,65.75-18,101.34-87.75,124.46-151.84,28.77-79.69,50.73-165.8,34-248.61a185.86,185.86,0,0,1,19.76-1h36.14c3.83,3.84,7.43,7.94,10.84,12.11,23.78,29.24,40.14,64.12,48.42,100.85C2420.67,2146.63,2418.68,2194.44,2403.32,2238Z"/><path class="cls-28" d="M2504.81,2533c-21.51-6.46-43-13.25-64.35-20.18-15.84-5.14-31.65-10.39-47.47-15.62-24.49-8.13-49-16.3-73.49-24.24,11.5-19,23.44-37.76,34.05-56.47,12.6-22.21,25.21-44.47,35.59-67.8,4.38-9.87,8.45-20,12.6-30.21,13.55-33.33,27.82-66.55,55.89-88,8.3-6.35,19.42-11.52,28.95-7.18a17,17,0,0,1,3,1.78l1.87,57.66,8,247.59Z"/><path class="cls-2" d="M3362.29,2570.79q-16.71,3.16-33.52,6h0l-.06,0q-8.07,1.36-16.18,2.65c-2.12.33-4.23.67-6.37,1l-4.15.64-3.81.57c-.6.08-1.19.19-1.78.25s-1.17.19-1.76.28l-7.9,1.14c-2.77.4-5.52.78-8.3,1.16-4.17.58-8.34,1.13-12.49,1.68l-4.44.57c-2.06.27-4.11.53-6.17.78l-.16,0h0c-2.94.38-5.9.74-8.85,1.08-.63.09-1.29.15-1.92.24l-6.1.69c-1.55.2-3.11.36-4.66.53-2.82.32-5.63.64-8.47.94l-3.66.38-8,.82c-2.82.3-5.66.57-8.49.83q-1.9.2-3.81.36l-.07,0h-.06c-2.58.25-5.19.49-7.77.7-1,.1-2,.19-3,.27-1.27.13-2.54.24-3.81.32q-6.76.6-13.53,1.12c-.36.05-.72.07-1.08.09-1.08.1-2.14.17-3.22.25s-2.16.17-3.24.23q-3.74.3-7.49.56l-.09,0h-.08q-10.77.75-21.55,1.39c-.45,0-.91.07-1.38.09-1.93.1-3.85.23-5.8.32-1.21.08-2.44.14-3.64.21l-5.59.29-4.26.22c-.27,0-.57,0-.87,0-4,.19-8.09.38-12.13.53-2.67.12-5.36.23-8,.32q-.77.06-1.53.06l-1.48.06-9.19.32-12.43.36-5.31.13c-.34,0-.68,0-1,0l-2.94.06c-1.31,0-2.61.07-3.9.07q-5.86.12-11.69.19c-.31,0-.63,0-.93,0-2.66,0-5.31.06-8,.08-1.08,0-2.14,0-3.17,0-4.81,0-9.62.07-14.4.07-2,0-4,0-5.93,0-3.56,0-7.09,0-10.63,0-1.65,0-3.32,0-5,0-1.32,0-2.63,0-3.94,0l-9.51-.15a2.18,2.18,0,0,1-.51,0c-.55,0-1.1,0-1.65,0l-3.32-.06c-3,0-6-.11-8.92-.2l-1.54,0-7.58-.19-2.9-.08q-7.15-.2-14.29-.47c-.87,0-1.74-.06-2.59-.1-2.24-.07-4.47-.15-6.69-.26-2.54-.08-5.08-.19-7.6-.3a1.23,1.23,0,0,0-.27,0c-4.7-.21-9.41-.42-14.08-.67-3.07-.15-6.12-.32-9.17-.49-30-1.63-59.67-3.9-88.91-6.75l-4.53-.45c-.53,0-1.06-.11-1.57-.15l-2.94-.29-2.65-.26c-.46-.06-.93-.1-1.39-.15-4.07-.44-8.13-.86-12.18-1.31-3.74-.4-7.47-.83-11.2-1.25q-16.74-1.93-33.28-4.11c-2.56-.31-5.13-.65-7.69-1l-.34-.87-2.22-5.46,33.33-60.13,125.32-226.05,25.47-45.94,12.05-21.75,22.06-39.78v0l12.73-23,2.87-5.19,4.22-7.6,0,0,18.67-33.69,13.75-24.79,3.38-6.1,9.72-17.53,8.13-14.65v0l19.31-34.81,10.33-18.66,4.18-7.51c2.83.95,8,2.73,15.05,5.23,29.93,10.56,59.47,22.51,88.34,35.75,2.42,1.1,4.86,2.22,7.3,3.35,1.75.79,3.51,1.61,5.27,2.44,5.67,2.69,11.35,5.38,17,8.13l0,0h0c3,1.46,6,2.94,9,4.45,2,1,4,2,6,3l1.12.57c1.88,1,3.77,2,5.65,3s4,2.14,6,3.24c.12.06.25.15.38.21,2,1.1,4,2.23,6,3.37s4.2,2.39,6.25,3.62c.25.15.51.3.74.42,2.29,1.36,4.55,2.73,6.78,4.13l0,0c2.24,1.4,4.47,2.82,6.65,4.28q3,1.93,5.82,3.94l.74.51a1.15,1.15,0,0,0,.19.14l.66.45a1.5,1.5,0,0,1,.23.17c.93.65,1.84,1.29,2.73,2,1.23.89,2.44,1.8,3.64,2.71,1.46,1.1,2.92,2.22,4.36,3.36,1.27,1,2.52,2,3.75,3s2.29,1.9,3.41,2.9c.74.61,1.46,1.25,2.18,1.88,1.08,1,2.14,1.91,3.2,2.88l.89.83c1,1,2.05,2,3.05,2.92,1.27,1.23,2.5,2.48,3.74,3.75a1,1,0,0,1,.09.1c1.14,1.17,2.26,2.38,3.34,3.58.32.32.6.64.89,1,1,1.08,2,2.2,2.93,3.32,1.12,1.29,2.2,2.61,3.26,3.94.36.42.7.87,1,1.29.74.95,1.49,1.91,2.21,2.88.23.32.46.61.72.93,1,1.31,1.92,2.65,2.85,4l.13.17c.85,1.21,1.67,2.46,2.48,3.71.59.91,1.18,1.84,1.73,2.75s1.15,1.84,1.7,2.77c2,3.35,3.87,6.78,5.61,10.34.38.74.74,1.46,1.08,2.22a157.13,157.13,0,0,1,6.27,15.1c.29.82.59,1.65.86,2.49.45,1.3.87,2.61,1.27,3.94.36,1.13.7,2.27,1,3.43a646.16,646.16,0,0,1,16,71.67v0c5.86,34.88,9.46,70.36,12.13,105.7q1.08,14.84,2,29.6,1.18,18.93,2.25,37.69c2.69,46.79,4,90.3,4.64,123.37.06,2.63.1,5.19.14,7.67.11,6.9.22,13.25.28,19C3362.27,2569.39,3362.29,2570.09,3362.29,2570.79Z"/><path class="cls-32" d="M3277.6,2098.54c-15.08,31.32-30.7,64-52.62,89-13.67,15.62-28.6,30.36-43.65,45-15.84,15.41-31.79,30.74-46.59,46.9-56.82,62.1-111.32,129.56-161.21,195.36-15.28,20.18-30.78,40.78-39.38,64.58-7.09,19.65-9.08,39.85-8.42,60.38-62.17-2.73-123.13-8.15-181.9-15.88,21.7-33.34,48.23-64.36,74.25-94.41q121.74-140.57,243.49-281.13c52.11-60.15,95.45-113.36,164.66-146.22C3244.91,2072.76,3262.42,2084.53,3277.6,2098.54Z"/><path class="cls-2" d="M3059.12,1989.42l-91.71,165.38-.8-.91,22.8-41.84,11-20.07,24.94-45.8,27.89-51.19,3.47-6.38Z"/><path class="cls-33" d="M3257.15,2081.71l-468.58,494.9h-55l33.33-60.13,125.32-226.05,111.84-201.73,21.23-38.28,29.64-53.49,4.18-7.51c12.72,4.28,73.08,25.13,133.13,55.13C3214.78,2055.77,3237.24,2068.31,3257.15,2081.71Z"/><path class="cls-33" d="M2504.81,2533c-21.51-6.46-43-13.25-64.35-20.18-4.42-22.23-10.1-50.66-16.53-83-6.74-33.8-14.32-71.8-22.19-111.35l-32.69-163.94c-13.15-65.87-25.07-125.56-33.16-165.92H2482l1.61,49.72.57,17.83,5.44,168.91,1.87,57.66,8,247.59Z"/><path class="cls-26" d="M2949.33,1881.2A450.36,450.36,0,0,1,2718.61,1797c1.8-7.35,3.41-14.65,4.87-21.83.51-2.52,1-5,1.46-7.52.3-1.56.59-3.13.87-4.67.34-1.87.68-3.73,1-5.57.36-2.12.69-4.24,1-6.33,39.19,14.65,111.37,26.44,222-11-.23,1.75-.47,3.47-.7,5.21-.27,2.09-.55,4.19-.8,6.26-.19,1.51-.38,3-.53,4.49q-.32,2.51-.57,5c-.32,2.94-.62,5.84-.89,8.72C2942.07,1815.08,2943.93,1851.69,2949.33,1881.2Z"/><path class="cls-25" d="M3191.34,1620.56a82.2,82.2,0,0,1-4.21,9.47c-23,44.29-90.52,54.5-111.94,56.61-1.25.15-2.35.24-3.27.32a16.87,16.87,0,0,0-6.54,2q-15.84,8.55-30.93,15.92a705.36,705.36,0,0,1-83.38,34.85c-.42.15-.83.28-1.23.43h0a504.1,504.1,0,0,1-73.72,19.22c-41.71,7.37-75.87,7-102.93,3.09a215.2,215.2,0,0,1-45.33-11.3c-20.79-7.77-32.29-16.35-35.33-18.78a19,19,0,0,0-1.91-1.32c-.57-.34-1.12-.67-1.67-1.06-61.07-39.06-62.53-178.67-55.54-274.74,2.35-32.35,17.15-65.55,38.68-91a139.38,139.38,0,0,1,28.38-26c15.94-11.45,33.81-22.38,42.36-39.53,11.6-23.24,15.31-47.87,28.1-70.84,12.19-21.89,26.27-36.29,45.71-52.76,8.43-7.16,17.13-14.15,27-19a137.28,137.28,0,0,1,15.62-6.56,155.63,155.63,0,0,1,56.6-8.55c18.65.55,37.75,5.65,52.09,17.63,3.81,3.18,8,7.05,12.78,7a7.85,7.85,0,0,0,1.17-.08c4.11-.6,7-4,9.76-7.2l.59-.7c21.53-25.22,51.3-6.63,71,11.14,14.82,13.4,16.05,35.8,17.17,55.77,3.31,58.28,15,116.79,41,169,9.11,18.27,20,35.91,25.35,55.6,7.81,28.84-7.39,46.69-10.71,72.69-.51,3.91,2.13,50.81,6.64,46.75a22.34,22.34,0,0,1,7.63-4.51C3172.14,1556.28,3206.56,1579.17,3191.34,1620.56Z"/><path class="cls-26" d="M3075.19,1686.64c-1.25.15-2.35.24-3.27.32a16.87,16.87,0,0,0-6.54,2q-15.84,8.55-30.93,15.92a705.36,705.36,0,0,1-83.38,34.85l63-54.94a44.53,44.53,0,0,1,56.72-1.48Z"/><g class="cls-34"><path class="cls-35" d="M3161.16,1578.23c-6.49,2.83-12.08,7.59-16.78,12.83s-9.18,10.87-12.21,17.45c-6.14,13-7.35,28.22-2.93,41.54a66.94,66.94,0,0,1,0-20.62,64.27,64.27,0,0,1,6.18-19.33c2.88-6.13,7.34-11.31,11.61-16.78A108.68,108.68,0,0,1,3161.16,1578.23Z"/></g><g class="cls-34"><path class="cls-35" d="M3128.87,1629.25a42.31,42.31,0,0,0,35.31-.9,40.43,40.43,0,0,1-33.64-2.49,1.89,1.89,0,1,0-1.86,3.3Z"/></g><path class="cls-26" d="M2757.23,1750.92c-1.68,3.5-4.17,6.65-7.85,6.95-6,.51-15.87-4.63-21.54-6.75-20.79-7.77-32.29-16.35-35.33-18.78a19,19,0,0,0-1.91-1.32c-.57-.34-1.12-.67-1.67-1.06,6.16-9.63,20.73-16.89,27.5-25.85,7.09-9.37,16.11-34,31.07-29.86,13.55,3.77,15,17.89,16,30.09a115.89,115.89,0,0,1-4.09,40.63A37.55,37.55,0,0,1,2757.23,1750.92Z"/><path class="cls-36" d="M2949.82,1740.11c-1.44,10.29-2.6,20.15-3.49,29.66-106.57,29.49-178.51,20.58-222.85,5.44,1.65-8.21,3.11-16.28,4.36-24.09C2767,1765.77,2839.21,1777.56,2949.82,1740.11Z"/><path class="cls-23" d="M3141,1571.93c.61-23.63-4.15-47.64-17.53-70.4A132.39,132.39,0,0,0,3112,1485c-.82-1-1.61-2-2.39-3-36.29-46.52-38.62-87.26-35.72-128.31,3.09-44.06,12.22-88.51-8.17-140.89-16.07-41.35-49.63-44.69-75.91-39.72a7.09,7.09,0,0,1-6.92-2.39,8,8,0,0,1-1.91-5.29,7.35,7.35,0,0,1,2.65-5.44l2.69-2.31,13.95-11.94,94.48-80.88s-5.64,47.91-1.25,118.25a824.05,824.05,0,0,0,14.9,113.84,686.74,686.74,0,0,0,32.63,112c66.67,171.06-63.31,323.8-63.31,323.8C3082.38,1719,3139,1647.48,3141,1571.93Z"/><path class="cls-37" d="M2980.75,1165.62c-4.82,0-9-3.83-12.78-7-14.34-12-33.44-17.08-52.09-17.63a155.63,155.63,0,0,0-56.6,8.55,137.28,137.28,0,0,0-15.62,6.56c-9.91,4.87-18.61,11.86-27,19-19.44,16.47-33.52,30.87-45.71,52.76-12.79,23-16.5,47.6-28.1,70.84-8.55,17.15-26.42,28.08-42.36,39.53A1128.45,1128.45,0,0,0,2767,1226.49c18-34.72,43.19-68.79,78.3-88.25a125,125,0,0,1,77.37-14.31c15,2.14,29.87,7.2,41.54,16.81C2969,1144.7,2978.34,1156.39,2980.75,1165.62Z"/><path class="cls-37" d="M2970.7,1181.18l-1,1.89c.3,1.46-2.71.4-2-.91C2968.22,1181.14,2969.49,1181,2970.7,1181.18Z"/><path class="cls-24" d="M3123.42,1501.53A132.39,132.39,0,0,0,3112,1485c-.82-1-1.61-2-2.39-3-36.29-46.52-38.62-87.26-35.72-128.31,3.09-44.06,12.22-88.51-8.17-140.89-16.07-41.35-49.63-44.69-75.91-39.72a7.09,7.09,0,0,1-6.92-2.39,8,8,0,0,1-1.91-5.29c.11-.19.24-.36.34-.55a20.07,20.07,0,0,1,8.62-7.44l-3.62.24-5.72.36a56.64,56.64,0,0,1,19.67-12.3c20.65-7.77,45.82-4.64,64.73,7.53a91.66,91.66,0,0,1,28.5,29.84,126.47,126.47,0,0,1,16.56,46.34c3.42,22.36,1.84,45.08-1.66,67.5-1.2,7.73-2.64,15.42-4.19,23-3.6,17.85-7.77,35.7-8.24,53.88C3094.81,1417.49,3115,1458.61,3123.42,1501.53Z"/><path class="cls-37" d="M3087.66,1281.78c-3.37,24.43-9.51,48-13.81,71.88,3.09-44.06,12.22-88.51-8.17-140.89-16.07-41.35-49.63-44.69-75.91-39.72a7.09,7.09,0,0,1-6.92-2.39c23.1-11.52,52.89-9.38,73.55,6.35C3086.85,1200.17,3092.89,1243.9,3087.66,1281.78Z"/><path class="cls-37" d="M3144.12,1563.57a30.73,30.73,0,0,1-3.17,8.36c.76-29.43-6.82-59.48-29-86.94-.82-1-1.61-2-2.39-3,1.61,1.8,3.26,3.64,4.91,5.5C3133.28,1508.64,3150.5,1536,3144.12,1563.57Z"/><path class="cls-24" d="M2991.68,1158.34c-2.71,3.19-5.65,6.6-9.76,7.2a7.85,7.85,0,0,1-1.17.08c-4.82,0-9-3.83-12.78-7-14.34-12-33.44-17.08-52.09-17.63a155.63,155.63,0,0,0-56.6,8.55,137.28,137.28,0,0,0-15.62,6.56c-9.91,4.87-18.61,11.86-27,19-19.44,16.47-33.52,30.87-45.71,52.76-12.79,23-16.5,47.6-28.1,70.84-8.55,17.15-26.42,28.08-42.36,39.53a139.38,139.38,0,0,0-28.38,26c4.41-29.72,26-54.84,40.27-81.92,13-24.71,20.22-52.25,34.37-76.35,18.91-32.18,48.84-56.13,78.11-79.31,14.58-11.56,29.59-23.33,47.3-29,14.82-4.76,30.65-4.95,46.22-5.12,11.37-.13,23.14-.15,33.53,4.47,11.88,5.27,20.48,16,26.53,27.54A181,181,0,0,1,2991.68,1158.34Z"/><path class="cls-37" d="M3192.25,2044.55c-60.05-30-120.41-50.85-133.13-55.13l-4.18,7.51c-26.59-29.89-69.27-72.17-87.59-58.45-7.35-15.23-13.78-34.07-18-57.28-5.4-29.51-7.26-66.12-3-111.43.27-2.88.57-5.78.89-8.72q.26-2.47.57-5c.15-1.48.34-3,.53-4.49.25-2.07.5-4.17.8-6.26.23-1.74.47-3.46.7-5.21h0a706.22,706.22,0,0,0,84.61-35.28c-.11.4-.19.81-.3,1.21-7.39,30.13-30.15,52.06-35,83.7-5,32.77,1.89,67.67,17.64,96.69,28.25,52.07,78.51,88,128.31,120.1C3161.85,2017.3,3179.74,2029.46,3192.25,2044.55Z"/><path class="cls-25" d="M2747.45,1733c-4.87,14.08-14.7,27.34-22.83,38.18q-22,29.34-43.95,58.67l-20.18,26.93a13.92,13.92,0,0,0-1.9,3.43,14.66,14.66,0,0,0,0,10.82l25.94,64.77,9.82,97.88a56,56,0,0,1,.3,5.63,58,58,0,0,1-29.88,50.78l-32.63,18.06-81.22,45-1.71,3.74-40.06,87.26-17.74,38.62-67.52,147.09L2393,2497.19q-18.39-6.11-36.73-12.2l-3.73-1.23c-6.82-2.26-13.66-4.51-20.47-6.73l-12.47-4.06q-10.43-3.37-20.84-6.69c-2.43-.79-4.89-1.57-7.32-2.33-.77-.24-1.51-.49-2.27-.7l-.36-.13c-1.93-.59-3.83-1.21-5.74-1.8-1.35-.42-2.69-.82-4-1.25q-3.27-1-6.54-2l-3.6-1.12-.89-.26c-.57-.19-1.14-.36-1.72-.52-1.35-.43-2.71-.83-4.06-1.23-3.28-1-6.59-2-9.89-3a.65.65,0,0,0-.19,0c-4.13-1.25-8.28-2.46-12.41-3.66-2.94-.87-5.88-1.72-8.85-2.57l-6.65-1.88-8.42-2.35c-1.19-.32-2.35-.66-3.52-1s-2.37-.66-3.55-1l-1.38-.38c-2-.55-4-1.1-6.08-1.63l-1.46-.38-2.26-.61-2.4-.62c-.44-.12-.89-.23-1.33-.36q-9.18-2.39-18.4-4.66l-4-1-6.48-1.57-8.53-2,212.64-271.79,41.43-53,22.72-29.05a106.94,106.94,0,0,0,19.9-41.54l9.89-42.37,14.91-63.79a52.89,52.89,0,0,1,38.74-39.3l78.09-19.41,133.11-163.82,12.77-15.71,6.14,13.11C2752,1710.82,2751.18,1722.17,2747.45,1733Z"/><path class="cls-38" d="M2854.49,1651.27l-8,8.45a107.66,107.66,0,0,1-9.33,8.65,101.64,101.64,0,0,1-10.34,7.47,93.56,93.56,0,0,1-24.45,10.72,76.45,76.45,0,0,1-28.79,2.36,61,61,0,0,1-28.07-10.56l.51-1c2.27.77,4.51,1.44,6.74,2h0a66.58,66.58,0,0,0,19.83,2,77.48,77.48,0,0,0,23.93-5.31,116.51,116.51,0,0,0,13.59-6.28c2.62-1.4,5.18-2.87,7.71-4.4l1-.58q4.59-2.79,9-5.82l.83-.58c-2-.51-4-1.07-5.95-1.63-6.26-1.81-12.38-3.9-18.42-6.1-12.09-4.38-23.91-9.38-35.6-14.55s-23.22-10.7-34.69-16.3l-6.36-3.14c-9.3-4.63-18.56-9.38-27.7-14.32l.5-1q17.45,7.7,35,15c11.71,4.87,23.5,9.5,35.31,14s23.69,8.69,35.55,12.43c5.95,1.86,11.9,3.6,17.82,5a98.62,98.62,0,0,0,17.24,2.79Z"/><path class="cls-39" d="M2694.69,2039.32a58,58,0,0,1-29.88,50.78l-32.63,18.06c26.38-38.64,36.44-88.19,26.87-134-4.55-21.81-13.29-42.73-15.92-64.85-2.82-23.55,4-40.84,15.46-49.06a14.66,14.66,0,0,0,0,10.82l25.94,64.77,9.82,97.88A56,56,0,0,1,2694.69,2039.32Z"/><path class="cls-26" d="M2549.25,2156.85l-40.06,87.26-17.74,38.62-67.52,147.09L2393,2497.19c-33.83-11.24-67.62-22.53-101.56-33.24,68.07-41.44,124.85-101.57,161.29-172.5,11.73-22.82,21.47-46.71,34.89-68.58C2499.87,2202.91,2525.22,2164.16,2549.25,2156.85Z"/><path class="cls-26" d="M3191.34,1620.56c4.79-30.74-28.84-49.46-41.05-56.44C3172.14,1556.28,3206.56,1579.17,3191.34,1620.56Z"/><path class="cls-2" d="M883.93,1363.13c-152.27,68.71-255.18,221-273.1,385.75A518.29,518.29,0,0,0,652,2013.31c48.22,109.12,132,204,240.72,255.39,101.67,48,217.31,47.85,324.94,21.77,206.84-50.12,320.2-256.83,357.66-451.56,33.39-173.51,16.88-399.55-162.26-487.7-77.22-38-168-41.87-252.42-41.43C1066.24,1310.28,969.82,1324.38,883.93,1363.13Z"/><path class="cls-40" d="M883.93,1363.13c-152.27,68.71-255.18,221-273.1,385.75A518.29,518.29,0,0,0,652,2013.31c48.22,109.12,132,204,240.72,255.39,101.67,48,217.31,47.85,324.94,21.77,206.84-50.12,320.2-256.83,357.66-451.56,33.39-173.51,16.88-399.55-162.26-487.7-77.22-38-168-41.87-252.42-41.43C1066.24,1310.28,969.82,1324.38,883.93,1363.13Z"/><g class="cls-41"><path class="cls-2" d="M1394.56,2316.73H759.46a39.31,39.31,0,0,1-39.22-41.88c5.68-86.7,16.73-210,54.1-260.21,3-4.07,8-8.39,14.42-12.84,13.3-9.18,32.78-19,54-28.35,23-10.16,48-19.88,69.36-27.9,13.49-5.08,25.54-9.49,34.7-12.94,10-3.75,16.52-6.33,17.81-7.39,6.92-5.65,29.07-35.59,29.07-35.59h166.67s22.15,29.94,29.1,35.59c1.56,1.29,11,4.87,25,10.06,14.35,5.33,33.45,12.36,53.65,20.28,23.36,9.15,48.17,19.52,68.73,29.86,20.13,10.12,36.23,20.24,42.9,29.22l.12.19c37.27,50.28,48.3,173.42,54,260A39.3,39.3,0,0,1,1394.56,2316.73Z"/><path class="cls-2" d="M1209.37,1966.15,996.1,1957h0a158.85,158.85,0,0,0,18.94-64l2.05-27,4.89-64.67,109.11-17.7,5.84,68.64h0A143.84,143.84,0,0,0,1196.61,1957Z"/><path class="cls-2" d="M1201.53,1698.05c-.73,19.52-7.4,39.25-15.54,57.2v0c-1.18,2.54-2.33,5-3.54,7.49-7.34,15.16-20.37,25.86-31.69,38.57-5,5.66-10.41,11.36-16.16,16.72-17.87,16.72-39.22,30.37-64.26,30.37-19.19,0-36.12-7.87-51.13-19.52-21.82-16.89-39.54-41.78-54.08-62-4.18-5.84-7.93-11.17-11.23-16.33-9.7-15.37-15.28-29.46-15.9-52a152.71,152.71,0,0,1,2.6-30.87c3.45-19.44,9.58-38.6,13.77-57.77q8.76-39.95,17.49-79.91l174-50.13,29.49,88.46q8.36,37.7,16.75,75.4c1.59,7.17,3.57,14.45,5.31,21.79C1199.91,1676.29,1202,1687.17,1201.53,1698.05Z"/><path class="cls-42" d="M1136.93,1840.74c-18.35,17.72-40.49,32.61-66.62,32.61-20,0-37.68-8.61-53.22-21.17l2.12-23.27c15,11.65,31.94,19.52,51.13,19.52,25,0,46.39-13.65,64.26-30.37Z"/><path class="cls-2" d="M947.14,1665.14l-28.49,11a19.45,19.45,0,0,0-11.87,22.94h0a66.59,66.59,0,0,0,28.8,39.8l24.88,15.83Z"/><path class="cls-2" d="M1232.73,1698.28c-.35,12.63-5.93,26-13.45,33.5a1.85,1.85,0,0,1-.38.41c-.35.36-.74.68-1.12,1a68.57,68.57,0,0,1-7.28,5.63l-22.86,15.3-1.65,1.12v0l11.21-89.81.62.23,26.92,9.61a2.52,2.52,0,0,1,.41.39C1230.81,1681.39,1233,1689.67,1232.73,1698.28Z"/><path class="cls-2" d="M953.9,1750.54l-18.31-11.68a66.16,66.16,0,0,1-18.23-17.16,67.1,67.1,0,0,1-10.58-22.65,19.47,19.47,0,0,1,11.88-22.94l21.94-8.46a152.71,152.71,0,0,0-2.6,30.87C938.62,1721.08,944.2,1735.17,953.9,1750.54Z"/><path class="cls-2" d="M1232.73,1698.28c-.35,12.63-5.93,26-13.45,33.5a1.85,1.85,0,0,1-.38.41c-.35.36-.74.68-1.12,1-8.88,8.11-20,14.33-30.14,20.93-.56.36-1.09.74-1.65,1.09,8.14-18,14.81-37.68,15.54-57.2.42-11-2.27-21.82-3.71-32.38,0-.09,0-.15,0-.23,8.81,4,20,3.21,27,9.84a2.52,2.52,0,0,1,.41.39C1230.81,1681.39,1233,1689.67,1232.73,1698.28Z"/><path d="M1071.3,1438.08c27.9,0,54.43,5.68,76.72,16.43,24,11.59,41.74,28.63,51.28,49.28,2,4.25,3.56,8.09,4.93,11.74,8.34,21.68,11.86,42.94,11.1,66.9-.69,21.7-4.86,43.86-9.27,67.33-1.22,6.5-2.49,13.21-3.71,20.1l0,.1c-.68,3.77-1.7,4.56-2.45,4.56s-3.05-.78-7.49-8c-4.1-6.6-8.14-16-12-28.06-7.65-23.73-13.23-52.9-16.57-73.19l-.09-.53c-1.87-11.39-3.06-20.16-3.47-23.57l-.15-1.06-.2-1.41-1.26.67c-12.72,6.72-32.14,10-59.38,10-26.79,0-55.25-3.18-78.11-5.73-14.37-1.6-25.71-2.87-32.5-2.87q-1.18,0-2.16.06c-3.21.18-4.78.79-5.25,2.06s-1.22,5.77-2.4,12.51c-2.93,16.78-8.37,48-16.22,73-3.47,11.14-7.1,20-10.79,26.31-3.89,6.7-6.65,8.74-8.48,10.09a14.16,14.16,0,0,0-1.69,1.37c-1.08-15.73-2.86-28-4.59-39.87-2-14.11-4-27.43-4.87-46.12-.76-16.27-1.1-35.23,2.2-52.56a97.87,97.87,0,0,1,5.4-19c8.87-22.05,26.74-40.32,51.66-52.84,22.78-11.45,51.13-17.75,79.85-17.75h0m0-1c-56.59,0-113.38,23.87-132.44,71.22a100,100,0,0,0-5.46,19.22c-3.06,16.13-3.09,33.91-2.21,52.79,1.71,36.27,7.55,53.49,9.7,89.73,1.12-5.55,4.55-2.27,11.8-14.75,4-6.93,7.67-16.22,10.88-26.51,10.91-34.82,17.1-81.09,18.61-85.54.29-.8,1.79-1.24,4.36-1.39.64,0,1.33,0,2.1,0,17.41,0,66.83,8.6,110.61,8.6,23.52,0,45.42-2.48,59.85-10.11l.15,1.06c.35,2.92,1.53,11.74,3.48,23.59l.09.53c3.36,20.44,9,49.63,16.6,73.34,3.59,11.14,7.63,21,12.12,28.28,4,6.41,6.59,8.43,8.34,8.43,2.53,0,3.22-4.23,3.45-5.48,10.2-57.3,22.62-100.82,1.83-154.87-1.44-3.86-3.13-7.82-5-11.8-20.45-44.3-74.6-66.29-128.91-66.29Z"/><path class="cls-2" d="M986.54,1541.85c-2.57.15-4.07.59-4.36,1.39-1.95,5.75-11.77,81.68-29.49,112-7.25,12.48-10.68,9.2-11.8,14.75-2.15-36.24-8-53.46-9.7-89.73-.88-18.88-.85-36.66,2.21-52.79C949.8,1536.9,971.8,1540.5,986.54,1541.85Z"/><path class="cls-2" d="M1203.33,1670c-.38,2.12-2.09,12.73-11.79-3-14-22.62-23.77-71.6-28.72-101.62l-.09-.53-3.48-23.59-.15-1.06s26.21-11.91,46.06-25.12C1226,1569.22,1213.53,1612.74,1203.33,1670Z"/><path class="cls-43" d="M986.54,1541.85c-2.57.15-4.07.59-4.36,1.39-1.95,5.75-11.77,81.68-29.49,112-7.25,12.48-10.68,9.2-11.8,14.75-2.15-36.24-8-53.46-9.7-89.73-.88-18.88-.85-36.66,2.21-52.79C949.8,1536.9,971.8,1540.5,986.54,1541.85Z"/><path class="cls-43" d="M1203.33,1670c-.38,2.12-2.09,12.73-11.79-3-14-22.62-23.77-71.6-28.72-101.62l-.09-.53-3.48-23.59-.15-1.06s26.21-11.91,46.06-25.12C1226,1569.22,1213.53,1612.74,1203.33,1670Z"/><path class="cls-42" d="M1119.23,1755.55a48.47,48.47,0,0,1-93.8,0Z"/><path class="cls-2" d="M1096.08,1406.6h-45a128.56,128.56,0,0,0-128.57,128.57v48.89h302.17v-48.89a128.58,128.58,0,0,0-128.58-128.57Z"/><path class="cls-2" d="M1117.36,1521.79a5.49,5.49,0,0,0,.7,0,5.41,5.41,0,0,0,5.36-4.73l13.15-104q-5.14-1.68-10.47-3a5.46,5.46,0,0,0-.15.72l-13.28,104.91a5.42,5.42,0,0,0,4.69,6Z"/><path class="cls-2" d="M1023.72,1517.11a5.4,5.4,0,0,0,5.36,4.73,5.34,5.34,0,0,0,.69,0,5.42,5.42,0,0,0,4.69-6l-13.29-105a4.38,4.38,0,0,0-.12-.61q-5.32,1.29-10.5,3l13.17,104Z"/><path class="cls-2" d="M1102,1390.4h-56.76a14.67,14.67,0,0,0-14.7,16.4l13.6,107.49a23.3,23.3,0,0,0,23.18,19.84h12.6a23.3,23.3,0,0,0,23.18-19.84l13.6-107.49a14.67,14.67,0,0,0-14.7-16.4Z"/><path class="cls-2" d="M1231.39,1549.48H915.74a11.33,11.33,0,0,0-11.33,11.33v11.92a11.33,11.33,0,0,0,11.33,11.33h315.65a11.31,11.31,0,0,0,11.32-11.33v-11.92a11.31,11.31,0,0,0-11.32-11.33Z"/><path class="cls-2" d="M1231.39,1584.06H915.74a11.33,11.33,0,0,1-11.33-11.33v-11.92a11.33,11.33,0,0,1,.34-2.69,11.32,11.32,0,0,0,11,8.65h315.65a11.33,11.33,0,0,0,11-8.65,11.86,11.86,0,0,1,.32,2.69v11.92a11.31,11.31,0,0,1-11.32,11.33Z"/><path class="cls-2" d="M1096.08,1406.6h-45a128.56,128.56,0,0,0-128.57,128.57v48.89h302.17v-48.89a128.58,128.58,0,0,0-128.58-128.57Z"/><path class="cls-44" d="M1117.36,1521.79a5.49,5.49,0,0,0,.7,0,5.41,5.41,0,0,0,5.36-4.73l13.15-104q-5.14-1.68-10.47-3a5.46,5.46,0,0,0-.15.72l-13.28,104.91a5.42,5.42,0,0,0,4.69,6Z"/><path class="cls-44" d="M1023.72,1517.11a5.4,5.4,0,0,0,5.36,4.73,5.34,5.34,0,0,0,.69,0,5.42,5.42,0,0,0,4.69-6l-13.29-105a4.38,4.38,0,0,0-.12-.61q-5.32,1.29-10.5,3l13.17,104Z"/><path class="cls-45" d="M1102,1390.4h-56.76a14.67,14.67,0,0,0-14.7,16.4l13.6,107.49a23.3,23.3,0,0,0,23.18,19.84h12.6a23.3,23.3,0,0,0,23.18-19.84l13.6-107.49a14.67,14.67,0,0,0-14.7-16.4Z"/><path class="cls-2" d="M1231.39,1549.48H915.74a11.33,11.33,0,0,0-11.33,11.33v11.92a11.33,11.33,0,0,0,11.33,11.33h315.65a11.31,11.31,0,0,0,11.32-11.33v-11.92a11.31,11.31,0,0,0-11.32-11.33Z"/><path class="cls-45" d="M1231.39,1584.06H915.74a11.33,11.33,0,0,1-11.33-11.33v-11.92a11.33,11.33,0,0,1,.34-2.69,11.32,11.32,0,0,0,11,8.65h315.65a11.33,11.33,0,0,0,11-8.65,11.86,11.86,0,0,1,.32,2.69v11.92a11.31,11.31,0,0,1-11.32,11.33Z"/><path class="cls-44" d="M1379.8,2014.83l-48.48,301.9-10.59,65.91s-38,3.77-91.36,8.83c-22.23,2.1-47.13,4.45-73,6.82-42,3.85-86.79,7.81-127.16,11.09-25.58,2.1-49.42,3.92-69.73,5.28-38.93,2.6-64.91,3.51-65.42,1.35-.59-2.62-10.92-43.34-25.13-99.28-25.32-99.64-63-247.62-80.12-314.93,13.3-9.18,32.78-19,54-28.35,23-10.16,48-19.88,69.36-27.9,13.49-5.08,25.54-9.49,34.7-12.94l110.7,384.12,8.4,29.18,10.55-29.18,138-381.45c14.35,5.33,33.45,12.36,53.65,20.28,23.36,9.15,48.17,19.52,68.73,29.86,20.13,10.12,36.23,20.24,42.9,29.22Z"/><path class="cls-45" d="M1047.15,2480.65l-73.51-12.26-14.21-53.73-25.91-97.93-90.79-343.28c23-10.16,48-19.88,69.36-27.9l93.69,371.18,23.38,92.65Z"/><path class="cls-45" d="M1336.78,1985.42l-87.64,331.31-19.77,74.74L1209,2468.39l-73.49,12.26,20.79-82.36,20.58-81.56,91.15-361.17C1291.41,1964.71,1316.22,1975.08,1336.78,1985.42Z"/><g class="cls-6"><path class="cls-27" d="M993.67,1889.62h.19l83.15,83.14,83.14-83.14h.19s22.14,30,29.09,35.6L1077,2280.52l-112.42-355.3C971.53,1919.57,993.67,1889.62,993.67,1889.62Z"/></g><polygon class="cls-46" points="1159.1 2022.73 1156.74 2030.19 1088.39 1961.82 1093.3 1956.9 1159.1 2022.73"/><polygon class="cls-46" points="995.19 2022.73 997.55 2030.19 1065.9 1961.82 1060.99 1956.9 995.19 2022.73"/></g><path class="cls-2" d="M1555,683.13c-24,143.57,11.1,299.06,116,426.35,158,191.74,496,304.53,720.87,152.12,416.32-282.2,136.44-1079.42-390.19-1005.89C1749.66,290.89,1589.88,474.43,1555,683.13Z"/><path class="cls-47" d="M1555,683.13c-24,143.57,11.1,299.06,116,426.35,158,191.74,496,304.53,720.87,152.12,416.32-282.2,136.44-1079.42-390.19-1005.89C1749.66,290.89,1589.88,474.43,1555,683.13Z"/><g class="cls-48"><path class="cls-2" d="M2250.49,625.71a3,3,0,0,0-.45-.42c-5.83-5.53-14.29-6.38-22.26-8.39-.05-.2-.09-.43-.13-.63,0,.19,0,.39,0,.59-.51-.13-1-.26-1.54-.41a36,36,0,0,0-3.67-3c-2-1.65-4.55-4.34-7.85-10-.62-1-1.19-2.1-1.78-3.22a2.16,2.16,0,0,0-.17-.34c-.51-1-1-2-1.5-3.05-.13-.3-.28-.61-.43-.91-.4-.89-.8-1.78-1.2-2.69-.17-.4-.34-.83-.51-1.23-.36-.85-.7-1.71-1.06-2.58l-.57-1.46c-.32-.83-.64-1.65-1-2.5-.21-.57-.4-1.14-.61-1.72l-.83-2.32c-.23-.68-.46-1.38-.69-2.08s-.45-1.31-.66-2c-.28-.85-.55-1.69-.83-2.56l-.12-.38c-.15-.51-.32-1-.47-1.55-.27-.89-.55-1.78-.8-2.67-.34-1.12-.66-2.24-1-3.36-.15-.57-.3-1.12-.46-1.7-.26-.93-.53-1.88-.79-2.83-.15-.53-.27-1-.42-1.57-.3-1.14-.62-2.31-.91-3.47-.07-.3-.15-.59-.24-.89-.8-3.16-1.56-6.33-2.3-9.49,0-.14-.07-.27-.11-.42-7.3-31.27-11.6-61.93-12.85-65.68-.26-.63-1.23-1.08-2.86-1.31a18.81,18.81,0,0,0-1.93-.19c-24.66-1.34-137.7,21.87-186-.32l-3-.19c-.4,3.24-1.67,12.85-3.81,25.77l-.08.53v0c-.19,1.18-.41,2.39-.62,3.62-.1.66-.21,1.31-.34,2-.08.49-.14,1-.23,1.46-3.77,21.7-9.46,49.86-17,73.2q-1.87,5.75-3.87,11s0,0,0,.08c-.42,1.06-.82,2.12-1.24,3.18,0,0,0,0,0,0-1.14,2.86-2.32,5.59-3.55,8.15l-.53,1.1c-.3.62-.59,1.21-.91,1.78s-.49,1-.74,1.44-.53,1-.79,1.44c-.44.76-.89,1.53-1.33,2.25-.09.14-.17.29-.25.44a38.39,38.39,0,0,1-5.11,6.86h0l-1.08-8.68-.68.26-29.46,10.52a3,3,0,0,0-.45.42c-6.2,6.26-8.59,15.33-8.3,24.75.39,13.81,6.49,28.5,14.72,36.66a3,3,0,0,0,.42.45c.39.39.8.74,1.22,1.13a74.25,74.25,0,0,0,8,6.16l25,16.75,1.81,1.23v0h0v0c1.29,2.77,2.54,5.52,3.88,8.19,8,16.6,22.29,28.31,34.68,42.22,5.52,6.18,11.39,12.43,17.68,18.29,1,.94,2,1.87,3.06,2.81l-2.19,14.89-17.15,116.82h171.9l-17.3-116.12-2.21-14.84c19.45-17.78,35.69-40.53,49.34-59.58,3.88-5.4,7.37-10.39,10.55-15.21,10.5-6.75,21.84-13.27,31-21.61.42-.39.84-.74,1.23-1.13a3,3,0,0,0,.42-.45c8.23-8.16,14.33-22.85,14.71-36.66C2259.08,641,2256.69,632,2250.49,625.71Z"/><path d="M2188.57,730.65c-.1.9-.21,1.77-.32,2.67,0-.44,0-1,0-1.66Z"/><path class="cls-2" d="M2418,1284.15H1752a41.23,41.23,0,0,1-41.12-43.92c6-90.93,17.53-220.28,56.72-272.89,26.34-35.38,192.25-87.87,199.54-93.78s30.49-37.33,30.49-37.33h.19L2085,923.42l87.19-87.19h.19s23.23,31.4,30.51,37.33,173.17,58.4,199.51,93.78c39.22,52.61,50.78,182,56.75,272.89A41.24,41.24,0,0,1,2418,1284.15Z"/><path class="cls-49" d="M2202.88,873.56,2085,1246.16,1967.1,873.56c7.26-5.93,30.49-37.33,30.49-37.33h.19L2085,923.42l87.19-87.19h.19S2195.6,867.63,2202.88,873.56Z"/><g class="cls-50"><polygon class="cls-46" points="2171.08 975.82 2168.61 983.64 2096.93 911.94 2102.07 906.78 2171.08 975.82"/><polygon class="cls-46" points="1999.18 975.82 2001.66 983.64 2073.33 911.94 2068.19 906.78 1999.18 975.82"/></g><path class="cls-51" d="M2097.29,945.61,2119.8,1135c-14.87,46.94-27.84,88-35,110.65-7.09-22.55-20-63.33-34.74-110l22.59-190.09-23.87-19.77,19.31-19.31,16.88-.3,16.85.3,19.33,19.31Z"/><path class="cls-45" d="M2256.28,1001.91,2085,1283.62v.53l-.17-.28-.15.28v-.53l-171.29-281.71,35.95-45.08-27.77-29.57,14.92-41.52c17.34-6.5,26.6-10,30.62-12.18,8.55,27,50.33,159,83,262.14,14.75,46.65,27.65,87.43,34.74,110,7.14-22.66,20.11-63.71,35-110.65,32.6-103.1,74.23-234.52,82.76-261.47,4,2.22,15.67,6.48,31.38,12.34l14.14,41.36-27.77,29.57Z"/><path class="cls-52" d="M2235.42,882.82a10.17,10.17,0,0,1,13.85-4c3.45,1.92,82.85,48,86.62,214a40.74,40.74,0,1,1-20.39.07c-3.65-152.79-75.21-195.74-76.18-196.32A10.16,10.16,0,0,1,2235.42,882.82Z"/><path class="cls-53" d="M2304.34,1132.36a21.51,21.51,0,1,1,21.51,21.5,21.5,21.5,0,0,1-21.51-21.5Z"/><g class="cls-54"><path class="cls-3" d="M1832.62,947.34c11.27-27.14,27.79-39,28.54-39.47a10.19,10.19,0,1,1,11.68,16.7c-.11.09-10.12,7.48-18.57,24.42,36.68,11.19,63.68,64.38,63.68,130.26,0,39.1-9.87,75.87-27.07,100.89l-16.79-11.53c14.92-21.72,23.48-54.29,23.48-89.36,0-60.7-26.4-112-57.67-112.08h-.15c-31.27.07-57.68,51.38-57.68,112.08,0,35.07,8.57,67.64,23.5,89.36l-16.79,11.53c-17.22-25-27.08-61.79-27.09-100.89C1761.69,1009.11,1792.31,953.33,1832.62,947.34Z"/><path class="cls-3" d="M1867,1174.39a13.59,13.59,0,1,1,13.57,13.58,13.6,13.6,0,0,1-13.57-13.58Z"/><path class="cls-3" d="M1785.48,1174.39a13.59,13.59,0,1,1,13.58,13.58,13.61,13.61,0,0,1-13.58-13.58Z"/></g><path class="cls-42" d="M2153.78,804.18a158.66,158.66,0,0,1-12.05,10.37c-16.41,12.75-34.93,21.37-56,21.37-27,0-50-14.51-69.44-32.44l2.73-18.63c18.82,16.74,41,29.93,66.71,29.93,21,0,39.55-8.61,56-21.36,3.18-2.45,6.29-5.08,9.3-7.81Z"/><path class="cls-55" d="M2238.45,511c-.1,3.43-.21,6.89-.38,10.38-1.5,31.82-5.91,50.24-8.81,76.71-.61,5.63-1.16,11.64-1.61,18.21-.08,1.08-.15,2.16-.21,3.26-.72-3.52-2.29-3.79-5-6.08-2-1.65-4.55-4.34-7.85-10-.62-1-1.19-2.1-1.78-3.22a2.16,2.16,0,0,0-.17-.34c-.51-1-1-2-1.5-3.05-.13-.3-.28-.61-.43-.91-.4-.89-.8-1.78-1.2-2.69-.17-.4-.34-.83-.51-1.23-.36-.85-.7-1.71-1.06-2.58l-.57-1.46c-.32-.83-.64-1.65-1-2.5-.21-.57-.4-1.14-.61-1.72l-.83-2.32c-.23-.68-.46-1.38-.69-2.08s-.45-1.31-.66-2c-.28-.85-.55-1.69-.83-2.56l-.12-.38c-.15-.51-.32-1-.47-1.55-.27-.89-.55-1.78-.8-2.67-.34-1.12-.66-2.24-1-3.36-.15-.57-.3-1.12-.46-1.7-.26-.93-.53-1.88-.79-2.83-.15-.53-.27-1-.42-1.57-.3-1.14-.62-2.31-.91-3.47-.07-.3-.15-.59-.24-.89-.8-3.16-1.56-6.33-2.3-9.49,0-.14-.07-.27-.11-.42-7.3-31.27-11.6-61.93-12.85-65.68-.26-.63-1.23-1.08-2.86-1.31a18.81,18.81,0,0,0-1.93-.19c-24.66-1.34-137.7,21.87-186-.32l-3-.19c-.4,3.24-1.67,12.85-3.81,25.77l-.08.53v0c-.19,1.18-.41,2.39-.62,3.62-.1.66-.21,1.31-.34,2-.08.49-.14,1-.23,1.46-3.77,21.7-9.46,49.86-17,73.2q-1.87,5.75-3.87,11s0,0,0,.08c-.42,1.06-.82,2.12-1.24,3.18,0,0,0,0,0,0-1.14,2.86-2.32,5.59-3.55,8.15l-.53,1.1c-.3.62-.59,1.21-.91,1.78s-.49,1-.74,1.44-.53,1-.79,1.44c-.44.76-.89,1.53-1.33,2.25-.09.14-.17.29-.25.44a38.39,38.39,0,0,1-5.11,6.86,7.2,7.2,0,0,1-3.6,2.33h0a2.39,2.39,0,0,1-1.5-.25c-1.89-1-2.46-4.56-2.67-5.72-10.59-59.45-23.33-105.36-5.23-160.39-41.48-38.09-9.17-117.48-9.17-117.48s25.41,41.3,100.09,31.2a198.41,198.41,0,0,1,30.76-6.43c30.32-8.49,58.36-4.47,82.62,5.18,40.86,10.93,75.73,34.62,90.34,70.91a109.21,109.21,0,0,1,6,21C2238.43,478.26,2238.92,494.18,2238.45,511Z"/></g><path class="cls-2" d="M3473.9,1172.39c-16.3,97.52,7.54,203.13,78.77,289.59,107.28,130.23,336.9,206.84,489.62,103.32,282.76-191.68,92.67-733.16-265-683.21C3606.13,906,3497.6,1030.64,3473.9,1172.39Z"/><path class="cls-56" d="M3473.9,1172.39c-16.3,97.52,7.54,203.13,78.77,289.59,107.28,130.23,336.9,206.84,489.62,103.32,282.76-191.68,92.67-733.16-265-683.21C3606.13,906,3497.6,1030.64,3473.9,1172.39Z"/><g class="cls-57"><g class="cls-58"><path class="cls-27" d="M3887.51,1158.18c1.9.11,3,.44,3.24,1,1.44,4.25,8.71,60.49,21.83,83,5.38,9.24,7.91,6.81,8.74,10.92,1.59-26.84,5.92-39.59,7.18-66.45.66-14,.64-27.15-1.63-39.09C3914.72,1154.51,3898.43,1157.18,3887.51,1158.18Z"/><path class="cls-27" d="M3727,1253.11c.29,1.57,1.55,9.43,8.74-2.18,10.37-16.75,17.6-53,21.27-75.26l.06-.39,2.58-17.47.11-.79s-19.42-8.82-34.11-18.6C3710.21,1178.45,3719.41,1210.68,3727,1253.11Z"/></g><path d="M3895,1328.3l-.21,1.8c0-.29,0-.67,0-1.12C3894.79,1329,3894.87,1328.71,3895,1328.3Z"/><path class="cls-2" d="M3936.91,1257.28a1.33,1.33,0,0,0-.3-.28c-4-3.75-9.68-4.32-15.08-5.68-2.56-14.37-7.09-28.57-10.2-42.75q-6.48-29.61-12.94-59.18l-128.83-37.14-21.86,65.51q-6.18,27.91-12.4,55.86c-1.17,5.29-2.65,10.69-3.92,16.13h0l-.34.13-19.93,7.12a1.64,1.64,0,0,0-.31.28c-4.19,4.24-5.81,10.37-5.61,16.75.26,9.35,4.39,19.28,10,24.81a1.33,1.33,0,0,0,.28.3c.26.27.55.51.83.77a49.64,49.64,0,0,0,5.39,4.17l16.93,11.33,1.22.83v0h0v0c.86,1.87,1.71,3.73,2.62,5.55,5.42,11.22,15.08,19.14,23.46,28.56,3.75,4.2,7.71,8.41,12,12.37.67.63,1.37,1.28,2.06,1.88l-1.92,13-11.18,76.12h116.33l-11.26-75.65-1.94-13h0c13.17-12,24.16-27.44,33.39-40.31,2.61-3.65,5-7,7.14-10.3,7.1-4.57,14.77-9,20.94-14.62.29-.26.57-.5.83-.77a1.65,1.65,0,0,0,.29-.3c5.57-5.53,9.69-15.46,10-24.81C3942.72,1267.65,3941.11,1261.52,3936.91,1257.28Z"/><path class="cls-42" d="M3871.91,1378.12a108.34,108.34,0,0,1-8.6,7.43c-11.12,8.62-23.65,14.46-37.86,14.46-18.48,0-34.21-10-47.43-22.36l1.93-13c12.81,11.52,27.91,20.62,45.5,20.62,14.21,0,26.74-5.84,37.86-14.46,2.29-1.75,4.51-3.64,6.67-5.63Z"/><path class="cls-2" d="M4041,1662.77H3600.42a27.24,27.24,0,0,1-27.19-29c3.93-60.17,11.59-145.72,37.52-180.5,16.57-22.27,116.67-54.77,130.53-61.25l.77,3.23,20.54,19,64.89,6.81,45.38-7.18,28.5-18.61-.85-3.1c15.36,6.91,113.69,39,130.1,61,25.93,34.78,33.58,120.33,37.53,180.5A27.26,27.26,0,0,1,4041,1662.77Z"/><path class="cls-59" d="M3742.18,1391.54l-.3.15.17-.08Z"/><path class="cls-59" d="M3741.81,1391.73l.07,0-.05,0Z"/><path class="cls-59" d="M3741.57,1391.84a.88.88,0,0,0,.24-.11l-.44.23A1.32,1.32,0,0,1,3741.57,1391.84Z"/><path class="cls-45" d="M3887.51,1401.49s-12.48-7-15.6-9.34c-5.94,12.26-26.32,21.3-50.59,21.38-24.28-.08-45.25-9.27-51.19-21.53-3.12,2.29-15,9-15,9,0,12.18,22,28.74,45.38,35.78l-17.62,13.2c-5.64,4.22-9.29,13.27-9.29,23v189.73h12.22V1473c0-2.47.92-4.77,2.35-5.83l35.58-27.09C3852.37,1438.79,3887.51,1416.88,3887.51,1401.49Z"/><g class="cls-60"><path class="cls-27" d="M3817.49,1483a11,11,0,1,1-11-11A11,11,0,0,1,3817.49,1483Z"/><path class="cls-27" d="M3874.37,1483a11,11,0,1,1-11-11A11,11,0,0,1,3874.37,1483Z"/><path class="cls-27" d="M3817.49,1535.24a11,11,0,1,1-11-11A11,11,0,0,1,3817.49,1535.24Z"/><circle class="cls-27" cx="3863.33" cy="1535.24" r="11.04"/><path class="cls-27" d="M3817.49,1587.45a11,11,0,1,1-11-11A11,11,0,0,1,3817.49,1587.45Z"/><path class="cls-27" d="M3874.37,1587.45a11,11,0,1,1-11-11A11,11,0,0,1,3874.37,1587.45Z"/><path class="cls-27" d="M3817.49,1639.64a11,11,0,1,1-11-11A11,11,0,0,1,3817.49,1639.64Z"/><path class="cls-27" d="M3874.37,1639.64a11,11,0,1,1-11-11A11,11,0,0,1,3874.37,1639.64Z"/></g><path class="cls-2" d="M3713.7,1202.82a15.24,15.24,0,0,0,15.24,15.25H3920.6a15.25,15.25,0,0,0,15.24-15.25v-48.51a24.82,24.82,0,0,1,17.84-23.93A69.4,69.4,0,1,0,3892,1008.87a69.43,69.43,0,0,0-134.48,0,69.39,69.39,0,1,0-61.67,121.51,24.83,24.83,0,0,1,17.84,23.93Z"/><path class="cls-45" d="M3713.7,1202.86a15.24,15.24,0,0,0,15.24,15.21H3920.6a15.23,15.23,0,0,0,15.24-15.21v-30.45H3713.7Z"/></g><circle class="cls-61" cx="4149.82" cy="2181.62" r="29.43" transform="translate(-534.58 2373.67) rotate(-30.08)"/><circle class="cls-52" cx="4079.35" cy="2426.93" r="24.79" transform="translate(-412.17 891.56) rotate(-11.88)"/><circle class="cls-62" cx="3879.63" cy="2684.69" r="16.27" transform="translate(-132.57 5166.9) rotate(-66.43)"/><circle class="cls-63" cx="920.49" cy="2654.97" r="16.27"/><circle class="cls-61" cx="656.88" cy="2520.42" r="17.04" transform="translate(-1898.97 2018.75) rotate(-64.29)"/><circle class="cls-64" cx="553.19" cy="2161.2" r="20.91" transform="translate(-971.23 532.42) rotate(-28.75)"/><path class="cls-2" d="M724.59,2105.56l3.72,33.15a268.9,268.9,0,0,0,195,229.1l12.22,3.41L930.14,2333a268.89,268.89,0,0,0-170-213.81Z"/><path class="cls-2" d="M1042.31,2433.78l-29.56-7.74a248.57,248.57,0,0,0-261,90.77l-7,9.3,34.44,8a248.59,248.59,0,0,0,239.62-74.55Z"/><path class="cls-65" d="M724.59,2105.56l3.72,33.15a268.9,268.9,0,0,0,195,229.1l12.22,3.41L930.14,2333a268.89,268.89,0,0,0-170-213.81Z"/><path class="cls-2" d="M1042.31,2433.78l-29.56-7.74a248.57,248.57,0,0,0-261,90.77l-7,9.3,34.44,8a248.59,248.59,0,0,0,239.62-74.55Z"/><path class="cls-2" d="M500.75,2323.67,528,2343a268.9,268.9,0,0,0,300.73,7.27l10.69-6.84-32.06-21.48a268.92,268.92,0,0,0-272.72-15.69Z"/><path class="cls-2" d="M500.75,2323.67,528,2343a268.9,268.9,0,0,0,300.73,7.27l10.69-6.84-32.06-21.48a268.92,268.92,0,0,0-272.72-15.69Z"/><path class="cls-2" d="M724.59,2105.56l3.72,33.15a268.9,268.9,0,0,0,195,229.1l12.22,3.41L930.14,2333a268.89,268.89,0,0,0-170-213.81Z"/><path class="cls-2" d="M1144.26,2465.71l-5.88,36.82-9.9-7.54c-46.82-35.62-81-84.83-99.26-139.11a.51.51,0,0,1,0-.17c-15.1-45-19.2-93.5-10.4-140.58l5.9-31.61,27.81,25.33a287.26,287.26,0,0,1,31.09,33.2C1133.82,2304.92,1156.77,2387.09,1144.26,2465.71Z"/><path class="cls-2" d="M1042.32,2433.79l-23.56,25.78a248.38,248.38,0,0,1-239.63,74.54l-34.44-8,7-9.3a248.64,248.64,0,0,1,169.91-97.2,0,0,0,0,1,.07,0,247,247,0,0,1,91,6.44Z"/><g class="cls-66"><path class="cls-67" d="M1218.51,2605.78q-3.85.55-7.76,1.08a413.15,413.15,0,0,0-40.86-60.25c-1.76-2.2-3.55-4.37-5.39-6.51a465.47,465.47,0,0,0-41.08-42.72,560.91,560.91,0,0,0-82.36-62.25c-1.59-1-3.14-2-4.72-2.91-52.17-32.07-106.15-55-153.21-71.14q-10.67-3.64-21.1-7-13.63-4.3-26.79-8h0c-11-3.16-21.73-6-32.09-8.6-80.18-20.09-139.2-24.66-140-24.72a3.66,3.66,0,1,1,.52-7.3c.79.05,59,4.55,138.36,24.2q13.4,3.32,27.55,7.22c2.72.73,5.44,1.52,8.18,2.3q11.6,3.32,23.56,7.07t24,7.85a.28.28,0,0,0,.12,0q18.15,6.21,35.53,13c55.3,21.58,105,47.5,148,77.27q10.79,7.46,21,15.23,17.41,13.23,33.16,27.37,7.92,7,15.41,14.36a472.05,472.05,0,0,1,34.25,37.11c1.82,2.19,3.61,4.39,5.35,6.61a425.88,425.88,0,0,1,40.18,60.29A1.89,1.89,0,0,1,1218.51,2605.78Z"/></g><path class="cls-68" d="M725.23,2112.63l3.71,33.15a268.9,268.9,0,0,0,195,229.1l12.22,3.41-5.34-38.22a268.93,268.93,0,0,0-170-213.81Z"/><path class="cls-69" d="M1144.26,2465.71l-5.88,36.82-9.9-7.54c-46.82-35.62-81-84.83-99.26-139.11a.51.51,0,0,1,0-.17,298.37,298.37,0,0,1-5.28-130.93l6.32-33.87L1060,2218a305.2,305.2,0,0,1,23.59,24C1133.82,2304.92,1156.77,2387.09,1144.26,2465.71Z"/><path class="cls-70" d="M1030,2434.89l-23.57,25.79A248.89,248.89,0,0,1,851.18,2540a246.65,246.65,0,0,1-72-5.92l-34.44-8,7-9.3a248.64,248.64,0,0,1,169.91-97.2,0,0,0,0,1,.07,0,246.7,246.7,0,0,1,78.73,7.54Z"/><path class="cls-2" d="M500.75,2323.67,528,2343a268.9,268.9,0,0,0,300.73,7.27l10.69-6.84-32.06-21.48a268.92,268.92,0,0,0-272.72-15.69Z"/><path class="cls-71" d="M500.75,2323.67,528,2343a268.9,268.9,0,0,0,300.73,7.27l10.69-6.84-32.06-21.48a268.92,268.92,0,0,0-272.72-15.69Z"/><path class="cls-2" d="M3344.77,2548.74v0c3.29,1,6.58,1.93,9.87,2.88l.91.28h0a.13.13,0,0,1,.07,0c2-.7,4.41-1.55,7.24-2.49,3-1,6.4-2.07,10.25-3.24l1.45-.44a504.9,504.9,0,0,1,102.89-19.29c11.09-.88,22.63-1.4,34.46-1.38a384.83,384.83,0,0,1,54.29,3.84c2.76.4,5.52.83,8.31,1.31v0a321,321,0,0,1,54.35,14.05,294.35,294.35,0,0,1,43.09,19.26q5.78,3.18,11.53,6.68A282.35,282.35,0,0,1,3708,2587c27.18,20.73,52.83,48,75.07,83.59a3.64,3.64,0,0,0,2.87,1.71,1,1,0,0,0,.25,0,3.46,3.46,0,0,0,1.94-.54,3.42,3.42,0,0,0,1.3-1.4,3.67,3.67,0,0,0-.13-3.64c-20.29-32.42-44.3-59.78-71.76-81.8a289.48,289.48,0,0,0-60.51-37.4,297.3,297.3,0,0,0-30.35-12,325.54,325.54,0,0,0-46.9-11.93q-4.14-.75-8.35-1.4a390.21,390.21,0,0,0-59.74-4.44c-8.69,0-17.25.26-25.58.76a507.62,507.62,0,0,0-107.31,18.41c-2.37.67-4.64,1.33-6.76,2s-3.92,1.18-5.72,1.75c-2.63.83-5,1.6-7.16,2.32-8.06,2.7-12.58,4.51-12.76,4.57A3.68,3.68,0,0,0,3344.77,2548.74Z"/><path class="cls-2" d="M3789.87,2664.54l20.54,10.83a189,189,0,0,1,99.78,184.88l-.84,8.81-23.41-13.18a189,189,0,0,1-96.1-164.78Z"/><path class="cls-2" d="M3681.77,2563.28l15.57,17.24a188.93,188.93,0,0,1,30.11,207.91l-3.81,8L3706.18,2776a189,189,0,0,1-33.56-187.78Z"/><path class="cls-72" d="M3681.77,2563.28l15.57,17.24a188.93,188.93,0,0,1,30.11,207.91l-3.81,8L3706.18,2776a189,189,0,0,1-33.56-187.78Z"/><g class="cls-66"><path class="cls-67" d="M3344.77,2548.74v0c3.29,1,6.58,1.93,9.87,2.88l.91.28h0a.13.13,0,0,1,.07,0c2-.7,4.41-1.55,7.24-2.49,3-1,6.4-2.07,10.25-3.24l1.45-.44a504.9,504.9,0,0,1,102.89-19.29c11.09-.88,22.63-1.4,34.46-1.38a384.83,384.83,0,0,1,54.29,3.84c2.76.4,5.52.83,8.31,1.31v0a321,321,0,0,1,54.35,14.05,294.35,294.35,0,0,1,43.09,19.26q5.78,3.18,11.53,6.68A282.35,282.35,0,0,1,3708,2587c27.18,20.73,52.83,48,75.07,83.59a3.64,3.64,0,0,0,2.87,1.71,1,1,0,0,0,.25,0,3.46,3.46,0,0,0,1.94-.54,3.42,3.42,0,0,0,1.3-1.4,3.67,3.67,0,0,0-.13-3.64c-20.29-32.42-44.3-59.78-71.76-81.8a289.48,289.48,0,0,0-60.51-37.4,297.3,297.3,0,0,0-30.35-12,325.54,325.54,0,0,0-46.9-11.93q-4.14-.75-8.35-1.4a390.21,390.21,0,0,0-59.74-4.44c-8.69,0-17.25.26-25.58.76a507.62,507.62,0,0,0-107.31,18.41c-2.37.67-4.64,1.33-6.76,2s-3.92,1.18-5.72,1.75c-2.63.83-5,1.6-7.16,2.32-8.06,2.7-12.58,4.51-12.76,4.57A3.68,3.68,0,0,0,3344.77,2548.74Z"/></g><path class="cls-73" d="M3789.87,2664.54l20.54,10.83a189,189,0,0,1,99.78,184.88l-.84,8.81-23.41-13.18a189,189,0,0,1-96.1-164.78Z"/><path class="cls-2" d="M3451.37,2532.67c3.13-.55,6.27-1.1,9.4-1.67a413.24,413.24,0,0,1,31.11-46.15v0c1.73-2.24,3.45-4.46,5.24-6.63a464.34,464.34,0,0,1,40.06-43.69,560.27,560.27,0,0,1,80.86-64.17c1.56-1.06,3.09-2.07,4.67-3,0,0,0,0,.05,0,51.35-33.3,104.78-57.48,151.42-74.73,7.06-2.58,14-5.11,20.94-7.45,9-3.08,17.88-6,26.57-8.68h0c10.92-3.44,21.57-6.54,31.87-9.37,3.87-1.08,7.69-2.1,11.47-3.09,73.81-19.44,127.16-24.85,127.87-24.94a3.66,3.66,0,1,0-.69-7.29c-.74.09-52.48,5.31-124.59,24-4.32,1.12-8.69,2.28-13.15,3.5-8.89,2.43-18,5-27.39,7.89l0,0c-2.7.78-5.36,1.62-8.1,2.47q-7.73,2.38-15.65,5c-2.56.83-5.13,1.7-7.72,2.58q-11.78,4-23.79,8.41h0l-.07,0a.07.07,0,0,1-.06,0q-18,6.65-35.21,13.86h0c-4.77,2-9.53,4-14.23,6.14-49.05,21.53-93.26,46.52-131.89,74.61q-10.62,7.74-20.64,15.74s0,0,0,0q-17.07,13.65-32.46,28.12c-5.16,4.84-10.17,9.73-15.06,14.72a475.74,475.74,0,0,0-33.36,37.91c-1.77,2.24-3.5,4.48-5.2,6.75A429.82,429.82,0,0,0,3451.37,2532.67Z"/><path class="cls-2" d="M783.1,2640.27a4.44,4.44,0,0,0,3.79-1.67,244.14,244.14,0,0,1,28.18-29.71c77.16-68.66,185.55-73.87,262.91-66.11,84.19,8.42,150.74,33.51,151.4,33.76a4.48,4.48,0,1,0,3.19-8.38c-.67-.25-68.33-25.77-153.69-34.31-79.12-7.88-190.18-2.49-269.77,68.34A252.44,252.44,0,0,0,779.89,2633a4.48,4.48,0,0,0,.7,6.3A4.36,4.36,0,0,0,783.1,2640.27Z"/><path class="cls-2" d="M974.54,2739.24S968,2578.91,1140,2544C1140,2544,1167.87,2689.55,974.54,2739.24Z"/><path class="cls-2" d="M781.22,2420s153.52-46.66,230.61,111C1011.83,2531,877.93,2594.63,781.22,2420Z"/><path class="cls-2" d="M844.92,2606.56c-3.11-12.29-167.24,32.73-127.18,198.53C717.74,2805.09,885.3,2766.21,844.92,2606.56Z"/><g class="cls-66"><path class="cls-67" d="M783.1,2640.27a4.44,4.44,0,0,0,3.79-1.67,244.14,244.14,0,0,1,28.18-29.71c77.16-68.66,185.55-73.87,262.91-66.11,84.19,8.42,150.74,33.51,151.4,33.76a4.48,4.48,0,1,0,3.19-8.38c-.67-.25-68.33-25.77-153.69-34.31-79.12-7.88-190.18-2.49-269.77,68.34A252.44,252.44,0,0,0,779.89,2633a4.48,4.48,0,0,0,.7,6.3A4.36,4.36,0,0,0,783.1,2640.27Z"/><g class="cls-74"><path class="cls-67" d="M974.54,2739.24S968,2578.91,1140,2544C1140,2544,1167.87,2689.55,974.54,2739.24Z"/></g><path class="cls-67" d="M781.22,2420s153.52-46.66,230.61,111C1011.83,2531,877.93,2594.63,781.22,2420Z"/><g class="cls-75"><path class="cls-67" d="M846.87,2576.94c-3.11-12.29-167.24,32.73-127.18,198.53C719.69,2775.47,887.24,2736.59,846.87,2576.94Z"/></g></g><path class="cls-2" d="M1147.85,2411c.17,1.68.39,3.5.62,5.44,3.36,27.62,10.81,77.7,25.26,126.17,1.46,4.94,3,9.88,4.65,14.75v0c.6,1.83,1.21,3.62,1.83,5.42q1.59,4.59,3.26,9.09a292.34,292.34,0,0,0,20.43,44.4c.45.76.87,1.49,1.33,2.25q29.58-1.77,59.1-5.55a0,0,0,0,0,0,0q2.73-.46,5.45-1,4.28-.75,8.53-1.57l.75-.15c2.2-.41,4.43-.85,6.66-1.29l5-1q3.54-.7,7.07-1.46c6.18-1.28,12.3-2.62,18.4-4,2-.43,3.92-.89,5.88-1.34,2.33-.54,4.66-1.1,7-1.66.42-.08.83-.2,1.27-.29.69.89,1.39,1.75,2.06,2.64.44-.07.88-.16,1.31-.25-.69-.91-1.41-1.79-2.11-2.7,2.94-.69,5.85-1.42,8.76-2.14,2.39-.58,4.76-1.19,7.1-1.8,2.57-.65,5.11-1.3,7.62-2l5.34-1.41c2.56-.68,5.12-1.37,7.67-2.09,28.81-7.91,56.17-16.55,81.37-25.43.34-.1.67-.23,1-.35-40.38-61.26-136-163.6-304.24-168.91,0,0,.14,1.88.48,5.33l.24,2.2Q1147.25,2405.73,1147.85,2411Z"/><path class="cls-76" d="M1147.85,2411c.17,1.68.39,3.5.62,5.44,3.36,27.62,10.81,77.7,25.26,126.17,1.46,4.94,3,9.88,4.65,14.75v0c.6,1.83,1.21,3.62,1.83,5.42q1.59,4.59,3.26,9.09a292.34,292.34,0,0,0,20.43,44.4c.45.76.87,1.49,1.33,2.25q29.58-1.77,59.1-5.55a0,0,0,0,0,0,0q2.73-.46,5.45-1,4.28-.75,8.53-1.57l.75-.15c2.2-.41,4.43-.85,6.66-1.29l5-1q3.54-.7,7.07-1.46c6.18-1.28,12.3-2.62,18.4-4,2-.43,3.92-.89,5.88-1.34,2.33-.54,4.66-1.1,7-1.66.42-.08.83-.2,1.27-.29.69.89,1.39,1.75,2.06,2.64.44-.07.88-.16,1.31-.25-.69-.91-1.41-1.79-2.11-2.7-64.07-81.65-135-152.4-184.88-198.75l0,0,.24,2.2Q1147.25,2405.73,1147.85,2411Z"/><g class="cls-34"><path class="cls-77" d="M1147.85,2411c.17,1.68.39,3.5.62,5.44,3.12,26.59,10.39,76.7,24.67,125.61q2.14,7.3,4.49,14.56c.67,2.07,1.35,4.14,2,6.18q1.56,4.59,3.22,9.08a297,297,0,0,0,21.24,46.63c.46.75.87,1.49,1.33,2.24,5.41-.32,10.79-.7,16.19-1.14,0,0,.06,0,.11,0l6.55-.9.39,0,7.21-1c2.94-.45,5.86-.89,8.78-1.36,5-.77,9.89-1.59,14.82-2.42,1.62-.29,3.22-.55,4.82-.85a0,0,0,0,0,0,0q2.73-.46,5.45-1,4.28-.75,8.53-1.57l.75-.15c2.2-.41,4.43-.85,6.66-1.29l5-1q3.54-.7,7.07-1.46c6.18-1.28,12.3-2.62,18.4-4,2-.43,3.92-.89,5.88-1.34,2.33-.54,4.66-1.1,7-1.66.42-.08.83-.2,1.27-.29.69.89,1.39,1.75,2.06,2.64.44-.07.88-.16,1.31-.25-.69-.91-1.41-1.79-2.11-2.7,2.94-.69,5.85-1.42,8.76-2.14,2.39-.58,4.76-1.19,7.1-1.8,2.57-.65,5.11-1.3,7.62-2l5.34-1.41c2.56-.68,5.12-1.37,7.67-2.09,28.81-7.91,56.17-16.55,81.37-25.43-41.09-61.45-136.52-161.81-303-167.05,0,0,.07,1.08.27,3.14,0,.44.09.9.12,1.41l.09.77Q1147.25,2405.73,1147.85,2411Z"/></g><path class="cls-78" d="M1147.85,2411c.17,1.68.39,3.5.62,5.44,3.12,26.59,10.39,76.7,24.67,125.61q2.14,7.3,4.49,14.56c.67,2.07,1.35,4.14,2,6.18q1.56,4.59,3.22,9.08a297,297,0,0,0,21.24,46.63c.46.75.87,1.49,1.33,2.24,5.41-.32,10.79-.7,16.19-1.14,0,0,.06,0,.11,0l6.55-.9.39,0,7.21-1c2.94-.45,5.86-.89,8.78-1.36,5-.77,9.89-1.59,14.82-2.42,1.62-.29,3.22-.55,4.82-.85a0,0,0,0,0,0,0q2.73-.46,5.45-1,4.28-.75,8.53-1.57l.75-.15c2.2-.41,4.43-.85,6.66-1.29l5-1q3.54-.7,7.07-1.46c6.18-1.28,12.3-2.62,18.4-4,2-.43,3.92-.89,5.88-1.34,2.33-.54,4.66-1.1,7-1.66.42-.08.83-.2,1.27-.29v0c-63.7-80.84-133.91-150.86-183.41-196.86Q1147.25,2405.73,1147.85,2411Z"/><path class="cls-2" d="M3926.62,2033.36l-2.92,33.23a268.92,268.92,0,0,1-189.49,233.65l-12.14,3.7,4.44-38.33a268.92,268.92,0,0,1,164.91-217.78Z"/><path class="cls-2" d="M3616.77,2369l29.37-8.44a248.58,248.58,0,0,1,263.11,84.57l7.23,9.12-34.23,8.83a248.6,248.6,0,0,1-241.32-68.85Z"/><path class="cls-65" d="M3926.62,2033.36l-2.92,33.23a268.92,268.92,0,0,1-189.49,233.65l-12.14,3.7,4.44-38.33a268.92,268.92,0,0,1,164.91-217.78Z"/><path class="cls-2" d="M3616.77,2369l29.37-8.44a248.58,248.58,0,0,1,263.11,84.57l7.23,9.12-34.23,8.83a248.6,248.6,0,0,1-241.32-68.85Z"/><path class="cls-2" d="M4155.57,2246.11l-26.73,20a268.92,268.92,0,0,1-300.49,14.39l-10.84-6.59,31.54-22.23a268.91,268.91,0,0,1,272.27-22.14Z"/><path class="cls-2" d="M4155.57,2246.11l-26.73,20a268.92,268.92,0,0,1-300.49,14.39l-10.84-6.59,31.54-22.23a268.91,268.91,0,0,1,272.27-22.14Z"/><path class="cls-2" d="M3926.62,2033.36l-2.92,33.23a268.92,268.92,0,0,1-189.49,233.65l-12.14,3.7,4.44-38.33a268.92,268.92,0,0,1,164.91-217.78Z"/><path class="cls-2" d="M3515.6,2403.35l6.75,36.67,9.72-7.77c46-36.73,79-86.73,95.93-141.43a.53.53,0,0,0,0-.17c14-45.35,17-93.93,7.06-140.79l-6.65-31.46-27.2,26a287.22,287.22,0,0,0-30.29,33.93C3522.23,2242.35,3501.23,2325,3515.6,2403.35Z"/><path class="cls-2" d="M3616.75,2369l24.17,25.23a248.86,248.86,0,0,0,169.44,76.46,246.31,246.31,0,0,0,71.89-7.62l34.23-8.81-7.23-9.13A248.6,248.6,0,0,0,3737.08,2352s0,0-.06,0a246.89,246.89,0,0,0-90.88,8.59Z"/><g class="cls-66"><path class="cls-67" d="M3451.37,2532.67c3.13-.55,6.27-1.1,9.4-1.67a413.24,413.24,0,0,1,31.11-46.15v0c1.73-2.24,3.45-4.46,5.24-6.63a464.34,464.34,0,0,1,40.06-43.69,560.27,560.27,0,0,1,80.86-64.17c1.56-1.06,3.09-2.07,4.67-3,0,0,0,0,.05,0,51.35-33.3,104.78-57.48,151.42-74.73,7.06-2.58,14-5.11,20.94-7.45,9-3.08,17.88-6,26.57-8.68h0c10.92-3.44,21.57-6.54,31.87-9.37,3.87-1.08,7.69-2.1,11.47-3.09,73.81-19.44,127.16-24.85,127.87-24.94a3.66,3.66,0,1,0-.69-7.29c-.74.09-52.48,5.31-124.59,24-4.32,1.12-8.69,2.28-13.15,3.5-8.89,2.43-18,5-27.39,7.89l0,0c-2.7.78-5.36,1.62-8.1,2.47q-7.73,2.38-15.65,5c-2.56.83-5.13,1.7-7.72,2.58q-11.78,4-23.79,8.41h0l-.07,0a.07.07,0,0,1-.06,0q-18,6.65-35.21,13.86h0c-4.77,2-9.53,4-14.23,6.14-49.05,21.53-93.26,46.52-131.89,74.61q-10.62,7.74-20.64,15.74s0,0,0,0q-17.07,13.65-32.46,28.12c-5.16,4.84-10.17,9.73-15.06,14.72a475.74,475.74,0,0,0-33.36,37.91c-1.77,2.24-3.5,4.48-5.2,6.75A429.82,429.82,0,0,0,3451.37,2532.67Z"/></g><path class="cls-73" d="M3926.16,2040.44l-2.93,33.24a268.9,268.9,0,0,1-189.48,233.64l-12.14,3.7,4.44-38.33A268.91,268.91,0,0,1,3891,2054.91Z"/><path class="cls-79" d="M3515.6,2403.35l6.75,36.67,9.72-7.77c46-36.73,79-86.73,95.93-141.43a.53.53,0,0,0,0-.17,298.54,298.54,0,0,0,2.17-131l-7.12-33.71L3594,2153.75a306.24,306.24,0,0,0-23,24.56C3522.23,2242.35,3501.23,2325,3515.6,2403.35Z"/><path class="cls-70" d="M3629.09,2369.83l24.17,25.22a248.8,248.8,0,0,0,157.1,75.65,246.31,246.31,0,0,0,71.89-7.62l34.23-8.81-7.23-9.13A248.6,248.6,0,0,0,3737.08,2352s0,0-.06,0a246.74,246.74,0,0,0-78.54,9.4Z"/><path class="cls-2" d="M4155.57,2246.11l-26.73,20a268.92,268.92,0,0,1-300.49,14.39l-10.84-6.59,31.54-22.23a268.91,268.91,0,0,1,272.27-22.14Z"/><path class="cls-72" d="M4155.57,2246.11l-26.73,20a268.92,268.92,0,0,1-300.49,14.39l-10.84-6.59,31.54-22.23a268.91,268.91,0,0,1,272.27-22.14Z"/><path class="cls-2" d="M3429.07,2557c-1.42.19-2.84.4-4.26.61-16.3,2.35-32.62,5-48.86,8.26-2.65.53-5.3,1.06-7.94,1.61q-2.9.6-5.74,1.23c-2.41.51-4.83,1-7.24,1.59-1.78.38-3.58.8-5.36,1.25q-10.49,2.41-20.9,5.25h0l-.06,0q-8.07,1.36-16.18,2.65c-2.12.33-4.23.67-6.37,1l-4.15.64-3.81.57c-.6.08-1.19.19-1.78.25s-1.17.19-1.76.28l-7.9,1.14c-2.77.4-5.52.78-8.3,1.16-3.68.51-7.36,1-11.07,1.51l-1.46.19c-1.46.19-2.94.38-4.4.55-2.06.27-4.11.53-6.17.78-.08-.15-.14-.32-.23-.46-1.44-2.5-2.84-5.11-4.19-7.69-.61-1.16-1.19-2.35-1.78-3.58-.95-1.8-1.88-3.68-2.81-5.52-.72-1.59-1.49-3.14-2.23-4.75q-6.66-14.48-12.21-30c-1.85-5.06-3.56-10.16-5.23-15.37a589.75,589.75,0,0,1-15.84-61.23c-2-9.68-3.73-19.35-5.32-28.95-4.95-30.17-8-59.64-9.95-86.06-4.38-60.83-2.45-105.61-2.45-105.61a378.17,378.17,0,0,1,59.6,26.74c9.4,5.25,18.27,10.79,26.72,16.6a0,0,0,0,0,0,0c3.13,2.16,6.2,4.3,9.15,6.52h0l0,0c4.59,3.39,8.95,6.78,13.27,10.31a1.29,1.29,0,0,0,.24.21l0,0c6.16,5.06,12,10.27,17.59,15.59a321.69,321.69,0,0,1,33.24,37c2.54,3.3,5,6.65,7.39,10q7.36,10.42,13.76,21.07l.05,0c.55.94,1.1,1.87,1.63,2.8h0q3.18,5.37,6.1,10.8a377,377,0,0,1,21.68,47.66s0,0,0,0c2.43,6.5,4.68,13,6.71,19.44v0a432.35,432.35,0,0,1,12.22,47.95c.48,2.55,1,5,1.37,7.48s.87,4.91,1.25,7.32.79,4.87,1.12,7.25v0c1.23,8.23,2.12,16.05,2.78,23.33C3429.05,2556.73,3429.05,2556.85,3429.07,2557Z"/><path class="cls-80" d="M3429.07,2557c-1.42.19-2.84.4-4.26.61-16.3,2.35-32.62,5-48.86,8.26-2.65.53-5.3,1.06-7.94,1.61q-2.9.6-5.74,1.23c-2.41.51-4.83,1-7.24,1.59-1.78.38-3.58.8-5.36,1.25q-10.49,2.41-20.9,5.25h0l-.06,0q-8.07,1.36-16.18,2.65c-2.12.33-4.23.67-6.37,1l-4.15.64-3.81.57c-.6.08-1.19.19-1.78.25s-1.17.19-1.76.28l-7.9,1.14c-2.77.4-5.52.78-8.3,1.16-3.68.51-7.36,1-11.07,1.51l-1.46.19c-1.46.19-2.94.38-4.4.55-2.06.27-4.11.53-6.17.78-.08-.15-.14-.32-.23-.46-1.44-2.5-2.84-5.11-4.19-7.69-.61-1.16-1.19-2.35-1.78-3.58-.95-1.8-1.88-3.68-2.81-5.52-.72-1.59-1.49-3.14-2.23-4.75q-6.66-14.48-12.21-30c-1.85-5.06-3.56-10.16-5.23-15.37a589.75,589.75,0,0,1-15.84-61.23c-2-9.68-3.73-19.35-5.32-28.95-4.95-30.17-8-59.64-9.95-86.06-4.38-60.83-2.45-105.61-2.45-105.61a378.17,378.17,0,0,1,59.6,26.74c9.4,5.25,18.27,10.79,26.72,16.6a0,0,0,0,0,0,0c3.13,2.16,6.2,4.3,9.15,6.52h0l0,0c4.59,3.39,8.95,6.78,13.27,10.31a1.29,1.29,0,0,0,.24.21l0,0c6.16,5.06,12,10.27,17.59,15.59a321.69,321.69,0,0,1,33.24,37c2.54,3.3,5,6.65,7.39,10q7.36,10.42,13.76,21.07l.05,0c.55.94,1.1,1.87,1.63,2.8h0q3.18,5.37,6.1,10.8a377,377,0,0,1,21.68,47.66s0,0,0,0c2.43,6.5,4.68,13,6.71,19.44v0a432.35,432.35,0,0,1,12.22,47.95c.48,2.55,1,5,1.37,7.48s.87,4.91,1.25,7.32.79,4.87,1.12,7.25v0c1.23,8.23,2.12,16.05,2.78,23.33C3429.05,2556.73,3429.05,2556.85,3429.07,2557Z"/><path class="cls-80" d="M3429.07,2557c-1.42.19-2.84.4-4.26.61-16.3,2.35-32.62,5-48.86,8.26-2.65.53-5.3,1.06-7.94,1.61q-2.9.6-5.74,1.23c-2.41.51-4.83,1-7.24,1.59-1.78.38-3.58.8-5.36,1.25q-10.49,2.41-20.9,5.25h0l-.06,0q-8.07,1.36-16.18,2.65c-2.12.33-4.23.67-6.37,1l-4.15.64-3.81.57c-.6.08-1.19.19-1.78.25s-1.17.19-1.76.28l-7.9,1.14c-2.77.4-5.52.78-8.3,1.16-3.68.51-7.36,1-11.07,1.51l-1.46.19c-1.46.19-2.94.38-4.4.55-2.06.27-4.11.53-6.17.78-.08-.15-.14-.32-.23-.46-1.44-2.5-2.84-5.11-4.19-7.69.23-7.56.53-15.24.89-23,.17-3.92.36-7.9.59-11.88,1-18.57,2.44-37.54,4.43-56.62,1.78-17.27,4-34.62,6.79-51.81.22-1.44.45-2.88.68-4.32.51-3.07,1-6.2,1.59-9.29.74-4.3,1.57-8.6,2.39-12.85l0,0c.57-3,1.17-6,1.78-9,.26-1.15.49-2.31.76-3.45.93-4.51,1.95-9,3-13.51a531.37,531.37,0,0,1,16.51-56.47c.47-1.31.94-2.56,1.42-3.83,1.15-3.2,2.35-6.33,3.6-9.45,1.1-2.79,2.23-5.52,3.39-8.3.17-.42.38-.86.59-1.27.81-2,1.66-3.89,2.54-5.82a1.29,1.29,0,0,0,.24.21l0,0c6.16,5.06,12,10.27,17.59,15.59a321.69,321.69,0,0,1,33.24,37c2.54,3.3,5,6.65,7.39,10q7.36,10.42,13.76,21.07l.05,0c.55.94,1.1,1.87,1.63,2.8h0q3.18,5.37,6.1,10.8a377,377,0,0,1,21.68,47.66s0,0,0,0c2.43,6.5,4.68,13,6.71,19.44v0a432.35,432.35,0,0,1,12.22,47.95c.48,2.55,1,5,1.37,7.48s.87,4.91,1.25,7.32.79,4.87,1.12,7.25v0c1.23,8.23,2.12,16.05,2.78,23.33C3429.05,2556.73,3429.05,2556.85,3429.07,2557Z"/><path class="cls-2" d="M3524.24,2436.74c0,.61-.08,1.25-.12,1.88-.28,3.31-.58,6.63-1,10a263.23,263.23,0,0,1-4.59,28.11c-.57,2.65-1.19,5.36-1.91,8s-1.31,5.1-2,7.64c-1.12,3.9-2.31,7.75-3.58,11.58-1.54,4.62-3.28,9.23-5.12,13.81-1,2.47-2.06,4.91-3.14,7.37v0c-2.07,4.68-4.29,9.35-6.71,14q-33.18,9.52-67,17.47c0,.13,0,.25,0,.38-1.42.19-2.84.4-4.26.61-16.3,2.35-32.62,5-48.86,8.26-2.65.53-5.3,1.06-7.94,1.61q-2.9.6-5.74,1.23c-2.41.51-4.83,1-7.24,1.59-1.78.38-3.58.8-5.36,1.25q-10.49,2.41-20.9,5.25h0l-.06,0q-8.07,1.36-16.18,2.65c-2.12.33-4.23.67-6.37,1l-4.15.64-3.81.57c-.6.08-1.19.19-1.78.25,0-1.1,0-2.2,0-3.32-.05-2.67-.07-5.38-.11-8.11-.3-29,.15-61.42,2-95.3q.17-3.12.36-6.27c.13-2.1.26-4.19.4-6.31q.22-3.75.51-7.56.8-11.37,1.84-22.84c.87-9.66,1.89-19.38,3.05-29.07.4-3.52.85-7,1.32-10.55q.63-5,1.33-9.89c.4-2.9.83-5.8,1.27-8.68.57-3.89,1.19-7.77,1.82-11.62.51-3.09,1-6.18,1.59-9.25.4-2.16.78-4.32,1.18-6.46s.81-4.26,1.23-6.39h0l0-.05c.58-3,1.17-5.95,1.78-8.95.26-1.13.47-2.29.77-3.45q1.39-6.76,3-13.51c1.14-4.87,2.37-9.72,3.64-14.55s2.56-9.59,3.94-14.29,2.82-9.36,4.3-13.95,3-9.21,4.66-13.7c.8-2.25,1.61-4.47,2.45-6.67.28-.74.55-1.48.85-2.22.4-1.11.83-2.19,1.27-3.27v0c.13-.36.25-.72.4-1.08.91-2.26,1.82-4.51,2.78-6.71.74-1.82,1.48-3.58,2.28-5.33,2.33-5.38,4.81-10.59,7.33-15.69.72-1.46,1.46-2.86,2.18-4.28a4.78,4.78,0,0,0,.42-.85c.68-1.25,1.36-2.54,2.1-3.79,1-1.94,2.12-3.89,3.22-5.78.74-1.35,1.52-2.64,2.28-3.91,2.29-3.92,4.7-7.69,7.2-11.4.83-1.18,1.65-2.41,2.5-3.64l2.54-3.55c1.89-2.54,3.79-5,5.74-7.48.61-.76,1.23-1.52,1.84-2.26s1.19-1.46,1.8-2.16c.15-.19.3-.36.47-.55.63-.74,1.27-1.46,1.92-2.18.32-.41.66-.79,1-1.15.53-.61,1.1-1.23,1.67-1.84.72-.83,1.48-1.59,2.2-2.37.51-.55,1.06-1.06,1.59-1.61l1.36-1.38c.87-.86,1.78-1.75,2.64-2.58.66-.63,1.34-1.27,2-1.91s1.33-1.22,2-1.86c1.37-1.23,2.77-2.39,4.15-3.58l1.42-1.16c.23-.19.46-.42.69-.59l.7-.55.55-.41c1.57-1.25,3.14-2.45,4.73-3.6l.52-.4c1-.7,2-1.42,3-2.12.66-.46,1.31-.93,2-1.35,1-.68,2.07-1.36,3.09-2,0,0,32.08,42.6,60.24,105.78a521.73,521.73,0,0,1,29.43,83.74C3521.87,2359.78,3526.93,2398.1,3524.24,2436.74Z"/><path class="cls-80" d="M3524.24,2436.74c0,.61-.08,1.25-.12,1.88-.28,3.31-.58,6.63-1,10a263.23,263.23,0,0,1-4.59,28.11c-.57,2.65-1.19,5.36-1.91,8s-1.31,5.1-2,7.64c-1.12,3.9-2.31,7.75-3.58,11.58-1.54,4.62-3.28,9.23-5.12,13.81-1,2.47-2.06,4.91-3.14,7.37v0c-2.07,4.68-4.29,9.35-6.71,14q-33.18,9.52-67,17.47c0,.13,0,.25,0,.38-1.42.19-2.84.4-4.26.61-16.3,2.35-32.62,5-48.86,8.26-2.65.53-5.3,1.06-7.94,1.61q-2.9.6-5.74,1.23c-2.41.51-4.83,1-7.24,1.59-1.78.38-3.58.8-5.36,1.25q-10.49,2.41-20.9,5.25h0l-.06,0q-8.07,1.36-16.18,2.65c-2.12.33-4.23.67-6.37,1l-4.15.64-3.81.57c-.6.08-1.19.19-1.78.25,0-1.1,0-2.2,0-3.32-.05-2.67-.07-5.38-.11-8.11-.3-29,.15-61.42,2-95.3q.17-3.12.36-6.27c.13-2.1.26-4.19.4-6.31q.22-3.75.51-7.56.8-11.37,1.84-22.84c.87-9.66,1.89-19.38,3.05-29.07.4-3.52.85-7,1.32-10.55q.63-5,1.33-9.89c.4-2.9.83-5.8,1.27-8.68.57-3.89,1.19-7.77,1.82-11.62.51-3.09,1-6.18,1.59-9.25.4-2.16.78-4.32,1.18-6.46s.81-4.26,1.23-6.39h0l0-.05c.58-3,1.17-5.95,1.78-8.95.26-1.13.47-2.29.77-3.45q1.39-6.76,3-13.51c1.14-4.87,2.37-9.72,3.64-14.55s2.56-9.59,3.94-14.29,2.82-9.36,4.3-13.95,3-9.21,4.66-13.7c.8-2.25,1.61-4.47,2.45-6.67.28-.74.55-1.48.85-2.22.4-1.11.83-2.19,1.27-3.27v0c.13-.36.25-.72.4-1.08.91-2.26,1.82-4.51,2.78-6.71.74-1.82,1.48-3.58,2.28-5.33,2.33-5.38,4.81-10.59,7.33-15.69.72-1.46,1.46-2.86,2.18-4.28a4.78,4.78,0,0,0,.42-.85c.68-1.25,1.36-2.54,2.1-3.79,1-1.94,2.12-3.89,3.22-5.78.74-1.35,1.52-2.64,2.28-3.91,2.29-3.92,4.7-7.69,7.2-11.4.83-1.18,1.65-2.41,2.5-3.64l2.54-3.55c1.89-2.54,3.79-5,5.74-7.48.61-.76,1.23-1.52,1.84-2.26s1.19-1.46,1.8-2.16c.15-.19.3-.36.47-.55.63-.74,1.27-1.46,1.92-2.18.32-.41.66-.79,1-1.15.53-.61,1.1-1.23,1.67-1.84.72-.83,1.48-1.59,2.2-2.37.51-.55,1.06-1.06,1.59-1.61l1.36-1.38c.87-.86,1.78-1.75,2.64-2.58.66-.63,1.34-1.27,2-1.91s1.33-1.22,2-1.86c1.37-1.23,2.77-2.39,4.15-3.58l1.42-1.16c.23-.19.46-.42.69-.59l.7-.55.55-.41c1.57-1.25,3.14-2.45,4.73-3.6l.52-.4c1-.7,2-1.42,3-2.12.66-.46,1.31-.93,2-1.35,1-.68,2.07-1.36,3.09-2,0,0,32.08,42.6,60.24,105.78a521.73,521.73,0,0,1,29.43,83.74C3521.87,2359.78,3526.93,2398.1,3524.24,2436.74Z"/><path class="cls-2" d="M3425.28,2347.41v0c-2.22,39.15-6.9,78.34-15,115.78v0a505.2,505.2,0,0,1-18,63.77c-.82,2.29-1.67,4.57-2.58,6.86v0c-.47,1.29-1,2.54-1.48,3.83-.6,1.55-1.19,3.1-1.82,4.62-3.24,8-6.72,15.88-10.46,23.5-2.65.53-5.3,1.06-7.94,1.61-1.91.38-3.84.78-5.74,1.23-2.41.51-4.83,1-7.24,1.59-1.78.38-3.58.8-5.36,1.25q-10.49,2.41-20.9,5.25h0l-.06,0q-8.07,1.36-16.18,2.65c-2.12.33-4.23.67-6.37,1l-4.15.64-3.81.57c-.6.08-1.19.19-1.78.25,0-1.1,0-2.2,0-3.32-.05-2.67-.07-5.38-.11-8.11-.3-29,.15-61.42,2-95.3q.17-3.12.36-6.27c.13-2.1.26-4.19.4-6.31q.22-3.75.51-7.56.8-11.37,1.84-22.84c.87-9.66,1.89-19.38,3.05-29.07.4-3.52.85-7,1.32-10.55q.63-5,1.33-9.89c.4-2.9.83-5.8,1.27-8.68.57-3.89,1.19-7.77,1.82-11.62.51-3.09,1-6.18,1.59-9.25.4-2.16.78-4.32,1.18-6.46s.83-4.26,1.25-6.39l0-.05c.58-3,1.17-5.95,1.78-8.95.26-1.13.47-2.29.77-3.45q1.39-6.76,3-13.51c1.14-4.87,2.37-9.72,3.64-14.55s2.56-9.59,3.94-14.29,2.82-9.36,4.3-13.95,3-9.21,4.66-13.7c.8-2.25,1.61-4.47,2.45-6.67.28-.74.55-1.48.85-2.22.4-1.11.83-2.19,1.27-3.27v0c.13-.36.25-.72.4-1.08.91-2.26,1.82-4.51,2.78-6.71.74-1.82,1.48-3.58,2.28-5.33,2.33-5.38,4.81-10.59,7.33-15.69.72-1.46,1.46-2.86,2.18-4.28a4.78,4.78,0,0,0,.42-.85c.68-1.25,1.36-2.54,2.1-3.79,1-1.94,2.12-3.89,3.22-5.78.74-1.35,1.52-2.64,2.28-3.91,2.29-3.92,4.7-7.69,7.2-11.4.83-1.18,1.65-2.41,2.5-3.64l2.54-3.55c1.89-2.54,3.79-5,5.74-7.48.61-.76,1.23-1.52,1.84-2.26s1.19-1.46,1.8-2.16c.15-.19.3-.36.47-.55.63-.74,1.27-1.46,1.92-2.18.32-.41.66-.79,1-1.15.53-.61,1.1-1.23,1.67-1.84.72-.83,1.48-1.59,2.2-2.37.51-.55,1.06-1.06,1.59-1.61l1.36-1.38c.87-.86,1.78-1.75,2.64-2.58.66-.63,1.34-1.27,2-1.91s1.33-1.22,2-1.86c1.37-1.23,2.77-2.39,4.15-3.58l1.42-1.16c.23-.19.46-.42.69-.59l.7-.55.55-.41c1.55-1.22,3.14-2.43,4.73-3.6l.52-.4c1-.7,2-1.42,3-2.12C3424.88,2198.84,3429.51,2273,3425.28,2347.41Z"/><path class="cls-81" d="M3425.28,2347.41v0c-2.22,39.15-6.9,78.34-15,115.78v0a505.2,505.2,0,0,1-18,63.77c-.82,2.29-1.67,4.57-2.58,6.86v0c-.47,1.29-1,2.54-1.48,3.83-.6,1.55-1.19,3.1-1.82,4.62-3.24,8-6.72,15.88-10.46,23.5-2.65.53-5.3,1.06-7.94,1.61-1.91.38-3.84.78-5.74,1.23-2.41.51-4.83,1-7.24,1.59-1.78.38-3.58.8-5.36,1.25q-10.49,2.41-20.9,5.25h0l-.06,0q-8.07,1.36-16.18,2.65c-2.12.33-4.23.67-6.37,1l-4.15.64-3.81.57c-.6.08-1.19.19-1.78.25,0-1.1,0-2.2,0-3.32-.05-2.67-.07-5.38-.11-8.11-.3-29,.15-61.42,2-95.3q.17-3.12.36-6.27c.13-2.1.26-4.19.4-6.31q.22-3.75.51-7.56.8-11.37,1.84-22.84c.87-9.66,1.89-19.38,3.05-29.07.4-3.52.85-7,1.32-10.55q.63-5,1.33-9.89c.4-2.9.83-5.8,1.27-8.68.57-3.89,1.19-7.77,1.82-11.62.51-3.09,1-6.18,1.59-9.25.4-2.16.78-4.32,1.18-6.46s.83-4.26,1.25-6.39l0-.05c.58-3,1.17-5.95,1.78-8.95.26-1.13.47-2.29.77-3.45q1.39-6.76,3-13.51c1.14-4.87,2.37-9.72,3.64-14.55s2.56-9.59,3.94-14.29,2.82-9.36,4.3-13.95,3-9.21,4.66-13.7c.8-2.25,1.61-4.47,2.45-6.67.28-.74.55-1.48.85-2.22.4-1.11.83-2.19,1.27-3.27v0c.13-.36.25-.72.4-1.08.91-2.26,1.82-4.51,2.78-6.71.74-1.82,1.48-3.58,2.28-5.33,2.33-5.38,4.81-10.59,7.33-15.69.72-1.46,1.46-2.86,2.18-4.28a4.78,4.78,0,0,0,.42-.85c.68-1.25,1.36-2.54,2.1-3.79,1-1.94,2.12-3.89,3.22-5.78.74-1.35,1.52-2.64,2.28-3.91,2.29-3.92,4.7-7.69,7.2-11.4.83-1.18,1.65-2.41,2.5-3.64l2.54-3.55c1.89-2.54,3.79-5,5.74-7.48.61-.76,1.23-1.52,1.84-2.26s1.19-1.46,1.8-2.16c.15-.19.3-.36.47-.55.63-.74,1.27-1.46,1.92-2.18.32-.41.66-.79,1-1.15.53-.61,1.1-1.23,1.67-1.84.72-.83,1.48-1.59,2.2-2.37.51-.55,1.06-1.06,1.59-1.61l1.36-1.38c.87-.86,1.78-1.75,2.64-2.58.66-.63,1.34-1.27,2-1.91s1.33-1.22,2-1.86c1.37-1.23,2.77-2.39,4.15-3.58l1.42-1.16c.23-.19.46-.42.69-.59l.7-.55.55-.41c1.55-1.22,3.14-2.43,4.73-3.6l.52-.4c1-.7,2-1.42,3-2.12C3424.88,2198.84,3429.51,2273,3425.28,2347.41Z"/></g></svg>